<svg version="1.1" xmlns="http://www.w3.org/2000/svg" x="0px" y="0px" viewBox="0 0 599.456 593.71" enable-background="new 0 0 599.456 593.71" xml:space="preserve">
  <circle fill="#FFFFFF" cx="287.793" cy="593.312" r="0.398"/>
  <circle fill="#FFFFFF" cx="300.965" cy="577.765" r="0.398"/>
  <circle fill="#FFFFFF" cx="306.237" cy="570.749" r="0.398"/>
  <circle fill="#FFFFFF" cx="282.496" cy="577.496" r="0.398"/>
  <circle fill="#FFFFFF" cx="257.775" cy="561.358" r="0.398"/>
  <circle fill="#FFFFFF" cx="287.624" cy="531.427" r="0.398"/>
  <circle fill="#FFFFFF" cx="240.963" cy="524.725" r="0.398"/>
  <circle fill="#FFFFFF" cx="183.157" cy="514.396" r="0.398"/>
  <circle fill="#FFFFFF" cx="146.147" cy="518.592" r="0.398"/>
  <circle fill="#FFFFFF" cx="104.511" cy="517.893" r="0.398"/>
  <circle fill="#FFFFFF" cx="256.101" cy="518.162" r="0.398"/>
  <circle fill="#FFFFFF" cx="238.941" cy="508.156" r="0.398"/>
  <circle fill="#FFFFFF" cx="199.887" cy="510.716" r="0.398"/>
  <circle fill="#FFFFFF" cx="176.917" cy="528.63" r="0.878"/>
  <circle fill="#FFFFFF" cx="198.757" cy="549.255" r="0.398"/>
  <circle fill="#FFFFFF" cx="133.344" cy="531.072" r="0.398"/>
  <circle fill="#FFFFFF" cx="161.909" cy="535.86" r="0.398"/>
  <circle fill="#FFFFFF" cx="157.283" cy="564.317" r="0.398"/>
  <circle fill="#FFFFFF" cx="173.604" cy="534.838" r="0.398"/>
  <circle fill="#FFFFFF" cx="251.83" cy="575.56" r="0.398"/>
  <circle fill="#FFFFFF" cx="233.537" cy="567.437" r="0.398"/>
  <circle fill="#FFFFFF" cx="264.063" cy="490.566" r="0.398"/>
  <circle fill="#FFFFFF" cx="265.408" cy="485.402" r="0.398"/>
  <circle fill="#FFFFFF" cx="269.012" cy="468.726" r="0.398"/>
  <circle fill="#FFFFFF" cx="290.991" cy="439.161" r="0.398"/>
  <circle fill="#FFFFFF" cx="255.079" cy="448.176" r="0.398"/>
  <circle fill="#FFFFFF" cx="245.988" cy="476.956" r="0.398"/>
  <circle fill="#FFFFFF" cx="231.55" cy="480.291" r="0.398"/>
  <circle fill="#FFFFFF" cx="224.202" cy="470.501" r="0.398"/>
  <circle fill="#FFFFFF" cx="229.581" cy="462.001" r="0.398"/>
  <circle fill="#FFFFFF" cx="238.134" cy="452.103" r="0.398"/>
  <circle fill="#FFFFFF" cx="230.872" cy="439.785" r="0.398"/>
  <circle fill="#FFFFFF" cx="180.414" cy="423.001" r="0.398"/>
  <circle fill="#FFFFFF" cx="256.317" cy="402.376" r="0.398"/>
  <circle fill="#FFFFFF" cx="235.714" cy="399.762" r="0.398"/>
  <circle fill="#FFFFFF" cx="224.094" cy="399.762" r="0.398"/>
  <circle fill="#FFFFFF" cx="244.321" cy="384.915" r="0.398"/>
  <circle fill="#FFFFFF" cx="266.936" cy="371.951" r="0.398"/>
  <circle fill="#FFFFFF" cx="291.444" cy="365.711" r="0.398"/>
  <circle fill="#FFFFFF" cx="259.652" cy="351.348" r="0.398"/>
  <circle fill="#FFFFFF" cx="247.979" cy="353.607" r="0.398"/>
  <circle fill="#FFFFFF" cx="239.802" cy="362.752" r="0.398"/>
  <circle fill="#FFFFFF" cx="245.127" cy="368.701" r="0.398"/>
  <circle fill="#FFFFFF" cx="233.669" cy="352.639" r="0.398"/>
  <circle fill="#FFFFFF" cx="221.566" cy="356.727" r="0.398"/>
  <circle fill="#FFFFFF" cx="189.881" cy="365.097" r="0.398"/>
  <circle fill="#FFFFFF" cx="171.452" cy="388.788" r="0.398"/>
  <circle fill="#FFFFFF" cx="199.403" cy="400.3" r="0.398"/>
  <circle fill="#FFFFFF" cx="130.515" cy="374.587" r="0.398"/>
  <circle fill="#FFFFFF" cx="112.849" cy="389.187" r="0.878"/>
  <circle fill="#FFFFFF" cx="101.176" cy="393.845" r="0.398"/>
  <circle fill="#FFFFFF" cx="105.372" cy="383.032" r="0.398"/>
  <circle fill="#FFFFFF" cx="104.318" cy="373.188" r="0.398"/>
  <circle fill="#FFFFFF" cx="74.656" cy="361.138" r="0.398"/>
  <circle fill="#FFFFFF" cx="107.846" cy="358.072" r="0.398"/>
  <circle fill="#FFFFFF" cx="84.338" cy="375.416" r="0.398"/>
  <circle fill="#FFFFFF" cx="66.264" cy="379.159" r="0.398"/>
  <circle fill="#FFFFFF" cx="10.964" cy="390.133" r="0.398"/>
  <circle fill="#FFFFFF" cx="46.005" cy="399.117" r="0.398"/>
  <circle fill="#FFFFFF" cx="40.389" cy="416.008" r="0.878"/>
  <circle fill="#FFFFFF" cx="74.225" cy="449.414" r="0.398"/>
  <circle fill="#FFFFFF" cx="125.19" cy="447.692" r="0.398"/>
  <circle fill="#FFFFFF" cx="145.556" cy="433.814" r="0.398"/>
  <circle fill="#FFFFFF" cx="183.857" cy="433.415" r="0.398"/>
  <circle fill="#FFFFFF" cx="185.255" cy="411.866" r="0.398"/>
  <circle fill="#FFFFFF" cx="117.475" cy="455.977" r="0.398"/>
  <circle fill="#FFFFFF" cx="163.523" cy="476.848" r="0.398"/>
  <circle fill="#FFFFFF" cx="164.814" cy="464.261" r="0.398"/>
  <circle fill="#FFFFFF" cx="186.062" cy="479.839" r="0.398"/>
  <circle fill="#FFFFFF" cx="202.093" cy="498.796" r="0.398"/>
  <circle fill="#FFFFFF" cx="89.395" cy="487.123" r="0.398"/>
  <circle fill="#FFFFFF" cx="89.686" cy="483.895" r="0.398"/>
  <circle fill="#FFFFFF" cx="79.013" cy="487.123" r="0.398"/>
  <circle fill="#FFFFFF" cx="56.742" cy="396.857" r="0.398"/>
  <circle fill="#FFFFFF" cx="45.715" cy="446.509" r="0.398"/>
  <circle fill="#FFFFFF" cx="75.022" cy="483.035" r="0.398"/>
  <circle fill="#FFFFFF" cx="80.067" cy="476.848" r="0.398"/>
  <circle fill="#FFFFFF" cx="112.203" cy="481.238" r="0.398"/>
  <circle fill="#FFFFFF" cx="115.7" cy="339.513" r="0.398"/>
  <circle fill="#FFFFFF" cx="96.227" cy="310.142" r="0.398"/>
  <circle fill="#FFFFFF" cx="72.611" cy="311.218" r="0.398"/>
  <circle fill="#FFFFFF" cx="50.986" cy="309.443" r="0.398"/>
  <circle fill="#FFFFFF" cx="46.253" cy="304.763" r="0.398"/>
  <circle fill="#FFFFFF" cx="21.723" cy="290.292" r="0.878"/>
  <circle fill="#FFFFFF" cx="18.71" cy="260.222" r="0.398"/>
  <circle fill="#FFFFFF" cx="54.913" cy="241.717" r="0.398"/>
  <circle fill="#FFFFFF" cx="6.876" cy="250.808" r="0.398"/>
  <circle fill="#FFFFFF" cx="12.632" cy="236.929" r="0.398"/>
  <circle fill="#FFFFFF" cx="10.318" cy="254.197" r="0.398"/>
  <circle fill="#FFFFFF" cx="0.398" cy="245.45" r="0.398"/>
  <circle fill="#FFFFFF" cx="11.771" cy="269.721" r="0.398"/>
  <circle fill="#FFFFFF" cx="31.965" cy="267.161" r="0.398"/>
  <circle fill="#FFFFFF" cx="64.65" cy="290.615" r="0.398"/>
  <circle fill="#FFFFFF" cx="64.22" cy="300.352" r="0.398"/>
  <circle fill="#FFFFFF" cx="74.709" cy="300.352" r="0.398"/>
  <circle fill="#FFFFFF" cx="84.199" cy="294.434" r="0.398"/>
  <circle fill="#FFFFFF" cx="89.556" cy="290.292" r="0.398"/>
  <circle fill="#FFFFFF" cx="106.286" cy="273.24" r="0.398"/>
  <circle fill="#FFFFFF" cx="127.987" cy="290.691" r="0.398"/>
  <circle fill="#FFFFFF" cx="128.611" cy="287.957" r="0.398"/>
  <circle fill="#FFFFFF" cx="151.311" cy="296.425" r="0.398"/>
  <circle fill="#FFFFFF" cx="179.445" cy="296.026" r="0.398"/>
  <circle fill="#FFFFFF" cx="184.233" cy="293.896" r="0.398"/>
  <circle fill="#FFFFFF" cx="203.384" cy="272.002" r="0.398"/>
  <circle fill="#FFFFFF" cx="296.393" cy="284.375" r="0.398"/>
  <circle fill="#FFFFFF" cx="260.997" cy="261.136" r="0.398"/>
  <circle fill="#FFFFFF" cx="246.849" cy="262.696" r="0.398"/>
  <circle fill="#FFFFFF" cx="269.604" cy="245.482" r="0.398"/>
  <circle fill="#FFFFFF" cx="267.344" cy="240.91" r="0.398"/>
  <circle fill="#FFFFFF" cx="253.842" cy="235.692" r="0.398"/>
  <circle fill="#FFFFFF" cx="237.166" cy="243.653" r="0.398"/>
  <circle fill="#FFFFFF" cx="230.496" cy="251.937" r="0.398"/>
  <circle fill="#FFFFFF" cx="221.942" cy="250.055" r="0.398"/>
  <circle fill="#FFFFFF" cx="219.898" cy="234.239" r="0.398"/>
  <circle fill="#FFFFFF" cx="216.724" cy="232.464" r="0.398"/>
  <circle fill="#FFFFFF" cx="221.996" cy="211.7" r="0.398"/>
  <circle fill="#FFFFFF" cx="179.069" cy="238.919" r="0.398"/>
  <circle fill="#FFFFFF" cx="182.189" cy="232.464" r="0.398"/>
  <circle fill="#FFFFFF" cx="174.227" cy="234.185" r="0.398"/>
  <circle fill="#FFFFFF" cx="166.589" cy="235.261" r="0.398"/>
  <circle fill="#FFFFFF" cx="173.829" cy="229.667" r="0.398"/>
  <circle fill="#FFFFFF" cx="146.309" cy="237.951" r="0.398"/>
  <circle fill="#FFFFFF" cx="150.236" cy="222.405" r="0.398"/>
  <circle fill="#FFFFFF" cx="141.951" cy="204.061" r="0.398"/>
  <circle fill="#FFFFFF" cx="138.347" cy="187.6" r="0.398"/>
  <circle fill="#FFFFFF" cx="156.669" cy="174.528" r="0.398"/>
  <circle fill="#FFFFFF" cx="173.851" cy="182.167" r="0.398"/>
  <circle fill="#FFFFFF" cx="175.25" cy="177.057" r="0.398"/>
  <circle fill="#FFFFFF" cx="180.629" cy="176.035" r="0.398"/>
  <circle fill="#FFFFFF" cx="166.589" cy="207.665" r="0.398"/>
  <circle fill="#FFFFFF" cx="185.847" cy="213.959" r="0.398"/>
  <circle fill="#FFFFFF" cx="187.299" cy="209.956" r="0.398"/>
  <circle fill="#FFFFFF" cx="192.141" cy="212.991" r="0.398"/>
  <circle fill="#FFFFFF" cx="190.85" cy="210.979" r="0.398"/>
  <circle fill="#FFFFFF" cx="199.887" cy="203.663" r="0.398"/>
  <circle fill="#FFFFFF" cx="213.152" cy="205.245" r="0.398"/>
  <circle fill="#FFFFFF" cx="209.624" cy="193.195" r="0.398"/>
  <circle fill="#FFFFFF" cx="220.544" cy="188.806" r="0.398"/>
  <circle fill="#FFFFFF" cx="242.223" cy="176.949" r="0.398"/>
  <circle fill="#FFFFFF" cx="242.223" cy="169.418" r="0.398"/>
  <circle fill="#FFFFFF" cx="257.123" cy="158.659" r="0.398"/>
  <circle fill="#FFFFFF" cx="272.939" cy="158.261" r="0.398"/>
  <circle fill="#FFFFFF" cx="264.493" cy="135.098" r="0.398"/>
  <circle fill="#FFFFFF" cx="257.554" cy="127.889" r="0.398"/>
  <circle fill="#FFFFFF" cx="287.355" cy="123.64" r="0.398"/>
  <circle fill="#FFFFFF" cx="269.711" cy="108.9" r="0.398"/>
  <circle fill="#FFFFFF" cx="265.708" cy="94.376" r="0.398"/>
  <circle fill="#FFFFFF" cx="254.757" cy="79.407" r="0.398"/>
  <circle fill="#FFFFFF" cx="285.257" cy="60.948" r="0.398"/>
  <circle fill="#FFFFFF" cx="301.525" cy="16.397" r="0.398"/>
  <circle fill="#FFFFFF" cx="241.577" cy="24.606" r="0.398"/>
  <circle fill="#FFFFFF" cx="225.116" cy="29.824" r="0.398"/>
  <circle fill="#FFFFFF" cx="302.31" cy="77.754" r="0.398"/>
  <circle fill="#FFFFFF" cx="244.643" cy="78.561" r="0.398"/>
  <circle fill="#FFFFFF" cx="230.388" cy="86.952" r="0.398"/>
  <circle fill="#FFFFFF" cx="228.236" cy="97.227" r="0.398"/>
  <circle fill="#FFFFFF" cx="237.973" cy="103.897" r="0.398"/>
  <circle fill="#FFFFFF" cx="228.774" cy="74.695" r="0.398"/>
  <circle fill="#FFFFFF" cx="266.107" cy="99.755" r="0.398"/>
  <circle fill="#FFFFFF" cx="285.957" cy="117.4" r="0.398"/>
  <circle fill="#FFFFFF" cx="275.79" cy="165.039" r="0.398"/>
  <circle fill="#FFFFFF" cx="280.233" cy="176.433" r="0.398"/>
  <circle fill="#FFFFFF" cx="283.644" cy="177.864" r="0.398"/>
  <circle fill="#FFFFFF" cx="302.74" cy="186.793" r="0.398"/>
  <circle fill="#FFFFFF" cx="300.589" cy="180.876" r="0.398"/>
  <circle fill="#FFFFFF" cx="300.987" cy="166.029" r="0.398"/>
  <circle fill="#FFFFFF" cx="264.17" cy="184.319" r="0.398"/>
  <circle fill="#FFFFFF" cx="276.973" cy="190.236" r="0.398"/>
  <circle fill="#FFFFFF" cx="274.306" cy="196.131" r="0.398"/>
  <circle fill="#FFFFFF" cx="258.522" cy="201.21" r="0.398"/>
  <circle fill="#FFFFFF" cx="277.372" cy="201.587" r="0.398"/>
  <circle fill="#FFFFFF" cx="286.925" cy="205.998" r="0.398"/>
  <circle fill="#FFFFFF" cx="187.698" cy="193.195" r="0.398"/>
  <circle fill="#FFFFFF" cx="223.556" cy="273.67" r="0.398"/>
  <circle fill="#FFFFFF" cx="182.189" cy="263.234" r="0.398"/>
  <circle fill="#FFFFFF" cx="111.988" cy="261.674" r="0.398"/>
  <circle fill="#FFFFFF" cx="134.313" cy="266.515" r="0.398"/>
  <circle fill="#FFFFFF" cx="129.633" cy="261.276" r="0.398"/>
  <circle fill="#FFFFFF" cx="139.961" cy="255.273" r="0.398"/>
  <circle fill="#FFFFFF" cx="149.213" cy="257.263" r="0.398"/>
  <circle fill="#FFFFFF" cx="153.947" cy="267.968" r="0.878"/>
  <circle fill="#FFFFFF" cx="52.869" cy="276.252" r="0.398"/>
  <circle fill="#FFFFFF" cx="29.039" cy="299.114" r="0.398"/>
  <circle fill="#FFFFFF" cx="39.206" cy="284.084" r="0.398"/>
  <circle fill="#FFFFFF" cx="60.831" cy="267.161" r="0.398"/>
  <circle fill="#FFFFFF" cx="55.559" cy="236.122" r="0.398"/>
  <circle fill="#FFFFFF" cx="51.502" cy="225.578" r="0.398"/>
  <circle fill="#FFFFFF" cx="76.216" cy="239.619" r="0.398"/>
  <circle fill="#FFFFFF" cx="41.465" cy="220.845" r="0.398"/>
  <circle fill="#FFFFFF" cx="39.029" cy="214.712" r="0.398"/>
  <circle fill="#FFFFFF" cx="28.339" cy="211.883" r="0.398"/>
  <circle fill="#FFFFFF" cx="17.312" cy="212.68" r="0.398"/>
  <circle fill="#FFFFFF" cx="13.438" cy="217.563" r="0.398"/>
  <circle fill="#FFFFFF" cx="55.16" cy="204.814" r="0.398"/>
  <circle fill="#FFFFFF" cx="65.479" cy="210.032" r="0.398"/>
  <circle fill="#FFFFFF" cx="68.631" cy="207.127" r="0.878"/>
  <circle fill="#FFFFFF" cx="64.112" cy="203.2" r="0.398"/>
  <circle fill="#FFFFFF" cx="99.185" cy="185.825" r="0.398"/>
  <circle fill="#FFFFFF" cx="112.526" cy="176.035" r="0.398"/>
  <circle fill="#FFFFFF" cx="116.722" cy="173.56" r="0.398"/>
  <circle fill="#FFFFFF" cx="113.817" cy="173.614" r="0.398"/>
  <circle fill="#FFFFFF" cx="115.431" cy="172.43" r="0.398"/>
  <circle fill="#FFFFFF" cx="115.431" cy="173.883" r="0.398"/>
  <circle fill="#FFFFFF" cx="72.99" cy="166.298" r="0.398"/>
  <circle fill="#FFFFFF" cx="54.375" cy="175.636" r="0.398"/>
  <circle fill="#FFFFFF" cx="52.815" cy="158.121" r="0.398"/>
  <circle fill="#FFFFFF" cx="93.268" cy="138.863" r="0.398"/>
  <circle fill="#FFFFFF" cx="87.405" cy="128.75" r="0.398"/>
  <circle fill="#FFFFFF" cx="87.243" cy="125.2" r="0.398"/>
  <circle fill="#FFFFFF" cx="55.828" cy="120.143" r="0.398"/>
  <circle fill="#FFFFFF" cx="107.276" cy="102.66" r="0.398"/>
  <circle fill="#FFFFFF" cx="122.586" cy="93.569" r="0.398"/>
  <circle fill="#FFFFFF" cx="108.976" cy="75.387" r="0.398"/>
  <circle fill="#FFFFFF" cx="106.932" cy="64.951" r="0.398"/>
  <circle fill="#FFFFFF" cx="134.366" cy="76.785" r="0.398"/>
  <circle fill="#FFFFFF" cx="150.02" cy="67.425" r="0.398"/>
  <circle fill="#FFFFFF" cx="124.038" cy="137.465" r="0.398"/>
  <circle fill="#FFFFFF" cx="136.841" cy="131.924" r="0.398"/>
  <circle fill="#FFFFFF" cx="157.067" cy="140.262" r="0.398"/>
  <circle fill="#FFFFFF" cx="162.608" cy="143.866" r="0.398"/>
  <circle fill="#FFFFFF" cx="193.324" cy="139.465" r="0.398"/>
  <circle fill="#FFFFFF" cx="206.45" cy="147.309" r="0.398"/>
  <circle fill="#FFFFFF" cx="229.151" cy="145.318" r="0.398"/>
  <circle fill="#FFFFFF" cx="232.809" cy="146.771" r="0.398"/>
  <circle fill="#FFFFFF" cx="203.2" cy="116.302" r="0.398"/>
  <circle fill="#FFFFFF" cx="189.992" cy="101.261" r="0.398"/>
  <circle fill="#FFFFFF" cx="186.654" cy="86.554" r="0.398"/>
  <circle fill="#FFFFFF" cx="202.254" cy="64.096" r="0.398"/>
  <circle fill="#FFFFFF" cx="179.177" cy="51.798" r="0.398"/>
  <circle fill="#FFFFFF" cx="178.208" cy="39.022" r="0.398"/>
  <circle fill="#FFFFFF" cx="160.757" cy="39.022" r="0.398"/>
  <circle fill="#FFFFFF" cx="150.989" cy="42.874" r="0.398"/>
  <circle fill="#FFFFFF" cx="187.622" cy="86.016" r="0.398"/>
  <circle fill="#FFFFFF" cx="173.389" cy="160.434" r="0.398"/>
  <circle fill="#FFFFFF" cx="181.974" cy="167.966" r="0.398"/>
  <circle fill="#FFFFFF" cx="142.328" cy="164.308" r="0.398"/>
  <circle fill="#FFFFFF" cx="162.608" cy="137.303" r="0.398"/>
  <circle fill="#FFFFFF" cx="69.814" cy="201.533" r="0.398"/>
  <circle fill="#FFFFFF" cx="77.076" cy="199.166" r="0.398"/>
  <circle fill="#FFFFFF" cx="75.624" cy="197.283" r="0.398"/>
  <circle fill="#FFFFFF" cx="77.076" cy="195.669" r="0.398"/>
  <circle fill="#FFFFFF" cx="79.712" cy="203.416" r="0.398"/>
  <circle fill="#FFFFFF" cx="90.686" cy="204.653" r="0.398"/>
  <circle fill="#FFFFFF" cx="92.085" cy="206.32" r="0.398"/>
  <circle fill="#FFFFFF" cx="88.911" cy="194.701" r="0.398"/>
  <circle fill="#FFFFFF" cx="86.705" cy="221.06" r="0.398"/>
  <circle fill="#FFFFFF" cx="72.592" cy="189.967" r="0.398"/>
  <circle fill="#FFFFFF" cx="69.76" cy="196.454" r="0.398"/>
  <circle fill="#FFFFFF" cx="69.76" cy="198.789" r="0.398"/>
  <circle fill="#FFFFFF" cx="69.029" cy="199.564" r="0.398"/>
  <circle fill="#FFFFFF" cx="66.748" cy="195.669" r="0.398"/>
  <circle fill="#FFFFFF" cx="48.781" cy="199.327" r="0.398"/>
  <circle fill="#FFFFFF" cx="72.558" cy="264.041" r="0.398"/>
  <circle fill="#FFFFFF" cx="29.039" cy="269.151" r="0.398"/>
  <circle fill="#FFFFFF" cx="30.007" cy="266.139" r="0.398"/>
  <circle fill="#FFFFFF" cx="66.318" cy="326.119" r="0.398"/>
  <circle fill="#FFFFFF" cx="47.651" cy="324.559" r="0.398"/>
  <circle fill="#FFFFFF" cx="34.095" cy="344.387" r="0.398"/>
  <circle fill="#FFFFFF" cx="48.404" cy="357.674" r="0.398"/>
  <circle fill="#FFFFFF" cx="11.847" cy="357.534" r="0.398"/>
  <circle fill="#FFFFFF" cx="45.607" cy="345.753" r="0.398"/>
  <circle fill="#FFFFFF" cx="23.52" cy="336.232" r="0.398"/>
  <circle fill="#FFFFFF" cx="13.654" cy="326.119" r="0.398"/>
  <circle fill="#FFFFFF" cx="44.24" cy="309.443" r="0.398"/>
  <circle fill="#FFFFFF" cx="114.248" cy="385.915" r="0.398"/>
  <circle fill="#FFFFFF" cx="196.767" cy="322.784" r="0.398"/>
  <circle fill="#FFFFFF" cx="153.087" cy="334.08" r="0.398"/>
  <circle fill="#FFFFFF" cx="171.452" cy="342.472" r="0.398"/>
  <circle fill="#FFFFFF" cx="172.022" cy="347.367" r="0.398"/>
  <circle fill="#FFFFFF" cx="117.776" cy="370.875" r="0.398"/>
  <circle fill="#FFFFFF" cx="199.026" cy="317.081" r="0.398"/>
  <circle fill="#FFFFFF" cx="282.944" cy="320.201" r="0.398"/>
  <circle fill="#FFFFFF" cx="257.608" cy="307.936" r="0.398"/>
  <circle fill="#FFFFFF" cx="195.508" cy="305.408" r="0.398"/>
  <circle fill="#FFFFFF" cx="230.496" cy="301.75" r="0.398"/>
  <circle fill="#FFFFFF" cx="220.221" cy="388.197" r="0.398"/>
  <circle fill="#FFFFFF" cx="211.991" cy="391.693" r="0.398"/>
  <circle fill="#FFFFFF" cx="212.744" cy="459.581" r="0.398"/>
  <circle fill="#FFFFFF" cx="192.517" cy="442.152" r="0.398"/>
  <circle fill="#FFFFFF" cx="370.09" cy="579.809" r="0.398"/>
  <circle fill="#FFFFFF" cx="321.999" cy="539.357" r="0.398"/>
  <circle fill="#FFFFFF" cx="334.479" cy="521.389" r="0.398"/>
  <circle fill="#FFFFFF" cx="373.533" cy="529.889" r="0.398"/>
  <circle fill="#FFFFFF" cx="416.137" cy="563.51" r="0.398"/>
  <circle fill="#FFFFFF" cx="450.673" cy="553.451" r="0.398"/>
  <circle fill="#FFFFFF" cx="433.351" cy="495.084" r="0.878"/>
  <circle fill="#FFFFFF" cx="418.181" cy="481.399" r="0.398"/>
  <circle fill="#FFFFFF" cx="466.381" cy="492.933" r="0.398"/>
  <circle fill="#FFFFFF" cx="462.723" cy="472.115" r="0.398"/>
  <circle fill="#FFFFFF" cx="456.59" cy="450.382" r="0.398"/>
  <circle fill="#FFFFFF" cx="516.086" cy="455.04" r="0.398"/>
  <circle fill="#FFFFFF" cx="532.87" cy="450.113" r="0.398"/>
  <circle fill="#FFFFFF" cx="543.79" cy="450.78" r="0.398"/>
  <circle fill="#FFFFFF" cx="572.569" cy="420.688" r="0.398"/>
  <circle fill="#FFFFFF" cx="574.291" cy="409.122" r="0.398"/>
  <circle fill="#FFFFFF" cx="545.995" cy="395.351" r="0.398"/>
  <circle fill="#FFFFFF" cx="517.646" cy="395.75" r="0.398"/>
  <circle fill="#FFFFFF" cx="558.314" cy="373.134" r="0.398"/>
  <circle fill="#FFFFFF" cx="553.472" cy="358.234" r="0.398"/>
  <circle fill="#FFFFFF" cx="550.245" cy="346.775" r="0.398"/>
  <circle fill="#FFFFFF" cx="586.502" cy="338.706" r="0.398"/>
  <circle fill="#FFFFFF" cx="593.71" cy="312.186" r="0.398"/>
  <circle fill="#FFFFFF" cx="598.39" cy="353.769" r="0.398"/>
  <circle fill="#FFFFFF" cx="535.021" cy="399.493" r="0.398"/>
  <circle fill="#FFFFFF" cx="510.061" cy="435.535" r="0.398"/>
  <circle fill="#FFFFFF" cx="515.44" cy="425.529" r="0.398"/>
  <circle fill="#FFFFFF" cx="503.584" cy="428.058" r="0.398"/>
  <circle fill="#FFFFFF" cx="495.429" cy="431.5" r="0.398"/>
  <circle fill="#FFFFFF" cx="497.258" cy="420.688" r="0.398"/>
  <circle fill="#FFFFFF" cx="477.623" cy="417.837" r="0.398"/>
  <circle fill="#FFFFFF" cx="481.981" cy="412.942" r="0.398"/>
  <circle fill="#FFFFFF" cx="497.688" cy="408.1" r="0.398"/>
  <circle fill="#FFFFFF" cx="461.969" cy="423.378" r="0.398"/>
  <circle fill="#FFFFFF" cx="458.634" cy="414.802" r="0.398"/>
  <circle fill="#FFFFFF" cx="444.271" cy="422.409" r="0.398"/>
  <circle fill="#FFFFFF" cx="419.128" cy="413.856" r="0.398"/>
  <circle fill="#FFFFFF" cx="438.408" cy="408.1" r="0.398"/>
  <circle fill="#FFFFFF" cx="436.364" cy="381.257" r="0.398"/>
  <circle fill="#FFFFFF" cx="455.353" cy="394.383" r="0.398"/>
  <circle fill="#FFFFFF" cx="460.033" cy="380.859" r="0.398"/>
  <circle fill="#FFFFFF" cx="481.582" cy="379.267" r="0.398"/>
  <circle fill="#FFFFFF" cx="476.494" cy="397.019" r="0.398"/>
  <circle fill="#FFFFFF" cx="483.433" cy="405.088" r="0.398"/>
  <circle fill="#FFFFFF" cx="453.363" cy="443.797" r="0.398"/>
  <circle fill="#FFFFFF" cx="440.237" cy="458.666" r="0.398"/>
  <circle fill="#FFFFFF" cx="423.937" cy="455.04" r="0.398"/>
  <circle fill="#FFFFFF" cx="427.111" cy="455.439" r="0.398"/>
  <circle fill="#FFFFFF" cx="404.249" cy="448.284" r="0.398"/>
  <circle fill="#FFFFFF" cx="383.216" cy="419.289" r="0.398"/>
  <circle fill="#FFFFFF" cx="373.102" cy="404.442" r="0.398"/>
  <circle fill="#FFFFFF" cx="371.004" cy="404.388" r="0.398"/>
  <circle fill="#FFFFFF" cx="376.222" cy="400.408" r="0.398"/>
  <circle fill="#FFFFFF" cx="402.797" cy="395.997" r="0.398"/>
  <circle fill="#FFFFFF" cx="381.419" cy="361.214" r="0.398"/>
  <circle fill="#FFFFFF" cx="344.699" cy="371.036" r="0.398"/>
  <circle fill="#FFFFFF" cx="339.966" cy="372.005" r="0.398"/>
  <circle fill="#FFFFFF" cx="309.949" cy="364.258" r="0.398"/>
  <circle fill="#FFFFFF" cx="329.099" cy="335.102" r="0.398"/>
  <circle fill="#FFFFFF" cx="334.263" cy="319.578" r="0.398"/>
  <circle fill="#FFFFFF" cx="325.71" cy="304.978" r="0.398"/>
  <circle fill="#FFFFFF" cx="311.687" cy="297.931" r="0.398"/>
  <circle fill="#FFFFFF" cx="360.138" cy="301.32" r="0.398"/>
  <circle fill="#FFFFFF" cx="358.255" cy="291.153" r="0.398"/>
  <circle fill="#FFFFFF" cx="362.882" cy="290.754" r="0.398"/>
  <circle fill="#FFFFFF" cx="361.483" cy="281.685" r="0.398"/>
  <circle fill="#FFFFFF" cx="353.253" cy="278.404" r="0.398"/>
  <circle fill="#FFFFFF" cx="335.232" cy="274.477" r="0.398"/>
  <circle fill="#FFFFFF" cx="359.654" cy="266.139" r="0.398"/>
  <circle fill="#FFFFFF" cx="363.28" cy="269.635" r="0.398"/>
  <circle fill="#FFFFFF" cx="377.482" cy="268.291" r="0.398"/>
  <circle fill="#FFFFFF" cx="364.334" cy="258.5" r="0.398"/>
  <circle fill="#FFFFFF" cx="357.825" cy="354.898" r="0.398"/>
  <circle fill="#FFFFFF" cx="392.414" cy="348.873" r="0.398"/>
  <circle fill="#FFFFFF" cx="406.347" cy="332.52" r="0.398"/>
  <circle fill="#FFFFFF" cx="380.849" cy="319.664" r="0.398"/>
  <circle fill="#FFFFFF" cx="371.435" cy="303.741" r="0.398"/>
  <circle fill="#FFFFFF" cx="429.478" cy="369.154" r="0.398"/>
  <circle fill="#FFFFFF" cx="434.75" cy="367.486" r="0.398"/>
  <circle fill="#FFFFFF" cx="433.674" cy="359.094" r="0.398"/>
  <circle fill="#FFFFFF" cx="449.543" cy="355.49" r="0.398"/>
  <circle fill="#FFFFFF" cx="441.635" cy="341.719" r="0.398"/>
  <circle fill="#FFFFFF" cx="462.83" cy="353.047" r="0.398"/>
  <circle fill="#FFFFFF" cx="475.31" cy="329.239" r="0.398"/>
  <circle fill="#FFFFFF" cx="476.494" cy="324.72" r="0.398"/>
  <circle fill="#FFFFFF" cx="488.974" cy="332.197" r="0.398"/>
  <circle fill="#FFFFFF" cx="492.847" cy="348.013" r="0.398"/>
  <circle fill="#FFFFFF" cx="447.983" cy="309.819" r="0.398"/>
  <circle fill="#FFFFFF" cx="478.269" cy="299.437" r="0.398"/>
  <circle fill="#FFFFFF" cx="481.55" cy="280.878" r="0.398"/>
  <circle fill="#FFFFFF" cx="470.953" cy="268.721" r="0.878"/>
  <circle fill="#FFFFFF" cx="467.08" cy="263.664" r="0.398"/>
  <circle fill="#FFFFFF" cx="473.804" cy="262.266" r="0.398"/>
  <circle fill="#FFFFFF" cx="451.103" cy="259.432" r="0.398"/>
  <circle fill="#FFFFFF" cx="474.396" cy="254.412" r="0.398"/>
  <circle fill="#FFFFFF" cx="465.681" cy="239.242" r="0.398"/>
  <circle fill="#FFFFFF" cx="486.93" cy="255.165" r="0.398"/>
  <circle fill="#FFFFFF" cx="462.992" cy="242.308" r="0.398"/>
  <circle fill="#FFFFFF" cx="472.89" cy="223.481" r="0.398"/>
  <circle fill="#FFFFFF" cx="483.541" cy="211.754" r="0.398"/>
  <circle fill="#FFFFFF" cx="470.953" cy="207.181" r="0.398"/>
  <circle fill="#FFFFFF" cx="462.238" cy="206.536" r="0.398"/>
  <circle fill="#FFFFFF" cx="452.394" cy="212.345" r="0.398"/>
  <circle fill="#FFFFFF" cx="451.996" cy="200.457" r="0.398"/>
  <circle fill="#FFFFFF" cx="444.863" cy="197.229" r="0.398"/>
  <circle fill="#FFFFFF" cx="517.377" cy="201.479" r="0.398"/>
  <circle fill="#FFFFFF" cx="411.888" cy="299.706" r="0.398"/>
  <circle fill="#FFFFFF" cx="404.948" cy="285.612" r="0.398"/>
  <circle fill="#FFFFFF" cx="400.914" cy="273.325" r="0.398"/>
  <circle fill="#FFFFFF" cx="416.944" cy="255.595" r="0.398"/>
  <circle fill="#FFFFFF" cx="419.526" cy="247.204" r="0.398"/>
  <circle fill="#FFFFFF" cx="422.7" cy="241.663" r="0.398"/>
  <circle fill="#FFFFFF" cx="410.973" cy="235.261" r="0.398"/>
  <circle fill="#FFFFFF" cx="394.405" cy="234.454" r="0.398"/>
  <circle fill="#FFFFFF" cx="372.672" cy="241.125" r="0.398"/>
  <circle fill="#FFFFFF" cx="382.409" cy="224.234" r="0.398"/>
  <circle fill="#FFFFFF" cx="371.489" cy="233.648" r="0.398"/>
  <circle fill="#FFFFFF" cx="359.224" cy="209.225" r="0.398"/>
  <circle fill="#FFFFFF" cx="352.231" cy="180.123" r="0.398"/>
  <circle fill="#FFFFFF" cx="345.883" cy="175.066" r="0.398"/>
  <circle fill="#FFFFFF" cx="350.832" cy="172.269" r="0.398"/>
  <circle fill="#FFFFFF" cx="355.512" cy="171.408" r="0.398"/>
  <circle fill="#FFFFFF" cx="354.866" cy="164.738" r="0.398"/>
  <circle fill="#FFFFFF" cx="361.537" cy="163.232" r="0.398"/>
  <circle fill="#FFFFFF" cx="332.703" cy="165.76" r="0.398"/>
  <circle fill="#FFFFFF" cx="314.898" cy="150.106" r="0.398"/>
  <circle fill="#FFFFFF" cx="312.961" cy="142.79" r="0.398"/>
  <circle fill="#FFFFFF" cx="315.167" cy="139.294" r="0.398"/>
  <circle fill="#FFFFFF" cx="340.902" cy="140.585" r="0.398"/>
  <circle fill="#FFFFFF" cx="352.629" cy="151.343" r="0.398"/>
  <circle fill="#FFFFFF" cx="360.407" cy="150.106" r="0.398"/>
  <circle fill="#FFFFFF" cx="359.6" cy="135.667" r="0.398"/>
  <circle fill="#FFFFFF" cx="377.621" cy="137.895" r="0.398"/>
  <circle fill="#FFFFFF" cx="387.089" cy="107.91" r="0.398"/>
  <circle fill="#FFFFFF" cx="369.197" cy="103.413" r="0.398"/>
  <circle fill="#FFFFFF" cx="366.992" cy="85.93" r="0.398"/>
  <circle fill="#FFFFFF" cx="333.995" cy="73.859" r="0.398"/>
  <circle fill="#FFFFFF" cx="338.406" cy="76.086" r="0.398"/>
  <circle fill="#FFFFFF" cx="370.843" cy="83.671" r="0.398"/>
  <circle fill="#FFFFFF" cx="382.839" cy="47.253" r="0.398"/>
  <circle fill="#FFFFFF" cx="390.047" cy="44.94" r="0.398"/>
  <circle fill="#FFFFFF" cx="409.467" cy="57.904" r="0.398"/>
  <circle fill="#FFFFFF" cx="430.554" cy="46.015" r="0.398"/>
  <circle fill="#FFFFFF" cx="437.278" cy="45.047" r="0.398"/>
  <circle fill="#FFFFFF" cx="412.856" cy="31.868" r="0.398"/>
  <circle fill="#FFFFFF" cx="420.118" cy="23.368" r="0.398"/>
  <circle fill="#FFFFFF" cx="417.375" cy="17.397" r="0.398"/>
  <circle fill="#FFFFFF" cx="409.068" cy="14.277" r="0.398"/>
  <circle fill="#FFFFFF" cx="370.445" cy="14.708" r="0.398"/>
  <circle fill="#FFFFFF" cx="362.613" cy="31.469" r="0.398"/>
  <circle fill="#FFFFFF" cx="335.178" cy="38.269" r="0.398"/>
  <circle fill="#FFFFFF" cx="325.065" cy="13.094" r="0.398"/>
  <circle fill="#FFFFFF" cx="339.535" cy="17.397" r="0.398"/>
  <circle fill="#FFFFFF" cx="354.597" cy="9.328" r="0.398"/>
  <circle fill="#FFFFFF" cx="343.247" cy="1.044" r="0.398"/>
  <circle fill="#FFFFFF" cx="322.827" cy="0.398" r="0.398"/>
  <circle fill="#FFFFFF" cx="403.442" cy="104.435" r="0.398"/>
  <circle fill="#FFFFFF" cx="415.707" cy="124.931" r="0.398"/>
  <circle fill="#FFFFFF" cx="421.248" cy="116.055" r="0.398"/>
  <circle fill="#FFFFFF" cx="436.633" cy="118.852" r="0.398"/>
  <circle fill="#FFFFFF" cx="450.942" cy="113.182" r="0.398"/>
  <circle fill="#FFFFFF" cx="436.955" cy="92.87" r="0.398"/>
  <circle fill="#FFFFFF" cx="482.035" cy="97.657" r="0.398"/>
  <circle fill="#FFFFFF" cx="478.699" cy="94.107" r="0.398"/>
  <circle fill="#FFFFFF" cx="487.898" cy="81.143" r="0.398"/>
  <circle fill="#FFFFFF" cx="388.81" cy="126.383" r="0.398"/>
  <circle fill="#FFFFFF" cx="328.4" cy="162.425" r="0.398"/>
  <circle fill="#FFFFFF" cx="354.221" cy="215.358" r="0.398"/>
  <circle fill="#FFFFFF" cx="345.883" cy="220.038" r="0.398"/>
  <circle fill="#FFFFFF" cx="335.77" cy="244.46" r="0.398"/>
  <circle fill="#FFFFFF" cx="311.186" cy="248.495" r="0.398"/>
  <circle fill="#FFFFFF" cx="324.473" cy="219.823" r="0.398"/>
  <circle fill="#FFFFFF" cx="324.075" cy="196.131" r="0.398"/>
  <circle fill="#FFFFFF" cx="313.929" cy="191.689" r="0.398"/>
  <circle fill="#FFFFFF" cx="341.396" cy="198.144" r="0.398"/>
  <circle fill="#FFFFFF" cx="349.142" cy="201.156" r="0.398"/>
  <circle fill="#FFFFFF" cx="349.433" cy="196.745" r="0.398"/>
  <circle fill="#FFFFFF" cx="313.445" cy="223.835" r="0.398"/>
  <circle fill="#FFFFFF" cx="354.866" cy="219.823" r="0.398"/>
  <circle fill="#FFFFFF" cx="341.795" cy="221.275" r="0.398"/>
  <circle fill="#FFFFFF" cx="514.149" cy="324.322" r="0.398"/>
  <circle fill="#FFFFFF" cx="510.115" cy="309.421" r="0.398"/>
  <circle fill="#FFFFFF" cx="505.22" cy="298.684" r="0.398"/>
  <circle fill="#FFFFFF" cx="502.1" cy="297.877" r="0.398"/>
  <circle fill="#FFFFFF" cx="506.833" cy="289.808" r="0.398"/>
  <circle fill="#FFFFFF" cx="533.623" cy="287.764" r="0.398"/>
  <circle fill="#FFFFFF" cx="547.448" cy="296.532" r="0.398"/>
  <circle fill="#FFFFFF" cx="571.386" cy="288.033" r="0.398"/>
  <circle fill="#FFFFFF" cx="573.721" cy="287.925" r="0.398"/>
  <circle fill="#FFFFFF" cx="589.213" cy="296.371" r="0.398"/>
  <circle fill="#FFFFFF" cx="593.312" cy="295.972" r="0.398"/>
  <circle fill="#FFFFFF" cx="599.058" cy="294.327" r="0.398"/>
  <circle fill="#FFFFFF" cx="590.751" cy="270.066" r="0.398"/>
  <circle fill="#FFFFFF" cx="594.947" cy="289.593" r="0.398"/>
  <circle fill="#FFFFFF" cx="529.319" cy="272.809" r="0.398"/>
  <circle fill="#FFFFFF" cx="509.738" cy="253.766" r="0.398"/>
  <circle fill="#FFFFFF" cx="530.018" cy="250.27" r="0.398"/>
  <circle fill="#FFFFFF" cx="537.603" cy="247.15" r="0.398"/>
  <circle fill="#FFFFFF" cx="521.035" cy="242.846" r="0.398"/>
  <circle fill="#FFFFFF" cx="500.884" cy="220.468" r="0.398"/>
  <circle fill="#FFFFFF" cx="490.48" cy="223.481" r="0.398"/>
  <circle fill="#FFFFFF" cx="544.489" cy="231.496" r="0.398"/>
  <circle fill="#FFFFFF" cx="519.152" cy="221.006" r="0.398"/>
  <circle fill="#FFFFFF" cx="504.359" cy="213.367" r="0.398"/>
  <circle fill="#FFFFFF" cx="520.389" cy="193.84" r="0.398"/>
  <circle fill="#FFFFFF" cx="521.573" cy="192.065" r="0.398"/>
  <circle fill="#FFFFFF" cx="501.508" cy="190.666" r="0.398"/>
  <circle fill="#FFFFFF" cx="496.021" cy="190.935" r="0.398"/>
  <circle fill="#FFFFFF" cx="481.658" cy="190.666" r="0.398"/>
  <circle fill="#FFFFFF" cx="474.342" cy="179.37" r="0.398"/>
  <circle fill="#FFFFFF" cx="458.15" cy="182.006" r="0.398"/>
  <circle fill="#FFFFFF" cx="460.356" cy="174.421" r="0.398"/>
  <circle fill="#FFFFFF" cx="444.863" cy="181.575" r="0.398"/>
  <circle fill="#FFFFFF" cx="434.804" cy="175.873" r="0.398"/>
  <circle fill="#FFFFFF" cx="411.296" cy="166.836" r="0.398"/>
  <circle fill="#FFFFFF" cx="407.692" cy="184.157" r="0.398"/>
  <circle fill="#FFFFFF" cx="412.264" cy="190.666" r="0.398"/>
  <circle fill="#FFFFFF" cx="415.137" cy="198.467" r="0.878"/>
  <circle fill="#FFFFFF" cx="410.22" cy="196.906" r="0.398"/>
  <circle fill="#FFFFFF" cx="401.721" cy="195.185" r="0.398"/>
  <circle fill="#FFFFFF" cx="398.385" cy="192.549" r="0.398"/>
  <circle fill="#FFFFFF" cx="389.294" cy="176.088" r="0.398"/>
  <circle fill="#FFFFFF" cx="375.523" cy="181.575" r="0.398"/>
  <circle fill="#FFFFFF" cx="374.393" cy="188.515" r="0.398"/>
  <circle fill="#FFFFFF" cx="375.922" cy="144.565" r="0.398"/>
  <circle fill="#FFFFFF" cx="409.822" cy="212.345" r="0.398"/>
  <circle fill="#FFFFFF" cx="418.688" cy="217.025" r="0.398"/>
  <circle fill="#FFFFFF" cx="422.108" cy="215.68" r="0.398"/>
  <circle fill="#FFFFFF" cx="421.033" cy="155.4" r="0.398"/>
  <circle fill="#FFFFFF" cx="416.084" cy="164.684" r="0.398"/>
  <circle fill="#FFFFFF" cx="418.289" cy="181.36" r="0.398"/>
  <circle fill="#FFFFFF" cx="450.242" cy="164.039" r="0.398"/>
  <circle fill="#FFFFFF" cx="455.46" cy="151.268" r="0.398"/>
  <circle fill="#FFFFFF" cx="479.076" cy="148.492" r="0.398"/>
  <circle fill="#FFFFFF" cx="492.04" cy="136.496" r="0.398"/>
  <circle fill="#FFFFFF" cx="486.553" cy="130.902" r="0.398"/>
  <circle fill="#FFFFFF" cx="491.502" cy="131.171" r="0.398"/>
  <circle fill="#FFFFFF" cx="496.989" cy="135.044" r="0.398"/>
  <circle fill="#FFFFFF" cx="498.334" cy="137.572" r="0.398"/>
  <circle fill="#FFFFFF" cx="508.555" cy="131.87" r="0.398"/>
  <circle fill="#FFFFFF" cx="480.69" cy="175.604" r="0.398"/>
  <circle fill="#FFFFFF" cx="515.494" cy="187.6" r="0.398"/>
  <circle fill="#FFFFFF" cx="542.768" cy="168.751" r="0.878"/>
  <circle fill="#FFFFFF" cx="547.232" cy="160.703" r="0.398"/>
  <circle fill="#FFFFFF" cx="564.285" cy="155.432" r="0.398"/>
  <circle fill="#FFFFFF" cx="555.786" cy="185.395" r="0.398"/>
  <circle fill="#FFFFFF" cx="541.799" cy="165.114" r="0.398"/>
  <circle fill="#FFFFFF" cx="580.315" cy="185.395" r="0.398"/>
  <circle fill="#FFFFFF" cx="507.048" cy="178.348" r="0.398"/>
  <circle fill="#FFFFFF" cx="580.746" cy="226.385" r="0.398"/>
  <circle fill="#FFFFFF" cx="350.832" cy="404.442" r="0.398"/>
  <circle fill="#FFFFFF" cx="342.44" cy="407.24" r="0.398"/>
  <circle fill="#FFFFFF" cx="343.086" cy="406.702" r="0.398"/>
  <circle fill="#FFFFFF" cx="329.852" cy="406.164" r="0.398"/>
  <circle fill="#FFFFFF" cx="460.194" cy="486.424" r="0.398"/>
  <circle fill="#FFFFFF" cx="462.723" cy="481.797" r="0.398"/>
  <circle fill="#FFFFFF" cx="496.828" cy="518.57" r="0.398"/>
  <circle fill="#FFFFFF" cx="461.001" cy="543.875" r="0.398"/>
  <circle fill="#FFFFFF" cx="511.944" cy="503.369" r="0.398"/>
  <circle fill="#FFFFFF" cx="415.169" cy="518.969" r="0.398"/>
  <circle fill="#FFFFFF" cx="410.381" cy="515.149" r="0.398"/>
  <circle fill="#FFFFFF" cx="360.891" cy="498.204" r="0.398"/>
  <circle fill="#FFFFFF" cx="365.163" cy="496.053" r="0.398"/>
  <circle fill="#FFFFFF" cx="324.473" cy="503.53" r="0.398"/>
  <circle fill="#FFFFFF" cx="355.351" cy="454.04" r="0.398"/>
  <circle fill="#FFFFFF" cx="355.404" cy="423.431" r="0.398"/>
  <circle fill="#FFFFFF" cx="374.931" cy="461.786" r="0.398"/>
  <circle fill="#FFFFFF" cx="324.473" cy="459.043" r="0.398"/>
  <circle fill="#FFFFFF" cx="321.6" cy="512.137" r="0.398"/>
</svg>
