<svg version="1.1" xmlns="http://www.w3.org/2000/svg" x="0px" y="0px" viewBox="0 0 38.2 32.8"   enable-background="new 0 0 38.2 32.8" xml:space="preserve" class="stag stag1">
  <polygon class="stags" fill="#262262" points="0.5,25.9 1.8,22.4 4.8,19.9 10.2,17.8 15.3,16.9 18.1,16.4 18.3,16.3 18.3,16.3 15.6,14.1 14.8,12.7 14.8,10.7 14.1,9.4 12.6,7.7 12.4,6.8 12.2,5.7 12.9,4.9 12.6,5.7 13.1,7.1 13.6,7.7 14.3,7.7 13.9,6.5 13.9,5.1 15,3.3 14.6,5.2 14.9,6.3 15.5,6.6 16.3,5.9 17.5,5.1 18.7,3.8 18.1,5.4 18.8,5.2 17,6.9 16.3,8.8 16.4,11.3 18.4,14.8 18.4,13.6 18.5,11.7 19,10.5 18.9,11.6 19.2,14.4 19.8,15.9 21.4,15.5 22.1,15.5 21.9,13.5 22.6,15.2 22.6,15.5 25.7,15.5 30.6,16.1 31.1,16.2 32.1,16.6 32.1,16.4 32.8,15.1 32.8,11.3 33.4,13.6 33.5,15.3 34.8,13.1 34.9,10.2 34.5,9 35.1,9.6 35.5,11.9 36,10.6 36.3,8.3 35.9,6.1 34.9,4.7 32.7,3.3 33.7,3.5 32.6,1.3 36,4.2 36.8,4.3 37.2,3.4 36.8,1.9 35.9,0 37.9,2.2 38.2,3.3 37.9,4.5 37.8,6 37.8,7.3 38.2,8.9 37.8,10.7 33.9,16.8 33.8,17.3 33.9,17.3 34.6,16.8 36.1,15.7 36.8,14.3 37,15 36.4,16.6 35.8,18.4 36.4,19 37.4,20.9 37.2,24.2 36.4,26.1 37,27.1 38.1,28.2 37.9,29.3 37.4,29.7 37.8,30.8 37,31.4 35.2,31.4 34.1,31.2 32.9,31.4 32.3,31.8 30.4,32.4 28.9,32.4 28.1,31.9 27.8,31.6 25,31.8 22.6,31.5 21.9,32.1 20.4,32.1 19.1,31.8 15.6,32.2 11.4,32.8 8.3,32.6 6.7,32.2 6.4,31.9 5.1,31.6 4.7,31.9 2.6,31.9 0.8,31.4 0,29.5 "/>
</svg>
