<svg version="1.1" xmlns="http://www.w3.org/2000/svg" x="0px" y="0px" viewBox="0 0 49.6 33.7" enable-background="new 0 0 49.6 33.7" xml:space="preserve" class="stag stag3">
  <path class="stags" fill="#262262" d="M46.1,13.2l-1.7,0.6l2.6-2.5l2.6-1.3h-1l-1.4,0.3l-0.4-0.2l0-0.6l-0.7,1l-2.2,2.1l-0.5,0.1l0.1-1.4l0.4-1.2 l1.6-1.9L47.1,7l0.3-0.4l-1.8,0.5l1.1-1.2l-2.3,1.7l-1.1,0.3l-0.1-0.8L43.9,6l-1.2,1l-0.2,1l-0.9,0.9l-0.1,0.5L40.9,10l-0.5-0.4 l0.1-1.9l1.1-3.3l2.2-2.1l-1.1,0.2l-1.7,1.6L40.4,6l-0.5,0.5l0.3-1.7l0.9-1.7l-1.5,1.4l-0.4-0.2l-0.5,3.4l0,4.6l-1.2,2.7l-1,3.4 l-0.4,2.6l-0.7-0.6L35,18.8l-1-1.7l-0.9-2.2L33,15.6l-1-2l-1.6-3l-3.3-4.2l-0.3-0.5l-3-3.4l-1.6-0.7l-2.6-0.3l-2.2,0l-4.4-1.1L8.6,0 L5.8,0.2L2.7,2.4L0.3,5L0,7.4l1.8,5.4l1.7,3.8l0,2l-0.3,1.2l0.3,1l0,2.8L4,24.9L4,30.2l1.2,0.5l0.6-0.5L5.1,27l-0.2-4.1l0.3-2.8 l0.6-3.3l0.5-2l1.2,0.3l0.7,1.7l0,2.8l-0.4,1.7l0.8,1.5l2.3,4.2l1.2,3.7l1.6,0.4l0.6-0.5l-2.2-4.8l-1-2.4l-0.2-2.5l0.6-2.6l0.1-2.6 l1.5-0.3l1.2,0.2l2.7,1.1l1.7,0.9l-0.2,5.2l0.1,3.6L18,30.6l1.2,0.7l0.7-0.5l0-4.4l0.2-1.9l0.6-2.2l0.7,1.6l0.7,1l0.6,4l-0.1,2.7 l1.1,0.2l1.1-0.5l-0.8-2.4L23.2,25l0.2-1.8l-1-2.7v-1.3l3.1,2.6l-0.7,0l1.5,1l-0.5,0l1.8,1.4l-0.8-0.1l1.3,1l-0.4,0.2l1.4,1 l-0.5,0.1l1.5,1.2l0.7,2.1l1.1,2l0.7,1.5l1.6,0.6h0.4l1.3-1.1l0.9-4.2l0.4-2.6l0.5-1.6l1.7,1l1.5,1.1h1.9l1.4-0.7l1.7-1.9l-2.3,1.4 l0.9-1.1l-2.1,1.4l-0.8-0.1l-0.7-0.7l1.5-0.2l0.8-0.6L41.8,24l-1.3,0l1.3-0.8L40,23.5l-1.3-1l0-0.8l0.5-1.2l0.4-0.1l0.9,0.4l1.9,0.1 l2.2-0.9l1.1-0.7l0.6-0.7l-1.2,0.6L43,19.9L41.7,20l-1-0.2l-0.5-0.5l0.1-0.7l0.7-1.2l1.8-1.9l1.9-0.7l2.1-1.1l1.4-1.1l1.2-1.3 l-1.6,1L46.1,13.2z M38.4,19.2l-0.7,1.3l0.1-1.3L38.4,19.2L38.4,19.2z M42,13.9l-1.3,1.8l-1.8,2.7h-0.4l-0.3-0.6l0.8-2.5l1.9-2.5 l1.2-0.9V13.9z"/>
</svg>
