<svg version="1.1" xmlns="http://www.w3.org/2000/svg" x="0px" y="0px" viewBox="0 0 33.4 54.3"   enable-background="new 0 0 33.4 54.3" xml:space="preserve" class="stag stag2">
  <path class="stags" fill="#125768" d="M23.6,20.4l1.5,3.4l0.8,2.6l-0.1,3.8l0.4,4.3l-1,2.4L24,38.2l-0.3,3.2c0,0.1-0.6,2.3-0.6,2.3l0,3.6l0.1,0.9,l-0.2,1l0.1,1.8l0.3,1.2l-1.5,0l-0.4-1.8l0.1-0.9l-0.4-1l-0.3-3.8l-0.3-2.7l-1.3-0.6l-1.4,0L17,41.9l0.1,2.9l0.5,1.8l0,1l-0.4,0.9,l0,3.1l0.4,1.8L16,54.1l-0.1-5.3l-0.5-1.4l-0.1-2.2l-0.8-3.1l-2.9-0.2l-2.2,3.3l-1.3,1.5l-0.3,1.9l1.9,5.1l-0.4,0.4L8.2,54l-3.2-7.6,l2.2-3.9l0-2.2L7,39.7l-1,0.1l-2.7,5.5l-0.8,1.3l-0.4,1.5l-0.8,2l-0.2,3l-0.7,0.2L0,52.8l0-3.9l0.2-0.9L0,46.8l0.9-1.2l0.7-2.1,l0-5.2l-0.9-5.4l-0.1-2.5l0.9-1.9l3.2-2.2l2.7-0.7l3.3,0.1l3.9-0.1l1.2-0.7l0.8-3.1l0.5-1L17,19.6l-0.8-1l-0.7-0.3l-1.3-2l-1-1.4,l0-0.7l1.1,1.2l1.7,0.7l1.1,0.6l-0.5-0.7L11.4,11l-0.8-1.6l0-1.7l-0.4-1.2L9.8,5L9.2,3.9l0-1.1l1.3-2.6l-0.3,2.1l0,1.5l0.6,0.8,l0.8-0.3L14,0.6L13.5,3l0.9-0.5l-1.7,2L12,6.1l0.2,2.2l0.9,2.2l0.8,1.2l-0.2-2.4l0.4-0.7l0,1.3l0.8,2.8l1.8,1.7l-0.3-1.7l0-2.3,l1,3.6l1,1.1l0.7,1.2l1,0.3l0.7,0l0.9-0.3l0.4-0.9l0.9-1.8l0.2-1.7l0.7-1.7l-0.3,2l-0.1,1.5L23.3,15l2.6-2.2l0.7-1.6l0.3-2.8,l-0.1-1.1l0.5,1.2l0.1,1.9l0,1.3l2-3.6l0.1-2.5l-0.7-1.8l-1.7-1.7L27.5,2l-0.6-1.6l1.2,1.3l1.2,0.8l0.7,0.6L30.7,3L31,1.9L30.6,0,l1.1,1.8l0,1.3l-0.4,1.2l0.7,0l0.5-0.6l0.4-1.4l-0.3-0.7l0.7,0.7l-0.1,1.2L33,4.4L31.5,6l-0.7,1.3l0,2L30,10.8L27.4,13l-2.9,2.5,l-1.1,1.3l1.2-0.6l2-0.7l0.8-0.8l0,0.5l-1.1,1.1l-1,1.2l-0.5,0.9l-1,0.8L23.6,20.4z"/>
</svg>
