<svg version="1.1" xmlns="http://www.w3.org/2000/svg" x="0px" y="0px" viewBox="0 0 539.6 174.9" enable-background="new 0 0 539.6 174.9" xml:space="preserve" id="trees">
  <g>
    <path class="land layerTree"
      fill="#232323"
      d="M538.5,14.6c-1.4-0.8-2.8-1.4-3.1-1.3c-0.9,0.3-0.3,1.7,1,2.3l1.3,0.6l-1.2,0.1c-0.6,0.1-1.3,0.3-1.4,0.6
      c-0.2,0.5,0.9,1.1,1.5,0.7c0.2-0.1,0.4,0,0.4,0.2c0,0.2,0.3,0.4,0.8,0.4c0.6,0,0.6,0.1,0.2,0.2c-0.5,0.2-0.4,0.4,0.4,0.9l1,0.6
      l-1.8,0.3c-1.9,0.3-2.3,0.9-1.2,1.6c0.4,0.3,0.9,0.3,1.4,0.1c0.5-0.2,1.3-0.2,1.8-0.1v-6.8C539.2,15,538.9,14.8,538.5,14.6z"/>
    <path class="land layerTree"
      fill="#232323"
      d="M537,30.8c0,0.7,1.4,0.8,2.2,0.2c0.1-0.1,0.2-0.2,0.3-0.3V29c-0.4,0.3-0.9,0.7-1.6,0.9
      C537.4,30.2,537,30.6,537,30.8z"/>
    <path class="land layerTree"
      fill="#232323"
      d="M535.8,31.6c-0.8-0.1-0.7,0.6,0.2,1.5c0.7,0.7,0.7,0.7,0,0.3c-0.4-0.3-0.9-0.4-1.1-0.3
      c-0.2,0.1-0.9,0-1.6-0.3c-1.6-0.7-2.1-0.7-1.8,0.1c0.2,0.5,0,0.6-1.1,0.6c-0.7,0-1.4-0.1-1.6-0.2c-0.5-0.4-2,0.2-2,0.9
      c0,0.6,0.2,0.7,0.9,0.5c0.9-0.2,0.9-0.2,0.2,0.5c-0.8,0.7-0.7,0.8,1,0.7c0.8-0.1,0.9,0.1,0.7,0.6c-0.2,0.5-0.1,0.6,0.8,0.5
      c0.9-0.1,1.1-0.1,0.9,0.5c-0.2,0.8,0,0.8,1.1,0.3c1.1-0.5,2.4,1,1.6,1.7c-0.5,0.4-0.6,0.4-0.8,0c-0.1-0.3-0.9-0.5-1.8-0.6
      c-0.8,0-1.4,0.1-1.3,0.3s-0.1,0.2-0.6,0.1c-1.1-0.2-1.1,0.3-0.1,0.9c0.6,0.3,0.8,0.7,0.6,1.4c-0.3,1.2-0.3,1.2-2,0
      c-0.7-0.5-1.9-0.9-1.9-0.9s-0.8,0.2-0.2,1.1c0.5,0.7,0.2,0.7-3.2,0.2c-1.1-0.2-1.7-0.1-1.7,0.1c0,0.5,2.3,1.5,3.3,1.5
      c0.6,0,0.6,0.1,0.2,0.5c-0.4,0.4-0.4,0.6,0.1,0.8c0.4,0.1,0.8,0.2,1,0.1c0.9-0.1,1.5,0.1,1.4,0.5c-0.1,0.3,0.4,0.5,1.1,0.4
      c0.9,0,1.2,0.2,1.2,0.7c0,0.7,0,0.7,0.9-0.1c0.7-0.7,0.9-0.7,0.9-0.3c0,0.3,0.2,0.5,0.4,0.4c0.2-0.1,0.6,0.2,0.9,0.7
      c0.2,0.5,0.7,1,1.1,1.2c0.4,0.1,0.7,0.4,0.7,0.7s0.3,0.5,0.7,0.5s1,0.3,1.3,0.6c0.5,0.6,0.6,0.6,1.6-0.1l1-0.7l-0.8,0.8
      c-0.5,0.5-1.9,1-3.8,1.4c-3.9,0.8-4.8,0.8-6.4-0.1c-1.5-0.8-2.2-0.7-1.8,0.4c0.2,0.6,0.1,0.7-1,0.7c-0.7,0-1.5-0.2-1.7-0.4
      c-0.3-0.2-0.7-0.2-1.3,0.1c-0.8,0.5-0.8,0.5,0.6,1.2c1,0.5,1.4,0.9,1.2,1.3c-0.2,0.4,0,0.6,0.3,0.6c1.3-0.1,1.8,0,1.5,0.6
      c-0.4,0.9,1.2,1.4,2.4,0.7c0.8-0.5,0.9-0.5,0.5-0.1c-0.7,0.8,0,1.6,1.1,1.3c1.7-0.4,2.1,0.3,0.5,0.8c-2.1,0.6-4.2,0.6-5,0
      c-0.9-0.7-2.2-0.7-1.9,0c0.2,0.4-0.1,0.5-1.7,0.3c-2.4-0.3-2.7,0.3-0.5,1c1.1,0.3,1.4,0.6,1.3,1.1c-0.2,0.8,1.2,1.2,2.2,0.7
      c0.6-0.3,0.7-0.2,0.7,0.6c0,0.7,0.2,0.9,1,0.7c0.8-0.2,0.9-0.1,0.6,0.4c-0.2,0.5-0.1,0.6,0.6,0.5c0.5-0.1,0.9,0,0.9,0.1
      c0,0.6,0.9,0.3,2.1-0.7c1.4-1.3,2.3-1.5,3.3-1.1c1.2,0.5,0.9,0.9-0.6,0.8c-1.5-0.2-1.7,0.4-0.6,1.7c0.6,0.8,0.6,0.8-0.2,0.8
      c-0.5,0-1.2,0.2-1.5,0.6c-0.4,0.3-1,0.6-1.3,0.6c-0.4,0-0.8,0.2-0.9,0.3c-0.1,0.2-1,0.3-2,0.3c-0.9,0-2,0.1-2.3,0.3s-1.2,0.3-2,0.2
      c-1.2-0.1-1.4,0.1-1.6,0.8c-0.1,0.6-0.4,0.8-1.2,0.9c-0.6,0-1.3,0.1-1.5,0.1c-0.2,0.1-0.8,0.1-1.2,0c-0.4,0-0.7,0.1-0.8,0.2
      c0-0.1,0-0.2,0-0.3c0-0.3-0.2-0.6-0.4-0.8c-0.1-0.1-0.5,0.1-0.7,0.2c-0.1,0-0.2,0.1-0.3,0.2c0,0-0.1-0.1-0.1-0.1
      c0.2-0.2,0.3-0.4,0.5-0.5c0.3-0.1,0.7-0.1,1-0.2c0.3-0.1,0.8-0.4,0.8-0.5c-0.2-0.5-0.6-0.3-1-0.3c-0.1,0-0.3,0.1-0.4,0.2
      c-0.1,0-0.3,0-0.5,0.1c0.3-0.4,0.6-0.6,0.2-1.1c-0.7-0.8-0.7,0.6-1.2,0.4c-0.2-0.8,0-1.4,0.8-1.7c0.2-0.1,0.3-0.2,0.5-0.3
      c0.4-0.3,0.7-0.7,1-1.1c0.1-0.1,0.1-0.4,0.1-0.6c-0.2,0-0.5,0-0.7,0c-0.5,0.3-1,0.6-1.5,0.9c0.1-2.1,0.3-4.1-0.6-5.9
      c-0.6,1.9-0.6,3.8-0.7,5.7c-0.3-0.5-0.6-0.9-0.9-1.4c-0.1-0.1-0.3-0.2-0.5-0.2c-0.1,0.2-0.2,0.4-0.2,0.6c0.1,0.5,0.3,0.9,0.5,1.4
      c0.1,0.2,0.2,0.3,0.3,0.5l-0.2,0c-0.9-0.1-1.6-0.4-1.6-0.6c0-0.2-0.5-0.3-1.2-0.1c-1.1,0.2-1.2,0.2-0.7-0.3
      c0.9-0.9-0.4-1.1-1.7-0.4c-0.6,0.4-1.9,0.6-3.2,0.6c-1.7,0-2-0.1-1.2-0.3c0.9-0.3,0.9-0.6,0.6-2c0-0.1-0.7,0.2-1.5,0.6
      c-0.8,0.4-2.2,0.8-3,0.8c-2.7,0-7.5-1.5-10.5-3.4c-1.2-0.7-0.9-0.9,0.4-0.3c0.7,0.3,0.9,0.3,0.9-0.3c0-0.6,0-0.6,0.5,0
      c0.2,0.4,0.6,0.6,0.9,0.4s0.9,0.1,1.5,0.4c1.1,0.6,1.1,0.6,1.1-0.5c0-0.6,0.2-0.9,0.3-0.6c0.4,0.5,2.1,1.3,2.7,1.3
      c0.3,0,0.5-0.4,0.5-0.8c0-0.8,0.1-0.8,0.3,0.1c0.2,0.5,0.4,0.8,0.5,0.8c0.1-0.1,0.6,0,1.1,0.3c0.7,0.3,1,0.3,1.5-0.3
      c0.3-0.4,0.8-0.6,1-0.5c0.2,0.1,0.2-0.2,0.1-0.8c-0.3-0.9-0.2-0.9,0.9-0.6c1.4,0.5,1.9,0.2,1.1-0.6c-0.5-0.5-0.4-0.6,0.2-0.6
      c0.7,0,0.7,0,0-0.7c-0.4-0.4-0.6-0.8-0.3-0.9c0.2-0.1,0.8,0.1,1.2,0.5c0.7,0.6,1.1,0.7,2.8,0.4c0.1,0,0-0.2-0.3-0.5
      c-0.6-0.6-0.2-1,0.8-1c0.4,0,1.2-0.3,1.8-0.7l1-0.7l-1.3-0.1c-0.7,0-1.8,0-2.4,0c-0.9,0.1-1,0-0.5-0.5c1-1,0.3-1-1.4,0
      c-1.8,1.1-3,1.2-2.1,0.3c0.5-0.5,0.4-0.5-0.2-0.3c-0.8,0.3-1-0.2-0.2-0.9c1.1-0.9-0.1-0.8-1.5,0.2c-2.7,1.9-3.1,2-6.2,1.2
      c-3.2-0.8-5.4-1.8-6.1-2.9c-0.4-0.6-0.3-0.7,0.6-0.7c0.6,0,1.2,0.3,1.3,0.6c0.1,0.3,0.6,0.6,1.1,0.6c0.7,0,0.9-0.1,0.7-0.7
      c-0.2-0.7-0.1-0.7,0.8,0.2c0.6,0.5,1.5,1,2,1c0.9,0,1-0.1,0.7-1.1c-0.3-1.4,0.7-1.8,1.8-0.7c0.7,0.8,3.2,1.3,3.2,0.7
      c0-0.1-0.6-0.7-1.4-1.3c-1.1-0.8-1.2-1-0.6-1c0.4,0,0.9,0.2,1,0.5c0.1,0.3,0.4,0.5,0.6,0.4c0.2-0.1,0.5,0,0.6,0.2
      c0.2,0.2,0.8,0.4,1.4,0.4c1.1,0,1.1,0,0.3-0.5c-0.8-0.5-0.8-0.5,0.4-0.9c0.7-0.2,1.5-0.4,1.8-0.4c0.3,0,0-0.2-0.6-0.5
      c-1.1-0.5-1.1-0.5,0.6-0.4c1.1,0.1,1.9-0.1,2.3-0.4c1-0.8,0.3-1.3-1.9-1.3c-1.2,0-1.9-0.2-1.7-0.4c0.6-0.8-1.1-0.8-2.9,0
      c-2.2,0.9-2.7,1-2.3,0.2c0.2-0.3,0-0.6-0.4-0.6s-0.6-0.2-0.4-0.6c0.3-0.6,0.1-0.7-1.3-0.2c-0.9,0.3-1,0.3-0.9-0.4
      c0.2-0.7-0.5-1-1-0.3c-0.2,0.2-1.1,0.7-2.1,1.2c-1.6,0.7-2,0.7-3.6,0.3c-1.5-0.4-1.6-0.5-1-0.8c0.4-0.2,0.8-0.6,0.8-0.9
      c0-0.4-0.5-0.5-2-0.5c-1.5,0.1-2.2-0.1-2.8-0.6c-1-0.8-1.9-3.7-1.3-4.1c0.4-0.2,0.6,0.6,0.4,1.6c0,0.3,0.3,1,0.9,1.6
      c0.8,0.9,1.1,1,1.6,0.7c0.3-0.2,0.6-0.9,0.7-1.4c0-0.8,0.1-0.8,0.3-0.2c0.3,1.1,1.5,2,2.6,2c0.9,0,1-0.1,0.6-0.7
      c-0.6-0.9-0.6-1.2,0-0.9c0.2,0.1,0.4,0.1,0.4-0.2c0-0.2,0.2-0.4,0.4-0.4s0.4,0.2,0.4,0.5c0,0.7,2.6,2.5,3.1,2.2
      c0.2-0.1,0.4-0.5,0.4-0.9c0-0.4,0.2-0.7,0.5-0.7s0.3-0.2,0.2-0.5c-0.2-0.3,0.1-0.1,0.5,0.4c0.5,0.5,1,0.7,1.2,0.6
      c0.2-0.1,0.8-0.3,1.3-0.4c1.2-0.1,3-0.9,3-1.2c0-0.1-0.6-0.5-1.3-0.7c-0.7-0.2-1.3-0.6-1.2-0.9c0.1-0.2-0.5-0.4-1.3-0.5
      c-1.5,0-3.8-0.9-2.9-1.2c0.3-0.1,0.6-0.4,0.6-0.7c0-0.6-2.2-0.7-2.9-0.2c-0.7,0.5-2.4,0.9-2.4,0.5c0-0.2,0.5-0.5,1.1-0.6
      c0.9-0.2,1-0.3,0.6-0.8c-0.4-0.4-0.4-0.5,0.3-0.5c1,0,2.6-1,2.2-1.3c-0.2-0.1-1.2-0.3-2.3-0.4c-2.2-0.2-2.2-0.2-1.5-1.2
      c0.4-0.7,0.5-0.7,1.5-0.1c1,0.5,1.1,0.5,1.3-0.2c0.2-0.4,0.5-0.7,0.7-0.6c0.2,0.1,0.4,0,0.4-0.2c0-0.2,0.4-0.4,0.9-0.4
      s0.9-0.2,0.9-0.5c0-0.6-0.9-1-2.2-1c-1,0-1.1-0.7-0.2-1c0.4-0.1,0.6-0.3,0.5-0.5c-0.1-0.2,0.3-0.5,0.9-0.8c1.5-0.7,1.1-1.3-0.8-1.3
      h-1.6l1.1-1.2c0.9-1,1-1.3,0.6-1.7c-0.4-0.3-0.8-0.2-2,0.9c-1.3,1.2-1.5,1.3-2,0.6c-0.3-0.4-0.7-0.7-0.9-0.7
      c-0.5,0-1.9,2.1-2.2,3.3c-0.2,0.9-4.3,3.8-4.9,3.5C482,30,482,29,482,27.9c0.1-1.1-0.1-2-0.3-2c-0.2,0-0.3-0.6-0.2-1.4
      c0.1-1.1,0.3-1.4,1.4-1.6c1.1-0.2,1.2-0.2,1,0.4c-0.4,1.1,0.7,1.3,1.5,0.4c0.5-0.5,0.9-0.7,1-0.5c0.3,0.4,2.1,0.2,2.1-0.3
      c0-0.3-2.2-2.1-2.6-2c-0.2,0-0.6,0-1.1-0.1c-1.2-0.3-0.4-0.8,0.9-0.6c2.2,0.4,4.2,0.3,4.4-0.2c0.1-0.3-0.1-0.5-0.5-0.5
      c-0.4,0-0.9-0.3-1.2-0.6c-0.3-0.3-0.7-0.5-0.9-0.3s-0.4,0.1-0.4-0.1c0-0.2,0.6-0.6,1.3-1c1.3-0.7,1.7-1.3,0.9-1.3
      c-0.8,0-3.7,1.1-4.1,1.6c-0.2,0.3-0.3,0.1-0.1-0.4c0.1-0.4,0.1-0.9-0.2-1c-0.5-0.2-2.3,2.1-2.3,3c0,0.3-0.1,0.5-0.3,0.4
      c-0.2-0.1-0.6,0-0.9,0.4c-0.5,0.6-0.6,0.4-0.4-1.2c0.2-1.5,0.6-2.2,2.2-3.7c1.1-1.1,2-2.2,2-2.5c0-0.9-2.2-0.3-2.7,0.7
      c-0.7,1.6-1.5,1-1.4-0.9c0.1-1.5,0-2-0.8-2.7l-0.9-0.8l-0.1,0.9c0,0.5-0.1,2-0.1,3.3l-0.1,2.4l-1.6-1.4c-1.9-1.6-2.1-1.7-2.1-0.6
      c0,0.5,0.8,1.5,1.7,2.4c1.5,1.4,1.7,1.8,1.8,3.6c0.1,1.4-0.1,2-0.4,1.8c-0.3-0.1-0.5-0.5-0.5-0.8s-0.2-0.5-0.4-0.5
      s-0.4-1.4-0.4-1.4s-1.1-2.8-1.8-1.9c-0.2,0.3-0.3,0.7-0.2,1c0.2,0.5-1,0.2-1.9-0.5c-0.3-0.3-0.8-0.5-1.2-0.5c-1.2,0-1,1,0.5,2.4
      c1.7,1.7,1.8,2,0.7,2.2c-0.6,0.1-0.8,0.4-0.6,0.9c0.2,0.8,1.4,0.9,2.2,0.3c0.6-0.5,0.6-0.5,0.7,0.9c0.1,1.2,0,1.2-1.5,0.5
      c-1.5-0.7-1.8-0.7-1.8,0.1c0,0.4,0.6,1.1,1.4,1.6c1.1,0.7,1.2,0.9,0.5,0.7c-0.6-0.1-1,0-1.2,0.4c-0.4,0.8-0.7,0.8-3.6-0.8
      c-1.4-0.8-2.8-1.4-3.1-1.3c-0.9,0.3-0.3,1.7,1,2.3l1.3,0.6l-1.2,0.1c-0.6,0.1-1.3,0.3-1.4,0.6c-0.2,0.5,0.9,1.1,1.5,0.7
      c0.2-0.1,0.4,0,0.4,0.2c0,0.2,0.3,0.4,0.8,0.4c0.6,0,0.6,0.1,0.2,0.2c-0.5,0.2-0.4,0.4,0.4,0.9l1,0.6l-1.8,0.3
      c-1.9,0.3-2.3,0.9-1.2,1.6c0.4,0.3,0.9,0.3,1.4,0.1c0.8-0.4,2.4-0.2,2.4,0.3c0,0.2,0.4,0.3,0.9,0.3c0.5,0,0.9-0.2,0.9-0.4
      c0-0.2,0.4-0.4,1-0.4l1,0l-1.1,0.8c-0.8,0.6-1,0.8-0.5,1.1c0.7,0.3,1.8,0.1,2.4-0.5c0.2-0.2,0.3,0.1,0.1,0.6c-0.2,0.8-0.1,1,0.6,1
      c0.5,0,0.9-0.2,0.9-0.5c0-0.3,0.1-0.3,0.3,0.1c0.2,0.4,0.4,0.3,0.8-0.4l0.6-0.9l0.6,1c0.3,0.6,0.4,1.1,0.2,1.3
      c-0.2,0.1-1.8,0.3-3.5,0.4c-2.9,0.1-3.4,0-5.3-1c-1.9-1-3.3-1.2-3.3-0.4c0,0.2,0.5,0.6,1.2,0.9l1.2,0.6l-1.5-0.2
      c-1.5-0.2-4.1-1.3-5.2-2.3c-0.3-0.3-1-0.5-1.4-0.5c-0.9,0-1.1,0.7-0.4,1.3c0.3,0.2-0.4,0.4-1.8,0.5c-1.2,0.1-2.4,0.2-2.6,0.3
      c-1.4,0.8,2.1,2.1,4.7,1.8l1.8-0.2l-1.2,0.6c-0.8,0.4-1.2,0.8-1.1,1.2c0.2,0.9,2.1,0.6,3.3-0.5c0.6-0.5,1.3-0.9,1.8-0.8
      c0.6,0.1,0.5,0.2-0.4,0.6c-1.5,0.5-2,1.1-1,1.4c0.4,0.1,0.6,0.4,0.5,0.7c-0.1,0.3,0.1,0.6,0.4,0.7c0.3,0.1,0.6,0.1,0.6-0.1
      c0-0.3,1.4-0.8,2.5-0.9c0.3,0,0.9-0.4,1.4-0.7c0.5-0.4,0.9-0.6,0.9-0.4c0,0.4-1,1.1-2.1,1.6c-0.5,0.2-1,0.6-1,0.8
      c0,0.7,1.4,0.8,2.2,0.2c0.8-0.6,0.8-0.6,0.6,0.1c-0.3,1.1,0.6,1,1.5-0.2c0.6-0.7,0.8-0.8,1.1-0.5c0.3,0.4,0.4,0.4,0.7,0
      c0.2-0.3,0.8-0.5,1.2-0.4c1.8,0.2,4.1-1.1,4.2-2.4c0-0.7,0.1-0.7,0.4,0.2c0.3,0.8,0,1.1-1.3,2.1c-0.9,0.7-2.8,1.7-4.3,2.4l-2.7,1.2
      l-2.1-0.9c-1.2-0.5-2.4-0.9-2.7-1c-0.8-0.1-0.7,0.6,0.2,1.5c0.7,0.7,0.7,0.7,0,0.3c-0.4-0.3-0.9-0.4-1.1-0.3
      c-0.2,0.1-0.9,0-1.6-0.3c-1.6-0.7-2.1-0.7-1.8,0.1c0.2,0.5,0,0.6-1.1,0.6c-0.7,0-1.4-0.1-1.6-0.2c-0.5-0.4-2,0.2-2,0.9
      c0,0.6,0.2,0.7,0.9,0.5c0.9-0.2,0.9-0.2,0.2,0.5c-0.8,0.7-0.7,0.8,1,0.7c0.8-0.1,0.9,0.1,0.7,0.6c-0.2,0.5-0.1,0.6,0.8,0.5
      c0.9-0.1,1.1-0.1,0.9,0.5c-0.2,0.8,0,0.8,1.1,0.3c1.1-0.5,2.4,1,1.6,1.7c-0.5,0.4-0.6,0.4-0.8,0c-0.1-0.3-0.9-0.5-1.8-0.6
      c-0.8,0-1.4,0.1-1.3,0.3c0.1,0.2-0.1,0.2-0.6,0.1c-1.1-0.2-1.1,0.3-0.1,0.9c0.6,0.3,0.8,0.7,0.6,1.4c-0.3,1.2-0.3,1.2-2,0
      c-0.7-0.5-1.9-0.9-1.9-0.9s-0.8,0.2-0.2,1.1c0.5,0.7,0.2,0.7-3.2,0.2c-1.1-0.2-1.7-0.1-1.7,0.1c0,0.5,2.3,1.5,3.3,1.5
      c0.6,0,0.6,0.1,0.2,0.5c-0.4,0.4-0.4,0.6,0.1,0.8c0.4,0.1,0.8,0.2,1,0.1c0.9-0.1,1.5,0.1,1.4,0.5c-0.1,0.3,0.4,0.5,1.1,0.4
      c0.9,0,1.2,0.2,1.2,0.7c0,0.7,0,0.7,0.9-0.1c0.7-0.7,0.9-0.7,0.9-0.3c0,0.3,0.2,0.5,0.4,0.4c0.2-0.1,0.6,0.2,0.9,0.7
      c0.2,0.5,0.7,1,1.1,1.2c0.4,0.1,0.7,0.4,0.7,0.7c0,0.3,0.3,0.5,0.7,0.5s1,0.3,1.3,0.6c0.5,0.6,0.6,0.6,1.6-0.1l1-0.7l-0.8,0.8
      c-0.5,0.5-1.9,1-3.8,1.4c-3.9,0.8-4.8,0.8-6.4-0.1c-1.5-0.8-2.2-0.7-1.8,0.4c0.2,0.6,0.1,0.7-1,0.7c-0.7,0-1.5-0.2-1.7-0.4
      c-0.3-0.2-0.7-0.2-1.3,0.1c-0.8,0.5-0.8,0.5,0.6,1.2c1,0.5,1.4,0.9,1.2,1.3c-0.2,0.4,0,0.6,0.3,0.6c1.3-0.1,1.8,0,1.5,0.6
      c-0.4,0.9,1.2,1.4,2.4,0.7c0.8-0.5,0.9-0.5,0.5-0.1c-0.7,0.8,0,1.6,1.1,1.3c1.7-0.4,2.1,0.3,0.5,0.8c-2.1,0.6-4.2,0.6-5,0
      c-0.9-0.7-2.2-0.7-1.9,0c0.2,0.4-0.1,0.5-1.7,0.3c-2.4-0.3-2.7,0.3-0.5,1c1.1,0.3,1.4,0.6,1.3,1.1c-0.2,0.8,1.2,1.2,2.2,0.7
      c0.6-0.3,0.7-0.2,0.7,0.6c0,0.7,0.2,0.9,1,0.7c0.8-0.2,0.9-0.1,0.6,0.4c-0.2,0.5-0.1,0.6,0.6,0.5c0.5-0.1,0.9,0,0.9,0.1
      c0,0.6,0.9,0.3,2.1-0.7c1.4-1.3,2.3-1.5,3.3-1.1c1.2,0.5,0.9,0.9-0.6,0.8c-1.5-0.2-1.7,0.4-0.6,1.7c0.6,0.8,0.6,0.8-0.2,0.8
      c-0.5,0-1.2,0.2-1.5,0.6c-0.4,0.3-1,0.6-1.3,0.6s-0.8,0.2-0.9,0.3c-0.1,0.2-1,0.3-2,0.3c-0.9,0-2,0.1-2.3,0.3
      c-0.3,0.2-1.2,0.3-2,0.2c-1.2-0.1-1.4,0.1-1.6,0.8c-0.1,0.6-0.4,0.8-1.2,0.9c-0.6,0-1.3,0.1-1.5,0.1c-0.2,0.1-0.8,0.1-1.2,0
      c-0.4,0-0.8,0.1-0.8,0.3c0,0.5,2.4,1.6,3.5,1.6c1,0,1,0,0.2,0.7c-0.8,0.7-0.8,0.7,0.4,0.7c0.9,0,1.1,0.1,0.9,0.6
      c-0.2,0.5,0,0.5,1,0.3c0.7-0.1,1.4-0.2,1.5-0.2c1.4,0,1.7,0.1,1.5,0.6c-0.5,1,0.7,1,1.3,0c0.6-1,0.7-1,0.7-0.2
      c0,0.5,0.2,0.8,0.4,0.9c2.7,0.3,3.1,0.2,3.7-0.9l0.6-1.1l0.4,0.9l0.4,0.9l0.9-0.9c0.8-0.9,0.8-0.9,0.9-0.1c0,1.1,0.8,1.1,1.1-0.1
      c0.2-0.5,0.5-0.9,0.7-0.9s0.3,0.2,0.1,0.4c-0.2,0.3,0.1,0.3,1.1,0.2c1.1-0.2,1.4-0.2,1.3,0.2c-0.3,0.7-3,1.8-4.4,1.8
      c-0.6,0-1.3,0.2-1.4,0.5c-0.1,0.3-1,0.4-2.2,0.4c-1.1,0-2,0.1-2,0.3c0,0.7,1.5,1.5,2.7,1.4c0.7-0.1,1.3,0,1.4,0.2
      c0.1,0.6-2.5,1-8.7,1.2c-7.1,0.2-9.9,0.5-9.9,0.9c0,0.2-0.5,0.2-1.1,0.1c-0.6-0.1-1.1,0-1.1,0.2c0,0.5,1.4,1.2,2.6,1.2
      c0.5,0,0.9,0.2,0.9,0.4c0,0.2-0.2,0.4-0.5,0.4s-0.9,0.3-1.4,0.8l-1,0.8l1.4-0.2c0.9-0.1,1.4,0,1.4,0.3c0,0.3,0.4,0.4,0.9,0.3
      c0.5-0.1,0.9,0,0.9,0.2c0,0.6,1.1,0.5,1.8-0.1c0.3-0.3,0.7-0.6,1-0.6c0.2,0,0.1,0.3-0.3,0.7c-0.4,0.4-0.7,0.8-0.7,0.9
      c0,0.4,1.7,0.3,2-0.1c0.4-0.6,1-0.4,1.3,0.4c0.4,0.9,0.9,0.9,2.5,0l1.3-0.8l-0.3,1.1c-0.3,1.4,0.5,1.5,2.3,0.3
      c1.2-0.8,1.2-0.8,0.7,0c-0.5,0.9-0.3,1.3,0.6,1c0.3-0.1,0.9,0,1.3,0.3c0.5,0.3,0.7,0.3,0.7,0c0-0.2,0.3-0.4,0.7-0.4
      c0.4,0,0.7,0.2,0.7,0.5c0,0.4,0.4,0.5,1.2,0.4c4.6-0.4-1.3,1.8-6.7,2.5c-3.5,0.5-3.8,0.4-5-0.2c-0.7-0.4-1.5-0.7-1.8-0.7
      c-0.9,0-0.6,0.7,0.4,1.1c0.7,0.3,0.5,0.3-1,0.1c-1.1-0.1-2.5-0.2-3.1-0.2s-2.1-0.2-3.3-0.5c-0.2,0-0.4-0.1-0.5-0.1
      c-0.1-0.1-0.1-0.3-0.2-0.4c0.4-0.3,0.8-0.6,1.4-1c-2-0.8-3.4,0.6-5.1,0.6c0.8-0.6,1.5-1.2,2.3-1.8c-0.1-0.1-0.1-0.2-0.2-0.3
      c-0.2,0-0.5-0.1-0.7,0c-0.8,0.4-1.6,0.8-2.3,1.3c-0.8,0.5-1.6,1.1-2.4,1.7c0,0,0-0.1,0-0.1c0.3-0.4,0.5-0.8,0.8-1.2
      c-0.1-0.1-0.2-0.2-0.2-0.3c-1,0.4-2,0.7-3.1,1.1c-0.2-0.9,0.3-2.1-1-2.7c-0.1,0.6-0.2,1.1-0.3,1.5c-0.7,0.1-1.3,0.1-2,0.2
      c0.1-0.6,0.2-1.2,0.4-1.7c0.2-0.7,0.2-0.8-0.6-0.8c-0.2,0-0.4,0-0.6,0c0.4-1.3,1.3-0.3,2-0.6c0-0.2,0-0.4,0.1-0.8
      c0.2,0.1,0.3,0.2,0.4,0.2c0.2,0.1,0.5,0.1,0.8,0.2c-0.1-0.3-0.1-0.6-0.2-0.8c-0.2-0.3-0.5-0.5-0.8-0.8c1,0.2,1.9,0.4,2.8,0.5
      c0.3,0,0.6-0.2,0.9-0.3c-0.2-0.2-0.4-0.4-0.6-0.6c0.8-0.4,1.6-0.8,2.4-1.2c0.1,0,0.2-0.1,0.3,0c0.7,0.1,1-0.1,0.8-0.9
      c0.2,0.1,0.3,0.1,0.4,0.1c0.3,0,0.6,0.1,0.9,0.1c-0.2-0.3-0.3-0.7-0.5-0.9c-0.2-0.2-0.6-0.4-1.1-0.6c0.5-0.3,0.9-0.5,1.1-0.8
      c0.2-0.2,0.3-0.6,0.4-0.9c-0.3,0-0.6-0.2-0.9-0.1c-0.5,0.2-1,0.5-1.5,0.8c0-0.6,0.1-1.2,0.1-1.8c0-0.2-0.4-0.4-0.5-0.6
      c-0.1,0.2-0.3,0.4-0.4,0.6c-0.1,0.2-0.1,0.4-0.2,0.8c-0.3-0.5-0.5-0.8-0.6-1.2c-0.1,0-0.2,0-0.2,0c-0.1,0.4-0.1,0.8-0.2,1.5
      c-0.7-1.6-1.9-1.9-3.4-1.7c0.2-0.3,0.3-0.5,0.5-0.9c-1.3-0.5-2.4,0.3-3.7,0.4c0.3-0.4,0.5-0.7,0.7-1.1c0-0.1-0.1-0.1-0.1-0.2
      c-0.4,0.1-0.8,0.2-1.1,0.3c-0.1-0.3-0.2-0.6-0.4-0.6c-0.3,0-0.6,0.1-0.8,0.3c-0.3,0.2-0.5,0.5-0.8,0.7c-0.1-0.5-0.1-1-0.2-1.3
      c0.5-0.1,1.1-0.3,1.8-0.4c0-0.1,0-0.2,0.1-0.3c-1-0.4-1.6-1-1.6-2.2c0.4,0.4,0.7,0.7,1,0.9c0.2,0.1,0.4,0.1,0.7,0.1
      c0-0.2,0.1-0.5,0-0.7c-0.3-0.5-0.7-0.9-1.1-1.4c1.1-0.1,2.2,0.4,3.2,0c0-0.1,0-0.2,0.1-0.3c-0.7-0.2-1.5-0.4-2.2-0.7
      c0.8-0.5,1.4-0.1,2.1,0.1c0.9,0.4,1.1,0.3,1.1-0.7c0.7,0.1,1.3,0.3,2,0.4c0.2,0,0.4-0.2,0.6-0.2c-0.1-0.2-0.1-0.5-0.3-0.6
      c-0.1-0.2-0.4-0.3-0.6-0.3c-0.7-0.1-1.4-0.2-2.2-0.3c0.3-0.5,0.9-0.9,0.1-1.6c-1,0.8-1.9,1.6-2.9,2.4c0-0.1-0.1-0.1-0.1-0.2
      c0.3-0.4,0.6-0.8,0.9-1.2c-0.1-0.1-0.1-0.2-0.2-0.2c-0.4,0.1-0.7,0.2-1.1,0.3c-0.3,0-0.7-0.1-1-0.1c0-0.1,0-0.2,0-0.4
      c0.4,0,0.9,0,1.3,0c0.2,0,0.3-0.2,0.5-0.2c-0.1-0.2-0.2-0.4-0.3-0.5c-0.4-0.1-0.9-0.2-1.3-0.3c0.4-0.7,1-0.8,1.7-0.5
      c0.2,0.1,0.4-0.1,0.6-0.1c-0.1-0.2-0.2-0.4-0.3-0.5c-0.2-0.2-0.5-0.4-0.8-0.7c1.4-0.1,2.6-0.1,3.6-1.1c-0.5-0.1-0.9-0.2-1.6-0.3
      c1-0.7,1.9,0.7,2.8,0c-0.3-1.1-1.4-0.9-2.1-1.3c0.6-0.8,1.5-1.4,1.6-2.4c-0.1-0.1-0.2-0.2-0.2-0.2c-0.8,0.6-1.5,1.1-2.4,1.8
      c0.1-0.5,0.2-0.9,0.2-1.4c0-0.4-0.1-0.8-0.2-1.1c-0.3,0.3-0.6,0.5-0.9,0.8c-0.2,0.2-0.1,0.7-0.3,0.8c-0.6,0.5-1.3,0.8-2,1.2
      c-0.1,0-0.1-0.1-0.2-0.1c0.1-0.3,0.2-0.7,0.4-1c0.4-0.6,0.4-1.2-0.1-1.8c-0.3-0.3-0.6-0.5-1-0.8c1.2-1.3,1.3-2,0.2-2.4
      c0.5-0.4,1-0.8,1.6-1.1c0.3-0.2,0.6-0.4,0.9-0.5c0.6-0.2,1.3-0.2,2-0.4c-0.1-0.4-0.2-0.6-0.3-0.8c0.2,0,0.3,0,0.5,0
      c0.2,0,0.5-0.1,0.7-0.1c-0.2-0.2-0.3-0.5-0.5-0.6c-0.5-0.2-1.1-0.2-1.7-0.3c0.4-0.5,0.8-0.9,1.1-1.5c0.1-0.2,0-0.5,0-0.7
      c-0.2,0-0.5,0-0.7,0.1c-0.3,0.2-0.6,0.5-0.9,0.8c-0.2,0.3-0.4,0.6-0.6,0.8c-0.2-0.4-0.3-0.7-0.4-1.1c0.3-0.4,0.8-0.9,1.1-1.4
      c0.1-0.2,0-0.5,0-0.8c-0.2,0-0.5,0-0.6,0.1c-0.3,0.3-0.6,0.6-1,0.9c-0.2,0.1-0.5,0.3-0.6,0.2c-0.5-0.3-0.7,0.1-0.9,0.4
      c-0.2,0.3-0.3,0.7-0.4,1.1c-1.7-0.9-1.7-0.9-4.1,0.5c0.2-0.4,0.2-0.6,0.4-0.7c0.5-0.4,1.1-0.7,1.6-1.1c0.7-0.4,1.4-0.9,2.1-1.3
      c0.2-0.1,0.2-0.4,0.3-0.6c-0.2,0-0.4-0.1-0.6-0.1c-0.4,0.1-0.8,0.3-1.2,0.4c-0.3,0.1-0.5,0.2-0.7,0.3c0-0.4-0.1-0.7-0.1-1
      c-0.3,0.1-0.6,0.2-0.9,0.4c-0.2,0.1-0.4,0.3-0.6,0.5c-0.1-0.2,0-0.3,0-0.4c0.1-1.1,1.3-1.4,1.8-2.2c0.5-0.8,1.4-1.4,2.1-2.1
      c-0.9-0.8-1.7,0-2.5-0.1c0.1-0.6,0.3-1.2,0.3-1.7c0-0.4-0.3-0.9-0.6-1.2c-0.2-0.1-0.7,0.1-1,0.3c-0.1,0-0.3,0.2-0.4,0.3
      c-0.1-0.1-0.1-0.1-0.2-0.2c0.3-0.3,0.5-0.6,0.8-0.7c0.4-0.2,1-0.2,1.4-0.4c0.4-0.2,1.2-0.6,1.1-0.7c-0.3-0.7-0.9-0.5-1.5-0.4
      c-0.2,0-0.4,0.2-0.6,0.2c-0.2,0.1-0.4,0.1-0.8,0.1c0.4-0.6,0.9-0.9,0.3-1.5c-1.1-1.1-1,0.8-1.7,0.6c-0.2-1.1,0-2,1.1-2.5
      c0.2-0.1,0.5-0.3,0.7-0.4c0.5-0.5,1-1,1.5-1.6c0.2-0.2,0.1-0.6,0.1-0.9c-0.3,0-0.7-0.1-1,0.1c-0.7,0.4-1.4,0.8-2.2,1.3
      c0.2-3,0.5-5.9-0.9-8.7c-0.9,2.7-0.9,5.5-1.1,8.4c-0.5-0.7-0.9-1.4-1.3-2c-0.1-0.2-0.5-0.2-0.7-0.3c-0.1,0.3-0.3,0.6-0.3,0.8
      c0.2,0.7,0.5,1.3,0.8,2c0.5,1.2,1.9,1.9,1.6,3.6c-0.2-0.2-0.4-0.5-0.6-0.7c-0.6-0.5-1.1-1-1.7-1.4c-0.1-0.1-0.5-0.1-0.6,0
      c-0.1,0.2-0.2,0.5-0.1,0.7c0.1,0.3,0.4,0.6,0.6,0.8c0.4,0.4,0.8,0.7,1.3,1.1c-0.8,0.1-1,0.4-0.4,1c0.2,0.2,0.3,0.5,0.4,0.9
      c-0.6-0.3-1-0.6-1.5-0.8c-0.2-0.1-0.6,0-0.8,0.1c0.1,0.3,0.1,0.7,0.3,0.9c0.5,0.5,1.2,1,1.9,1.5c-0.6,0.1-1.2,0.1-1.6,0.3
      c-0.2,0-0.4,0.4-0.3,0.6c0.1,0.3,0.4,0.5,0.5,0.8c0.2,0.3,0.3,0.7,0.4,1c-0.6-0.1-0.9-0.3-1.3-0.6c-0.3-0.2-0.6-0.4-0.8-0.7
      c0,0.4-0.1,0.8-0.1,1.1c0,0.1,0,0.1-0.1,0.2c-0.4-0.1-0.9-0.1-1.4-0.2c0.1,0.3,0.1,0.6,0.2,0.8c-0.7-0.3-1.4-0.6-2-0.9
      c-0.2-0.1-0.6,0.1-0.9,0.1c0.2,0.3,0.3,0.6,0.5,0.8c0.5,0.3,1,0.5,1.6,0.7c-0.4,0.6-0.4,0.8,0.2,1c0.7,0.2,1.5,0.5,2.3,0.9
      c-0.7,0.4-1.3,0.7-1.9,1c0,0.1,0.1,0.3,0.1,0.4c0.8,0.1,1.6,0.2,2.4,0.2c0,0.1,0,0.2,0,0.3c-0.5,0.1-1,0.2-1.5,0.3
      c0,0.1,0,0.2-0.1,0.3c0.6,0.3,1.3,0.6,1.9,1c0,0.1-0.1,0.1-0.1,0.2c-0.4-0.1-0.9-0.3-1.3-0.4c-0.3-0.1-0.5,0-0.8,0.1
      c0.1,0.3,0.2,0.6,0.4,0.8c0.3,0.3,0.6,0.5,1,0.7c-0.2,0.2-0.4,0.3-0.6,0.5c-0.8-0.7-1.1-1.9-2.1-2.4c-0.1,0-0.2,0.1-0.3,0.1
      c0.2,0.6,0.4,1.1,0.7,1.8c-1.2-0.7-2.3-1.5-3.7-1.3c-0.1,0.1-0.2,0.2-0.3,0.4c0.4,0.2,0.8,0.5,1.2,0.7c-0.6,0.7-0.5,0.9,0,1.3
      c0.5,0.3,0.9,0.7,1.4,1.1c-0.7,0.3-1.2,0.6-1.9,0.9c1,1,1.9,0.3,2.8,0.4c-0.1,0.2-0.2,0.4-0.2,0.6c0.8,0.7,1.2-0.4,1.7-0.4
      c0.6,0.4,1.1,0.8,1.6,1.2c-0.5,0.5-1.6,0.4-1.2,1.6c-0.2-0.2-0.4-0.3-0.6-0.4c-0.2-0.2-0.4-0.4-0.6-0.6c-0.7-0.7-0.9-0.7-1.4,0.1
      c-0.3-0.2-0.6-0.4-1-0.6c-0.3-0.1-0.6,0-0.9,0c0.1,0.3,0.1,0.7,0.3,0.9c0.4,0.4,0.9,0.7,1.4,1.1c-0.2,0.2-0.3,0.3-0.5,0.5
      c-0.3,0.3-0.8,0.6-0.4,1.1c0.1,0.1,0.7-0.1,1.1-0.1c0.2,0,0.4-0.1,0.6-0.2c0.8,0,1.6,0,2.3-0.1c0.2,0,0.4-0.1,0.5-0.1
      c0,0.6-0.1,1.1-0.1,1.7c-0.4,0.2-1.3-0.1-1.7,0.7c0.3,0.1,0.5,0.3,0.7,0.4c-0.7,0.6-1.4,0.5-1.9-0.2c-0.1-0.2-0.3-0.3-0.5-0.5
      c-0.7-0.6-0.9-0.5-1.1,0.5c-0.5-0.9-0.9-1.6-1.3-2.4c-0.1,0-0.2,0-0.3,0c-0.1,0.4-0.3,0.8-0.5,1.3c-0.2-0.5-0.4-0.9-0.6-1.2
      c-0.1-0.2-0.3-0.3-0.5-0.4c-0.1,0.2-0.2,0.4-0.2,0.7c0,0.4,0.2,0.7,0.3,1.2c-0.4-0.2-0.7-0.4-1-0.4c-0.3,0-0.7,0.1-1,0.1
      c0.2,0.3,0.2,0.7,0.5,0.9c0.4,0.3,0.9,0.5,1.4,0.8c-0.5,0.2-1,0.4-1.4,0.7c-0.2,0.1-0.2,0.4-0.3,0.6c0.2,0.1,0.4,0.2,0.7,0.2
      c0.3,0,0.5-0.1,0.9-0.2c-0.3,0.6-0.6,1-0.8,1.4c0.1,0.1,0.1,0.1,0.2,0.2c0.4-0.2,0.7-0.3,1.2-0.5c0,0.6,0.3,0.9,0.8,0.4
      c0.4-0.3,0.6-0.7,0.8-0.8c0.4,0,0.7,0.1,0.9,0c0.8-0.3,1-0.3,1.6,0.3c-1.2,0.1-2.4,0.3-2.7,1.7c-1,0.2-2-0.2-3,0.3
      c0,0.1,0,0.2,0,0.3c0.7,0.1,1.5,0.3,2.2,0.4c-0.6,1.2-2.4,1.3-2.9,2.7c0,0.1,0.1,0.2,0.1,0.3c0.8-0.3,1.6-0.6,2.5-0.9
      c0,0.1,0.2,0.4,0.2,0.4c0.7-0.3,1.3-0.5,2-0.8c0,0.2,0,0.5,0.1,0.6c0.1,0.3,0.4,0.5,0.6,0.8c0.1-0.3,0.4-0.6,0.4-0.9
      c-0.1-1,0.5-1.2,1.3-1.5c-0.1,0.3-0.2,0.5-0.2,0.5c0.4,0.7-0.1,0.9-0.5,1.3c-0.3,0.3-0.6,0.8-0.9,1.2c0.1,0.1,0.2,0.2,0.2,0.3
      c0.6-0.3,1.2-0.5,1.9-0.8c0.1,0.7,0.3,1.4,0.4,2.1c-0.6-0.1-1.3-0.2-2-0.3c-0.5,0-1,0-1,0.8c0,0.6-0.2,1.2-0.4,1.8
      c-2-1.2-2.2-1.2-2.5-0.3c-0.9-0.4-1.7-1-2.8-0.7c0.2,1.4,2,1.2,2.1,2.8c-1-0.6-1.7-1-2.7-1.5c-0.1,0.5-0.1,0.9-0.2,1.2
      c-0.6-0.1-1.2-0.3-1.8-0.4c-0.3-0.1-0.6-0.2-1-0.4c-0.2-0.1-0.4-0.2-0.5-0.3c0,0.2-0.1,0.4-0.1,0.7c0,0.1,0,0.2,0,0.4
      c-2.4-0.1-2.6-0.1-2.9,1.1c0.7,0.1,1.3,0.2,1.9,0.3c-0.1,0.3-0.2,0.5-0.3,0.8c0.3,0.1,0.6,0.2,0.8,0.2c0.3,0,0.6-0.1,0.9-0.2
      c0.5-0.1,1.1-0.3,1.6-0.4c-0.3,0.4-0.6,0.6-0.9,0.9c-0.1,0.1-0.2,0.4-0.3,0.6c0.2,0,0.5,0.2,0.7,0.1c0.5-0.3,0.9-0.7,1.3-1.1
      c0.2-0.2,0.4-0.4,0.6-0.6c0.1,0,0.1,0.1,0.2,0.1c-0.3,0.5-0.6,0.9-0.8,1.4c-0.3,0.8,0.3,1,1,1c-0.4,0.3-0.7,0.6-1,1
      c1,1,1.9,0.1,2.8-0.1c0,0.2,0,0.4,0.1,0.5c0.2,0.4,0.5,1.1,0.7,1.1c0.7-0.1,0.4-0.8,0.5-1.2c0.1-0.4,0.1-0.7,0.2-0.9
      c0.4,0.3,0.6,0.6,0.9,0.8c-0.7,1,0.6,0.9,0.8,1.3c-0.7,0.4-1.4,0.9-2,1.3c0,0.1,0,0.3,0,0.4c1.4-0.1,2.5,1.1,4,0.9
      c-0.4,0.4-1,0.8-1.2,0.7c-1.9-0.9-4-0.9-6.1-1.2c0,0.3-0.1,0.6-0.1,1c-0.3-0.4-0.5-0.7-0.8-1c-0.1-0.1-0.4-0.1-0.5-0.2
      c-0.1,0.2-0.2,0.4-0.1,0.6c0,0.3,0.2,0.5,0.3,0.8c-1.6-0.5-2.9-1.4-4.5-1.1c-0.1,0.1-0.1,0.2-0.2,0.4c1,0.6,2,1.2,3,1.8
      c0.1,0.3,0.2,0.7,0.3,1c-0.4,0.3-0.8,0.5-1.2,0.8c-0.5,0.3-0.8,0.8-0.4,1.3c0.1,0.2,0.8,0,1.2-0.1c0.2-0.1,0.4-0.3,0.6-0.4
      c0.4-0.2,0.9-0.4,1.3-0.6c0,0.6,0,1,0,1.5c0.1,0,0.2,0.1,0.3,0.1c0.3-0.3,0.6-0.7,1-1.1c0.2,0.7-0.2,1-0.6,1.3
      c-0.4,0.3-0.7,0.8-1.2,1.3c1.8,1.2,2.7-0.3,3.8-1c0.3,0.9,0.5,1.7,1.3,2.2c0.8,0.6,1,0.7,1.7,0c0.4-0.4,0.7-0.8,1.1-1.2
      c0.2,0.3,0.3,0.6,0.4,0.9c-0.4,0.4-0.8,0.7-1.1,1.2c-0.2,0.4-0.5,0.9-0.4,1.3c0.1,0.7,0.7,1,1.3,1c0.3,0,0.7,0.1,1.2,0.2
      c-0.5,0.6-0.9,1-1.3,1.5c-1.2-1-2.3-1.9-3.8-1c-0.8-0.5-1.3-1.4-2.5-1.5c0.4,1.4,1.5,2,2.4,3c-0.7-0.3-1.3-0.8-1.9-0.2
      c0,0-0.2-0.1-0.3-0.1c-0.9-0.2-1.6-0.6-1.9-1.5c-0.1-0.4-0.4-0.7-0.6-1c-0.2-0.2-0.5-0.5-0.6-0.4c-0.2,0.1-0.4,0.4-0.5,0.7
      c-0.1,0.1,0,0.3-0.1,0.6c-0.7-0.6-1.4-1.2-2.1-1.7c-0.1,0.1-0.2,0.2-0.3,0.3c0.2,0.5,0.5,0.9,0.7,1.4c0.1,0.2,0.1,0.5,0.2,0.8
      c-0.3,0.1-0.6,0.2-0.9,0.2c-0.5-0.1-0.9-0.4-1.4-0.4c-0.6-0.1-1.2,0-2,0c0.9,1.2,1.9,1.5,3,1.8c-0.1,0.2-0.2,0.4-0.3,0.6
      c0.3,0.2,0.5,0.4,0.7,0.6c-0.5,0-0.9-0.2-1.3-0.2c-0.9,0-0.4,0.6-0.3,1c-0.3,0.1-0.5,0.2-0.7,0.3c-0.6,0.3-1.3,0.6-1.9,1
      c-0.3,0.2-0.3,0.7-0.4,1.1c0.3,0.1,0.6,0.3,0.9,0.2c0.5-0.1,0.9-0.3,1.3-0.4c0.6-0.2,1.2-0.3,2-0.6c-0.4,0.6-0.7,0.9-0.8,1.2
      c-0.1,0.2-0.1,0.6-0.1,0.6c0.2,0.1,0.6,0.2,0.7,0.1c0.5-0.3,0.9-0.7,1.4-1.1c0.4-0.3,0.8-0.7,1.2-1.1c0.1,0.1,0.1,0.1,0.2,0.2
      c-0.1,0.3-0.3,0.7-0.4,1.1c-0.1,0.3,0,0.6,0,0.9c0.3-0.1,0.6-0.2,0.8-0.4c0.1-0.1,0.2-0.3,0.3-0.4c0.5-1.1,0.5-1.1,1.6-0.7
      c-0.4,0.2-0.9,0.5-1.3,0.7c0,0.1,0,0.2,0.1,0.3c0.6,0.1,1.2,0.2,1.9,0.3c-0.4,0.4-0.8,0.7-1.1,1.1c-0.2,0.3-0.3,0.7-0.5,1.1
      c0.4,0,0.7-0.1,1.1-0.1c-0.3,0.8-0.6,1.5-0.8,2.3c-0.1,0.5,0.2,0.7,0.7,0.5c0.3-0.2,0.6-0.4,0.9-0.7c0.5-0.6,0.9-1.2,1.3-1.8
      c0.3,1.1,0.3,1.1,1.2,0.7c-0.1,0.3-0.1,0.6-0.2,0.9c-0.1,0.4-0.3,0.8,0.2,1c0.3,0.1,0.9,0,1.1-0.3c0.6-0.6,1.3-1.2,1.4-2.1
      c0-0.1,0.2-0.3,0.4-0.5c0.4,1.2,0.8,2.3,1.2,3.5c0,0.1-0.3,0.5-0.5,0.5c-1.1,0.1-2.3,0.7-3.3-0.4c-0.1-0.1-0.3-0.1-0.4-0.1
      c-0.8,0.8,0.2,1.3,0.4,1.8c-0.7,0.1-1.4,0.1-2,0.3c-0.5,0.2-1,0.6-1.4,1c-0.1,0.1,0.4,0.6,0.6,1c-0.1,0-0.4,0-0.4-0.1
      c-0.3-0.4-0.6-0.8-1-1.1c-0.2-0.2-0.5-0.4-0.8-0.6c-0.1,0.3-0.1,0.7-0.1,1c0,0.1,0.1,0.2,0.1,0.3c-1.5-0.7-1.5-0.7-2.1,0.4
      c-0.7-0.3-1.5-0.6-2.2-1c-0.8-0.4-1.5-1-2.3-1.4c-0.2-0.1-0.6-0.1-0.8-0.1c0.1,0.3,0.1,0.6,0.3,0.7c0.7,0.6,1.4,1,2,1.5
      c-1-0.1-2-0.1-3-0.2c-1-0.1-2-0.4-3,0.2c1,1,2.3,1.1,3.4,1.5c0,0.2,0,0.4,0,0.7c0.3,0.1,0.6,0.1,0.8,0.2c-0.6,0.5-1.3,1-1.9,1.4
      c0.1,0.1,0.1,0.3,0.2,0.4c0.5,0,0.9,0,1.4-0.1c0.4,0,0.9-0.3,1.1-0.1c0.6,0.6,1.2,0.6,1.9,0.4c0.7-0.2,1.4-0.3,1.9-0.5
      c0.3,0.4,0.7,0.8,1,1.2c-0.1,0-0.2,0-0.4,0.1c-1,0.2-2,0.4-3,0.7c-0.3,0.1-0.5,0.6-0.7,0.9c0.3,0.2,0.6,0.5,0.9,0.5
      c0.6,0,1.3-0.1,2-0.2c0.8-0.2,1.5-0.5,2.5-0.8c-0.4,0.5-0.7,0.9-1.1,1.4c1.5,0.5,2.1-0.7,3.1-1.3c0.4,1.2,0.7,2.3,1.1,3.5
      c-0.2,0.1-0.3,0.1-0.4,0.1c-0.5-0.1-0.9-0.3-1.4-0.4c-0.3-0.1-0.7,0-1,0c0,0.3,0.1,0.7,0.1,1c0,0,0,0.1,0,0.1
      c-2.2,0.2-2.2,0.2-2.7,0.7c-0.3-0.3-0.7-0.6-1-0.8c-0.2-0.1-0.4-0.1-0.6-0.2c0,0.3-0.1,0.5,0,0.8c0.1,0.3,0.3,0.5,0.5,0.8
      c-0.1,0.1-0.1,0.2-0.2,0.2c-0.9-0.4-1.7-0.7-2.6-1.1c-1.5-0.6-2.2-0.7-3,0.5c-0.8-0.6-1.6-1.2-2.4-1.7c-0.2-0.2-0.6-0.2-0.9-0.2
      c0.1,0.3,0,0.7,0.2,0.9c0.6,0.7,1.3,1.2,1.9,1.8c-0.8,0.1-1.7,0.2-2.6,0.2c-0.9,0-1.8-0.1-2.7,0.6c0.9,1,2.2,0.9,3.3,1.1
      c-0.2,0.4-0.3,0.7-0.4,1c-0.6,0.1-1.3,0.2-1.8,0.5c-0.3,0.1-0.5,0.5-0.7,0.7c0.3,0.2,0.7,0.7,1,0.7c0.7,0,1.5-0.1,2.2-0.3
      c0.7-0.2,1.3-0.6,2-0.9c0,0.7-0.8,1.4,0.2,2.2c0.4-0.6,0.8-1.1,1.1-1.6c-0.2,0.8,0.4,1.3,1.2,1c1-0.4,2-1,2.9-1.5
      c-0.2,0.5-0.2,1.3-1.2,1.5c-0.3,0.1-0.6,0.5-0.8,0.8c0.4,0.1,0.8,0.2,1.2,0.3c0.1,0,0.1,0.1,0.1,0c-0.4,0.6-0.9,1.1-1.3,1.7
      c-0.1,0.1-0.1,0.2-0.1,0.3l-2.8,0.1l-33.9,10.7l-35.5,4.6l-19.4,4.1l-11.1,3.3l-7,1.6l-27.5-4.8l-18.4-5.9l-29.2-3.1l-27.8-8.1
      l-37.2-2.2l-1.3-0.3c0.2,0,0.7,0,1.6,0c1.9,0.1,2,0.1,1.5-0.3c-0.3-0.2-0.9-0.4-1.2-0.4c-0.3,0-0.7-0.1-0.8-0.3
      c-0.1-0.2,0.1-0.3,0.5-0.2c1.3,0.1,2.2,0,2.2-0.2c0-0.1-1-0.3-2.3-0.4c-1.2-0.1-2.2-0.3-2.1-0.4c0.1-0.1,1-0.4,2.1-0.6
      c2-0.4,3.2-0.9,2.8-1.2c-0.2-0.2-2,0.1-4.4,0.6c-0.7,0.2-0.7,0.1,0.3-0.6c1.7-1.2,0.7-1.3-1.7-0.2c-2.4,1.1-3.8,1.2-6.4,0.4
      c-3-0.9-7.9-2.9-8.3-3.5c-0.5-0.7-0.2-0.7,0.6,0.1c0.4,0.3,0.7,0.5,0.7,0.4c0-0.1,0.2-0.1,0.5,0.1c0.4,0.3,0.5,0.3,0.5-0.2
      c0-0.4,0.2-0.4,1,0.3l1,0.8l-0.2-0.9c-0.2-0.9-0.2-0.9,0.7-0.6c0.5,0.2,1.1,0.5,1.4,0.6c1.2,0.8,1.4,0.8,1.2-0.2
      c-0.2-0.7-0.1-0.8,0.2-0.6c0.6,0.5,1.9,0.4,1.9-0.1c0-0.5,0.5-0.5,0.9,0c0.1,0.2,0.7,0.6,1.1,0.8c0.7,0.4,0.9,0.4,0.9,0.1
      c0-0.2-0.3-0.6-0.6-0.9c-0.4-0.3-0.6-0.6-0.6-0.8c0-0.1,0.1-0.2,0.2-0.1c0.1,0.1,0.4,0,0.7-0.3c0.3-0.3,0.9-0.4,1.7-0.3
      c0.8,0.1,1.3,0,1.4-0.2c0.1-0.3,0.4-0.3,1.2-0.1c2.8,0.7,3.4-0.1,0.6-0.9c-1.8-0.6-2.1-0.8-0.4-0.4c2.2,0.5,5.1,0.1,3.8-0.5
      c-0.3-0.1-1.1-0.3-1.9-0.3c-1.2,0-1.3-0.1-0.5-0.2c0.5-0.1,1-0.3,1.1-0.5c0.1-0.3-0.4-0.4-3.1-0.2c-3.2,0.2-3.3,0.2-2.9-0.3
      c0.6-0.8,0.2-0.9-1.4-0.5c-0.9,0.2-2,0.3-2.8,0.3c-1.9-0.2-8-1.9-8.7-2.4c-0.8-0.6-0.7-0.9,0.1-0.7c0.4,0.1,0.6,0,0.6-0.1
      c0-0.3,0.5-0.2,2.1,0.4c0.5,0.2,1.7,0.4,2.6,0.4c0.9,0,1.8,0,1.9,0.1c0.8,0.1,0.8-0.1,0.3-0.6c-0.4-0.4-0.3-0.4,0.4,0.1
      c1.1,0.8,1.4,0.9,1.4,0.3c0-0.4,0.1-0.4,0.8,0c0.5,0.3,0.9,0.3,1,0.2c0.1-0.1,0.6-0.4,1.2-0.6c0.9-0.3,0.9-0.4,0.3-0.7
      c-0.7-0.4-0.5-0.5,0.6-0.1c0.6,0.2,0.8,0.2,0.8-0.1c0-0.2,0.8-0.5,2.1-0.7c1.1-0.2,2.1-0.5,2.1-0.6c0-0.1,0.1-0.2,0.3-0.1
      c0.2,0.1,0.6,0,0.9-0.1c0.5-0.2,0.4-0.3-0.3-0.5c-0.7-0.1-0.8-0.3-0.7-0.7c0.1-0.4,0-0.5-0.6-0.6c-0.5-0.1-0.2-0.3,1.3-0.6
      c2.2-0.6,2.7-1.1,0.8-0.8c-1.8,0.3-6.2,0.4-6.2,0.1c0-0.1,0.1-0.2,0.3-0.2c0.2,0,0.3-0.1,0.3-0.3s-0.7-0.3-1.5-0.2
      c-2.1,0-5.5-0.6-5.7-1c-0.1-0.3,0.1-0.4,0.6-0.4c0.4,0,0.8-0.1,0.8-0.3c0-0.1,0.2-0.2,0.5-0.1c0.3,0.1,0.5,0,0.5-0.2
      c0-0.2,0.2-0.2,0.7,0.1c0.4,0.2,1.1,0.4,1.5,0.4l0.8,0l-0.7-0.5l-0.7-0.5l1.5-0.1l1.5-0.1l-1.1-0.5l-1.1-0.5l1,0
      c0.6,0,1.3-0.3,1.7-0.7c0.4-0.4,0.9-0.7,1.1-0.7c0.2,0,0.5-0.2,0.8-0.5c0.6-0.8-0.2-0.9-2-0.4c-2,0.6-2.4,0.6-2.2-0.1
      c0.2-0.7,0.1-0.7-1.9-0.1c-1.5,0.4-1.7,0.4-4.1-0.2c-3.3-0.8-4.2-1.5-1.6-1.4c0.3,0,0.6-0.1,0.7-0.3c0.2-0.2,0.4-0.2,0.9,0.2
      c0.5,0.4,0.9,0.4,1.9,0.3c1.5-0.2,1.6-0.3,0.7-0.9c-0.6-0.4-0.4-0.4,1,0.1c0.5,0.2,0.6,0.1,0.4-0.2c-0.2-0.3,0-0.4,0.5-0.4
      c0.4,0,0.6-0.1,0.5-0.4c-0.1-0.2,0-0.4,0.2-0.5c0.3-0.1,0.2-0.2-0.1-0.5c-0.5-0.3-0.5-0.4,0.2-1c1.2-0.9,0.9-1.1-0.8-0.7
      c-4.2,1.1-5.8,1.2-6.8,0.3c-0.6-0.5-0.6-0.7-0.2-0.8c0.3-0.1,0.9,0,1.4,0.2c1.4,0.4,1.7,0,0.5-0.8c-0.8-0.5-0.9-0.6-0.3-0.6
      c1.1,0.1,1.8,0,1.8-0.3c0-0.1-0.3-0.3-0.6-0.3c-0.5,0-0.4-0.1,0.1-0.3c0.4-0.1,0.8-0.4,0.9-0.7c0.2-0.4,0.1-0.4-0.5-0.1
      c-1.1,0.5-7.8,0.4-9.2-0.1c-1-0.4-1-0.4-0.4-0.5c0.6,0,0.7-0.1,0.6-0.6c-0.2-0.5-0.1-0.5,0.4-0.2c0.7,0.5,1.7,0.8,1.7,0.5
      c0-0.1,0.3-0.2,0.6-0.1c0.4,0.1,0.6,0,0.6-0.2c0-0.2,0.4-0.3,0.8-0.3c1.1,0,1-0.3-0.2-1.1l-1-0.7l1.7,0.2c1.8,0.2,2.4,0.1,2.1-0.3
      c-0.3-0.4,0.5-1,1.5-1c1.1,0,1.2-0.4,0.2-0.6c-0.4-0.1-0.2-0.1,0.4-0.1c0.7,0,1.1-0.1,1-0.3c0-0.2,0.1-0.3,0.3-0.3
      c0.2,0,0.2-0.1,0-0.4c-0.3-0.3-0.7-0.4-1.2-0.3c-0.5,0.1-0.6,0.1-0.4,0c0.7-0.3,0.4-0.7-0.4-0.5c-0.7,0.1-0.8,0.1-0.6-0.3
      c0.2-0.3,0.1-0.4-0.2-0.2c-0.2,0.1-0.8,0.2-1.3,0.3c-0.5,0-1.2,0.1-1.6,0.2l-0.8,0.2l0.9-0.6c1-0.7,1.2-1.2,0.3-0.8
      c-0.9,0.4-1.6,0.4-1.1-0.1c0.7-0.6,0.4-1.1-0.3-0.5c-0.4,0.3-1.1,0.7-1.7,0.9c-2,0.8-7.3-0.3-7.3-1.5c0-0.2-0.2-0.6-0.4-0.7
      c-0.3-0.2-0.3-0.3,0-0.3c0.2,0,0.4,0.2,0.5,0.4c0.1,0.3,0.6,0.4,1.2,0.4c0.6,0,1.4,0.1,1.8,0.2c0.6,0.2,0.7,0.1,0.7-0.4v-0.6
      l1.1,0.5c0.8,0.4,1.2,0.5,1.3,0.2c0.1-0.2,0-0.4-0.2-0.6c-0.4-0.2,1.5-0.2,2.8,0c0.2,0,0.6,0,1.1-0.1c0.7-0.2,0.7-0.2,0.2-0.7
      c-0.5-0.4-0.4-0.5,0.3-0.6c0.9-0.2,1.1-0.7,0.3-0.7c-0.4,0-0.2-0.1,0.4-0.4c0.5-0.2,1.4-0.7,1.9-1l0.9-0.7l-1.2-0.2
      c-0.7-0.1-1.2-0.3-1.2-0.4c0-0.2-0.4-0.2-0.9-0.1c-0.8,0.2-0.8,0.1-0.5-0.2c0.6-0.6-0.3-0.8-1.3-0.3c-0.4,0.3-1.4,0.5-2.3,0.5
      c-1.3,0-1.4,0-0.9-0.2c0.6-0.2,0.7-0.5,0.4-1.5c0,0-0.5,0.2-1.1,0.5c-0.6,0.3-1.6,0.6-2.2,0.6c-2,0-5.5-1.1-7.6-2.5
      c-0.8-0.5-0.7-0.6,0.3-0.2c0.5,0.2,0.6,0.2,0.6-0.2c0-0.5,0-0.5,0.3,0c0.2,0.3,0.5,0.4,0.6,0.3c0.2-0.1,0.7,0,1.1,0.3
      c0.8,0.4,0.8,0.4,0.8-0.3c0-0.4,0.1-0.6,0.2-0.5c0.3,0.4,1.5,0.9,2,0.9c0.2,0,0.4-0.3,0.4-0.6c0-0.6,0-0.6,0.3,0.1
      c0.1,0.4,0.3,0.6,0.4,0.6c0.1-0.1,0.4,0,0.8,0.2c0.5,0.2,0.7,0.2,1.1-0.2c0.2-0.3,0.6-0.4,0.7-0.4c0.2,0.1,0.2-0.2,0.1-0.6
      c-0.2-0.7-0.2-0.7,0.7-0.4c1,0.3,1.4,0.2,0.8-0.4c-0.3-0.3-0.3-0.4,0.2-0.4c0.5,0,0.5,0,0-0.5c-0.3-0.3-0.4-0.6-0.3-0.7
      c0.2-0.1,0.6,0.1,0.9,0.4c0.5,0.5,0.8,0.5,2,0.3c0.1,0,0-0.2-0.2-0.4c-0.4-0.4-0.2-0.7,0.6-0.7c0.3,0,0.9-0.2,1.3-0.5l0.8-0.5
      l-1-0.1c-0.5,0-1.3,0-1.7,0c-0.7,0.1-0.7,0-0.4-0.4c0.7-0.7,0.2-0.7-1,0c-1.3,0.8-2.2,0.9-1.5,0.3c0.3-0.3,0.3-0.4-0.1-0.2
      c-0.6,0.2-0.7-0.2-0.2-0.6c0.8-0.7,0-0.6-1.1,0.1c-2,1.4-2.2,1.4-4.5,0.9c-2.4-0.6-4-1.3-4.4-2.1c-0.3-0.5-0.2-0.5,0.5-0.5
      c0.4,0,0.9,0.2,1,0.5s0.5,0.4,0.8,0.5c0.5,0,0.6-0.1,0.5-0.5c-0.2-0.5-0.1-0.5,0.6,0.2c0.4,0.4,1.1,0.7,1.5,0.7
      c0.6,0,0.7-0.1,0.5-0.8c-0.2-1,0.5-1.3,1.3-0.5c0.5,0.6,2.3,1,2.4,0.5c0-0.1-0.5-0.5-1-0.9c-0.8-0.6-0.9-0.7-0.5-0.7
      c0.3,0,0.7,0.2,0.8,0.4s0.3,0.3,0.5,0.3c0.1-0.1,0.4,0,0.5,0.1c0.1,0.2,0.6,0.3,1.1,0.3c0.8,0,0.8,0,0.2-0.4
      c-0.6-0.4-0.6-0.4,0.3-0.7c0.5-0.2,1.1-0.3,1.3-0.3c0.2,0,0-0.2-0.4-0.4c-0.8-0.4-0.8-0.4,0.4-0.3c0.8,0.1,1.4,0,1.7-0.3
      c0.7-0.6,0.2-0.9-1.4-0.9c-0.9,0-1.4-0.1-1.2-0.3c0.4-0.5-0.8-0.6-2.1,0c-1.6,0.7-1.9,0.7-1.7,0.2c0.1-0.3,0-0.4-0.3-0.4
      c-0.3,0-0.4-0.2-0.3-0.4c0.2-0.5,0.1-0.5-1-0.2c-0.7,0.2-0.8,0.2-0.6-0.3c0.2-0.5-0.4-0.7-0.7-0.3c-0.1,0.2-0.8,0.5-1.5,0.8
      c-1.2,0.5-1.5,0.5-2.6,0.2c-1.1-0.3-1.2-0.4-0.8-0.6c0.3-0.1,0.6-0.4,0.6-0.7c0-0.3-0.3-0.4-1.5-0.3c-1.1,0.1-1.6-0.1-2.1-0.5
      c-0.7-0.6-1.4-2.7-0.9-3c0.3-0.1,0.4,0.4,0.3,1.2c0,0.2,0.3,0.7,0.6,1.2c0.6,0.6,0.8,0.7,1.1,0.5c0.2-0.2,0.5-0.6,0.5-1
      c0-0.6,0.1-0.6,0.2-0.2c0.2,0.8,1.1,1.5,1.9,1.5c0.7,0,0.7-0.1,0.4-0.5c-0.4-0.7-0.4-0.9,0-0.7c0.2,0.1,0.3,0,0.3-0.1
      c0-0.2,0.1-0.3,0.3-0.3s0.3,0.2,0.3,0.4c0,0.5,1.9,1.8,2.3,1.6c0.2-0.1,0.3-0.4,0.3-0.7c0-0.3,0.1-0.5,0.3-0.5
      c0.2,0,0.3-0.2,0.1-0.3c-0.1-0.2,0.1-0.1,0.4,0.3s0.7,0.5,0.8,0.4c0.1-0.1,0.6-0.2,0.9-0.3c0.9-0.1,2.2-0.6,2.2-0.9
      c0-0.1-0.4-0.3-1-0.5c-0.5-0.2-0.9-0.5-0.9-0.6c0-0.2-0.4-0.3-0.9-0.3c-1.1,0-2.8-0.7-2.1-0.8c0.2-0.1,0.4-0.3,0.4-0.5
      c0-0.4-1.6-0.5-2.1-0.1c-0.5,0.4-1.7,0.6-1.7,0.3c0-0.1,0.4-0.3,0.8-0.4c0.7-0.1,0.8-0.2,0.4-0.6c-0.3-0.3-0.3-0.4,0.2-0.4
      c0.7,0,1.9-0.7,1.6-1c-0.1-0.1-0.9-0.2-1.7-0.3c-1.6-0.2-1.6-0.1-1.1-0.9c0.3-0.5,0.4-0.5,1.1-0.1c0.7,0.4,0.8,0.4,1-0.1
      c0.1-0.3,0.3-0.5,0.5-0.4c0.2,0.1,0.3,0,0.3-0.1c0-0.2,0.3-0.3,0.6-0.3s0.6-0.2,0.6-0.4c0-0.4-0.7-0.7-1.6-0.7
      c-0.7,0-0.8-0.5-0.1-0.7c0.3-0.1,0.4-0.2,0.3-0.4c-0.1-0.1,0.2-0.4,0.7-0.6c1.1-0.5,0.8-0.9-0.6-0.9h-1.1l0.8-0.9
      c0.6-0.7,0.7-1,0.4-1.2c-0.3-0.3-0.6-0.1-1.4,0.6c-1,0.9-1.1,0.9-1.4,0.5c-0.2-0.3-0.5-0.5-0.7-0.5c-0.4,0-1.4,1.5-1.6,2.4
      c-0.2,0.7-3.1,2.8-3.6,2.6c-0.1-0.1-0.2-0.8-0.2-1.6c0-0.8-0.1-1.5-0.2-1.5c-0.2,0-0.2-0.4-0.2-1c0.1-0.8,0.2-1,1-1.2
      c0.8-0.2,0.9-0.1,0.7,0.3c-0.3,0.8,0.5,1,1.1,0.3c0.3-0.4,0.6-0.5,0.8-0.3c0.2,0.3,1.5,0.1,1.5-0.2c0-0.3-1.6-1.5-1.9-1.5
      c-0.1,0-0.5,0-0.8-0.1c-0.9-0.2-0.3-0.6,0.6-0.4c1.6,0.3,3.1,0.2,3.2-0.1c0.1-0.2-0.1-0.3-0.3-0.3s-0.6-0.2-0.9-0.4
      c-0.2-0.2-0.5-0.3-0.7-0.3c-0.2,0.1-0.3,0.1-0.3-0.1c0-0.1,0.4-0.5,1-0.8c1-0.5,1.2-0.9,0.6-0.9c-0.6,0-2.7,0.8-3,1.2
      c-0.2,0.2-0.2,0.1-0.1-0.3c0.1-0.3,0.1-0.7-0.1-0.7c-0.4-0.2-1.6,1.6-1.6,2.2c0,0.2-0.1,0.4-0.2,0.3c-0.1-0.1-0.4,0-0.7,0.3
      c-0.4,0.4-0.4,0.3-0.3-0.8c0.1-1.1,0.4-1.6,1.6-2.7c0.8-0.8,1.5-1.6,1.5-1.8c0-0.6-1.6-0.2-1.9,0.5c-0.5,1.2-1.1,0.8-1-0.7
      c0.1-1.1,0-1.5-0.6-1.9l-0.7-0.6l0,0.7c0,0.4-0.1,1.4-0.1,2.4l0,1.8l-1.2-1c-1.4-1.2-1.6-1.2-1.5-0.4c0,0.3,0.6,1.1,1.2,1.7
      c1.1,1,1.2,1.3,1.3,2.6c0,1,0,1.5-0.3,1.3c-0.2-0.1-0.3-0.4-0.3-0.6c0-0.2-0.1-0.4-0.3-0.4s-0.3-0.5-0.3-1c0-1.2-0.8-2-1.3-1.4
      c-0.2,0.2-0.2,0.5-0.2,0.7c0.2,0.4-0.8,0.1-1.4-0.4c-0.2-0.2-0.6-0.3-0.8-0.3c-0.9,0-0.7,0.8,0.3,1.8c1.3,1.2,1.3,1.4,0.5,1.6
      c-0.4,0.1-0.6,0.3-0.4,0.6c0.2,0.6,1,0.7,1.6,0.2c0.4-0.4,0.4-0.3,0.5,0.7c0.1,0.8,0,0.9-1.1,0.3c-1.1-0.5-1.3-0.5-1.3,0.1
      c0,0.3,0.5,0.8,1,1.2c0.8,0.5,0.9,0.6,0.4,0.5c-0.4-0.1-0.7,0-0.9,0.3c-0.3,0.6-0.5,0.6-2.6-0.6c-1.1-0.6-2.1-1-2.3-0.9
      c-0.7,0.2-0.2,1.2,0.7,1.7l0.9,0.4l-0.9,0.1c-0.5,0-0.9,0.3-1,0.5c-0.2,0.4,0.6,0.8,1.1,0.5c0.2-0.1,0.3,0,0.3,0.1s0.3,0.3,0.6,0.3
      c0.4,0,0.4,0.1,0.1,0.2c-0.3,0.1-0.3,0.3,0.3,0.6l0.8,0.5l-1.3,0.2c-1.4,0.2-1.7,0.6-0.9,1.2c0.3,0.2,0.6,0.2,1,0.1
      c0.6-0.3,1.7-0.1,1.7,0.2c0,0.1,0.3,0.2,0.6,0.2c0.4,0,0.6-0.1,0.6-0.3c0-0.1,0.3-0.3,0.7-0.3l0.7,0l-0.8,0.5
      c-0.6,0.4-0.7,0.6-0.4,0.8c0.5,0.2,1.3,0.1,1.7-0.4c0.1-0.2,0.2,0,0.1,0.5c-0.2,0.6-0.1,0.7,0.5,0.7c0.4,0,0.7-0.2,0.7-0.3
      c0-0.2,0.1-0.2,0.2,0c0.1,0.3,0.3,0.2,0.6-0.3l0.4-0.6l0.4,0.7c0.2,0.4,0.3,0.8,0.2,0.9c-0.1,0.1-1.3,0.2-2.6,0.3
      c-2.1,0.1-2.5,0-3.9-0.7c-1.4-0.7-2.4-0.9-2.4-0.3c0,0.1,0.4,0.4,0.9,0.7l0.9,0.4l-1.1-0.2c-1.1-0.2-3-1-3.8-1.6
      c-0.2-0.2-0.7-0.3-1-0.3c-0.7,0-0.8,0.5-0.3,1c0.2,0.2-0.3,0.3-1.3,0.3c-0.9,0-1.8,0.1-1.9,0.2c-1.1,0.5,1.5,1.5,3.4,1.3l1.3-0.2
      l-0.9,0.4c-0.5,0.3-0.9,0.6-0.8,0.9c0.2,0.7,1.5,0.4,2.4-0.4c0.4-0.4,1-0.6,1.3-0.6c0.4,0.1,0.4,0.2-0.3,0.4
      c-1.1,0.4-1.4,0.8-0.8,1c0.3,0.1,0.4,0.3,0.4,0.5c-0.1,0.2,0.1,0.4,0.3,0.5c0.3,0.1,0.5,0,0.5-0.1c0-0.2,1-0.6,1.8-0.7
      c0.2,0,0.7-0.3,1-0.5c0.4-0.3,0.7-0.4,0.7-0.3c0,0.3-0.7,0.8-1.5,1.2c-0.4,0.2-0.7,0.4-0.7,0.6c0,0.5,1,0.6,1.6,0.1
      c0.6-0.4,0.6-0.4,0.4,0.1c-0.2,0.8,0.4,0.7,1.1-0.1c0.4-0.5,0.6-0.6,0.8-0.3c0.2,0.3,0.3,0.3,0.5,0c0.2-0.2,0.6-0.3,0.9-0.3
      c1.3,0.1,3-0.8,3.1-1.7c0-0.5,0.1-0.5,0.3,0.1c0.2,0.6,0,0.8-0.9,1.5c-0.6,0.5-2,1.3-3.1,1.7l-2,0.9l-1.5-0.6
      C99,79,98.2,78.7,98,78.7c-0.6-0.1-0.5,0.4,0.2,1.1c0.5,0.5,0.5,0.5,0,0.2c-0.3-0.2-0.7-0.3-0.8-0.2c-0.2,0.1-0.7,0-1.2-0.2
      c-1.2-0.5-1.6-0.5-1.3,0.1c0.1,0.4,0,0.5-0.8,0.4c-0.5,0-1-0.1-1.1-0.2c-0.4-0.3-1.4,0.2-1.4,0.7c0,0.2,0.1,0.4,0.2,0.4
      c0,0.3-0.1,0.7-0.2,1.2c-0.7-1.6-1.9-1.9-3.4-1.7c0.2-0.3,0.3-0.5,0.5-0.9c-1.3-0.5-2.4,0.3-3.7,0.4c0.3-0.4,0.5-0.7,0.7-1.1
      c0-0.1-0.1-0.1-0.1-0.2c-0.4,0.1-0.8,0.2-1.1,0.3c-0.1-0.3-0.2-0.6-0.4-0.6c-0.3,0-0.6,0.1-0.8,0.3c-0.3,0.2-0.5,0.5-0.8,0.7
      c-0.1-0.5-0.1-1-0.2-1.3c0.5-0.1,1.1-0.3,1.8-0.4c0-0.1,0-0.2,0.1-0.3c-1-0.4-1.6-1-1.6-2.2c0.4,0.4,0.7,0.7,1,0.9
      c0.2,0.1,0.4,0.1,0.7,0.1c0-0.2,0.1-0.5,0-0.7c-0.3-0.5-0.7-0.9-1.1-1.4c1.1-0.1,2.2,0.4,3.2,0c0-0.1,0-0.2,0.1-0.3
      c-0.7-0.2-1.5-0.4-2.2-0.7c0.8-0.5,1.4-0.1,2.1,0.1c0.9,0.4,1.1,0.3,1.1-0.7c0.7,0.1,1.3,0.3,2,0.4c0.2,0,0.4-0.2,0.6-0.2
      c-0.1-0.2-0.1-0.5-0.3-0.6c-0.1-0.2-0.4-0.3-0.6-0.3c-0.7-0.1-1.4-0.2-2.2-0.3c0.3-0.5,0.9-0.9,0.1-1.6c-1,0.8-1.9,1.6-2.9,2.4
      c0-0.1-0.1-0.1-0.1-0.2c0.3-0.4,0.6-0.8,0.9-1.2c-0.1-0.1-0.1-0.2-0.2-0.2c-0.4,0.1-0.7,0.2-1.1,0.3c-0.3,0-0.7-0.1-1-0.1
      c0-0.1,0-0.2,0-0.4c0.4,0,0.9,0,1.3,0c0.2,0,0.3-0.2,0.5-0.2c-0.1-0.2-0.2-0.4-0.3-0.5c-0.4-0.1-0.9-0.2-1.3-0.3
      c0.4-0.7,1-0.8,1.7-0.5c0.2,0.1,0.4-0.1,0.6-0.1c-0.1-0.2-0.2-0.4-0.3-0.5c-0.2-0.2-0.5-0.4-0.8-0.7c1.4-0.1,2.6-0.1,3.6-1.1
      c-0.5-0.1-0.9-0.2-1.6-0.3c1-0.7,1.9,0.7,2.8,0c-0.3-1.1-1.4-0.9-2.1-1.3c0.6-0.8,1.5-1.4,1.6-2.4c-0.1-0.1-0.2-0.2-0.2-0.2
      c-0.8,0.6-1.5,1.1-2.4,1.8c0.1-0.5,0.2-0.9,0.2-1.4c0-0.4-0.1-0.8-0.2-1.1c-0.3,0.3-0.6,0.5-0.9,0.8c-0.2,0.2-0.1,0.7-0.3,0.8
      c-0.6,0.5-1.3,0.8-2,1.2c-0.1,0-0.1-0.1-0.2-0.1c0.1-0.3,0.2-0.7,0.4-1c0.4-0.6,0.4-1.2-0.1-1.8c-0.3-0.3-0.6-0.5-1-0.8
      c1.2-1.3,1.3-2,0.2-2.4c0.5-0.4,1-0.8,1.6-1.1c0.3-0.2,0.6-0.4,0.9-0.5c0.6-0.2,1.3-0.2,2-0.4c-0.1-0.4-0.2-0.6-0.3-0.8
      c0.2,0,0.3,0,0.5,0c0.2,0,0.5-0.1,0.7-0.2c-0.2-0.2-0.3-0.5-0.5-0.6c-0.5-0.2-1.1-0.2-1.7-0.3c0.4-0.5,0.8-0.9,1.1-1.5
      c0.1-0.2,0-0.5,0-0.7c-0.2,0-0.5,0-0.7,0.1c-0.3,0.2-0.6,0.5-0.9,0.8c-0.2,0.3-0.4,0.6-0.6,0.8c-0.2-0.4-0.3-0.7-0.4-1.1
      c0.3-0.4,0.8-0.9,1.1-1.4c0.1-0.2,0-0.5,0-0.8c-0.2,0-0.5,0-0.6,0.1c-0.3,0.3-0.6,0.6-1,0.9c-0.2,0.1-0.5,0.3-0.6,0.2
      c-0.5-0.3-0.7,0.1-0.9,0.4c-0.2,0.3-0.3,0.7-0.4,1.1c-1.7-0.9-1.7-0.9-4.1,0.5c0.2-0.4,0.2-0.6,0.4-0.7c0.5-0.4,1.1-0.7,1.6-1.1
      c0.7-0.4,1.4-0.9,2.1-1.3c0.2-0.1,0.2-0.4,0.3-0.6c-0.2,0-0.4-0.1-0.6-0.1c-0.4,0.1-0.8,0.3-1.2,0.4c-0.3,0.1-0.5,0.2-0.7,0.3
      c0-0.4-0.1-0.7-0.1-1c-0.3,0.1-0.6,0.2-0.9,0.4c-0.2,0.1-0.4,0.3-0.6,0.5c-0.1-0.2,0-0.3,0-0.4c0.1-1.1,1.3-1.4,1.8-2.2
      c0.5-0.8,1.4-1.4,2.1-2.1c-0.9-0.8-1.7,0-2.5-0.1c0.1-0.6,0.3-1.2,0.3-1.7c0-0.4-0.3-0.9-0.6-1.2c-0.2-0.1-0.7,0.1-1,0.3
      c-0.1,0-0.3,0.2-0.4,0.3c-0.1-0.1-0.1-0.1-0.2-0.2c0.3-0.3,0.5-0.6,0.8-0.7c0.4-0.2,1-0.2,1.4-0.4c0.4-0.2,1.2-0.6,1.1-0.7
      c-0.3-0.7-0.9-0.5-1.5-0.4c-0.2,0-0.4,0.2-0.6,0.2c-0.2,0.1-0.4,0.1-0.8,0.1c0.4-0.6,0.9-0.9,0.3-1.5c-1.1-1.1-1,0.8-1.7,0.6
      c-0.2-1.1,0-2,1.1-2.5c0.2-0.1,0.5-0.3,0.7-0.4c0.5-0.5,1-1,1.5-1.6c0.2-0.2,0.1-0.6,0.1-0.9c-0.3,0-0.7-0.1-1,0.1
      c-0.7,0.4-1.4,0.8-2.2,1.3c0.2-3,0.5-5.9-0.9-8.7c-0.9,2.7-0.9,5.5-1.1,8.4c-0.5-0.7-0.9-1.4-1.3-2c-0.1-0.2-0.5-0.2-0.7-0.3
      c-0.1,0.3-0.3,0.6-0.3,0.8c0.2,0.7,0.5,1.3,0.8,2c0.5,1.2,1.9,1.9,1.6,3.6c-0.2-0.2-0.4-0.5-0.6-0.7c-0.6-0.5-1.1-1-1.7-1.4
      c-0.1-0.1-0.5-0.1-0.6,0c-0.1,0.2-0.2,0.5-0.1,0.7c0.1,0.3,0.4,0.6,0.6,0.8c0.4,0.4,0.8,0.7,1.3,1.1c-0.8,0.1-1,0.4-0.4,1
      c0.2,0.2,0.3,0.5,0.4,0.9c-0.6-0.3-1-0.6-1.5-0.8c-0.2-0.1-0.6,0-0.8,0.1c0.1,0.3,0.1,0.7,0.3,0.9c0.5,0.5,1.2,1,1.9,1.5
      c-0.6,0.1-1.2,0.1-1.6,0.3c-0.2,0-0.4,0.4-0.3,0.6c0.1,0.3,0.4,0.5,0.5,0.8c0.2,0.3,0.3,0.7,0.4,1c-0.6-0.1-0.9-0.3-1.3-0.6
      c-0.3-0.2-0.6-0.4-0.8-0.7c0,0.4-0.1,0.7-0.1,1.1l-0.8,0c-0.8,0-1.9,0-2.5,0c-1,0.1-1,0-0.5-0.5c1-1,0.3-1-1.5,0
      c-1.9,1.1-3.1,1.3-2.2,0.4c0.5-0.5,0.5-0.6-0.2-0.3c-0.9,0.3-1-0.2-0.2-0.9c1.2-1-0.1-0.8-1.5,0.2c-2.9,2-3.2,2.1-6.4,1.3
      c-3.4-0.9-5.7-1.9-6.3-3c-0.4-0.7-0.3-0.7,0.7-0.7c0.6,0,1.2,0.3,1.4,0.7c0.1,0.3,0.7,0.6,1.2,0.7c0.8,0,0.9-0.1,0.7-0.8
      c-0.2-0.7-0.1-0.7,0.8,0.2c0.6,0.6,1.5,1,2.1,1c0.9,0,1-0.1,0.8-1.1c-0.3-1.5,0.7-1.9,1.9-0.7c0.8,0.8,3.4,1.4,3.4,0.7
      c0-0.2-0.7-0.7-1.5-1.3c-1.1-0.8-1.3-1.1-0.7-1.1c0.5,0,0.9,0.2,1.1,0.6c0.1,0.3,0.4,0.5,0.6,0.4c0.2-0.1,0.5,0,0.7,0.2
      c0.2,0.2,0.8,0.4,1.5,0.4c1.2,0,1.2,0,0.3-0.6c-0.9-0.5-0.8-0.6,0.4-1c0.7-0.2,1.5-0.4,1.8-0.4c0.3,0,0-0.3-0.6-0.6
      c-1.1-0.5-1.1-0.5,0.6-0.4c1.1,0.1,2-0.1,2.4-0.4c1-0.8,0.3-1.3-2-1.3c-1.3,0-2-0.2-1.8-0.4c0.6-0.8-1.1-0.8-3,0
      c-2.3,1-2.8,1-2.4,0.2c0.2-0.4,0-0.6-0.5-0.6c-0.5,0-0.6-0.2-0.5-0.6c0.3-0.7,0.2-0.7-1.4-0.2c-1,0.3-1.1,0.3-0.9-0.4
      c0.2-0.8-0.5-1-1-0.4c-0.2,0.2-1.1,0.8-2.2,1.2c-1.7,0.7-2.1,0.7-3.7,0.3c-1.5-0.4-1.7-0.5-1.1-0.8c0.4-0.2,0.8-0.6,0.8-1
      c0-0.5-0.5-0.6-2.1-0.5c-1.6,0.1-2.3-0.1-3-0.7c-1-0.9-2-3.9-1.4-4.2c0.4-0.2,0.6,0.6,0.4,1.7c0,0.3,0.4,1,0.9,1.7
      c0.8,0.9,1.1,1.1,1.6,0.7c0.4-0.2,0.7-0.9,0.7-1.5c0-0.8,0.1-0.9,0.3-0.2c0.3,1.2,1.5,2.1,2.7,2.1c0.9,0,1-0.1,0.6-0.7
      c-0.6-0.9-0.6-1.3,0-1c0.3,0.1,0.5,0.1,0.5-0.2c0-0.2,0.2-0.4,0.5-0.4s0.5,0.2,0.5,0.5c0,0.7,2.7,2.6,3.3,2.3
      c0.2-0.1,0.4-0.6,0.4-1c0-0.4,0.2-0.7,0.5-0.7s0.4-0.2,0.2-0.5c-0.2-0.3,0.1-0.1,0.6,0.4c0.5,0.5,1,0.8,1.2,0.6
      c0.2-0.2,0.8-0.3,1.4-0.4c1.2-0.1,3.1-0.9,3.1-1.3c0-0.2-0.6-0.5-1.4-0.7c-0.8-0.3-1.3-0.7-1.3-0.9c0.1-0.2-0.5-0.5-1.3-0.5
      c-1.6,0-4-1-3.1-1.2c0.3-0.1,0.6-0.4,0.6-0.7c0-0.6-2.3-0.8-3-0.2c-0.7,0.5-2.5,0.9-2.5,0.5c0-0.2,0.5-0.5,1.2-0.6
      c1-0.2,1.1-0.4,0.6-0.8c-0.5-0.5-0.4-0.6,0.3-0.6c1,0,2.8-1,2.3-1.4c-0.2-0.1-1.2-0.3-2.4-0.4c-2.3-0.2-2.3-0.2-1.6-1.3
      c0.4-0.7,0.6-0.7,1.6-0.1c1,0.6,1.1,0.5,1.4-0.2c0.2-0.4,0.5-0.7,0.7-0.6c0.2,0.1,0.4,0,0.4-0.2c0-0.2,0.4-0.4,0.9-0.4
      c0.5,0,0.9-0.2,0.9-0.5c0-0.6-1-1-2.3-1c-1,0-1.2-0.7-0.2-1c0.4-0.1,0.6-0.3,0.5-0.5c-0.1-0.2,0.3-0.5,0.9-0.8
      c1.6-0.7,1.2-1.3-0.8-1.3H51l1.2-1.3c0.9-1,1-1.4,0.6-1.7c-0.4-0.4-0.9-0.2-2.1,0.9c-1.4,1.3-1.6,1.3-2,0.7c-0.3-0.4-0.7-0.7-1-0.7
      c-0.5,0-2,2.2-2.3,3.4c-0.2,1-4.5,4-5.1,3.7c-0.2-0.1-0.3-1.1-0.2-2.3c0.1-1.2-0.1-2.1-0.3-2.1s-0.3-0.6-0.3-1.4
      c0.1-1.2,0.4-1.5,1.4-1.7c1.1-0.2,1.3-0.2,1,0.4c-0.4,1.1,0.7,1.4,1.6,0.4c0.5-0.5,0.9-0.7,1.1-0.5c0.3,0.4,2.1,0.2,2.1-0.3
      c0-0.4-2.3-2.2-2.7-2.1c-0.2,0-0.7,0-1.1-0.1c-1.3-0.3-0.5-0.8,0.9-0.6c2.3,0.4,4.4,0.3,4.6-0.2c0.1-0.3-0.1-0.5-0.5-0.5
      s-0.9-0.3-1.2-0.6s-0.8-0.5-1-0.4c-0.2,0.1-0.4,0.1-0.4-0.1c0-0.2,0.6-0.7,1.4-1.1c1.4-0.8,1.8-1.4,0.9-1.4c-0.8,0-3.9,1.2-4.3,1.7
      c-0.2,0.3-0.3,0.1-0.1-0.4c0.2-0.5,0.1-0.9-0.2-1.1c-0.5-0.3-2.4,2.2-2.4,3.1c0,0.3-0.1,0.5-0.3,0.4s-0.6,0-0.9,0.4
      c-0.5,0.6-0.6,0.4-0.4-1.2c0.2-1.5,0.6-2.3,2.3-3.9c1.1-1.1,2.1-2.3,2.1-2.6c0-0.9-2.3-0.3-2.8,0.7c-0.8,1.7-1.6,1.1-1.4-1
      c0.1-1.5,0-2.1-0.8-2.8l-1-0.9l-0.1,0.9c0,0.5-0.1,2.1-0.1,3.5l-0.1,2.5l-1.7-1.5c-2-1.7-2.2-1.8-2.2-0.6c0,0.5,0.8,1.6,1.8,2.5
      c1.5,1.4,1.8,1.9,1.9,3.8c0.1,1.4-0.1,2.1-0.4,1.9c-0.3-0.1-0.5-0.5-0.5-0.8c0-0.3-0.2-0.6-0.5-0.6s-0.5-0.7-0.5-1.5
      c0-1.7-1.2-2.9-1.9-2c-0.2,0.3-0.3,0.8-0.2,1c0.2,0.6-1.1,0.2-2-0.5c-0.3-0.3-0.9-0.5-1.2-0.5c-1.2,0-1,1.1,0.5,2.5
      c1.8,1.7,1.9,2.1,0.7,2.3c-0.6,0.1-0.8,0.4-0.6,0.9c0.3,0.8,1.5,1,2.3,0.3c0.6-0.5,0.6-0.5,0.7,1c0.1,1.2,0,1.2-1.6,0.5
      c-1.5-0.7-1.8-0.7-1.8,0.2c0,0.4,0.7,1.2,1.5,1.7c1.1,0.7,1.2,0.9,0.5,0.8c-0.6-0.1-1.1,0-1.3,0.4c-0.4,0.9-0.7,0.8-3.8-0.9
      c-1.5-0.8-3-1.4-3.2-1.3c-1,0.3-0.4,1.8,1,2.4l1.4,0.6L25,19.7c-0.7,0.1-1.3,0.4-1.5,0.7c-0.3,0.6,0.9,1.1,1.6,0.8
      c0.2-0.1,0.4,0,0.4,0.2s0.4,0.4,0.8,0.4c0.6,0,0.6,0.1,0.2,0.2c-0.5,0.2-0.4,0.4,0.4,0.9l1.1,0.7L26,23.9c-2,0.3-2.4,0.9-1.3,1.7
      c0.4,0.3,0.9,0.3,1.4,0.1c0.9-0.4,2.5-0.2,2.5,0.3c0,0.2,0.4,0.3,0.9,0.3c0.5,0,0.9-0.2,0.9-0.4c0-0.2,0.5-0.4,1-0.4l1,0l-1.1,0.8
      c-0.9,0.6-1,0.9-0.5,1.1c0.7,0.4,1.9,0.1,2.5-0.5c0.2-0.2,0.3,0.1,0.1,0.7c-0.2,0.9-0.1,1.1,0.6,1.1c0.5,0,0.9-0.2,1-0.5
      c0-0.3,0.1-0.3,0.3,0.1c0.2,0.4,0.4,0.3,0.8-0.4l0.6-0.9l0.6,1.1c0.3,0.6,0.4,1.2,0.2,1.3c-0.2,0.2-1.8,0.3-3.7,0.4
      c-3.1,0.1-3.5,0.1-5.5-1c-2-1.1-3.5-1.3-3.5-0.4c0,0.2,0.6,0.6,1.3,0.9l1.3,0.6L26,29.6c-1.6-0.2-4.3-1.4-5.5-2.4
      c-0.3-0.3-1-0.5-1.5-0.5c-0.9,0-1.2,0.7-0.4,1.4c0.3,0.2-0.4,0.4-1.9,0.5c-1.3,0.1-2.5,0.2-2.7,0.3c-1.5,0.8,2.2,2.2,4.9,1.9
      l1.9-0.2l-1.3,0.6c-0.8,0.4-1.2,0.9-1.2,1.3c0.2,0.9,2.2,0.6,3.5-0.6c0.6-0.5,1.4-0.9,1.8-0.8c0.6,0.1,0.6,0.3-0.4,0.6
      c-1.6,0.5-2,1.2-1.1,1.5c0.4,0.1,0.6,0.5,0.5,0.7c-0.1,0.3,0.1,0.6,0.4,0.7c0.4,0.1,0.7,0.1,0.7-0.1c0-0.3,1.5-0.9,2.6-1
      c0.3,0,1-0.4,1.5-0.8s1-0.6,1-0.4c0,0.4-1,1.2-2.2,1.7c-0.6,0.3-1,0.6-1,0.8c0,0.7,1.4,0.8,2.3,0.2c0.8-0.6,0.9-0.6,0.6,0.1
      c-0.4,1.1,0.6,1,1.5-0.2c0.6-0.7,0.9-0.9,1.2-0.5c0.3,0.4,0.5,0.4,0.8,0c0.2-0.3,0.8-0.5,1.3-0.4c1.9,0.2,4.3-1.2,4.4-2.5
      c0-0.7,0.1-0.7,0.4,0.2c0.3,0.8,0,1.2-1.3,2.2c-0.9,0.7-2.9,1.8-4.5,2.5l-2.8,1.3L27,36.8c-1.2-0.5-2.5-1-2.8-1
      c-0.8-0.1-0.7,0.6,0.2,1.5c0.7,0.7,0.7,0.7,0,0.3c-0.4-0.3-1-0.4-1.2-0.3c-0.2,0.1-1,0-1.7-0.3c-1.7-0.7-2.2-0.7-1.9,0.1
      c0.2,0.5,0,0.7-1.1,0.6c-0.8,0-1.5-0.1-1.6-0.3c-0.6-0.5-2,0.2-2,1c0,0.6,0.2,0.7,1,0.6c0.9-0.2,0.9-0.2,0.2,0.5
      c-0.8,0.8-0.7,0.9,1.1,0.8c0.8-0.1,1,0.1,0.7,0.6c-0.2,0.5-0.1,0.6,0.9,0.5c1-0.2,1.1-0.1,0.9,0.5c-0.2,0.8,0,0.9,1.2,0.4
      c1.1-0.5,2.6,1.1,1.6,1.8c-0.5,0.4-0.7,0.4-0.9,0c-0.1-0.3-1-0.6-1.9-0.6c-0.9,0-1.5,0.1-1.4,0.3c0.1,0.2-0.2,0.2-0.7,0.1
      c-1.2-0.3-1.2,0.3-0.1,0.9c0.6,0.3,0.8,0.7,0.6,1.4c-0.3,1.2-0.3,1.2-2,0c-0.8-0.5-1.7-1-2-1c-0.8,0-0.8,0.2-0.2,1.1
      c0.5,0.8,0.2,0.8-3.3,0.2c-1.1-0.2-1.7-0.1-1.7,0.1c0,0.5,2.4,1.6,3.5,1.6c0.6,0,0.7,0.1,0.2,0.6c-0.5,0.5-0.4,0.6,0.1,0.8
      c0.4,0.1,0.9,0.2,1.1,0.1c1-0.2,1.6,0.1,1.5,0.5c-0.1,0.3,0.4,0.5,1.2,0.5c1,0,1.3,0.2,1.3,0.8c0,0.8,0.1,0.8,0.9-0.1
      c0.7-0.7,0.9-0.8,0.9-0.3c0,0.4,0.2,0.5,0.5,0.4c0.3-0.1,0.7,0.2,0.9,0.8c0.2,0.5,0.8,1.1,1.2,1.2s0.7,0.5,0.7,0.8
      c0,0.3,0.3,0.5,0.7,0.5s1,0.3,1.3,0.7c0.6,0.6,0.7,0.6,1.7-0.1l1.1-0.8l-0.8,0.8c-0.5,0.5-2,1.1-4,1.4c-4.1,0.8-5,0.8-6.7-0.1
      c-1.5-0.8-2.3-0.7-1.9,0.4c0.2,0.6,0.1,0.7-1,0.7c-0.7,0-1.5-0.2-1.8-0.4c-0.3-0.3-0.8-0.2-1.4,0.2c-0.9,0.5-0.8,0.6,0.6,1.3
      c1.1,0.5,1.4,0.9,1.2,1.4c-0.2,0.5,0,0.7,0.4,0.6c1.3-0.2,1.9,0,1.6,0.6c-0.4,1,1.2,1.4,2.5,0.7c0.8-0.5,1-0.5,0.5-0.1
      c-0.8,0.8,0,1.7,1.2,1.3c1.7-0.5,2.2,0.3,0.5,0.8c-2.2,0.7-4.4,0.7-5.2,0c-0.9-0.8-2.3-0.8-2,0c0.2,0.5-0.1,0.5-1.8,0.3
      c-2.5-0.3-2.8,0.4-0.5,1c1.1,0.3,1.5,0.7,1.4,1.1c-0.2,0.8,1.2,1.2,2.3,0.7c0.6-0.3,0.8-0.2,0.8,0.6c0,0.8,0.2,0.9,1,0.7
      c0.8-0.2,0.9-0.1,0.7,0.5c-0.3,0.5-0.1,0.7,0.6,0.5c0.5-0.1,0.9,0,0.9,0.1c0,0.7,1,0.3,2.2-0.8c1.5-1.3,2.4-1.6,3.4-1.1
      c1.3,0.5,0.9,1-0.6,0.8c-1.6-0.2-1.8,0.4-0.7,1.8c0.7,0.8,0.7,0.9-0.2,0.9c-0.5,0-1.2,0.3-1.6,0.6s-1,0.6-1.4,0.6
      c-0.4,0-0.8,0.2-1,0.4c-0.1,0.2-1.1,0.3-2.1,0.3c-1,0-2.1,0.1-2.4,0.3c-0.3,0.2-1.3,0.3-2.1,0.2C9.2,73.8,9,74,8.8,74.7
      c-0.1,0.6-0.5,0.9-1.3,0.9c-0.6,0-1.4,0.1-1.6,0.1c-0.3,0.1-0.8,0.1-1.3,0c-0.4,0-0.8,0.1-0.8,0.3c0,0.5,2.5,1.7,3.7,1.7
      c1,0,1,0,0.2,0.8C7,79.2,7,79.2,8.2,79.2c0.9,0,1.1,0.1,0.9,0.6c-0.2,0.5,0,0.6,1.1,0.3c0.7-0.1,1.4-0.3,1.6-0.3
      c1.4,0,1.8,0.2,1.6,0.6c-0.5,1.1,0.7,1,1.4,0c0.7-1,0.7-1,0.7-0.2c0,0.5,0.2,0.9,0.4,0.9c2.8,0.3,3.3,0.2,3.8-0.9l0.6-1.2l0.4,0.9
      L21,81l0.9-1c0.9-1,0.9-1,0.9-0.1c0,1.2,0.8,1.1,1.2-0.1c0.2-0.5,0.5-1,0.7-1s0.3,0.2,0.1,0.4c-0.2,0.3,0.1,0.3,1.2,0.2
      c1.1-0.2,1.5-0.2,1.3,0.2c-0.3,0.7-3.2,1.9-4.6,1.9c-0.7,0-1.3,0.2-1.4,0.5c-0.1,0.3-1,0.5-2.3,0.4c-1.2,0-2.1,0.1-2.1,0.3
      c0,0.7,1.6,1.5,2.9,1.4c0.8-0.1,1.4,0,1.4,0.2c0.1,0.6-2.6,1-9.1,1.2c-7.4,0.2-10.4,0.5-10.4,0.9c0,0.2-0.5,0.2-1.2,0.1
      c-0.1,0-0.3,0-0.4,0v1c0.5,0.3,1.3,0.5,2,0.5c0.5,0,1,0.2,1,0.4c0,0.2-0.2,0.4-0.5,0.4c-0.3,0-0.9,0.4-1.5,0.8l-1,0.8v0l1.5-0.2
      c1-0.1,1.5,0,1.5,0.3c0,0.3,0.4,0.4,0.9,0.3c0.5-0.1,0.9,0,0.9,0.2c0,0.6,1.2,0.5,1.8-0.1c0.3-0.3,0.8-0.6,1-0.6
      c0.3,0,0.1,0.3-0.3,0.7s-0.8,0.8-0.8,1c0,0.4,1.8,0.3,2.1-0.1c0.5-0.6,1.1-0.4,1.4,0.4c0.4,1,0.9,1,2.6,0l1.3-0.8l-0.3,1.2
      c-0.3,1.5,0.5,1.6,2.4,0.3c1.2-0.8,1.3-0.8,0.8,0c-0.6,0.9-0.3,1.3,0.7,1c0.4-0.1,1,0,1.3,0.3c0.5,0.3,0.7,0.3,0.7,0
      c0-0.2,0.3-0.4,0.7-0.4s0.7,0.2,0.7,0.5c0,0.4,0.4,0.5,1.3,0.4c4.8-0.5-1.4,1.9-7,2.6c-3.6,0.5-4,0.5-5.2-0.2
      c-0.7-0.4-1.5-0.7-1.9-0.7c-1,0-0.6,0.8,0.5,1.2c0.8,0.3,0.5,0.3-1,0.1c-1.1-0.1-2.6-0.2-3.2-0.2c-0.6,0-2.2-0.2-3.4-0.5
      C0.6,97.1,0.3,97,0,96.9V98c0.8,0.4,1.9,0.8,2.6,0.9l2,0.3l-1.7,0c-1.2,0-1.7,0.2-1.7,0.6c0,0.3,0.4,0.6,0.8,0.6
      c0.4,0,1,0.1,1.3,0.1c0.3,0,0.8,0.1,1.1,0.1c0.5,0,0.4,0.2-0.2,0.6c-1.1,0.7-0.6,1.2,0.7,0.6c0.8-0.4,1-0.3,1,0.2
      c0,0.5,0.3,0.6,1.5,0.5c0.8-0.1,1.9-0.3,2.4-0.5c0.9-0.3,0.9-0.3,0,0.3c-0.9,0.6-0.7,0.8,0.8,0.6c0.5,0,0.8,0.2,0.8,0.5
      c0,0.8,0.4,0.8,1.5-0.3l0.9-0.9l-0.7,1c-0.4,0.6-0.7,1.2-0.7,1.4c0,0.6,2.3,0.2,3.3-0.7c0.9-0.7,0.9-0.7,0.6,0.3
      c-0.5,1.3-1.1,1.6-5.3,2.7c-3.5,0.9-3.7,0.9-5.6,0.3c-2.1-0.7-4.9-0.9-4.9-0.3c0,0.2,0.2,0.5,0.5,0.8c0.3,0.2,0,0.3-0.7,0.1v7.7
      c0,0,0.1-0.1,0.2-0.1c0.5-0.3,0.9-0.6,0.9-0.8c0-0.2,0.4,0,0.8,0.4c0.9,0.7,1.1,1.6,0.4,1.6c-0.2,0-0.3,0.2-0.1,0.4
      c0.2,0.3-0.1,0.4-1.1,0.2c-0.5-0.1-0.9-0.1-1.2-0.1v2l1.3-0.1L0,120v1.6c0.2-0.1,0.5-0.1,0.6-0.1c0.4-0.1,0.4,0,0.1,0.1
      c-1.2,0.3-0.6,1,0.7,0.7c0.9-0.2,1.1-0.1,0.6,0.1c-1.2,0.7-0.1,0.9,1.3,0.2c0.8-0.3,1.4-0.5,1.4-0.3c0,0.2-0.3,0.4-0.6,0.5
      s-0.4,0.3-0.2,0.5c0.2,0.2,1,0.1,1.7-0.1c1.1-0.3,1.3-0.3,1.1,0.1c-0.2,0.4,0,0.5,0.6,0.3c0.7-0.2,0.8-0.2,0.3,0.3
      c-0.5,0.4-2.1,0.5-7.3,0.5c-0.1,0-0.3,0-0.4,0v7c0.1,0.2,0.2,0.3,0.3,0.4c0.4,0.3,3.1-1,3.1-1.5c0-0.2,0.2-0.2,0.4-0.1
      c0.3,0.1,0.3,0.6,0,1.2c-0.2,0.5-0.4,1.1-0.4,1.4c0,0.5,2.2-0.8,4.4-2.6c1.6-1.4,1.9-1.1,0.3,0.3c-0.4,0.4-0.5,1-0.4,1.3
      c0.3,0.6,0.4,0.5,1.5-0.3l1.2-0.9l-0.2,1c-0.1,0.9-0.5,1-3.8,1.5c-2.4,0.3-3.9,0.4-4.4,0.1c-0.5-0.3-1.3-0.5-2-0.6v7.6
      c0.1,0,0.1,0.1,0,0.2v0.7c0,0,0,0,0,0v33.7l539.5-0.1v-38.2v-7.7v-88c-0.3,0-0.6,0.1-0.9,0.1c-2.2,0.2-2.6,0.1-3-0.6
      c-0.3-0.4-0.5-0.9-0.5-1.1c0-0.3,0.2-0.4,0.5-0.4c0.3,0,0.7,0.2,1,0.5c0.8,0.8,2,1,2.8,0.5v-6.9l-1.1-0.4
      C537.3,32.1,536.1,31.7,535.8,31.6z M494,38c0.4,0,0.6,0.2,0.4,0.4c-0.4,0.5-1.1,0.5-1.1,0C493.3,38.2,493.6,38,494,38z M478,29.9
      c-0.4-0.4-1-0.8-1.3-0.8c-0.5,0-1.7-1.4-1.4-1.6c0.1,0,0.2-0.1,0.3,0c0.8,0.1,2.9,1.2,3.2,1.9C479.3,30.7,479,30.9,478,29.9z
       M479,26.6c-0.2,0-0.8-1.1-1-2c-0.1-0.4-0.5-1-0.8-1.3c-0.4-0.3-0.6-0.8-0.6-1.1c0-0.1,0-0.1,0.1-0.1c0.2,0,0.7,0.3,1.2,0.8
      c0.9,0.9,1.3,1.6,1.3,2.5C479.2,26,479.1,26.6,479,26.6z M428.8,72.1c0.1,0.5,0.3,0.8,0.4,1.3c-0.5-0.2-0.8-0.4-1.3-0.6
      C428.2,72.6,428.4,72.4,428.8,72.1z M422.1,52.2c-0.1,0.6-0.2,1.1-0.3,1.7C421.1,53.1,421.1,52.8,422.1,52.2z M407.4,93.8
      c0.2-0.3,0.5-0.7,0.6-1c0.2-0.3,0.2-0.7,0.4-1.1c0.8,0.7,0.7,0.9-0.1,1.4c0.2,0.3,0.5,0.5,0.8,0.9
      C408.4,93.9,407.9,93.9,407.4,93.8z M406.8,105.1c-0.3-0.8-0.5-1.5,0.3-2c0.5-0.3,0.8-0.8,1.3-1.2c0.4,0.9-1.1,0.8-0.9,1.7
      c0.3,0,0.6-0.1,1.1-0.1C408,104.1,407.4,104.5,406.8,105.1z M405.1,119.4c0.1-0.3,0.1-0.7,0.2-1c0.1-0.2,0.3-0.4,0.4-0.6
      c0.1,0.1,0.2,0.2,0.3,0.2C405.7,118.5,405.4,119,405.1,119.4z M391.3,141.7c0.4-1.1,0.6-1.3,1.8-1.2
      C392.5,140.9,391.9,141.3,391.3,141.7z M135.6,121.1C135.6,121.1,135.6,121.1,135.6,121.1c0.2,0,0.6,0.1,0.9,0.3
      c0.3,0.1,0.3,0.3,0.2,0.3c-0.2,0-0.5-0.1-0.8-0.3C135.6,121.2,135.5,121.1,135.6,121.1z M135.2,114.5c0.1,0,0.1-0.1,0.3-0.1
      c0.1,0,0.2,0,0.4,0.1c0.3,0.1,0.2,0.1-0.2,0.2C135.3,114.6,135.1,114.6,135.2,114.5z M128.3,112.9c0.4,0,0.7,0,0.9,0.1
      c0.4,0.1,0.2,0.2-0.7,0.2c-0.8,0-1.4,0-1.4-0.1C127.1,113,127.7,112.9,128.3,112.9z M127.4,98.2c0.2,0,0.3,0.1,0.3,0.3
      c0,0.3-0.2,0.3-0.5,0C127.2,98.3,127.2,98.2,127.4,98.2z M117.6,74.8c0.3,0,0.4,0.1,0.3,0.3c-0.3,0.3-0.8,0.3-0.8,0
      C117.2,74.9,117.4,74.8,117.6,74.8z M106,68.9c-0.3-0.3-0.8-0.6-1-0.6c-0.4,0-1.2-1-1-1.2c0,0,0.1,0,0.2,0c0.6,0,2.1,0.9,2.3,1.4
      C107,69.4,106.7,69.6,106,68.9z M106.7,66.4c-0.2,0-0.6-0.8-0.7-1.5c-0.1-0.3-0.3-0.7-0.6-1c-0.3-0.2-0.5-0.6-0.5-0.8
      c0,0,0-0.1,0.1-0.1c0.1,0,0.5,0.2,0.9,0.6c0.7,0.6,1,1.2,1,1.8C106.9,66,106.8,66.4,106.7,66.4z M84.5,64c0.1,0.5,0.3,0.8,0.4,1.3
      c-0.5-0.2-0.8-0.4-1.3-0.6C83.9,64.5,84.2,64.3,84.5,64z M77.8,44.1c-0.1,0.6-0.2,1.1-0.3,1.7C76.8,45,76.8,44.7,77.8,44.1z
       M52.5,30.2c0.4,0,0.6,0.2,0.4,0.4c-0.4,0.5-1.2,0.5-1.2,0C51.8,30.4,52.1,30.2,52.5,30.2z M35.8,21.8c-0.5-0.4-1.1-0.8-1.4-0.8
      c-0.5,0-1.8-1.5-1.5-1.7c0.1,0,0.2-0.1,0.3,0c0.9,0.1,3,1.3,3.3,2C37.2,22.6,36.8,22.8,35.8,21.8z M36.8,18.3
      c-0.2,0-0.8-1.2-1.1-2.1c-0.1-0.4-0.5-1-0.8-1.4c-0.4-0.3-0.7-0.9-0.7-1.2c0-0.1,0-0.1,0.1-0.1c0.2,0,0.7,0.3,1.3,0.9
      c0.9,0.9,1.4,1.7,1.4,2.6C37,17.7,36.9,18.3,36.8,18.3z M11.2,132.5c-0.6,0-0.6-0.3,0-0.6c0.1,0,0.1-0.1,0.2-0.1
      c0.2,0,0.3,0.1,0.3,0.2C11.7,132.3,11.5,132.5,11.2,132.5z M13.3,117.3c-0.9,0.4-2.1,0.5-3.3,0.4c-1.1-0.1-1.8,0-1.7,0.2
      c0.4,0.5-0.3,0.4-1.7-0.2c-0.7-0.3-1.3-0.4-1.4-0.2c-0.1,0.2-0.5,0.3-1,0.1c-0.8-0.2-0.7-0.3,0.2-1.2l1-0.9l1.1,0.9l1,0.9l0.8-1
      c0.7-0.9,0.8-0.9,1.2-0.3c0.3,0.5,0.6,0.6,0.8,0.2c0.3-0.3,0.4-0.2,0.7,0.3c0.3,0.8,1.2,1.2,1.2,0.4c0-0.2,0.6-0.4,1.3-0.4h1.3
      L13.3,117.3z M15.9,116.4c-0.8,0.2-0.9,0.1-0.6-0.2c0.2-0.2,0.5-0.3,0.8-0.3c0.1,0,0.2,0,0.3,0C16.7,116.1,16.5,116.2,15.9,116.4z
       M26.8,69.2c-1.7,0.8-2.6,1-2.6,0.6c0-0.2,3.2-1.4,3.8-1.4C28.3,68.4,27.7,68.8,26.8,69.2z M31.2,44.9c-0.7,0.2-2.5,0.5-3.9,0.6
      c-2.3,0.2-2.7,0.1-3.1-0.6c-0.3-0.4-0.5-1-0.5-1.2c0-0.3,0.2-0.4,0.5-0.4c0.3,0,0.7,0.2,1,0.5c0.9,1,2.5,1.1,3.3,0.3
      c0.8-0.7,1.8-0.8,1.3,0c-0.1,0.2,0.1,0.4,0.4,0.4s0.8-0.2,1-0.4c0.4-0.5,1.2-0.5,1.2,0C32.4,44.3,31.9,44.7,31.2,44.9z M33.8,43.9
      c-0.3,0.1-0.5,0.1-0.5-0.2c0-0.2,0.2-0.4,0.5-0.4c0.3,0,0.5,0.1,0.5,0.2C34.3,43.6,34.1,43.8,33.8,43.9z M36.1,43.2
      c-0.3,0.1-0.5,0.1-0.5-0.2c0-0.2,0.2-0.4,0.5-0.4c0.3,0,0.5,0.1,0.5,0.2C36.6,42.8,36.4,43,36.1,43.2z M37.9,42.2
      c-0.6,0-0.6-0.3,0-0.6c0.1,0,0.1-0.1,0.2-0.1c0.2,0,0.3,0.1,0.3,0.2C38.4,42,38.2,42.2,37.9,42.2z M46.7,29.1
      c0-0.3,0.2-0.3,0.5-0.2c0.4,0.2,0.3,0.4-0.3,0.8c-1.2,0.7-1.6,0.6-1.6-0.3c0-0.4,0-0.6,0.2-0.6c0.1,0,0.3,0.1,0.5,0.3
      C46.5,29.4,46.7,29.4,46.7,29.1z M40.3,25.1c0.1-0.8,0.4-0.9,1.9-0.7c1.3,0.1,1.7,0,1.7-0.5c0-0.3,0.3-0.6,0.7-0.6
      c0.4,0,0.7-0.2,0.7-0.5c0-0.3,0.2-0.4,0.5-0.4c0.1,0,0.2,0,0.4,0c0.8,0.2,0.6,0.4-1.2,1.5c-1.2,0.7-2.5,1.4-3,1.4
      c-0.5,0-0.9,0.2-0.9,0.3S40.9,26,40.7,26C40.4,26,40.2,25.6,40.3,25.1z M41.6,28.3c0.6,0.2,1.6,0.3,2.2,0.2
      c0.6-0.1,1.1-0.1,1.1,0.2c0,0.2-0.2,0.4-0.4,0.4c-0.2,0-0.7,0.1-1.1,0.2c-0.4,0.1-1.1-0.2-1.8-0.6l-1.1-0.8L41.6,28.3z M42,43.6
      c-0.1,0.4-0.2,0.2-0.2-0.5c0-0.5,0-0.8,0.1-0.8c0,0,0.1,0,0.1,0.1C42.1,42.7,42.1,43.3,42,43.6z M41.5,40c-0.5-0.4-0.3-3.6,0.2-3.6
      c0.3,0,0.5,0.9,0.5,1.9C42.1,40.3,42,40.5,41.5,40z M53.1,66.1c0-0.3-0.3-0.8-0.6-1.1c-0.4-0.3-0.4-0.5,0-0.5
      c0.3,0,0.6,0.3,0.8,0.6c0.2,0.4,0.8,0.6,1.8,0.5c0.8,0,2,0.1,2.5,0.2c0.9,0.2,1,0.1,1-0.5v-0.8l1.5,0.7c0.1,0.1,0.1,0.2,0.2,0.3
      c0.4,0.3,0.9,0.5,1.4,0.8c-0.5,0.2-1,0.4-1.4,0.7c-0.2,0.1-0.2,0.4-0.3,0.6c0.2,0.1,0.4,0.2,0.7,0.2c0.3,0,0.5-0.1,0.9-0.2
      c-0.2,0.4-0.4,0.7-0.5,0.9C57.8,68.7,53.1,67.4,53.1,66.1z M61.8,64.8c0,0,0,0.1,0,0.1c0,0,0,0,0,0C61.7,64.9,61.8,64.8,61.8,64.8z
       M63.6,111c-0.1-0.1-0.2-0.2-0.3-0.2c0.1-0.1,0.2-0.2,0.3-0.3c0.1,0.2,0.2,0.5,0.2,0.7C63.8,111.1,63.7,111,63.6,111z M64.7,79
      c-2-1.2-2.2-1.2-2.5-0.3c-0.3-0.1-0.6-0.3-0.9-0.4c0.1-0.1,0.1-0.3,0-0.6c-0.2-0.7-0.2-0.8,0.5-0.3c1,0.7,2.4,1.1,2.4,0.7
      c0-0.2,0.4-0.2,0.8-0.2C64.9,78.3,64.8,78.7,64.7,79z M62.9,64.7c0.1,0,0.1,0,0.2,0c0,0.1-0.1,0.2-0.1,0.2
      C62.9,64.8,62.9,64.8,62.9,64.7z M65.1,65.9c-0.2-0.4-0.4-0.8-0.7-1.2c0.5,0,1,0.1,1.4,0.2c0.3,0,0.9,0,1.5-0.2c1-0.3,1-0.3,0.3-1
      c-0.1-0.1-0.2-0.2-0.3-0.3c0.6,0,1.2,0,1.8-0.1c0.2,0,0.4-0.1,0.5-0.1c0,0.6-0.1,1.1-0.1,1.7c-0.4,0.2-1.3-0.1-1.7,0.7
      c0.3,0.1,0.5,0.3,0.7,0.4c-0.7,0.6-1.4,0.5-1.9-0.2c-0.1-0.2-0.3-0.3-0.5-0.5C65.5,64.9,65.3,64.9,65.1,65.9z M66.5,63.8
      c0.3,0,0.5,0.2,0.5,0.4c0,0.5-0.3,0.5-0.7,0C66.1,64,66.2,63.8,66.5,63.8z M68.6,61.5c0.1,0,0.1-0.1,0.2-0.1c0,0.1,0,0.2,0.1,0.3
      C68.8,61.6,68.7,61.5,68.6,61.5z M70,68.5c-0.1,0-0.2,0.1-0.3,0.1c-0.2-0.3-0.4-0.7-0.7-1.1c0.3-0.1,0.5-0.2,0.7-0.3
      C69.8,67.6,69.9,68.1,70,68.5z M68,76.6c-0.2-0.2-0.6-0.5-1.2-0.9l-0.6-0.4c0.3-0.1,0.5-0.2,0.8-0.4l0.6,0.1
      C67.8,75.6,67.9,76.1,68,76.6z M65.7,74.9l-0.3-0.2l0.4,0.1C65.8,74.8,65.8,74.9,65.7,74.9z M67.1,78.1c-1-0.1-0.8,0.5-0.7,1.1
      c0,0.2,0.1,0.4,0.2,0.6c-0.2,0-0.3,0-0.5,0c-0.2-0.3-0.2-1-0.1-1.9c0,0,0-0.1,0-0.1c0,0,0-0.1,0-0.1c0.5,0,0.9,0,1.4,0
      c0,0.1,0.1,0.1,0.1,0.2C67.4,77.9,67.2,78.1,67.1,78.1z M68.5,79.4c-0.1-0.2-0.4-0.4-0.6-0.7c0-0.1,0-0.2,0-0.3
      c0.7,0,1.4-0.1,2.2-0.1c0,0.1,0,0.2,0.1,0.3C69.6,78.9,69.1,79.1,68.5,79.4z M70.6,54c-0.4-0.1-0.9-0.3-1.3-0.4
      c-0.3-0.1-0.5,0-0.8,0.1c0.1,0.3,0.2,0.6,0.4,0.8c0.3,0.3,0.6,0.5,1,0.7c-0.2,0.2-0.4,0.3-0.6,0.5c-0.8-0.7-1.1-1.9-2.1-2.4
      c-0.1,0-0.2,0.1-0.3,0.1c0.2,0.6,0.4,1.1,0.7,1.8c-1.2-0.7-2.3-1.5-3.7-1.3c-0.1,0.1-0.2,0.2-0.3,0.4c0.4,0.2,0.8,0.5,1.2,0.7
      c-0.6,0.7-0.5,0.9,0,1.3c0.4,0.3,0.8,0.6,1.1,0.9c-0.7,0.4-2,0.6-3.3,0.6c-1.8,0-2.1-0.1-1.3-0.3c0.9-0.3,1-0.6,0.6-2.1
      c0-0.1-0.7,0.2-1.6,0.7c-0.9,0.4-2.3,0.8-3.1,0.8c-2.9,0-7.8-1.6-11-3.6c-1.2-0.7-1-0.9,0.4-0.3c0.7,0.3,0.9,0.3,0.9-0.3
      c0-0.7,0-0.7,0.5,0c0.3,0.4,0.7,0.6,0.9,0.5c0.2-0.1,0.9,0.1,1.6,0.4c1.2,0.6,1.2,0.6,1.2-0.5c0-0.6,0.2-0.9,0.3-0.7
      c0.4,0.5,2.1,1.3,2.8,1.3c0.3,0,0.5-0.4,0.5-0.9c0-0.8,0.1-0.8,0.4,0.1c0.2,0.5,0.4,0.9,0.5,0.8c0.1-0.1,0.6,0,1.2,0.3
      c0.8,0.3,1.1,0.3,1.6-0.3c0.3-0.4,0.8-0.6,1-0.5c0.2,0.1,0.3-0.2,0.1-0.8c-0.3-1-0.2-1,1-0.6c1.5,0.5,2,0.2,1.2-0.6
      c-0.5-0.5-0.4-0.6,0.2-0.6c0.8,0,0.8,0,0-0.7c-0.4-0.4-0.6-0.8-0.4-1c0.2-0.1,0.8,0.1,1.2,0.5c0.7,0.6,1.2,0.7,2.9,0.4
      c0.1,0,0-0.3-0.3-0.5c-0.6-0.6-0.2-1,0.9-1c0,0,0,0,0.1,0c0.1,0,0.2,0.1,0.3,0.1c-0.4,0.6-0.4,0.8,0.2,1c0.7,0.2,1.5,0.5,2.3,0.9
      c-0.7,0.4-1.3,0.7-1.9,1c0,0.1,0.1,0.3,0.1,0.4c0.8,0.1,1.6,0.2,2.4,0.2c0,0.1,0,0.2,0,0.3c-0.5,0.1-1,0.2-1.5,0.3
      c0,0.1,0,0.2-0.1,0.3c0.6,0.3,1.3,0.6,1.9,1C70.7,53.9,70.7,54,70.6,54z M71.8,69.1c0,0,0-0.1,0.1-0.2c0.2-0.5,0.1-0.6-0.3-0.3
      c0.1-0.1,0.2-0.2,0.3-0.3c0.1,0.1,0.1,0.2,0.2,0.3C72.1,68.8,71.9,69,71.8,69.1z M81.2,55.6c0.1,0.1,0.2,0.1,0.3,0.2
      c-0.3,0.4-0.7,0.9-1,1.3c-0.1-0.1-0.2-0.1-0.3-0.2C80.6,56.5,80.9,56,81.2,55.6z M76.7,77c-0.1-0.7-0.3-1.2-0.4-1.8
      C77.2,75.7,77.2,76,76.7,77z M78.7,54.6c0-0.5,0-0.8,0-1.1c0.1,0,0.1-0.1,0.2-0.1c0.2,0.3,0.3,0.6,0.5,0.8
      C79.1,54.4,78.9,54.5,78.7,54.6z M80.1,62.2c-0.2,0-0.5,0-0.6-0.2c-0.1-0.1-0.1-0.5,0-0.6c0.1-0.1,0.5-0.2,0.7-0.1
      c0.4,0.1,0.7,0.4,1.2,0.7C80.8,62.1,80.4,62.2,80.1,62.2z M97.4,92c0.2,0,0.6,0.2,0.8,0.4c-0.8,0.3-1.6,0.6-2.4,0.6
      c0.5-0.4,0.9-0.7,1.3-1C97.2,92,97.3,92,97.4,92z M95.3,83.3c0.1,0,0.2-0.1,0.3-0.1c0.8-0.4,1.8,0.8,1.1,1.3
      c-0.4,0.3-0.5,0.3-0.6,0c-0.1-0.2-0.5-0.3-1-0.4c-0.2-0.1-0.4-0.2-0.6-0.3C94.8,83.6,95,83.4,95.3,83.3z M93.6,82.6
      c0.1,0,0.2,0,0.4,0c-0.1,0.1-0.3,0.2-0.4,0.2C93.6,82.7,93.6,82.7,93.6,82.6z M93.7,86C93.7,86,93.7,86,93.7,86
      c-0.1,0.6-0.1,0.8-0.8,0.4C93.2,86.2,93.4,86.1,93.7,86z M92.3,81.2c-0.1-0.1-0.1-0.2-0.2-0.3C92.7,80.8,92.8,80.8,92.3,81.2z
       M91.7,88.9c0,0.2,0.3,0.3,0.8,0.3c0.7,0,0.9,0.1,0.9,0.5c0,0.5,0,0.5,0.6-0.1c0.5-0.5,0.6-0.5,0.6-0.2c0,0.2,0.1,0.4,0.3,0.3
      c0.2-0.1,0.5,0.1,0.6,0.5c0.2,0.4,0.5,0.8,0.8,0.8c0.1,0,0.1,0.1,0.2,0.1c-0.6,0.3-1.1,0.6-1.7,1c-0.7,0.5-1.4,1-2.1,1.5
      c-0.1,0-0.1-0.1-0.2-0.1c0.2-0.3,0.5-0.7,0.7-1c-0.1-0.1-0.2-0.2-0.2-0.3c-1,0.4-2,0.7-3.1,1.1c-0.2-0.9,0.3-2.1-1-2.7
      c-0.1,0.6-0.2,1.1-0.3,1.5c-0.7,0.1-1.3,0.1-2,0.2c0.1-0.6,0.2-1.2,0.4-1.7c0.2-0.7,0.2-0.8-0.6-0.8c-0.2,0-0.4,0-0.6,0
      c0.4-1.3,1.3-0.3,2-0.6c0-0.2,0-0.4,0.1-0.8c0.2,0.1,0.3,0.2,0.4,0.2c0.2,0.1,0.5,0.1,0.8,0.2c-0.1-0.3-0.1-0.6-0.2-0.8
      c-0.2-0.3-0.5-0.5-0.8-0.8c0.6,0.1,1.2,0.2,1.7,0.3c0,0,0,0,0,0c-0.3,0.3-0.3,0.4,0.1,0.6c0.3,0.1,0.6,0.1,0.8,0.1
      C91.3,88.4,91.8,88.5,91.7,88.9z M92,110.4c0.2,0,0.5,0.1,0.7,0.1c0.3,0.3,0.6,0.6,0.9,0.8c-0.5,0-0.9,0.1-0.9,0.2
      c0,0.5,1.1,1.1,2,1c0.5,0,1,0,1,0.2c0.1,0.3-0.7,0.5-2.5,0.6c-0.3-0.6-0.6-1.2-1-1.7c-0.3-0.4-0.7-0.7-1.1-1c0-0.1,0-0.2,0-0.2
      C91.5,110.5,91.8,110.5,92,110.4z M91.5,98c0.4,0.2,0.8,0.3,1.1,0.5c0.3,0.1,0.5,0.2,0.8,0.3c-0.5,0.1-1,0.2-1.5,0.2
      C91.8,98.7,91.7,98.4,91.5,98z M94.3,98.5c-0.1-0.2-0.1-0.4-0.3-0.5c0,0,0,0-0.1,0C94.8,97.9,95,98.2,94.3,98.5z M89,98.6
      c0.1,0.2,0.1,0.3-0.1,0.3c-0.1-0.3-0.2-0.6-0.4-0.9c-0.1-0.1-0.1-0.3-0.2-0.4c0.1-0.1,0.2-0.1,0.3-0.2c0.2,0.3,0.3,0.6,0.5,0.9
      C88.9,98.4,88.9,98.5,89,98.6z M84.2,85.2c-0.2-0.1-0.5-0.4-0.5-0.6c0-0.6,0.1-1.3,0.1-1.9c0.5,0.3,0.9,0.5,1.4,0.7
      c0.2,0.1,0.6,0.1,0.7,0c0.1-0.2,0.1-0.5,0.1-0.7c0-0.4-0.1-0.7-0.1-1.2c0.8,0.3,1.4,0.6,2,0.9c0-0.1,0.1-0.2,0.1-0.3
      c-0.1-0.2-0.2-0.4-0.3-0.7c0.9,0.1,1.8,0.3,2.8,0.4c0.2,0.8,0.7,1.7-0.3,2.4c-0.3,0-0.5,0.1-1,0.2c0.3-0.5,0.6-0.9,0.8-1.3
      c0.1-0.2,0.1-0.5,0.1-0.8c-0.3,0-0.6,0-0.8,0.1c-0.5,0.4-0.9,0.9-1.5,1.5c0-0.2,0-0.4,0-0.5c-0.1-0.2-0.2-0.5-0.3-0.7
      c-0.2,0.2-0.4,0.3-0.6,0.5c-0.4,0.4-0.8,0.9-1.3,1.2c-0.3,0.2-0.6,0.4-0.9,0.6C84.7,85,84.4,85.2,84.2,85.2z M85.2,95
      C85.2,95,85.2,95.1,85.2,95c0,0.1-0.1,0.1-0.2,0.2C85.1,95.1,85.1,95.1,85.2,95z M86.3,100.6c-0.5-0.3-0.8-0.5-1.3-0.8
      c0.5-0.2,1-0.3,1.6-0.5c0.1,0,0.1,0.1,0.2,0.1C86.6,99.8,86.5,100.2,86.3,100.6z M87.3,102.4c0.1-0.8,0.2-1.5,0.2-2.2
      c0.1,0,0.2,0,0.3,0c0.1,0.4,0.1,0.9,0.2,1.3c0.1,0.3,0.4,0.5,0.5,0.7c0.2-0.2,0.4-0.5,0.4-0.7c0-0.2,0-0.3,0-0.5
      c0.3,0,0.6,0,0.9-0.2c0,0,0,0,0.1,0c0.2,0.5,0.4,1.1,0.7,1.6c-1.2,0.1-2.5,0.2-3.7,0.2C87.2,102.5,87.3,102.5,87.3,102.4z
       M89.1,135.8c0-0.1,0.1-0.1,0.1-0.2c0.2,0.1,0.3,0,0.3-0.2c0-0.1,0.1-0.1,0.3-0.2c0.1,0.2,0.2,0.3,0.3,0.5
      C89.8,135.7,89.4,135.8,89.1,135.8z M89.6,113.4c-0.3-0.2-0.7-0.4-1-0.6c0-0.3,0.1-0.6,0.1-0.9c0.6,0.3,1.2,1.1,1.9,0.3
      c0.3,0.4,0.6,0.7,0.9,1.1C90.9,113.4,90.3,113.4,89.6,113.4z M93.1,121c-0.6,0.3-1,0-1.3-0.4c0.3-0.2,0.8-0.4,0.8-0.5
      c0-0.5,0.2-0.7,0.5-0.8c0.1,0,0.1,0,0.2,0c0.2-0.1,0.7,0,0.9,0.2c0.3,0.2,0.5,0.2,0.5,0c0-0.2,0.2-0.3,0.5-0.3s0.5,0.2,0.5,0.4
      c0,0.2,0.1,0.3,0.4,0.3C95,120.3,94.1,120.6,93.1,121z M96.9,110.6c-0.5,0-0.9,0.2-1,0.3c0,0.1-0.2,0.2-0.5,0.2
      c-0.3-0.4-0.6-0.7-0.9-1.1c0.1-0.1,0.2-0.2,0.2-0.4l0.3-0.5c0.1,0,0.1,0,0.2,0l0.2,0.4l0.3,0.6l0.6-0.7c0.1-0.1,0.2-0.2,0.3-0.3
      c0.1,0,0.2,0.1,0.3,0.1c0,0,0,0.1,0,0.1c0,0.8,0.5,0.8,0.8,0.1c0.5,0.1,1,0.2,1.5,0.3c0,0,0.1,0,0.1,0
      C98.5,110.2,97.5,110.6,96.9,110.6z M100,92.1C100,92.1,100,92.1,100,92.1l0.2-0.2L100,92.1z M102.8,85c-0.5,0.2-1.7,0.3-2.7,0.4
      c-1.6,0.1-1.9,0.1-2.2-0.4c-0.2-0.3-0.3-0.7-0.3-0.8c0-0.2,0.2-0.3,0.4-0.3s0.5,0.1,0.7,0.4c0.7,0.7,1.7,0.8,2.3,0.2
      c0.5-0.5,1.3-0.5,0.9,0c-0.1,0.1,0,0.3,0.3,0.3c0.3,0,0.6-0.1,0.7-0.3c0.3-0.4,0.8-0.4,0.8,0C103.7,84.6,103.3,84.9,102.8,85z
       M104.6,84.3c-0.2,0.1-0.3,0-0.3-0.1c0-0.2,0.1-0.3,0.3-0.3s0.3,0.1,0.3,0.1C104.9,84.1,104.8,84.3,104.6,84.3z M106.2,83.8
      c-0.2,0.1-0.3,0-0.3-0.1s0.1-0.3,0.3-0.3c0.2,0,0.3,0.1,0.3,0.1C106.5,83.6,106.4,83.7,106.2,83.8z M107.5,83.1
      c-0.4,0-0.4-0.2,0-0.4c0,0,0.1,0,0.1,0c0.1,0,0.2,0,0.2,0.2C107.8,83,107.7,83.1,107.5,83.1z M113.6,74c0-0.2,0.2-0.2,0.4-0.1
      c0.3,0.1,0.2,0.3-0.2,0.6c-0.8,0.5-1.1,0.5-1.1-0.2c0-0.3,0-0.4,0.2-0.4c0.1,0,0.2,0.1,0.3,0.2C113.5,74.2,113.6,74.2,113.6,74z
       M109.2,71.2c0.1-0.5,0.3-0.6,1.3-0.5c0.9,0.1,1.2,0,1.2-0.3c0-0.2,0.2-0.4,0.5-0.4s0.5-0.2,0.5-0.4c0-0.2,0.1-0.3,0.4-0.3
      c0.1,0,0.2,0,0.3,0c0.5,0.1,0.4,0.3-0.8,1.1c-0.8,0.5-1.7,1-2.1,1c-0.3,0-0.6,0.1-0.6,0.2c0,0.1-0.2,0.2-0.4,0.2
      S109.1,71.6,109.2,71.2z M110,73.5c0.4,0.2,1.1,0.2,1.5,0.1c0.4-0.1,0.8,0,0.8,0.1c0,0.2-0.1,0.3-0.3,0.3c-0.2,0-0.5,0.1-0.8,0.1
      s-0.8-0.1-1.2-0.4l-0.8-0.6L110,73.5z M110.3,84.1c-0.1,0.3-0.2,0.1-0.2-0.3c0-0.3,0-0.5,0.1-0.5c0,0,0,0,0.1,0.1
      C110.4,83.5,110.4,83.9,110.3,84.1z M394.8,146.4c0.5-0.4,1.1-0.8,1.6-1.2c0.1,1.1,0.1,1.1,1.2,1c0.1,0,0.1,0,0.2,0c0,0,0,0,0,0
      L394.8,146.4z M399.5,146.3l-0.7,0c0.1-0.2,0.3-0.4,0.4-0.5c0.3-0.4,0.6-0.9,0.9-1.5c0.3,0.7,0.5,1.3,0.8,1.8L399.5,146.3z
       M404,145.2c0,0.1-0.3,0.4-0.5,0.5c-0.2,0.1-0.4,0-0.6,0c-0.1,0.1-0.3,0.1-0.4,0.2l-0.7,0.1c-0.1-0.5-0.3-1-0.5-1.4
      c0.4,0.2,0.8,0.4,1.1,0.5c0.1-0.3,0.3-0.7,0.3-1c0-0.3-0.1-0.6-0.2-0.8c0-0.2,0-0.4,0.1-0.6c0-0.1,0.3,0,0.5,0
      c0.5,0.1,1,0.2,1.5,0.3C404.2,143.5,403.4,144.1,404,145.2z M413.9,75.2c0.1,0.5,0.3,0.9,0.4,1.4c-0.1,0-0.2,0.1-0.3,0.1
      c-0.2-0.3-0.4-0.7-0.7-1.1C413.5,75.4,413.7,75.3,413.9,75.2z M411.4,86.2c-1-0.1-0.8,0.5-0.7,1.1c0.1,0.3,0.2,0.6,0.3,0.8
      c-0.7,0.2-0.9-0.7-0.6-2.4c0.5,0,1,0,1.5,0c0,0.1,0.1,0.1,0.1,0.2C411.7,86,411.5,86.2,411.4,86.2z M412.8,87.5
      c-0.1-0.2-0.4-0.4-0.6-0.7c0-0.1,0-0.2,0-0.3c0.7,0,1.4-0.1,2.2-0.1c0,0.1,0,0.2,0.1,0.3C413.9,86.9,413.4,87.2,412.8,87.5z
       M415.1,77.7c-0.1-0.1-0.1-0.2-0.2-0.2c0.4-0.4,0.9-0.7,1.3-1.1c0.1,0.1,0.1,0.2,0.2,0.3C416.2,77.3,415.6,77.6,415.1,77.7z
       M425.5,63.7c0.1,0.1,0.2,0.1,0.3,0.2c-0.3,0.4-0.7,0.9-1,1.3c-0.1-0.1-0.2-0.1-0.3-0.2C424.9,64.6,425.2,64.1,425.5,63.7z
       M421,85.1c-0.1-0.7-0.3-1.2-0.4-1.8C421.4,83.8,421.5,84.1,421,85.1z M422.9,62.7c0-0.5,0-0.8,0-1.1c0.1,0,0.1-0.1,0.2-0.1
      c0.2,0.3,0.3,0.6,0.5,0.8C423.4,62.5,423.2,62.6,422.9,62.7z M424.4,70.3c-0.2,0-0.5,0-0.6-0.2c-0.1-0.1-0.1-0.5,0-0.6
      c0.1-0.1,0.5-0.2,0.7-0.1c0.4,0.1,0.7,0.4,1.2,0.7C425.1,70.2,424.7,70.3,424.4,70.3z M435.1,107.3c0.2,0.3,0.4,0.6,0.7,0.8
      c0.1,0.1,0.4,0.1,0.6,0.1c0-0.2,0.1-0.4,0-0.5c-0.2-0.5-0.4-0.9-0.7-1.6c0.4,0.2,0.8,0.3,1.1,0.5c0.3,0.1,0.7,0.3,1,0.3
      c0.2,0,0.5-0.1,0.7-0.2c-0.1-0.2-0.2-0.5-0.3-0.6c-0.1-0.1-0.4-0.1-0.6-0.2c0.1,0,0.2-0.1,0.3-0.1c1-0.1,1.9-0.3,2.9-0.4
      c0.3,0,0.6,0.2,1,0.2c0.2,0,0.5-0.1,0.7-0.2c0.1-0.1,0-0.4-0.1-0.6c-0.3-0.4-0.7-0.8-1.1-1.3c0.6-0.2,1.3-0.5,2-0.7
      c0.1,0,0.2-0.1,0.3-0.1c0.8,0.4,1.9,0.9,2.7,1l1.9,0.3l-1.7,0c-1.2,0-1.7,0.2-1.7,0.6c0,0.3,0.3,0.6,0.8,0.6c0.4,0,1,0.1,1.2,0.1
      c0.2,0,0.7,0.1,1.1,0.1c0.5,0,0.4,0.2-0.2,0.6c-1.1,0.7-0.6,1.1,0.6,0.6c0.8-0.3,0.9-0.3,0.9,0.2c0,0.5,0.3,0.6,1.4,0.4
      c0.8-0.1,1.8-0.3,2.3-0.4c0.9-0.3,0.9-0.3,0,0.3c-0.9,0.6-0.7,0.7,0.8,0.6c0.4,0,0.8,0.2,0.8,0.5c0,0.8,0.4,0.7,1.4-0.3l0.9-0.8
      l-0.7,1c-0.4,0.6-0.7,1.2-0.7,1.4c0,0.6,2.2,0.1,3.2-0.6c0.9-0.6,0.9-0.6,0.5,0.3c-0.5,1.3-1,1.5-5.1,2.5c-3.4,0.8-3.6,0.9-5.4,0.3
      c-0.4-0.1-0.8-0.2-1.2-0.3c0.3-0.1,0.2-0.4-0.1-0.9c0.6-0.2,1.2-0.4,1.9-0.6c-0.6-1.1-0.9-1.1-3.1-0.8c0-0.4,0-0.7,0-1.1
      c-0.5,0.2-1,0.3-1.4,0.5c-0.5,0.2-0.9,0.4-1.4,0.7c-0.2-0.4-0.4-0.8-0.5-1.1c0.2-0.4,0.4-0.7,0.7-1.3c-1.3,0.1-2.2,0.7-3.1,1.4
      c0.1-1-0.4-0.7-0.8-0.5c-0.5,0.3-1,0.7-1.5,1.1c-0.2-0.7-0.1-1.5-1.1-1.8c-0.1,0.4-0.2,0.7-0.2,0.9c0,0.6,0.1,1.2,0.2,1.7
      c0.1,0.5-0.2,0.7-0.6,0.7c0-0.4,0.1-0.7,0-1c-0.1-0.3-0.3-0.6-0.4-0.9c-0.3-0.5-0.7-1-1.1-1.4C435,107.4,435.1,107.4,435.1,107.3z
       M445.9,121.5c0.2,0.3-0.1,0.3-1.1,0.2c-0.9-0.2-1.4-0.1-1.4,0.1c0,0.2-0.9,0.4-2,0.4c-1.8,0-2.3,0.2-1.7,0.8
      c-0.3-0.1-0.7-0.1-1-0.2c-0.2-0.1-0.5-0.2-0.6-0.4c-0.6-0.9-1-1.9-1.6-2.8c-0.3-0.4-0.7-0.7-1.1-1c0-0.1,0-0.2,0-0.2
      c0.6,0.3,1,0.1,1.1-0.3c0.8,0.7,1.5,1.4,2.3,2.1c0.3,0.2,0.7,0.3,1.1,0.4c0-0.4,0.1-0.8-0.1-1c-0.6-0.8-1.3-1.6-1.9-2.4
      c-0.2-0.3-0.5-0.6-0.7-0.9c0.4,0.2,0.8,0.6,1.2,0.8c-0.2,0.5,0.1,0.8,0.9,0.6c0.4-0.1,0.6,0.1,0.6,0.7c0,0.7,0.2,0.9,0.8,0.9
      c0.5,0,1.2,0.3,1.5,0.6c0.6,0.5,0.8,0.5,1.6,0.1c0.5-0.3,0.9-0.6,0.9-0.7c0-0.2,0.3,0,0.8,0.4c0.8,0.7,1.1,1.6,0.4,1.6
      C445.8,121.1,445.8,121.3,445.9,121.5z M444.4,112.5c0.2,0.1,0.1,0.2-0.1,0.2c-0.2-0.5-0.7-0.9-1.1-1.5c0.4,0.1,0.6,0.1,0.8,0.1
      c0.2,0,0.5,0.1,0.7,0.1c-0.5,0-0.8,0.1-0.8,0.3C443.9,111.9,444.2,112.3,444.4,112.5z M428,92.6c0-0.6,0.1-1.3,0.1-1.9
      c0.5,0.3,0.9,0.5,1.4,0.7c0.2,0.1,0.6,0.1,0.7,0c0.1-0.2,0.1-0.5,0.1-0.7c0-0.4-0.1-0.7-0.1-1.2c0.8,0.3,1.4,0.6,2,0.9
      c0-0.1,0.1-0.2,0.1-0.3c-0.1-0.2-0.2-0.4-0.3-0.7c0.9,0.1,1.8,0.3,2.8,0.4c0.2,0.8,0.7,1.7-0.3,2.4c-0.3,0-0.5,0.1-1,0.2
      c0.3-0.5,0.6-0.9,0.8-1.3c0.1-0.2,0.1-0.5,0.1-0.8c-0.3,0-0.6,0-0.8,0.1c-0.5,0.4-0.9,0.9-1.5,1.5c0-0.2,0-0.4,0-0.5
      c-0.1-0.2-0.2-0.5-0.3-0.7c-0.2,0.2-0.4,0.3-0.6,0.5c-0.4,0.4-0.8,0.9-1.3,1.2c-0.3,0.2-0.6,0.4-0.9,0.6c-0.2,0.1-0.5,0.4-0.7,0.3
      C428.3,93.2,428,92.9,428,92.6z M428.7,101.7c0.1,0,0.2-0.1,0.3-0.1c0.2,0.5,0.4,1,0.5,1.5c0,0-0.4,0.2-0.6,0.2
      C428.9,102.7,428.8,102.2,428.7,101.7z M429.4,107.9c0.6-0.2,1.1-0.4,1.8-0.6c-0.2,0.5-0.4,0.9-0.5,1.4
      C430.2,108.4,429.8,108.2,429.4,107.9z M431,110.7c0.3-0.1,0.5-0.2,0.6-0.2c0.1-0.8,0.2-1.5,0.2-2.2c0.1,0,0.2,0,0.3,0
      c0.1,0.4,0.1,0.9,0.2,1.3c0.1,0.3,0.4,0.5,0.5,0.7c0.2-0.2,0.4-0.5,0.4-0.7c0.1-1.2,0-2.4-0.6-3.5c-0.1-0.1-0.1-0.3-0.2-0.4
      c0.1-0.1,0.2-0.1,0.3-0.2c1,1.7,1.4,3.7,2.4,5.5c-1.2,0.5-2.4-0.6-3.5,0.4C431.6,111.2,431.3,111,431,110.7z M432.9,120.9
      c0-0.3,0.1-0.6,0.1-0.9c0.6,0.3,1.2,1.1,1.9,0.3c0.6,0.7,1.2,1.4,1.8,2.2c-0.3,0.2-1,0.6-1.6,1C434.9,122,433.9,121.5,432.9,120.9z
       M440.3,137.8c-0.1,0-0.3-0.1-0.4-0.1c0.1-0.1,0.3-0.2,0.4-0.2C440.4,137.6,440.4,137.7,440.3,137.8z M440.4,136
      c-0.6,0-1.2,0-1.8,0c0-0.1,0-0.2,0-0.4c0.6,0,1.2,0.1,1.8,0.1C440.5,135.8,440.5,135.9,440.4,136z M440.6,127.8
      c-0.4,0.1-0.7,0.3-1.1,0.4c-1.2,0-1.8,0.1-1.8,0.2c0,0.1,0.2,0.3,0.4,0.3c-0.2,0.1-0.5,0.2-0.7,0.3c-0.6,0.3-1,0-1.3-0.4
      c0.3-0.2,0.8-0.4,0.8-0.5c0-0.8,0.7-0.8,1.1-1.2c0.7-0.8,1.2-0.5,1.9-0.2c1.2,0.5,2,0.1,2.5-0.9c-1.3-0.4-2.5-0.8-3.9-1.3
      c0.5-0.2,0.8-0.3,0.9-0.5c0.2-0.3,0.4-0.7,0.6-1.1c0.1,0.1,0.2,0.2,0.3,0.3c0.4,0.3,1.4,0.4,2.8,0.2l2.1-0.2l-1.6,0.7
      c-1.1,0.5-1.6,0.9-1.4,1.3c0.2,0.4,0.5,0.5,1,0.3c0.4-0.1,1-0.3,1.4-0.3c0.4,0,0.4,0,0.1,0.1c-1.1,0.3-0.5,0.9,0.7,0.7
      c0.9-0.2,1-0.1,0.6,0.1c-1.2,0.6-0.1,0.8,1.3,0.2c0.8-0.3,1.4-0.4,1.4-0.2c0,0.2-0.2,0.4-0.6,0.5c-0.3,0.1-0.4,0.3-0.2,0.5
      c0.2,0.2,0.9,0.1,1.6-0.1c1-0.3,1.2-0.3,1,0.1c-0.2,0.4,0,0.4,0.6,0.3c0.7-0.2,0.7-0.2,0.2,0.3c-0.4,0.4-1.6,0.5-5.3,0.5
      c0,0,0,0,0-0.1c-0.1-0.2-0.8,0-1.2,0c-0.1-0.6-0.6-0.6-1.1-0.6c-0.8,0-1.5,0.1-2.3,0.2C440.9,127.7,440.8,127.8,440.6,127.8z
       M447.6,134.3c0,0.2-0.1,0.4-0.2,0.7c0,0,0,0,0,0c-0.2-0.3-0.3-0.6-0.5-0.8C447.2,134.2,447.4,134.2,447.6,134.3z M442.1,136.7
      c0.1-0.2,0-0.5,0-0.9c0.1,0.1,0.1,0.1,0.1,0.2c-0.1,0-0.1,0.1-0.1,0.1c0,0.2,0.2,0.4,0.6,0.5c0,0,0.1,0.1,0.1,0.1
      C442.7,136.8,442.4,136.8,442.1,136.7z M453.5,135.1c-0.1,0.8-0.4,1-3.7,1.4c-2.3,0.3-3.8,0.4-4.2,0.1c-0.3-0.2-0.7-0.3-1.1-0.4
      c-0.6-0.6-1.2-1.1-1.8-1.6c0.1-0.1,0.1-0.2,0.2-0.2c0.3,0.3,0.7,0.5,1,0.8c0,0.1,0.1,0.1,0.1,0.2c0,0,0.1,0,0.1,0c0,0,0,0,0,0
      c0.3,0.2,0.5,0.4,0.8,0.7c0.2-0.2,0.3-0.5,0.5-0.8c0.5,0.3,0.9,0.8,1.5,1.1c0,0,0.1,0,0.1,0c0.3,0.1,0.7,0.2,1.2,0.1
      c-0.1-0.2-0.2-0.3-0.3-0.5c0.8-0.4,2-1.3,3.2-2.3c1.6-1.3,1.8-1.1,0.3,0.3c-0.4,0.3-0.5,0.9-0.4,1.3c0.3,0.6,0.4,0.5,1.4-0.3
      l1.1-0.9L453.5,135.1z M454.5,135.9c-0.6,0-0.6-0.3,0-0.6c0.1,0,0.1-0.1,0.2-0.1c0.2,0,0.3,0.1,0.3,0.2
      C454.9,135.7,454.7,135.9,454.5,135.9z M456.5,121.3c-0.9,0.4-2,0.5-3.2,0.4c-1-0.1-1.8,0-1.6,0.2c0.3,0.5-0.3,0.4-1.7-0.2
      c-0.7-0.3-1.2-0.4-1.3-0.2c-0.1,0.2-0.5,0.2-0.9,0.1c-0.7-0.2-0.7-0.3,0.2-1.1l1-0.9l1,0.9l1,0.9l0.8-1c0.7-0.9,0.8-0.9,1.2-0.3
      c0.3,0.5,0.5,0.5,0.8,0.2c0.2-0.3,0.4-0.2,0.6,0.3c0.3,0.8,1.1,1.1,1.1,0.4c0-0.2,0.5-0.4,1.2-0.4h1.2L456.5,121.3z M458.9,120.4
      c-0.7,0.2-0.9,0.1-0.6-0.2c0.2-0.2,0.5-0.3,0.8-0.3c0.1,0,0.2,0,0.3,0C459.7,120.1,459.5,120.3,458.9,120.4z M469.4,75.3
      c-1.6,0.7-2.5,0.9-2.5,0.6c0-0.2,3-1.3,3.7-1.3C470.8,74.6,470.3,74.9,469.4,75.3z M473.6,52.1c-0.7,0.2-2.3,0.5-3.7,0.6
      c-2.2,0.2-2.6,0.1-3-0.6c-0.3-0.4-0.5-0.9-0.5-1.1c0-0.3,0.2-0.4,0.5-0.4c0.3,0,0.7,0.2,1,0.5c0.9,0.9,2.4,1.1,3.2,0.3
      c0.7-0.7,1.8-0.7,1.2,0c-0.1,0.2,0,0.3,0.4,0.3c0.4,0,0.8-0.2,0.9-0.4c0.4-0.5,1.1-0.5,1.1,0C474.8,51.5,474.2,51.9,473.6,52.1z
       M476.1,51.1c-0.2,0.1-0.4,0.1-0.4-0.2c0-0.2,0.2-0.4,0.4-0.4c0.2,0,0.4,0.1,0.4,0.2C476.5,50.8,476.3,51,476.1,51.1z M478.3,50.4
      c-0.2,0.1-0.4,0.1-0.4-0.2c0-0.2,0.2-0.4,0.4-0.4c0.2,0,0.4,0.1,0.4,0.2C478.7,50.1,478.5,50.3,478.3,50.4z M480.1,49.5
      c-0.6,0-0.6-0.3,0-0.6c0.1,0,0.1-0.1,0.2-0.1c0.2,0,0.3,0.1,0.3,0.2C480.5,49.3,480.3,49.5,480.1,49.5z M488.4,36.9
      c0-0.2,0.2-0.3,0.5-0.2c0.4,0.2,0.3,0.4-0.3,0.8c-1.1,0.7-1.5,0.6-1.5-0.3c0-0.4,0-0.6,0.2-0.6c0.1,0,0.2,0.1,0.5,0.2
      C488.3,37.2,488.4,37.3,488.4,36.9z M482.3,33.1c0.1-0.7,0.4-0.8,1.8-0.7c1.3,0.1,1.7,0,1.7-0.5c0-0.3,0.3-0.6,0.7-0.6
      c0.4,0,0.7-0.2,0.7-0.5c0-0.2,0.2-0.4,0.5-0.4c0.1,0,0.2,0,0.4,0c0.7,0.2,0.6,0.4-1.1,1.5c-1.1,0.7-2.4,1.3-2.9,1.3
      c-0.5,0-0.8,0.2-0.8,0.3c0,0.2-0.2,0.3-0.5,0.3S482.3,33.6,482.3,33.1z M483.5,36.2c0.6,0.2,1.5,0.3,2.1,0.2
      c0.6-0.1,1.1-0.1,1.1,0.1c0,0.2-0.2,0.4-0.4,0.4c-0.2,0-0.7,0.1-1,0.2c-0.3,0.1-1.1-0.2-1.7-0.6l-1.1-0.8L483.5,36.2z M483.9,50.8
      c-0.1,0.4-0.2,0.2-0.2-0.4c0-0.5,0-0.7,0.1-0.8c0,0,0.1,0,0.1,0.1C484,50,484,50.5,483.9,50.8z M507.4,70.1c0.3,0,0.5,0.2,0.5,0.4
      c0,0.5-0.3,0.5-0.7,0C507,70.3,507.1,70.1,507.4,70.1z M504.4,115.1c-0.1-0.1-0.2-0.1-0.2-0.2c0.1-0.1,0.2-0.2,0.2-0.3
      c0.1,0.1,0.1,0.1,0.2,0.2C504.6,114.9,504.5,115,504.4,115.1z M503.7,84.5c0.3,0.2,0.6,0.3,1,0.5c-0.2,0.1-0.3,0.1-0.5,0.2
      c-0.9-0.1-1.7-0.2-2.1-0.4c-1.4-0.5-1.4-0.6-0.5-0.6c0.8,0,1-0.2,0.8-0.8c-0.2-0.7-0.2-0.7,0.5-0.2c0.6,0.4,1.3,0.7,1.8,0.8
      c0,0.1,0,0.1,0,0.2c-0.3-0.1-0.5-0.3-0.7-0.3c-0.2,0-0.5,0-0.7,0.1C503.5,84.1,503.5,84.4,503.7,84.5z M505.3,83.7
      c0.1,0,0.2,0,0.3,0c0,0.1-0.1,0.2-0.1,0.4C505.4,83.9,505.4,83.8,505.3,83.7z M505.6,115.7c0-0.1,0.1-0.2,0.1-0.3
      c0-0.1,0.1-0.2,0.3-0.3c0.1,0.3,0.2,0.6,0.3,0.9C506,115.9,505.8,115.8,505.6,115.7z M507.4,90.7c-0.3,0-0.5-0.1-0.5-0.1
      c0,0,0-0.1,0.1-0.1c0,0,0,0.1,0.1,0.1c0,0,0-0.1,0.1-0.1c0.1,0,0.3-0.1,0.5-0.1C507.6,90.5,507.5,90.6,507.4,90.7z M508.4,90.8
      c0.1,0,0.2-0.1,0.3-0.1c0,0,0,0.1,0,0.1C508.6,90.8,508.5,90.8,508.4,90.8z M510,84c-0.3,0.2-0.9-0.1-1.2,0.5
      c0.2,0.1,0.3,0.2,0.5,0.3c-0.5,0.4-0.9,0.4-1.3-0.1c-0.1-0.1-0.2-0.2-0.3-0.3c-0.5-0.4-0.6-0.3-0.8,0.4c-0.2-0.4-0.4-0.7-0.6-1
      c0.4,0,0.6-0.1,0.6-0.3c0-0.1,0.1-0.1,0.1-0.2c0.2,0,0.4-0.1,0.6-0.1c0.1,0,0.2-0.1,0.3-0.1c0.2,0,0.4,0,0.5,0c0.4,0,0.7,0,1.1,0
      c0.1,0,0.3-0.1,0.4-0.1C510,83.3,510,83.6,510,84z M506.3,80.6l1.8,0.2c-0.1,0.1-0.2,0.2-0.3,0.4c-0.2-0.1-0.4-0.3-0.7-0.4
      c-0.1,0-0.3,0-0.4,0L506.3,80.6z M509.5,81.8c-0.2-0.1-0.3-0.2-0.4-0.3c-0.1-0.1-0.3-0.3-0.4-0.4c-0.1-0.1-0.2-0.2-0.3-0.3l0.2,0
      c0.5,0.1,0.9,0.1,1.2,0.1C509.6,81.1,509.4,81.3,509.5,81.8z M508.3,75.5l-1.1,0.3l1.2-0.9c0.6-0.5,1-0.8,1.1-1
      c0.2,0.1,0.4,0.2,0.6,0.2c-0.5,0.3-0.9,0.5-1.3,0.7c0,0.1,0,0.2,0.1,0.3c0.5,0,0.9,0.1,1.4,0.1C509.7,75.2,508.8,75.3,508.3,75.5z
       M512,68.2c0.1,0.1,0.2,0.3,0.3,0.6c-0.4-0.2-0.7-0.4-1-0.5c-0.2-0.1-0.4,0-0.6,0c0.1,0.2,0.1,0.5,0.2,0.6c0.4,0.4,0.8,0.7,1.3,1
      c-0.4,0.1-0.8,0.1-1.1,0.2c-0.1,0-0.3,0.3-0.2,0.4c0.1,0.2,0.2,0.4,0.3,0.6c0.1,0.2,0.2,0.5,0.3,0.7c-0.4-0.1-0.6-0.2-0.9-0.4
      c-0.2-0.1-0.4-0.3-0.6-0.5c0,0.3-0.1,0.5-0.1,0.8c0,0,0,0.1,0,0.2c-0.3,0-0.6-0.1-0.9-0.2c0.1,0.2,0.1,0.4,0.1,0.6
      c-0.5-0.2-0.9-0.4-1.4-0.6c-0.2-0.1-0.4,0.1-0.6,0.1c0.1,0.2,0.2,0.4,0.3,0.5c0.3,0.2,0.7,0.3,1.1,0.5c-0.3,0.4-0.3,0.5,0.1,0.7
      c0.2,0.1,0.4,0.1,0.6,0.2c-0.1,0-0.2,0.1-0.4,0.2c-1.2,0.6-2.1,0.5-1.4-0.1c1-0.8,0.6-1.5-0.4-0.7c-0.5,0.4-1.6,1-2.3,1.3
      c-2.7,1.1-10-0.4-10-2c0-0.3-0.2-0.8-0.5-1c-0.4-0.3-0.4-0.4,0-0.4c0.3,0,0.6,0.2,0.7,0.6c0.2,0.4,0.8,0.5,1.7,0.5
      c0.8,0,1.9,0.1,2.4,0.2c0.8,0.2,1,0.1,1-0.5v-0.8l1.5,0.7c1.1,0.5,1.6,0.6,1.8,0.3c0.2-0.2,0-0.6-0.3-0.8c-0.5-0.3,2-0.3,3.8,0.1
      c0.2,0,0.9,0,1.4-0.2c0.9-0.3,0.9-0.3,0.3-0.9c-0.6-0.6-0.6-0.7,0.4-0.9c1.3-0.3,1.5-1,0.4-1c-0.5,0-0.3-0.2,0.6-0.5
      c0.5-0.2,1.1-0.5,1.8-0.9c0.2,0.2,0.5,0.4,0.8,0.6C511.8,67.6,511.6,67.8,512,68.2z M513.1,67.2c-0.2-0.2-0.3-0.3-0.4-0.4
      c-0.1-0.1-0.2-0.2-0.4-0.3c0,0,0.1-0.1,0.1-0.1l0.4-0.3C513,66.4,513.1,66.7,513.1,67.2z M516.3,70.2c0,0.2,0.3,0.4,0.8,0.7
      c-0.3,0-0.6,0.2-1,0.2C516.2,70.7,516.3,70.5,516.3,70.2z M515.6,69.8c-0.1,0.4-0.1,0.8-0.2,1.2C514.9,70.4,514.9,70.2,515.6,69.8z
       M516.4,76.9c0-0.1-0.1-0.2-0.2-0.3c0-0.1,0-0.2,0-0.3c0,0,0.1,0,0.1-0.1c0.1,0.2,0.2,0.4,0.3,0.6
      C516.6,76.8,516.5,76.8,516.4,76.9z M517.5,78.7c-0.1,0-0.1-0.1-0.2-0.1c0.2-0.3,0.4-0.6,0.7-0.9c0.1,0.1,0.1,0.1,0.2,0.2
      C517.9,78.1,517.7,78.4,517.5,78.7z M521.9,96.4c-0.3,0.3-0.5,0.6-0.8,0.8c-0.3,0.1-0.8,0.2-1.4,0.4c0-0.1-0.1-0.1-0.1-0.2
      c0-0.4,0.1-0.9,0.1-1.3c0.3,0.2,0.6,0.4,1,0.5c0.1,0.1,0.4,0.1,0.4,0c0.1-0.1,0-0.3,0-0.5c0-0.2,0-0.5-0.1-0.7c0,0,0.1,0,0.1,0
      c0.2,0.1,0.4,0.2,0.5,0.2c-0.7,0.5-0.5,0.6,0.6,0.6C522.2,96.2,522,96.3,521.9,96.4z M519.9,89.5C519.9,89.5,519.9,89.5,519.9,89.5
      c0.2-0.2,0.5-0.2,0.7-0.2C520.4,89.4,520.2,89.5,519.9,89.5z M520.8,91c0.7,0.2,0.5,0.3-0.6,0.1c0.1-0.1,0.2-0.2,0.3-0.3
      C520.6,90.9,520.7,90.9,520.8,91z M522.5,97c0-0.2,0-0.3,0-0.3c0-0.2-0.1-0.3-0.2-0.5c0.1,0,0.1,0,0.2,0c0.2,0,0.4,0,0.6,0.2
      C523,96.5,522.7,96.7,522.5,97z M524.1,97.2c-0.2,0-0.4,0.1-0.7,0.1c0,0,0.1-0.1,0.1-0.1c0.2,0.1,0.4,0,0.9-0.4
      C524.3,96.9,524.2,97,524.1,97.2z M527.8,97.9C527.8,97.9,527.8,97.9,527.8,97.9C527.8,97.9,527.8,97.9,527.8,97.9
      C527.8,97.9,527.8,97.9,527.8,97.9z M528,97.6C528,97.6,527.9,97.6,528,97.6c-0.1-0.1-0.1-0.2-0.3-0.3c0,0-0.1,0-0.1-0.1
      C528.3,96.7,528.3,96.8,528,97.6z M527.1,90.7c-3.5,0.5-3.8,0.4-5-0.2c-0.3-0.1-0.5-0.3-0.8-0.4c0,0,0-0.1,0-0.1
      c0.1-0.1,0.2-0.2,0.3-0.3c0.3,0.1,0.4-0.1,0.4-0.6c0.4,0.1,0.9,0.2,1.3,0.2c0.1,0,0.3-0.1,0.4-0.2c-0.1-0.1-0.1-0.3-0.2-0.4
      c-0.1-0.1-0.3-0.2-0.4-0.2c-0.5-0.1-1-0.1-1.5-0.2c0.2-0.3,0.6-0.6,0.1-1.1c-0.6,0.5-1.3,1.1-2,1.7c0,0-0.1-0.1-0.1-0.1
      c0.2-0.3,0.4-0.6,0.6-0.8c0-0.1-0.1-0.1-0.1-0.2c-0.2,0.1-0.5,0.2-0.7,0.2c-0.2,0-0.4-0.1-0.7-0.1c0-0.1,0-0.2,0-0.3
      c0.3,0,0.6,0,0.9,0c0.1,0,0.2-0.1,0.3-0.2c-0.1-0.1-0.1-0.3-0.2-0.3c-0.3-0.1-0.6-0.1-0.9-0.2c0.3-0.5,0.7-0.5,1.1-0.3
      c0.1,0.1,0.3,0,0.4-0.1c-0.1-0.1-0.1-0.3-0.2-0.4c-0.1-0.1-0.3-0.3-0.6-0.5c0.1,0,0.2,0,0.2,0c0.7,0,1.4-0.1,1.9-0.5
      c0.1,0.1,0.2,0.3,0.3,0.5c0.4,0.9,0.9,0.9,2.5,0L526,85l-0.3,1.1c-0.3,1.4,0.5,1.5,2.3,0.3c1.2-0.8,1.2-0.8,0.7,0
      c-0.5,0.9-0.3,1.3,0.6,1c0.3-0.1,0.9,0,1.3,0.3c0.5,0.3,0.7,0.3,0.7,0c0-0.2,0.3-0.4,0.7-0.4s0.7,0.2,0.7,0.5
      c0,0.4,0.4,0.5,1.2,0.4C538.4,87.7,532.5,90,527.1,90.7z M519.8,84c0,0,0.1,0,0.1,0c0.1,0,0.1,0.1,0.1,0.1
      C520,84,519.9,84,519.8,84z M538.7,73.6c-0.3,0.7-3,1.8-4.4,1.8c-0.6,0-1.3,0.2-1.4,0.5c-0.1,0.3-1,0.4-2.2,0.4c-1.1,0-2,0.1-2,0.3
      c0,0.7,1.5,1.5,2.7,1.4c0.7-0.1,1.3,0,1.4,0.2c0.1,0.6-2.5,1-8.7,1.2c-2.2,0.1-4,0.1-5.5,0.2c-0.1-0.1-0.2-0.1-0.3-0.2
      c0.4-0.3,0.7-0.5,1.1-0.8c0.2-0.1,0.4-0.3,0.6-0.3c0.4-0.1,0.9-0.2,1.3-0.2c-0.1-0.2-0.2-0.4-0.2-0.6c0.1,0,0.2,0,0.3,0
      c0.2,0,0.3-0.1,0.5-0.1c-0.1-0.1-0.2-0.4-0.4-0.4c-0.4-0.1-0.8-0.1-1.2-0.2c0.3-0.3,0.5-0.6,0.7-1c0.1-0.1,0-0.3,0-0.5
      c-0.2,0-0.3,0-0.5,0.1c-0.2,0.2-0.4,0.4-0.6,0.6c-0.2,0.2-0.3,0.4-0.4,0.6c-0.1-0.3-0.2-0.5-0.3-0.8c0.2-0.3,0.5-0.6,0.7-0.9
      c0.1-0.1,0-0.3,0-0.5c-0.1,0-0.3,0-0.4,0.1c-0.2,0.2-0.4,0.4-0.7,0.6c-0.1,0.1-0.3,0.2-0.4,0.2c-0.4-0.2-0.5,0-0.6,0.3
      c-0.1,0.2-0.2,0.5-0.3,0.7c-1-0.6-1.1-0.6-2.3,0.1c-0.1,0-0.2,0-0.3,0c0,0,0-0.1,0.1-0.1c0.4-0.3,0.7-0.5,1.1-0.7
      c0.5-0.3,1-0.6,1.4-0.9c0.1-0.1,0.1-0.3,0.2-0.4c-0.1,0-0.3-0.1-0.4-0.1c-0.3,0.1-0.5,0.2-0.8,0.3c-0.2,0.1-0.3,0.1-0.5,0.2
      c0-0.3-0.1-0.5-0.1-0.7c-0.2,0.1-0.4,0.2-0.6,0.3c-0.2,0.1-0.3,0.2-0.4,0.3c-0.1-0.1,0-0.2,0-0.3c0.1-0.8,0.9-1,1.2-1.5
      c0.3-0.5,0.9-0.9,1.4-1.4c0.7,0.3,1.6,0.6,2.1,0.6c1,0,1,0,0.2,0.7c-0.8,0.7-0.8,0.7,0.4,0.7c0.9,0,1.1,0.1,0.9,0.6
      c-0.2,0.5,0,0.5,1,0.3c0.7-0.1,1.4-0.2,1.5-0.2c1.4,0,1.7,0.1,1.5,0.6c-0.5,1,0.7,1,1.3,0c0.6-1,0.7-1,0.7-0.2
      c0,0.5,0.2,0.8,0.4,0.9c2.7,0.3,3.1,0.2,3.7-0.9l0.6-1.1l0.4,0.9l0.4,0.9l0.9-0.9c0.8-0.9,0.8-0.9,0.9-0.1c0,1.1,0.8,1.1,1.1-0.1
      c0.2-0.5,0.5-0.9,0.7-0.9c0.2,0,0.3,0.2,0.1,0.4c-0.2,0.3,0.1,0.3,1.1,0.2C538.5,73.2,538.8,73.3,538.7,73.6z M538.2,63.6
      c-1.6,0.7-2.5,0.9-2.5,0.6c0-0.2,3-1.3,3.7-1.3C539.6,62.9,539.1,63.2,538.2,63.6z"/>
    <path class="land layerTree" fill="#232323" d="M536.6,24.5c0,0.2,0.5,0.6,1.2,0.9L539,26l-1.5-0.2c-1.5-0.2-4.1-1.3-5.2-2.3c-0.3-0.3-1-0.5-1.4-0.5,c-0.9,0-1.1,0.7-0.4,1.3c0.3,0.2-0.4,0.4-1.8,0.5c-1.2,0.1-2.4,0.2-2.6,0.3c-1.4,0.8,2.1,2.1,4.7,1.8l1.8-0.2l-1.2,0.6,c-0.8,0.4-1.2,0.8-1.1,1.2c0.2,0.9,2.1,0.6,3.3-0.5c0.6-0.5,1.3-0.9,1.8-0.8c0.6,0.1,0.5,0.2-0.4,0.6c-1.5,0.5-2,1.1-1,1.4,c0.4,0.1,0.6,0.4,0.5,0.7c-0.1,0.3,0.1,0.6,0.4,0.7c0.3,0.1,0.6,0.1,0.6-0.1c0-0.3,1.4-0.8,2.5-0.9c0.3,0,0.9-0.4,1.4-0.8,c0.1-0.1,0.3-0.2,0.4-0.3v-3.8C537.8,23.9,536.6,23.8,536.6,24.5z"/>
  </g>
</svg>
