<svg version="1.1" xmlns="http://www.w3.org/2000/svg" x="0px" y="0px" viewBox="0 0 539.6 174.9" enable-background="new 0 0 539.6 174.9" xml:space="preserve" id="landscape">
  <polygon class="land layer1" fill="#F1F2F2" points="309.4,89.8 304.7,90.9 296,89.6 286.2,91 251.5,89.1 232.7,90.9 225,89.6 205.7,90.3 199.6,90.3,184.6,88.6 171.6,88.6 156.2,86.6 171.6,99 254.1,111.2 281.7,108.1 315.2,103.3 315.2,90.2 "/>
  <polygon class="land layer2" fill="#E6E7E8" points="301.3,96.7 297.9,94.1 294,91.2 289.6,89.2 288.3,89.9 286.7,88.7 284.9,88.7 284.4,88.1 283.2,87.9 282.1,87.2 281.4,88 280.2,88.3 279,87.5 278,85.8 276.9,84.9 275.2,82.9 273.2,80.3 272.2,80.5 271.3,80.1 269.9,81.5 269,81.4 267.9,79.3 267,78.6 266.2,77.2 265.2,77.2 264.8,78.1 263.9,78.5 263,79.3 262,79.8 259.2,83.1 257.3,84.4 256.7,85.3 254.1,87.7 252.9,87.3 252,87.5 249.5,86 248.6,86.4 247.5,86.4 245.8,88.1 244.3,87.6 243.3,87.1 241.6,88.5 240.9,88.4 240.2,88.8 239.4,88.6 238.6,91.1 237.5,93 236.6,91.8 235.5,93 234.8,93.9 233.2,93.9 231.5,95.1 229.7,95.2 227.8,96.1,228.4,98.8 242.1,105.5 264.4,108.1 288.4,103.8 301.7,99.1 "/>
  <polygon class="land layer3" fill="#D1D3D4" points="278.2,102.9 271.1,103.9 263.8,106.1 258.2,105.6 254,103.9 244.5,102.9 235.1,103.9 237.8,107 254.1,111.2 265.9,108.1 280.9,106.3 284.4,104"/>
  <g>
    <polygon class="land layer4" fill="#BCBEC0" points="355.5,84.5 352,83 349.2,82.1 346.1,83.2 345.2,81.6 341.8,79.8 340.3,79.8 337.8,79.3 335.6,81.9,334.5,83.2 331.7,84 330.6,84.6 328.2,83 326.2,84.3 325.6,85.1 323.4,85.7 322.8,87 318.9,87 312.9,91.3 312,93.1 305.7,94.8,302.6,96.7 298.6,96.9 296.1,99.6 291.9,101.8 290,102.6 287.8,102.1 286,102.1 284.2,102.6 280.1,105 277.6,105 273.5,105.6,268.5,106.8 261.2,106.8 257.4,108.1 244.3,108.7 240.6,107.6 245.8,107.7 240.3,103.3 235.7,101.8 233,97.7 229.6,97.7,228.4,95.2 226.4,95.2 225,92.5 222.5,90.3 214.8,92.5 228.7,107.6 230.1,107.6 231.6,108.3 233.5,108.5 235.3,109.6 236.9,109.7 237.5,110.6 238.7,111.7 239.7,110.6 240.8,112.4 241.6,114.9 242.3,114.7 243.1,115.1 243.8,115 245.6,116.4 246.5,115.9 248.1,115.4 249.8,117.2 250.9,117.2 251.8,117.5 254.4,116 255.3,116.3 256.6,115.9 259.2,118.2 259.8,119.1 261.8,120.4 264.6,123.8 265.7,124.2 266.5,125 267.5,125.4 267.9,126.4 268.9,126.4 269.8,124.9 270.6,124.2 271.7,122.1 272.7,122 274.1,123.5 275,123 276,123.2 278.1,120.7 279.8,118.7 281,117.7 282,116 283.2,115.2 284.4,115.6 285.1,116.3 286.2,115.6 287.5,115.5 288,114.9 289.9,114.9 291.5,113.6 292.7,114.3 297.2,112.3 301.2,109.5 304.7,106.8 305,104.8 334.5,100.2 "/>
    <path class="land layer4" fill="#BCBEC0" d="M187.6,90l-5.1,2.4l-2.4,0.2l-6.7-3.4l-3.8,0.6l-6.3-2.8l-7-5.2l-6.3-2.6l-3.9-1.3l-2.7,0.3l-4.9-3.4,l-1.7,0.3l-4.2-0.3l-4.7,0.7l-2.9-1.4l-2.3,0.7L111.2,79l-2.7-0.8l-2.6,0.8h-4.7h-0.4l-3.2-1.2L96,78.2l-3.2-1.6l-3.8-0.5l-1.6,0.5 l-2.1-0.7L79.9,79l-8.4,0.7l-3.6-1.3l-3.6,1.3l-28.2,2l7.5-5.9c0,0-18.2-18-19.5-16.8c-1.4,1.2-8.9-4.2-8.9-4.2l-3.1-2.1l-4.7-0.2 L3.1,49L0,44.8l0,41.9V99l27.7,1.7l85.2,5.9l27.3,2.4l39.2-6.7l14.4-9.4l-3-2.2L187.6,90z"/>
  </g>
  <g>
    <polygon class="land layer5" fill="#A7A9AC" points="99.5,85.9 84.8,74.3 72.2,63.4 68.4,61.3,55.7,62.4 35.7,87.2 18.8,77.6 13.5,75.4 10.5,72.9 7,71.4 4.3,67,2.7,65.7 0,66.3 0,91.6 0,91.6 17.5,96.9 12.2,98.9 63.6,110.3,110.9,91.4 99.5,86.6 "/>
    <polygon class="land layer5" fill="#A7A9AC" points="394,69.1 385.4,71.7 381.1,71.7 378.9,70 374.3,71 372.2,73.9 368.9,77.2 366,75.3 364.3,76.4 361.7,76.5 359.6,80 357.3,81.7 356.2,80.2 354.7,79.5 351.6,82.1 348.9,88.6 346,90.9 340.7,94.6 334.1,95.8 329.8,94.4 324.6,92.8 316.5,94.8 310.9,97.8 303.7,99 295.8,103 293.3,103 290.6,103.5 288.9,105.2 285.7,105.2 277.6,107.8 270.1,108.6,263,110.7 265.8,111 273.3,112.2 291.6,114.6 343.4,108.2 406,89.4 "/>
    <polygon class="land layer5" fill="#A7A9AC" points="244.3,107.7 242.4,106.5 238.8,105.1,232.8,100.3 222,94.8 214,90.9 207.3,87.1,204.6,85.8 202.6,85.8 199.5,87.4 191.3,93.7,188.1,94 178.3,98.9 190.4,107.7 "/>
    <polygon class="land layer5" fill="#A7A9AC" points="224,121.5 219.6,121.1 210.4,120 203.7,117.4 198,114.6,132.7,127.1 138.7,138.7 141.7,139.9 147.9,142.3 151.9,142.3 156.4,143.5 162.6,147.5 165.5,148.5 175.5,147.7 180.3,145.1 192.2,136.8 201.8,132.8 209.3,130.7 211.8,129.3 216,130 226.8,127.9 230.4,125.6 233.1,122.8 235.9,122.2 240.1,121.9 242.6,122.7 246.7,125.8 249.7,124.1 252.5,122 232.3,121.4 "/>
  </g>
  <g>
    <polygon class="land layer6" fill="#939598" points="318.8,103.4 313,105 306.8,106.8 301.5,106.4 293.4,108.8 284.3,111 279.8,111 276.7,109.8,271.9,111 269.6,112.4 266.1,114.1 272.1,114.1 276.4,114.7 277.8,115.9 282,117.2 291.6,118 309.7,119.1 319.6,116.2 327.9,103.4,323.6,102.1"/>
    <polygon class="land layer6" fill="#939598" points="264.3,110 259.2,108.2 249.7,107.5 246.3,106 240,106.8 235.3,104.1 230.1,103.3 225.1,105.5,219.2,105.4 215.2,107.2 204.3,105.5 198.3,103.6 185.9,105.9 205.1,113.5 230.8,117.7 240.8,115 253.3,115.2 260.2,113.4,265.2,112.9 268.5,112"/>
    <polygon class="land layer6" fill="#939598" points="159.8,93 155.9,91.4 153,90.8 150,92.2 147.2,92.9 144,91.7 141.1,91.3 137.9,92.5 135.6,90.8,132.7,89.6 132.7,89.6 128.8,88.6 124.3,89.1 117.3,87.7 113.8,86.7 110.8,88.8 104.3,87.1 96.2,87.8 91.7,90.6 88.5,89.9,80.7,95.1 11.2,88.1 0,82.7 0,99 40.4,106.6 134.7,108.7 146.4,110.6 166,97.3 164.5,95.5  "/>
    <polygon class="land layer6" fill="#939598" points="522.3,30 515.3,30 512.2,32.9 507.1,37.4 505.1,35.8 502.5,35.8 492.2,38.9 488.1,42.3 477.6,44 472.4,46.8 467.3,51.2 463.3,55.6 462.3,56.2 458,53.4 455.5,50.5 454,47.6 450.2,46.3 447.1,44.1 442.3,46.3 440.5,48.2 437.5,50.5 434.4,53.8 429.6,56.6 427.8,58 425.6,58 423.8,58.8 421,58.3 418.9,57.5 416.8,57.6 414.9,56.6 412.2,55.4 409.5,56.6 408.2,56.2 405.1,58.4 401.4,60.9 399.9,62.4 399.3,62.7 388.6,75.7 382,80.7 366.2,90.5 346.8,97.5 356.8,98.8 388.6,94 399.3,88 399.3,92.8 449.2,89.6 466.7,70.9 524.7,72.6 539.5,58.3 539.5,34.2   "/>
  </g>

  <!-- Land layer 7 -->
  <g>
    <polygon class="land layer7"
      fill="#808285" points="246.7,117.6 242.6,120.7 240.1,121.4 235.9,121.1 233.1,120.5 230.4,117.8 226.8,115.6 216,113.4 
      211.8,114.1 209.3,112.8 201.8,110.7 192.2,106.8 180.3,98.6 175.5,96 165.5,95.2 162.6,96.2 156.4,100.1 151.9,101.3 147.9,101.3 
      141.7,103.6 138.7,104.8 132.7,116.3 196.9,129.4 203.7,125.9 210.4,123.3 219.6,122.2 224,121.9 232.3,122 252.5,122 249.7,119.6 
        "/>
    <path class="land layer7" 
      fill="#808285" 
      d="M372.4,119.1l0.8-0.3C372.8,118,372.3,117.2,372.4,119.1z"/>
    <path class="land layer7" 
      fill="#808285" 
      d="M373.6,119.9l-0.4-1.1l-0.1,0C373.4,119.4,373.6,119.9,373.6,119.9z"/>
    <polygon class="land layer7" 
      fill="#808285" points="449.9,72.3 446.1,70 439.2,73 435.4,75.6 432.2,80.1 425.6,82.5 421.3,85.6 419.7,86 418.3,85.6 
      412.4,82 408.5,80.7 406.5,80.7 395.4,84 382.6,93.2 378.6,92.4 373.8,91.6 365.2,96.3 348.2,94.1 339.9,92.4 330.9,96.3 
      321.9,102.3 315.3,110 315.2,110.1 310.2,116 305.3,120.4 307.1,121.6 309.8,122.3 320.6,123.2 324.5,125.5 325.9,127.8 
      326.2,129.3 327.7,128.4 331.3,128.4 338,122.8 342,124.2 350.2,124.6 356.8,123.1 358.6,124.4 366.1,115.2 367.6,120.1 
      372.1,115.2 373.3,118.8 402.4,107.2 402.6,110 425.6,97.7 426.5,98.8 458,75.7  "/>
  </g>

  <!-- Land layer 8 -->
  <g>
    <polygon class="land layer8"
      fill="#6D6E71" points="198.3,131.4 
      200.1,130.9 199.6,129.5 198.3,128.7 194.2,126.9 190.1,123.8 181.9,120.1 
      175.7,114.4 165.9,113.1 155.1,113.7 144.9,117.1 
      143.2,124.4 158.4,132.7 199.6,140.9 198.3,136.8 198.5,137.5 196.4,133.9 
      196.2,132.3 196.9,131.7   "/>
    <polygon class="land layer8" 
      fill="#6D6E71" 
      points="535.5,53.5 531.3,55.2 527.7,54.6 
      520.2,56.2 511.2,59.3 
      503.7,60 497.7,63.1 489.8,63.7 
      483.4,61.1 478.8,59 475.3,58.4 462.4,70.7 457.5,71.6 444.3,82.6 441,81.6 436.5,83.2 434,82.3 423.2,90.5 416.1,91.7 410.8,96.6 
      406.5,100.6 404.1,102.9 401.1,102.9 397.1,106.8 390.5,105.5 381.3,110.2 370.6,114.8 364.6,114.8 355.5,118.7 353.7,117.5 
      347.2,118.9 340.5,123.1 336.5,121.8 329.8,126.9 326.1,126.9 322.4,128.9 325.1,133.1 328.4,135.5 329.8,139.3 328,148.5 
      305.1,174.9 401.3,174.8 539.5,174.8 539.5,89.8 539.5,53.4   "/>
  </g>

  <!-- Land layer 9 -->
  <path class="land layer9"
    fill="#58595B" 
    d="M399.4,146.3l-9.4,0.3l-43.7-1.3l0.2-0.1l0.4-0.2l-1.4-4.5l-0.6,1.7l-0.5-1.7l-1.5,4.2l0.5,0.5l-5.6-0.2
    l0.5-0.5l0.4-0.2l-1.4-4.5l-0.4,1.2l-0.4-1.2l-1.5,4.2l0,0l-0.6,0.4l-1.1-3.3l-0.8,2.2l-0.7-2.2l-0.9,2.6l-0.5-1.7l-0.9,2.6l-0.3-1
    l-0.7,2l-0.6-1.8l-0.9,2.6l-0.5-1.7l-1,2.8l-0.3-0.9l-0.4,1.2l-0.5-1.4l-1,2.8l-0.3-0.9l-0.3,0.8l-0.4-1.1l-0.8,2.3l-0.5-1.4
    l-1.3,3.8l-0.3,0.2l-0.6-2l-0.5,1.5l-0.4-1.3l-0.5,1.4l-0.5-1.4l-0.3,0.9l-0.7-2.1l-0.8,2.3l-0.4-1.1l-0.4,1.1L314,151l-1.2,3.5
    l-0.9-2.7l-0.6,1.7l-0.2-0.8l-0.4,1.2l-0.5-1.6l-1.3,3.8l-0.9-2.9l-0.8,2.2l-0.5-1.5l-0.8,2.2l-0.4-1.4l-0.6,1.8l-0.4-1.2l-0.4,1
    l-0.3-1l-1.2,3.4l-1-3.2l-0.5,1.4l-0.6-1.8l-0.3,1l-0.2-0.6l-0.3,0.9l-0.6-1.9l-0.7,2.1l-0.6-1.9l-0.3,0.8l-0.3-1l-0.9,2.7l-0.3-1.1
    l-0.5,1.4l-1-3l-0.9,2.6l-0.4-1.2l-0.2,0.7l-0.7-2.1l-0.2,0.7l-0.3-1l-0.5,1.3l-0.6-1.8l-0.3,0.8l-0.1-0.3l-0.6,1.7l-0.9-2.7
    l-1.1,3.2l-0.3-1l-0.5,1.3l-0.6-1.7l-0.6,1.8l-0.8-2.5l-0.4,1.2l-0.1-0.4l-0.4,1.1l-0.5-1.5l-0.6,1.6l-0.8-2.5l-0.4,1.1l-0.8-2.5
    l-1.1,3.3l-0.5-1.7l-0.6,1.7l-0.5-1.4l-0.4,1.2l-0.7-2.3l-0.8,2.3l-0.7-2l-0.9,2.6l-0.4-1.2l-0.5,1.3l-0.6-1.9l-0.6,1.8l-0.3-0.9
    l-0.5,1.3L271,154l-0.9,2.5l-0.1-0.3l-0.2,0.6l-0.5-1.5l-0.9,2.5l-0.6-1.7l-0.4,1.1l-0.7-2.3l-0.4,1.1l-0.6-2l-1.2,3.6l-0.6-1.9
    l-0.5,1.5l-0.5-1.5l-0.9,2.7h-0.8l-0.9-2.7l-0.9,2.7h-0.1l-0.8-2.4l-0.7,2l-0.4-1.2l-0.3,0.9l-0.5-1.5l-0.9,2.6l-1.2-3.6l-0.7,1.9
    l-0.8-2.4l-1.4,3.9l-0.8-0.2l0,0l-1.4-4.5l-0.4,1.2l-0.5-1.5l-0.5,1.3l-0.6-1.9l-1.5,4.2l0.2,0.2l-1.3-0.2l-1.3-3.9l-0.4,1.1
    l-0.2-0.5l-0.9,2.5l-0.8-2.5l-0.3,0.9l-0.5-1.7l-0.6,1.8l-0.4-1.1l-0.5,1.5l-1.1-3.5l-1.5,4.2l0.3,0.3l-1.2-0.1l-1.3-4.1l-0.4,1.2
    l-0.8-2.4l-0.7,1.9l-0.6-1.9l-1.1,3.3l-0.7-0.4l0,0l0.4-0.2l-1.4-4.5l-1.3,3.6l-2.6-0.9l0.3-0.3l0.4-0.2l-1.4-4.5l-0.8,2.3l-0.6-2
    l-0.3,1l-0.7-2.2l-1.3,3.7l-2.7-1.7l0.2-0.2l0.4-0.2l-1.4-4.5l-0.3,0.9l-0.4-1.4l-1.3,3.8l-1.6-0.6l0.2-1.4l-0.5-0.2l0.1,0l-1.4-4.5
    l-1.2,3.4l-1-0.4l-1.3-4l-1,3l-4.9-2.1l-1.3-4l-0.8,2.2l-1.1-3.6l-0.9,2.5l-2.7-3.5l-3.3-3.9l-0.3-0.1l-1.3-4.1l-0.9,2.5l-0.6-1.8
    l-0.6,1.7l-5.4-2.6l-0.8-0.3l-0.4-1.1l-0.3,0.7L181,122l-0.4,1.1l-0.2-0.7l-0.5,1.5l-0.3-0.1l-0.6-1.9l-0.5,1.5l-4.2-1.6l-0.8-2.5
    l-0.7,2l-0.9-2.9l-0.4,1.2l-0.6-2l-0.8,2.4l-0.6-1.9l-0.8,2.2l-0.7-2.2l-0.5,1.4L167,118l-0.6,1.8l-0.3-1.1l-0.5,1.3l-0.4-1.1
    l-0.2,0.5l-0.5-1.5l-1,2.9l-0.4-1.3l-0.4,1l-0.4-1.4l-0.6,1.7l-0.6-1.9l-0.2,0.5l-0.2-0.7l-1,2.9l-0.4-1.4l-0.6,1.8l-0.8-2.5l-1,2.8
    l-0.3-1l-1.3,3.6l-0.3-1.1l-0.6,1.8l-0.4-1.4l-0.3,0.9l-0.8-2.4l-0.4,1l-0.8-2.5l-0.3,1l-0.5-0.7l-0.6-2.6l-1.2-2.8l-0.6-0.5
    l0.1-0.1l0.2-0.5l-0.9-2.8l-0.8,2.2l-1.9-1.7l-3.3-0.6l-0.7-1.1l0.1-0.5l-1.3-3.9l-1,2.9l-1.2-0.4l-0.2-0.3l0.6-0.6l0.2-0.7
    l-1.3-3.9l-0.8,2.3l-0.6-1.7l-0.9,2.5l-0.9-0.4l0.2-0.5l-1.3-3.9l-0.5,1.4v2.2L132,105l-1.5-4.4l-0.9,2.6l-0.7-2.2l-1.4,4.1h-0.7
    l-2.1-2.4l-1.5-4.4l-1.2,3.4l-0.8-0.3l-6,0.5h-8.9l-5.1-2.4h-5.1l-1,0.1l-1.1-3.3l-0.5,1.4l-0.5-1.4l-0.8,2.3l-0.8-2.5l-1.4,3.9
    l-0.6,0l-1.3-3.9l-1,2.9l-1.2-3.7l-1.3,3.8l-1.6-1.8l-7-3.7l-28.9-1.6L41,95.2l-3.9,1.5l-13,1.5l-6.8,3.1L0,114.2v60.7l539.5-0.1
    v-30.8L399.4,146.3z M309.7,158.3l-1.4,0.2l0.7-0.7l0.4-0.2l-0.3-0.8l1.1,1.1l0.3-0.3l0.1,0.1L309.7,158.3z M312.9,156.5l0.1-0.1
    l0.4-0.2l-0.1-0.4l0.3,0.3L312.9,156.5z"/>

  <!-- Land layer 10 -->
  <polygon class="land layer10"
    fill="#414042"
    points="539.5,111.5 534,73.8 529.8,85.9 526.8,76.6 522.8,88.1 520.4,80.8 516.7,91.3 514,83 510.3,93.8 
    507.7,85.8 502,102.2 497.6,88.7 493.3,100.9 489.9,90.5 488.4,94.6 486.5,88.7 482.9,99.1 481.1,93.8 480,97 477.9,90.5 473.9,102 
    472.8,98.6 470.9,104 468.4,96.5 463.8,109.6 460,97.9 456.9,106.9 454.9,100.8 453,106.1 451,99.7 447.1,110.9 445.4,105.8 
    444.4,108.8 442.3,102.5 440.2,108.6 439,105 436.7,111.8 434.5,105 431.4,113.9 430.1,110 427.6,117.2 426.4,113.4 425.5,115.9 
    423.8,110.7 422.6,114 420.8,108.5 417,119.5 415.9,116.2 414.6,119.8 413.6,116.8 412.1,121.3 409.5,113.4 408.2,117 406.9,112.8 
    403.9,121.2 402.8,117.6 399.7,126.6 398.4,122.7 398,124 394.3,112.8 389.2,127.5 387.7,123 386.4,126.9 385.5,124.1 382.7,132.2 
    381.6,129 380.9,131 380.2,128.7 379.2,131.3 378.2,128 376.7,132.2 374.8,126.4 372.7,132.5 370.9,127.1 368.5,134.1 367.5,131 
    365.9,135.5 364.1,130 363,133.3 361.2,128 358.7,135.4 357.6,132 355.7,137.4 353.9,131.7 353.1,133.9 352.5,132 350.8,137.1 
    350.1,135.1 348,141.1 347.2,138.5 346.6,140.3 346.2,139.1 344.5,143.8 343.2,139.7 342.9,140.6 342.2,138.5 341,142.1 
    339.4,137.5 337.3,143.6 335.5,138.1 332.7,146.3 331.9,143.8 329.2,151.3 327.3,146.9 323.8,155 321.9,150.8 321.2,152.5 
    320.1,150.1 318.3,154.3 317.5,152.5 316,155.9 314.6,152.5 314,153.8 313,151.6 311,156.3 309.4,152.5 307.8,156.2 307.2,155 
    304.8,160.6 302.6,155.6 300.5,160.5 299.3,157.8 298.2,160.3 297.6,158.9 295.7,163.2 294.8,161.1 292.7,166.1 289.5,158.9 
    288.8,160.4 287.8,158 285.1,164.1 283.4,160.2 281.5,164.8 279.2,159.6 278.4,161.4 276.7,157.6 274.4,163 273.2,160.2 
    271.1,165.2 267.3,156.7 265.1,162 261.4,153.7 260,157 259.4,155.6 257.4,160.2 255.6,156.2 254.1,159.8 250.7,152.1 248,158.5 
    245.2,152.1 243.3,156.4 242.2,153.7 240.3,158 238.8,153.3 238.2,155 236,148.5 233.1,157.1 230.7,149.7 229.4,153.6 226.8,145.7 
    226.2,147.5 225.4,144.9 222.8,152.3 219.3,141.6 217.2,147.6 213.9,137.5 211.5,144.5 209.8,139.4 207.9,144.7 207.5,143.3 
    206.5,146 203.7,137.5 200.8,145.9 199.9,143.3 197.3,150.9 194.6,142.7 190.2,155.3 186.3,143.3 184.1,149.5 181.4,141.3 
    177.2,153.5 176.1,150.1 175.1,152.8 170.7,139.4 166.8,150.5 164.1,142 162.9,145.4 160,136.5 159,139.5 156.8,132.7 154.6,139 
    151.4,129.4 149.8,134.2 148.2,129.4 146.2,135.2 145.2,132.2 144.5,134.3 142.3,127.6 141.3,130.7 139.9,126.4 139.2,128.3 
    137.5,122.8 135.9,127.5 134,121.9 134,121.9 133.9,121.6 132.7,125.1 132.7,125.7 132.4,126.6 129.6,117.9 125.3,130.2 
    101.3,125.3 96.9,111.9 95.7,115.3 93.7,109.2 91.9,114.6 90.1,109.2 85.7,122.1 21.9,109 16.9,93.9 15.2,98.9 13.4,93.4 12.5,96 
    11,91.2 9.6,95.3 8.9,93.4 7.3,98.2 6.3,95.1 5.7,96.5 4.2,91.8 2.8,96 0.7,89.7 0,91.6 0,114.2 0,118.7 0,174.8 539.6,174.8 "/>

  <!-- Land layer 11 -->
  <g>
    <path class="land layer11"
      fill="#232323"
      d="M538.5,14.6c-1.4-0.8-2.8-1.4-3.1-1.3c-0.9,0.3-0.3,1.7,1,2.3l1.3,0.6l-1.2,0.1c-0.6,0.1-1.3,0.3-1.4,0.6
      c-0.2,0.5,0.9,1.1,1.5,0.7c0.2-0.1,0.4,0,0.4,0.2c0,0.2,0.3,0.4,0.8,0.4c0.6,0,0.6,0.1,0.2,0.2c-0.5,0.2-0.4,0.4,0.4,0.9l1,0.6
      l-1.8,0.3c-1.9,0.3-2.3,0.9-1.2,1.6c0.4,0.3,0.9,0.3,1.4,0.1c0.5-0.2,1.3-0.2,1.8-0.1v-6.8C539.2,15,538.9,14.8,538.5,14.6z"/>
    <path class="land layer11"
      fill="#232323"
      d="M537,30.8c0,0.7,1.4,0.8,2.2,0.2c0.1-0.1,0.2-0.2,0.3-0.3V29c-0.4,0.3-0.9,0.7-1.6,0.9
      C537.4,30.2,537,30.6,537,30.8z"/>
    <path class="land layer11"
      fill="#232323"
      d="M535.8,31.6c-0.8-0.1-0.7,0.6,0.2,1.5c0.7,0.7,0.7,0.7,0,0.3c-0.4-0.3-0.9-0.4-1.1-0.3
      c-0.2,0.1-0.9,0-1.6-0.3c-1.6-0.7-2.1-0.7-1.8,0.1c0.2,0.5,0,0.6-1.1,0.6c-0.7,0-1.4-0.1-1.6-0.2c-0.5-0.4-2,0.2-2,0.9
      c0,0.6,0.2,0.7,0.9,0.5c0.9-0.2,0.9-0.2,0.2,0.5c-0.8,0.7-0.7,0.8,1,0.7c0.8-0.1,0.9,0.1,0.7,0.6c-0.2,0.5-0.1,0.6,0.8,0.5
      c0.9-0.1,1.1-0.1,0.9,0.5c-0.2,0.8,0,0.8,1.1,0.3c1.1-0.5,2.4,1,1.6,1.7c-0.5,0.4-0.6,0.4-0.8,0c-0.1-0.3-0.9-0.5-1.8-0.6
      c-0.8,0-1.4,0.1-1.3,0.3s-0.1,0.2-0.6,0.1c-1.1-0.2-1.1,0.3-0.1,0.9c0.6,0.3,0.8,0.7,0.6,1.4c-0.3,1.2-0.3,1.2-2,0
      c-0.7-0.5-1.9-0.9-1.9-0.9s-0.8,0.2-0.2,1.1c0.5,0.7,0.2,0.7-3.2,0.2c-1.1-0.2-1.7-0.1-1.7,0.1c0,0.5,2.3,1.5,3.3,1.5
      c0.6,0,0.6,0.1,0.2,0.5c-0.4,0.4-0.4,0.6,0.1,0.8c0.4,0.1,0.8,0.2,1,0.1c0.9-0.1,1.5,0.1,1.4,0.5c-0.1,0.3,0.4,0.5,1.1,0.4
      c0.9,0,1.2,0.2,1.2,0.7c0,0.7,0,0.7,0.9-0.1c0.7-0.7,0.9-0.7,0.9-0.3c0,0.3,0.2,0.5,0.4,0.4c0.2-0.1,0.6,0.2,0.9,0.7
      c0.2,0.5,0.7,1,1.1,1.2c0.4,0.1,0.7,0.4,0.7,0.7s0.3,0.5,0.7,0.5s1,0.3,1.3,0.6c0.5,0.6,0.6,0.6,1.6-0.1l1-0.7l-0.8,0.8
      c-0.5,0.5-1.9,1-3.8,1.4c-3.9,0.8-4.8,0.8-6.4-0.1c-1.5-0.8-2.2-0.7-1.8,0.4c0.2,0.6,0.1,0.7-1,0.7c-0.7,0-1.5-0.2-1.7-0.4
      c-0.3-0.2-0.7-0.2-1.3,0.1c-0.8,0.5-0.8,0.5,0.6,1.2c1,0.5,1.4,0.9,1.2,1.3c-0.2,0.4,0,0.6,0.3,0.6c1.3-0.1,1.8,0,1.5,0.6
      c-0.4,0.9,1.2,1.4,2.4,0.7c0.8-0.5,0.9-0.5,0.5-0.1c-0.7,0.8,0,1.6,1.1,1.3c1.7-0.4,2.1,0.3,0.5,0.8c-2.1,0.6-4.2,0.6-5,0
      c-0.9-0.7-2.2-0.7-1.9,0c0.2,0.4-0.1,0.5-1.7,0.3c-2.4-0.3-2.7,0.3-0.5,1c1.1,0.3,1.4,0.6,1.3,1.1c-0.2,0.8,1.2,1.2,2.2,0.7
      c0.6-0.3,0.7-0.2,0.7,0.6c0,0.7,0.2,0.9,1,0.7c0.8-0.2,0.9-0.1,0.6,0.4c-0.2,0.5-0.1,0.6,0.6,0.5c0.5-0.1,0.9,0,0.9,0.1
      c0,0.6,0.9,0.3,2.1-0.7c1.4-1.3,2.3-1.5,3.3-1.1c1.2,0.5,0.9,0.9-0.6,0.8c-1.5-0.2-1.7,0.4-0.6,1.7c0.6,0.8,0.6,0.8-0.2,0.8
      c-0.5,0-1.2,0.2-1.5,0.6c-0.4,0.3-1,0.6-1.3,0.6c-0.4,0-0.8,0.2-0.9,0.3c-0.1,0.2-1,0.3-2,0.3c-0.9,0-2,0.1-2.3,0.3s-1.2,0.3-2,0.2
      c-1.2-0.1-1.4,0.1-1.6,0.8c-0.1,0.6-0.4,0.8-1.2,0.9c-0.6,0-1.3,0.1-1.5,0.1c-0.2,0.1-0.8,0.1-1.2,0c-0.4,0-0.7,0.1-0.8,0.2
      c0-0.1,0-0.2,0-0.3c0-0.3-0.2-0.6-0.4-0.8c-0.1-0.1-0.5,0.1-0.7,0.2c-0.1,0-0.2,0.1-0.3,0.2c0,0-0.1-0.1-0.1-0.1
      c0.2-0.2,0.3-0.4,0.5-0.5c0.3-0.1,0.7-0.1,1-0.2c0.3-0.1,0.8-0.4,0.8-0.5c-0.2-0.5-0.6-0.3-1-0.3c-0.1,0-0.3,0.1-0.4,0.2
      c-0.1,0-0.3,0-0.5,0.1c0.3-0.4,0.6-0.6,0.2-1.1c-0.7-0.8-0.7,0.6-1.2,0.4c-0.2-0.8,0-1.4,0.8-1.7c0.2-0.1,0.3-0.2,0.5-0.3
      c0.4-0.3,0.7-0.7,1-1.1c0.1-0.1,0.1-0.4,0.1-0.6c-0.2,0-0.5,0-0.7,0c-0.5,0.3-1,0.6-1.5,0.9c0.1-2.1,0.3-4.1-0.6-5.9
      c-0.6,1.9-0.6,3.8-0.7,5.7c-0.3-0.5-0.6-0.9-0.9-1.4c-0.1-0.1-0.3-0.2-0.5-0.2c-0.1,0.2-0.2,0.4-0.2,0.6c0.1,0.5,0.3,0.9,0.5,1.4
      c0.1,0.2,0.2,0.3,0.3,0.5l-0.2,0c-0.9-0.1-1.6-0.4-1.6-0.6c0-0.2-0.5-0.3-1.2-0.1c-1.1,0.2-1.2,0.2-0.7-0.3
      c0.9-0.9-0.4-1.1-1.7-0.4c-0.6,0.4-1.9,0.6-3.2,0.6c-1.7,0-2-0.1-1.2-0.3c0.9-0.3,0.9-0.6,0.6-2c0-0.1-0.7,0.2-1.5,0.6
      c-0.8,0.4-2.2,0.8-3,0.8c-2.7,0-7.5-1.5-10.5-3.4c-1.2-0.7-0.9-0.9,0.4-0.3c0.7,0.3,0.9,0.3,0.9-0.3c0-0.6,0-0.6,0.5,0
      c0.2,0.4,0.6,0.6,0.9,0.4s0.9,0.1,1.5,0.4c1.1,0.6,1.1,0.6,1.1-0.5c0-0.6,0.2-0.9,0.3-0.6c0.4,0.5,2.1,1.3,2.7,1.3
      c0.3,0,0.5-0.4,0.5-0.8c0-0.8,0.1-0.8,0.3,0.1c0.2,0.5,0.4,0.8,0.5,0.8c0.1-0.1,0.6,0,1.1,0.3c0.7,0.3,1,0.3,1.5-0.3
      c0.3-0.4,0.8-0.6,1-0.5c0.2,0.1,0.2-0.2,0.1-0.8c-0.3-0.9-0.2-0.9,0.9-0.6c1.4,0.5,1.9,0.2,1.1-0.6c-0.5-0.5-0.4-0.6,0.2-0.6
      c0.7,0,0.7,0,0-0.7c-0.4-0.4-0.6-0.8-0.3-0.9c0.2-0.1,0.8,0.1,1.2,0.5c0.7,0.6,1.1,0.7,2.8,0.4c0.1,0,0-0.2-0.3-0.5
      c-0.6-0.6-0.2-1,0.8-1c0.4,0,1.2-0.3,1.8-0.7l1-0.7l-1.3-0.1c-0.7,0-1.8,0-2.4,0c-0.9,0.1-1,0-0.5-0.5c1-1,0.3-1-1.4,0
      c-1.8,1.1-3,1.2-2.1,0.3c0.5-0.5,0.4-0.5-0.2-0.3c-0.8,0.3-1-0.2-0.2-0.9c1.1-0.9-0.1-0.8-1.5,0.2c-2.7,1.9-3.1,2-6.2,1.2
      c-3.2-0.8-5.4-1.8-6.1-2.9c-0.4-0.6-0.3-0.7,0.6-0.7c0.6,0,1.2,0.3,1.3,0.6c0.1,0.3,0.6,0.6,1.1,0.6c0.7,0,0.9-0.1,0.7-0.7
      c-0.2-0.7-0.1-0.7,0.8,0.2c0.6,0.5,1.5,1,2,1c0.9,0,1-0.1,0.7-1.1c-0.3-1.4,0.7-1.8,1.8-0.7c0.7,0.8,3.2,1.3,3.2,0.7
      c0-0.1-0.6-0.7-1.4-1.3c-1.1-0.8-1.2-1-0.6-1c0.4,0,0.9,0.2,1,0.5c0.1,0.3,0.4,0.5,0.6,0.4c0.2-0.1,0.5,0,0.6,0.2
      c0.2,0.2,0.8,0.4,1.4,0.4c1.1,0,1.1,0,0.3-0.5c-0.8-0.5-0.8-0.5,0.4-0.9c0.7-0.2,1.5-0.4,1.8-0.4c0.3,0,0-0.2-0.6-0.5
      c-1.1-0.5-1.1-0.5,0.6-0.4c1.1,0.1,1.9-0.1,2.3-0.4c1-0.8,0.3-1.3-1.9-1.3c-1.2,0-1.9-0.2-1.7-0.4c0.6-0.8-1.1-0.8-2.9,0
      c-2.2,0.9-2.7,1-2.3,0.2c0.2-0.3,0-0.6-0.4-0.6s-0.6-0.2-0.4-0.6c0.3-0.6,0.1-0.7-1.3-0.2c-0.9,0.3-1,0.3-0.9-0.4
      c0.2-0.7-0.5-1-1-0.3c-0.2,0.2-1.1,0.7-2.1,1.2c-1.6,0.7-2,0.7-3.6,0.3c-1.5-0.4-1.6-0.5-1-0.8c0.4-0.2,0.8-0.6,0.8-0.9
      c0-0.4-0.5-0.5-2-0.5c-1.5,0.1-2.2-0.1-2.8-0.6c-1-0.8-1.9-3.7-1.3-4.1c0.4-0.2,0.6,0.6,0.4,1.6c0,0.3,0.3,1,0.9,1.6
      c0.8,0.9,1.1,1,1.6,0.7c0.3-0.2,0.6-0.9,0.7-1.4c0-0.8,0.1-0.8,0.3-0.2c0.3,1.1,1.5,2,2.6,2c0.9,0,1-0.1,0.6-0.7
      c-0.6-0.9-0.6-1.2,0-0.9c0.2,0.1,0.4,0.1,0.4-0.2c0-0.2,0.2-0.4,0.4-0.4s0.4,0.2,0.4,0.5c0,0.7,2.6,2.5,3.1,2.2
      c0.2-0.1,0.4-0.5,0.4-0.9c0-0.4,0.2-0.7,0.5-0.7s0.3-0.2,0.2-0.5c-0.2-0.3,0.1-0.1,0.5,0.4c0.5,0.5,1,0.7,1.2,0.6
      c0.2-0.1,0.8-0.3,1.3-0.4c1.2-0.1,3-0.9,3-1.2c0-0.1-0.6-0.5-1.3-0.7c-0.7-0.2-1.3-0.6-1.2-0.9c0.1-0.2-0.5-0.4-1.3-0.5
      c-1.5,0-3.8-0.9-2.9-1.2c0.3-0.1,0.6-0.4,0.6-0.7c0-0.6-2.2-0.7-2.9-0.2c-0.7,0.5-2.4,0.9-2.4,0.5c0-0.2,0.5-0.5,1.1-0.6
      c0.9-0.2,1-0.3,0.6-0.8c-0.4-0.4-0.4-0.5,0.3-0.5c1,0,2.6-1,2.2-1.3c-0.2-0.1-1.2-0.3-2.3-0.4c-2.2-0.2-2.2-0.2-1.5-1.2
      c0.4-0.7,0.5-0.7,1.5-0.1c1,0.5,1.1,0.5,1.3-0.2c0.2-0.4,0.5-0.7,0.7-0.6c0.2,0.1,0.4,0,0.4-0.2c0-0.2,0.4-0.4,0.9-0.4
      s0.9-0.2,0.9-0.5c0-0.6-0.9-1-2.2-1c-1,0-1.1-0.7-0.2-1c0.4-0.1,0.6-0.3,0.5-0.5c-0.1-0.2,0.3-0.5,0.9-0.8c1.5-0.7,1.1-1.3-0.8-1.3
      h-1.6l1.1-1.2c0.9-1,1-1.3,0.6-1.7c-0.4-0.3-0.8-0.2-2,0.9c-1.3,1.2-1.5,1.3-2,0.6c-0.3-0.4-0.7-0.7-0.9-0.7
      c-0.5,0-1.9,2.1-2.2,3.3c-0.2,0.9-4.3,3.8-4.9,3.5C482,30,482,29,482,27.9c0.1-1.1-0.1-2-0.3-2c-0.2,0-0.3-0.6-0.2-1.4
      c0.1-1.1,0.3-1.4,1.4-1.6c1.1-0.2,1.2-0.2,1,0.4c-0.4,1.1,0.7,1.3,1.5,0.4c0.5-0.5,0.9-0.7,1-0.5c0.3,0.4,2.1,0.2,2.1-0.3
      c0-0.3-2.2-2.1-2.6-2c-0.2,0-0.6,0-1.1-0.1c-1.2-0.3-0.4-0.8,0.9-0.6c2.2,0.4,4.2,0.3,4.4-0.2c0.1-0.3-0.1-0.5-0.5-0.5
      c-0.4,0-0.9-0.3-1.2-0.6c-0.3-0.3-0.7-0.5-0.9-0.3s-0.4,0.1-0.4-0.1c0-0.2,0.6-0.6,1.3-1c1.3-0.7,1.7-1.3,0.9-1.3
      c-0.8,0-3.7,1.1-4.1,1.6c-0.2,0.3-0.3,0.1-0.1-0.4c0.1-0.4,0.1-0.9-0.2-1c-0.5-0.2-2.3,2.1-2.3,3c0,0.3-0.1,0.5-0.3,0.4
      c-0.2-0.1-0.6,0-0.9,0.4c-0.5,0.6-0.6,0.4-0.4-1.2c0.2-1.5,0.6-2.2,2.2-3.7c1.1-1.1,2-2.2,2-2.5c0-0.9-2.2-0.3-2.7,0.7
      c-0.7,1.6-1.5,1-1.4-0.9c0.1-1.5,0-2-0.8-2.7l-0.9-0.8l-0.1,0.9c0,0.5-0.1,2-0.1,3.3l-0.1,2.4l-1.6-1.4c-1.9-1.6-2.1-1.7-2.1-0.6
      c0,0.5,0.8,1.5,1.7,2.4c1.5,1.4,1.7,1.8,1.8,3.6c0.1,1.4-0.1,2-0.4,1.8c-0.3-0.1-0.5-0.5-0.5-0.8s-0.2-0.5-0.4-0.5
      s-0.4-1.4-0.4-1.4s-1.1-2.8-1.8-1.9c-0.2,0.3-0.3,0.7-0.2,1c0.2,0.5-1,0.2-1.9-0.5c-0.3-0.3-0.8-0.5-1.2-0.5c-1.2,0-1,1,0.5,2.4
      c1.7,1.7,1.8,2,0.7,2.2c-0.6,0.1-0.8,0.4-0.6,0.9c0.2,0.8,1.4,0.9,2.2,0.3c0.6-0.5,0.6-0.5,0.7,0.9c0.1,1.2,0,1.2-1.5,0.5
      c-1.5-0.7-1.8-0.7-1.8,0.1c0,0.4,0.6,1.1,1.4,1.6c1.1,0.7,1.2,0.9,0.5,0.7c-0.6-0.1-1,0-1.2,0.4c-0.4,0.8-0.7,0.8-3.6-0.8
      c-1.4-0.8-2.8-1.4-3.1-1.3c-0.9,0.3-0.3,1.7,1,2.3l1.3,0.6l-1.2,0.1c-0.6,0.1-1.3,0.3-1.4,0.6c-0.2,0.5,0.9,1.1,1.5,0.7
      c0.2-0.1,0.4,0,0.4,0.2c0,0.2,0.3,0.4,0.8,0.4c0.6,0,0.6,0.1,0.2,0.2c-0.5,0.2-0.4,0.4,0.4,0.9l1,0.6l-1.8,0.3
      c-1.9,0.3-2.3,0.9-1.2,1.6c0.4,0.3,0.9,0.3,1.4,0.1c0.8-0.4,2.4-0.2,2.4,0.3c0,0.2,0.4,0.3,0.9,0.3c0.5,0,0.9-0.2,0.9-0.4
      c0-0.2,0.4-0.4,1-0.4l1,0l-1.1,0.8c-0.8,0.6-1,0.8-0.5,1.1c0.7,0.3,1.8,0.1,2.4-0.5c0.2-0.2,0.3,0.1,0.1,0.6c-0.2,0.8-0.1,1,0.6,1
      c0.5,0,0.9-0.2,0.9-0.5c0-0.3,0.1-0.3,0.3,0.1c0.2,0.4,0.4,0.3,0.8-0.4l0.6-0.9l0.6,1c0.3,0.6,0.4,1.1,0.2,1.3
      c-0.2,0.1-1.8,0.3-3.5,0.4c-2.9,0.1-3.4,0-5.3-1c-1.9-1-3.3-1.2-3.3-0.4c0,0.2,0.5,0.6,1.2,0.9l1.2,0.6l-1.5-0.2
      c-1.5-0.2-4.1-1.3-5.2-2.3c-0.3-0.3-1-0.5-1.4-0.5c-0.9,0-1.1,0.7-0.4,1.3c0.3,0.2-0.4,0.4-1.8,0.5c-1.2,0.1-2.4,0.2-2.6,0.3
      c-1.4,0.8,2.1,2.1,4.7,1.8l1.8-0.2l-1.2,0.6c-0.8,0.4-1.2,0.8-1.1,1.2c0.2,0.9,2.1,0.6,3.3-0.5c0.6-0.5,1.3-0.9,1.8-0.8
      c0.6,0.1,0.5,0.2-0.4,0.6c-1.5,0.5-2,1.1-1,1.4c0.4,0.1,0.6,0.4,0.5,0.7c-0.1,0.3,0.1,0.6,0.4,0.7c0.3,0.1,0.6,0.1,0.6-0.1
      c0-0.3,1.4-0.8,2.5-0.9c0.3,0,0.9-0.4,1.4-0.7c0.5-0.4,0.9-0.6,0.9-0.4c0,0.4-1,1.1-2.1,1.6c-0.5,0.2-1,0.6-1,0.8
      c0,0.7,1.4,0.8,2.2,0.2c0.8-0.6,0.8-0.6,0.6,0.1c-0.3,1.1,0.6,1,1.5-0.2c0.6-0.7,0.8-0.8,1.1-0.5c0.3,0.4,0.4,0.4,0.7,0
      c0.2-0.3,0.8-0.5,1.2-0.4c1.8,0.2,4.1-1.1,4.2-2.4c0-0.7,0.1-0.7,0.4,0.2c0.3,0.8,0,1.1-1.3,2.1c-0.9,0.7-2.8,1.7-4.3,2.4l-2.7,1.2
      l-2.1-0.9c-1.2-0.5-2.4-0.9-2.7-1c-0.8-0.1-0.7,0.6,0.2,1.5c0.7,0.7,0.7,0.7,0,0.3c-0.4-0.3-0.9-0.4-1.1-0.3
      c-0.2,0.1-0.9,0-1.6-0.3c-1.6-0.7-2.1-0.7-1.8,0.1c0.2,0.5,0,0.6-1.1,0.6c-0.7,0-1.4-0.1-1.6-0.2c-0.5-0.4-2,0.2-2,0.9
      c0,0.6,0.2,0.7,0.9,0.5c0.9-0.2,0.9-0.2,0.2,0.5c-0.8,0.7-0.7,0.8,1,0.7c0.8-0.1,0.9,0.1,0.7,0.6c-0.2,0.5-0.1,0.6,0.8,0.5
      c0.9-0.1,1.1-0.1,0.9,0.5c-0.2,0.8,0,0.8,1.1,0.3c1.1-0.5,2.4,1,1.6,1.7c-0.5,0.4-0.6,0.4-0.8,0c-0.1-0.3-0.9-0.5-1.8-0.6
      c-0.8,0-1.4,0.1-1.3,0.3c0.1,0.2-0.1,0.2-0.6,0.1c-1.1-0.2-1.1,0.3-0.1,0.9c0.6,0.3,0.8,0.7,0.6,1.4c-0.3,1.2-0.3,1.2-2,0
      c-0.7-0.5-1.9-0.9-1.9-0.9s-0.8,0.2-0.2,1.1c0.5,0.7,0.2,0.7-3.2,0.2c-1.1-0.2-1.7-0.1-1.7,0.1c0,0.5,2.3,1.5,3.3,1.5
      c0.6,0,0.6,0.1,0.2,0.5c-0.4,0.4-0.4,0.6,0.1,0.8c0.4,0.1,0.8,0.2,1,0.1c0.9-0.1,1.5,0.1,1.4,0.5c-0.1,0.3,0.4,0.5,1.1,0.4
      c0.9,0,1.2,0.2,1.2,0.7c0,0.7,0,0.7,0.9-0.1c0.7-0.7,0.9-0.7,0.9-0.3c0,0.3,0.2,0.5,0.4,0.4c0.2-0.1,0.6,0.2,0.9,0.7
      c0.2,0.5,0.7,1,1.1,1.2c0.4,0.1,0.7,0.4,0.7,0.7c0,0.3,0.3,0.5,0.7,0.5s1,0.3,1.3,0.6c0.5,0.6,0.6,0.6,1.6-0.1l1-0.7l-0.8,0.8
      c-0.5,0.5-1.9,1-3.8,1.4c-3.9,0.8-4.8,0.8-6.4-0.1c-1.5-0.8-2.2-0.7-1.8,0.4c0.2,0.6,0.1,0.7-1,0.7c-0.7,0-1.5-0.2-1.7-0.4
      c-0.3-0.2-0.7-0.2-1.3,0.1c-0.8,0.5-0.8,0.5,0.6,1.2c1,0.5,1.4,0.9,1.2,1.3c-0.2,0.4,0,0.6,0.3,0.6c1.3-0.1,1.8,0,1.5,0.6
      c-0.4,0.9,1.2,1.4,2.4,0.7c0.8-0.5,0.9-0.5,0.5-0.1c-0.7,0.8,0,1.6,1.1,1.3c1.7-0.4,2.1,0.3,0.5,0.8c-2.1,0.6-4.2,0.6-5,0
      c-0.9-0.7-2.2-0.7-1.9,0c0.2,0.4-0.1,0.5-1.7,0.3c-2.4-0.3-2.7,0.3-0.5,1c1.1,0.3,1.4,0.6,1.3,1.1c-0.2,0.8,1.2,1.2,2.2,0.7
      c0.6-0.3,0.7-0.2,0.7,0.6c0,0.7,0.2,0.9,1,0.7c0.8-0.2,0.9-0.1,0.6,0.4c-0.2,0.5-0.1,0.6,0.6,0.5c0.5-0.1,0.9,0,0.9,0.1
      c0,0.6,0.9,0.3,2.1-0.7c1.4-1.3,2.3-1.5,3.3-1.1c1.2,0.5,0.9,0.9-0.6,0.8c-1.5-0.2-1.7,0.4-0.6,1.7c0.6,0.8,0.6,0.8-0.2,0.8
      c-0.5,0-1.2,0.2-1.5,0.6c-0.4,0.3-1,0.6-1.3,0.6s-0.8,0.2-0.9,0.3c-0.1,0.2-1,0.3-2,0.3c-0.9,0-2,0.1-2.3,0.3
      c-0.3,0.2-1.2,0.3-2,0.2c-1.2-0.1-1.4,0.1-1.6,0.8c-0.1,0.6-0.4,0.8-1.2,0.9c-0.6,0-1.3,0.1-1.5,0.1c-0.2,0.1-0.8,0.1-1.2,0
      c-0.4,0-0.8,0.1-0.8,0.3c0,0.5,2.4,1.6,3.5,1.6c1,0,1,0,0.2,0.7c-0.8,0.7-0.8,0.7,0.4,0.7c0.9,0,1.1,0.1,0.9,0.6
      c-0.2,0.5,0,0.5,1,0.3c0.7-0.1,1.4-0.2,1.5-0.2c1.4,0,1.7,0.1,1.5,0.6c-0.5,1,0.7,1,1.3,0c0.6-1,0.7-1,0.7-0.2
      c0,0.5,0.2,0.8,0.4,0.9c2.7,0.3,3.1,0.2,3.7-0.9l0.6-1.1l0.4,0.9l0.4,0.9l0.9-0.9c0.8-0.9,0.8-0.9,0.9-0.1c0,1.1,0.8,1.1,1.1-0.1
      c0.2-0.5,0.5-0.9,0.7-0.9s0.3,0.2,0.1,0.4c-0.2,0.3,0.1,0.3,1.1,0.2c1.1-0.2,1.4-0.2,1.3,0.2c-0.3,0.7-3,1.8-4.4,1.8
      c-0.6,0-1.3,0.2-1.4,0.5c-0.1,0.3-1,0.4-2.2,0.4c-1.1,0-2,0.1-2,0.3c0,0.7,1.5,1.5,2.7,1.4c0.7-0.1,1.3,0,1.4,0.2
      c0.1,0.6-2.5,1-8.7,1.2c-7.1,0.2-9.9,0.5-9.9,0.9c0,0.2-0.5,0.2-1.1,0.1c-0.6-0.1-1.1,0-1.1,0.2c0,0.5,1.4,1.2,2.6,1.2
      c0.5,0,0.9,0.2,0.9,0.4c0,0.2-0.2,0.4-0.5,0.4s-0.9,0.3-1.4,0.8l-1,0.8l1.4-0.2c0.9-0.1,1.4,0,1.4,0.3c0,0.3,0.4,0.4,0.9,0.3
      c0.5-0.1,0.9,0,0.9,0.2c0,0.6,1.1,0.5,1.8-0.1c0.3-0.3,0.7-0.6,1-0.6c0.2,0,0.1,0.3-0.3,0.7c-0.4,0.4-0.7,0.8-0.7,0.9
      c0,0.4,1.7,0.3,2-0.1c0.4-0.6,1-0.4,1.3,0.4c0.4,0.9,0.9,0.9,2.5,0l1.3-0.8l-0.3,1.1c-0.3,1.4,0.5,1.5,2.3,0.3
      c1.2-0.8,1.2-0.8,0.7,0c-0.5,0.9-0.3,1.3,0.6,1c0.3-0.1,0.9,0,1.3,0.3c0.5,0.3,0.7,0.3,0.7,0c0-0.2,0.3-0.4,0.7-0.4
      c0.4,0,0.7,0.2,0.7,0.5c0,0.4,0.4,0.5,1.2,0.4c4.6-0.4-1.3,1.8-6.7,2.5c-3.5,0.5-3.8,0.4-5-0.2c-0.7-0.4-1.5-0.7-1.8-0.7
      c-0.9,0-0.6,0.7,0.4,1.1c0.7,0.3,0.5,0.3-1,0.1c-1.1-0.1-2.5-0.2-3.1-0.2s-2.1-0.2-3.3-0.5c-0.2,0-0.4-0.1-0.5-0.1
      c-0.1-0.1-0.1-0.3-0.2-0.4c0.4-0.3,0.8-0.6,1.4-1c-2-0.8-3.4,0.6-5.1,0.6c0.8-0.6,1.5-1.2,2.3-1.8c-0.1-0.1-0.1-0.2-0.2-0.3
      c-0.2,0-0.5-0.1-0.7,0c-0.8,0.4-1.6,0.8-2.3,1.3c-0.8,0.5-1.6,1.1-2.4,1.7c0,0,0-0.1,0-0.1c0.3-0.4,0.5-0.8,0.8-1.2
      c-0.1-0.1-0.2-0.2-0.2-0.3c-1,0.4-2,0.7-3.1,1.1c-0.2-0.9,0.3-2.1-1-2.7c-0.1,0.6-0.2,1.1-0.3,1.5c-0.7,0.1-1.3,0.1-2,0.2
      c0.1-0.6,0.2-1.2,0.4-1.7c0.2-0.7,0.2-0.8-0.6-0.8c-0.2,0-0.4,0-0.6,0c0.4-1.3,1.3-0.3,2-0.6c0-0.2,0-0.4,0.1-0.8
      c0.2,0.1,0.3,0.2,0.4,0.2c0.2,0.1,0.5,0.1,0.8,0.2c-0.1-0.3-0.1-0.6-0.2-0.8c-0.2-0.3-0.5-0.5-0.8-0.8c1,0.2,1.9,0.4,2.8,0.5
      c0.3,0,0.6-0.2,0.9-0.3c-0.2-0.2-0.4-0.4-0.6-0.6c0.8-0.4,1.6-0.8,2.4-1.2c0.1,0,0.2-0.1,0.3,0c0.7,0.1,1-0.1,0.8-0.9
      c0.2,0.1,0.3,0.1,0.4,0.1c0.3,0,0.6,0.1,0.9,0.1c-0.2-0.3-0.3-0.7-0.5-0.9c-0.2-0.2-0.6-0.4-1.1-0.6c0.5-0.3,0.9-0.5,1.1-0.8
      c0.2-0.2,0.3-0.6,0.4-0.9c-0.3,0-0.6-0.2-0.9-0.1c-0.5,0.2-1,0.5-1.5,0.8c0-0.6,0.1-1.2,0.1-1.8c0-0.2-0.4-0.4-0.5-0.6
      c-0.1,0.2-0.3,0.4-0.4,0.6c-0.1,0.2-0.1,0.4-0.2,0.8c-0.3-0.5-0.5-0.8-0.6-1.2c-0.1,0-0.2,0-0.2,0c-0.1,0.4-0.1,0.8-0.2,1.5
      c-0.7-1.6-1.9-1.9-3.4-1.7c0.2-0.3,0.3-0.5,0.5-0.9c-1.3-0.5-2.4,0.3-3.7,0.4c0.3-0.4,0.5-0.7,0.7-1.1c0-0.1-0.1-0.1-0.1-0.2
      c-0.4,0.1-0.8,0.2-1.1,0.3c-0.1-0.3-0.2-0.6-0.4-0.6c-0.3,0-0.6,0.1-0.8,0.3c-0.3,0.2-0.5,0.5-0.8,0.7c-0.1-0.5-0.1-1-0.2-1.3
      c0.5-0.1,1.1-0.3,1.8-0.4c0-0.1,0-0.2,0.1-0.3c-1-0.4-1.6-1-1.6-2.2c0.4,0.4,0.7,0.7,1,0.9c0.2,0.1,0.4,0.1,0.7,0.1
      c0-0.2,0.1-0.5,0-0.7c-0.3-0.5-0.7-0.9-1.1-1.4c1.1-0.1,2.2,0.4,3.2,0c0-0.1,0-0.2,0.1-0.3c-0.7-0.2-1.5-0.4-2.2-0.7
      c0.8-0.5,1.4-0.1,2.1,0.1c0.9,0.4,1.1,0.3,1.1-0.7c0.7,0.1,1.3,0.3,2,0.4c0.2,0,0.4-0.2,0.6-0.2c-0.1-0.2-0.1-0.5-0.3-0.6
      c-0.1-0.2-0.4-0.3-0.6-0.3c-0.7-0.1-1.4-0.2-2.2-0.3c0.3-0.5,0.9-0.9,0.1-1.6c-1,0.8-1.9,1.6-2.9,2.4c0-0.1-0.1-0.1-0.1-0.2
      c0.3-0.4,0.6-0.8,0.9-1.2c-0.1-0.1-0.1-0.2-0.2-0.2c-0.4,0.1-0.7,0.2-1.1,0.3c-0.3,0-0.7-0.1-1-0.1c0-0.1,0-0.2,0-0.4
      c0.4,0,0.9,0,1.3,0c0.2,0,0.3-0.2,0.5-0.2c-0.1-0.2-0.2-0.4-0.3-0.5c-0.4-0.1-0.9-0.2-1.3-0.3c0.4-0.7,1-0.8,1.7-0.5
      c0.2,0.1,0.4-0.1,0.6-0.1c-0.1-0.2-0.2-0.4-0.3-0.5c-0.2-0.2-0.5-0.4-0.8-0.7c1.4-0.1,2.6-0.1,3.6-1.1c-0.5-0.1-0.9-0.2-1.6-0.3
      c1-0.7,1.9,0.7,2.8,0c-0.3-1.1-1.4-0.9-2.1-1.3c0.6-0.8,1.5-1.4,1.6-2.4c-0.1-0.1-0.2-0.2-0.2-0.2c-0.8,0.6-1.5,1.1-2.4,1.8
      c0.1-0.5,0.2-0.9,0.2-1.4c0-0.4-0.1-0.8-0.2-1.1c-0.3,0.3-0.6,0.5-0.9,0.8c-0.2,0.2-0.1,0.7-0.3,0.8c-0.6,0.5-1.3,0.8-2,1.2
      c-0.1,0-0.1-0.1-0.2-0.1c0.1-0.3,0.2-0.7,0.4-1c0.4-0.6,0.4-1.2-0.1-1.8c-0.3-0.3-0.6-0.5-1-0.8c1.2-1.3,1.3-2,0.2-2.4
      c0.5-0.4,1-0.8,1.6-1.1c0.3-0.2,0.6-0.4,0.9-0.5c0.6-0.2,1.3-0.2,2-0.4c-0.1-0.4-0.2-0.6-0.3-0.8c0.2,0,0.3,0,0.5,0
      c0.2,0,0.5-0.1,0.7-0.1c-0.2-0.2-0.3-0.5-0.5-0.6c-0.5-0.2-1.1-0.2-1.7-0.3c0.4-0.5,0.8-0.9,1.1-1.5c0.1-0.2,0-0.5,0-0.7
      c-0.2,0-0.5,0-0.7,0.1c-0.3,0.2-0.6,0.5-0.9,0.8c-0.2,0.3-0.4,0.6-0.6,0.8c-0.2-0.4-0.3-0.7-0.4-1.1c0.3-0.4,0.8-0.9,1.1-1.4
      c0.1-0.2,0-0.5,0-0.8c-0.2,0-0.5,0-0.6,0.1c-0.3,0.3-0.6,0.6-1,0.9c-0.2,0.1-0.5,0.3-0.6,0.2c-0.5-0.3-0.7,0.1-0.9,0.4
      c-0.2,0.3-0.3,0.7-0.4,1.1c-1.7-0.9-1.7-0.9-4.1,0.5c0.2-0.4,0.2-0.6,0.4-0.7c0.5-0.4,1.1-0.7,1.6-1.1c0.7-0.4,1.4-0.9,2.1-1.3
      c0.2-0.1,0.2-0.4,0.3-0.6c-0.2,0-0.4-0.1-0.6-0.1c-0.4,0.1-0.8,0.3-1.2,0.4c-0.3,0.1-0.5,0.2-0.7,0.3c0-0.4-0.1-0.7-0.1-1
      c-0.3,0.1-0.6,0.2-0.9,0.4c-0.2,0.1-0.4,0.3-0.6,0.5c-0.1-0.2,0-0.3,0-0.4c0.1-1.1,1.3-1.4,1.8-2.2c0.5-0.8,1.4-1.4,2.1-2.1
      c-0.9-0.8-1.7,0-2.5-0.1c0.1-0.6,0.3-1.2,0.3-1.7c0-0.4-0.3-0.9-0.6-1.2c-0.2-0.1-0.7,0.1-1,0.3c-0.1,0-0.3,0.2-0.4,0.3
      c-0.1-0.1-0.1-0.1-0.2-0.2c0.3-0.3,0.5-0.6,0.8-0.7c0.4-0.2,1-0.2,1.4-0.4c0.4-0.2,1.2-0.6,1.1-0.7c-0.3-0.7-0.9-0.5-1.5-0.4
      c-0.2,0-0.4,0.2-0.6,0.2c-0.2,0.1-0.4,0.1-0.8,0.1c0.4-0.6,0.9-0.9,0.3-1.5c-1.1-1.1-1,0.8-1.7,0.6c-0.2-1.1,0-2,1.1-2.5
      c0.2-0.1,0.5-0.3,0.7-0.4c0.5-0.5,1-1,1.5-1.6c0.2-0.2,0.1-0.6,0.1-0.9c-0.3,0-0.7-0.1-1,0.1c-0.7,0.4-1.4,0.8-2.2,1.3
      c0.2-3,0.5-5.9-0.9-8.7c-0.9,2.7-0.9,5.5-1.1,8.4c-0.5-0.7-0.9-1.4-1.3-2c-0.1-0.2-0.5-0.2-0.7-0.3c-0.1,0.3-0.3,0.6-0.3,0.8
      c0.2,0.7,0.5,1.3,0.8,2c0.5,1.2,1.9,1.9,1.6,3.6c-0.2-0.2-0.4-0.5-0.6-0.7c-0.6-0.5-1.1-1-1.7-1.4c-0.1-0.1-0.5-0.1-0.6,0
      c-0.1,0.2-0.2,0.5-0.1,0.7c0.1,0.3,0.4,0.6,0.6,0.8c0.4,0.4,0.8,0.7,1.3,1.1c-0.8,0.1-1,0.4-0.4,1c0.2,0.2,0.3,0.5,0.4,0.9
      c-0.6-0.3-1-0.6-1.5-0.8c-0.2-0.1-0.6,0-0.8,0.1c0.1,0.3,0.1,0.7,0.3,0.9c0.5,0.5,1.2,1,1.9,1.5c-0.6,0.1-1.2,0.1-1.6,0.3
      c-0.2,0-0.4,0.4-0.3,0.6c0.1,0.3,0.4,0.5,0.5,0.8c0.2,0.3,0.3,0.7,0.4,1c-0.6-0.1-0.9-0.3-1.3-0.6c-0.3-0.2-0.6-0.4-0.8-0.7
      c0,0.4-0.1,0.8-0.1,1.1c0,0.1,0,0.1-0.1,0.2c-0.4-0.1-0.9-0.1-1.4-0.2c0.1,0.3,0.1,0.6,0.2,0.8c-0.7-0.3-1.4-0.6-2-0.9
      c-0.2-0.1-0.6,0.1-0.9,0.1c0.2,0.3,0.3,0.6,0.5,0.8c0.5,0.3,1,0.5,1.6,0.7c-0.4,0.6-0.4,0.8,0.2,1c0.7,0.2,1.5,0.5,2.3,0.9
      c-0.7,0.4-1.3,0.7-1.9,1c0,0.1,0.1,0.3,0.1,0.4c0.8,0.1,1.6,0.2,2.4,0.2c0,0.1,0,0.2,0,0.3c-0.5,0.1-1,0.2-1.5,0.3
      c0,0.1,0,0.2-0.1,0.3c0.6,0.3,1.3,0.6,1.9,1c0,0.1-0.1,0.1-0.1,0.2c-0.4-0.1-0.9-0.3-1.3-0.4c-0.3-0.1-0.5,0-0.8,0.1
      c0.1,0.3,0.2,0.6,0.4,0.8c0.3,0.3,0.6,0.5,1,0.7c-0.2,0.2-0.4,0.3-0.6,0.5c-0.8-0.7-1.1-1.9-2.1-2.4c-0.1,0-0.2,0.1-0.3,0.1
      c0.2,0.6,0.4,1.1,0.7,1.8c-1.2-0.7-2.3-1.5-3.7-1.3c-0.1,0.1-0.2,0.2-0.3,0.4c0.4,0.2,0.8,0.5,1.2,0.7c-0.6,0.7-0.5,0.9,0,1.3
      c0.5,0.3,0.9,0.7,1.4,1.1c-0.7,0.3-1.2,0.6-1.9,0.9c1,1,1.9,0.3,2.8,0.4c-0.1,0.2-0.2,0.4-0.2,0.6c0.8,0.7,1.2-0.4,1.7-0.4
      c0.6,0.4,1.1,0.8,1.6,1.2c-0.5,0.5-1.6,0.4-1.2,1.6c-0.2-0.2-0.4-0.3-0.6-0.4c-0.2-0.2-0.4-0.4-0.6-0.6c-0.7-0.7-0.9-0.7-1.4,0.1
      c-0.3-0.2-0.6-0.4-1-0.6c-0.3-0.1-0.6,0-0.9,0c0.1,0.3,0.1,0.7,0.3,0.9c0.4,0.4,0.9,0.7,1.4,1.1c-0.2,0.2-0.3,0.3-0.5,0.5
      c-0.3,0.3-0.8,0.6-0.4,1.1c0.1,0.1,0.7-0.1,1.1-0.1c0.2,0,0.4-0.1,0.6-0.2c0.8,0,1.6,0,2.3-0.1c0.2,0,0.4-0.1,0.5-0.1
      c0,0.6-0.1,1.1-0.1,1.7c-0.4,0.2-1.3-0.1-1.7,0.7c0.3,0.1,0.5,0.3,0.7,0.4c-0.7,0.6-1.4,0.5-1.9-0.2c-0.1-0.2-0.3-0.3-0.5-0.5
      c-0.7-0.6-0.9-0.5-1.1,0.5c-0.5-0.9-0.9-1.6-1.3-2.4c-0.1,0-0.2,0-0.3,0c-0.1,0.4-0.3,0.8-0.5,1.3c-0.2-0.5-0.4-0.9-0.6-1.2
      c-0.1-0.2-0.3-0.3-0.5-0.4c-0.1,0.2-0.2,0.4-0.2,0.7c0,0.4,0.2,0.7,0.3,1.2c-0.4-0.2-0.7-0.4-1-0.4c-0.3,0-0.7,0.1-1,0.1
      c0.2,0.3,0.2,0.7,0.5,0.9c0.4,0.3,0.9,0.5,1.4,0.8c-0.5,0.2-1,0.4-1.4,0.7c-0.2,0.1-0.2,0.4-0.3,0.6c0.2,0.1,0.4,0.2,0.7,0.2
      c0.3,0,0.5-0.1,0.9-0.2c-0.3,0.6-0.6,1-0.8,1.4c0.1,0.1,0.1,0.1,0.2,0.2c0.4-0.2,0.7-0.3,1.2-0.5c0,0.6,0.3,0.9,0.8,0.4
      c0.4-0.3,0.6-0.7,0.8-0.8c0.4,0,0.7,0.1,0.9,0c0.8-0.3,1-0.3,1.6,0.3c-1.2,0.1-2.4,0.3-2.7,1.7c-1,0.2-2-0.2-3,0.3
      c0,0.1,0,0.2,0,0.3c0.7,0.1,1.5,0.3,2.2,0.4c-0.6,1.2-2.4,1.3-2.9,2.7c0,0.1,0.1,0.2,0.1,0.3c0.8-0.3,1.6-0.6,2.5-0.9
      c0,0.1,0.2,0.4,0.2,0.4c0.7-0.3,1.3-0.5,2-0.8c0,0.2,0,0.5,0.1,0.6c0.1,0.3,0.4,0.5,0.6,0.8c0.1-0.3,0.4-0.6,0.4-0.9
      c-0.1-1,0.5-1.2,1.3-1.5c-0.1,0.3-0.2,0.5-0.2,0.5c0.4,0.7-0.1,0.9-0.5,1.3c-0.3,0.3-0.6,0.8-0.9,1.2c0.1,0.1,0.2,0.2,0.2,0.3
      c0.6-0.3,1.2-0.5,1.9-0.8c0.1,0.7,0.3,1.4,0.4,2.1c-0.6-0.1-1.3-0.2-2-0.3c-0.5,0-1,0-1,0.8c0,0.6-0.2,1.2-0.4,1.8
      c-2-1.2-2.2-1.2-2.5-0.3c-0.9-0.4-1.7-1-2.8-0.7c0.2,1.4,2,1.2,2.1,2.8c-1-0.6-1.7-1-2.7-1.5c-0.1,0.5-0.1,0.9-0.2,1.2
      c-0.6-0.1-1.2-0.3-1.8-0.4c-0.3-0.1-0.6-0.2-1-0.4c-0.2-0.1-0.4-0.2-0.5-0.3c0,0.2-0.1,0.4-0.1,0.7c0,0.1,0,0.2,0,0.4
      c-2.4-0.1-2.6-0.1-2.9,1.1c0.7,0.1,1.3,0.2,1.9,0.3c-0.1,0.3-0.2,0.5-0.3,0.8c0.3,0.1,0.6,0.2,0.8,0.2c0.3,0,0.6-0.1,0.9-0.2
      c0.5-0.1,1.1-0.3,1.6-0.4c-0.3,0.4-0.6,0.6-0.9,0.9c-0.1,0.1-0.2,0.4-0.3,0.6c0.2,0,0.5,0.2,0.7,0.1c0.5-0.3,0.9-0.7,1.3-1.1
      c0.2-0.2,0.4-0.4,0.6-0.6c0.1,0,0.1,0.1,0.2,0.1c-0.3,0.5-0.6,0.9-0.8,1.4c-0.3,0.8,0.3,1,1,1c-0.4,0.3-0.7,0.6-1,1
      c1,1,1.9,0.1,2.8-0.1c0,0.2,0,0.4,0.1,0.5c0.2,0.4,0.5,1.1,0.7,1.1c0.7-0.1,0.4-0.8,0.5-1.2c0.1-0.4,0.1-0.7,0.2-0.9
      c0.4,0.3,0.6,0.6,0.9,0.8c-0.7,1,0.6,0.9,0.8,1.3c-0.7,0.4-1.4,0.9-2,1.3c0,0.1,0,0.3,0,0.4c1.4-0.1,2.5,1.1,4,0.9
      c-0.4,0.4-1,0.8-1.2,0.7c-1.9-0.9-4-0.9-6.1-1.2c0,0.3-0.1,0.6-0.1,1c-0.3-0.4-0.5-0.7-0.8-1c-0.1-0.1-0.4-0.1-0.5-0.2
      c-0.1,0.2-0.2,0.4-0.1,0.6c0,0.3,0.2,0.5,0.3,0.8c-1.6-0.5-2.9-1.4-4.5-1.1c-0.1,0.1-0.1,0.2-0.2,0.4c1,0.6,2,1.2,3,1.8
      c0.1,0.3,0.2,0.7,0.3,1c-0.4,0.3-0.8,0.5-1.2,0.8c-0.5,0.3-0.8,0.8-0.4,1.3c0.1,0.2,0.8,0,1.2-0.1c0.2-0.1,0.4-0.3,0.6-0.4
      c0.4-0.2,0.9-0.4,1.3-0.6c0,0.6,0,1,0,1.5c0.1,0,0.2,0.1,0.3,0.1c0.3-0.3,0.6-0.7,1-1.1c0.2,0.7-0.2,1-0.6,1.3
      c-0.4,0.3-0.7,0.8-1.2,1.3c1.8,1.2,2.7-0.3,3.8-1c0.3,0.9,0.5,1.7,1.3,2.2c0.8,0.6,1,0.7,1.7,0c0.4-0.4,0.7-0.8,1.1-1.2
      c0.2,0.3,0.3,0.6,0.4,0.9c-0.4,0.4-0.8,0.7-1.1,1.2c-0.2,0.4-0.5,0.9-0.4,1.3c0.1,0.7,0.7,1,1.3,1c0.3,0,0.7,0.1,1.2,0.2
      c-0.5,0.6-0.9,1-1.3,1.5c-1.2-1-2.3-1.9-3.8-1c-0.8-0.5-1.3-1.4-2.5-1.5c0.4,1.4,1.5,2,2.4,3c-0.7-0.3-1.3-0.8-1.9-0.2
      c0,0-0.2-0.1-0.3-0.1c-0.9-0.2-1.6-0.6-1.9-1.5c-0.1-0.4-0.4-0.7-0.6-1c-0.2-0.2-0.5-0.5-0.6-0.4c-0.2,0.1-0.4,0.4-0.5,0.7
      c-0.1,0.1,0,0.3-0.1,0.6c-0.7-0.6-1.4-1.2-2.1-1.7c-0.1,0.1-0.2,0.2-0.3,0.3c0.2,0.5,0.5,0.9,0.7,1.4c0.1,0.2,0.1,0.5,0.2,0.8
      c-0.3,0.1-0.6,0.2-0.9,0.2c-0.5-0.1-0.9-0.4-1.4-0.4c-0.6-0.1-1.2,0-2,0c0.9,1.2,1.9,1.5,3,1.8c-0.1,0.2-0.2,0.4-0.3,0.6
      c0.3,0.2,0.5,0.4,0.7,0.6c-0.5,0-0.9-0.2-1.3-0.2c-0.9,0-0.4,0.6-0.3,1c-0.3,0.1-0.5,0.2-0.7,0.3c-0.6,0.3-1.3,0.6-1.9,1
      c-0.3,0.2-0.3,0.7-0.4,1.1c0.3,0.1,0.6,0.3,0.9,0.2c0.5-0.1,0.9-0.3,1.3-0.4c0.6-0.2,1.2-0.3,2-0.6c-0.4,0.6-0.7,0.9-0.8,1.2
      c-0.1,0.2-0.1,0.6-0.1,0.6c0.2,0.1,0.6,0.2,0.7,0.1c0.5-0.3,0.9-0.7,1.4-1.1c0.4-0.3,0.8-0.7,1.2-1.1c0.1,0.1,0.1,0.1,0.2,0.2
      c-0.1,0.3-0.3,0.7-0.4,1.1c-0.1,0.3,0,0.6,0,0.9c0.3-0.1,0.6-0.2,0.8-0.4c0.1-0.1,0.2-0.3,0.3-0.4c0.5-1.1,0.5-1.1,1.6-0.7
      c-0.4,0.2-0.9,0.5-1.3,0.7c0,0.1,0,0.2,0.1,0.3c0.6,0.1,1.2,0.2,1.9,0.3c-0.4,0.4-0.8,0.7-1.1,1.1c-0.2,0.3-0.3,0.7-0.5,1.1
      c0.4,0,0.7-0.1,1.1-0.1c-0.3,0.8-0.6,1.5-0.8,2.3c-0.1,0.5,0.2,0.7,0.7,0.5c0.3-0.2,0.6-0.4,0.9-0.7c0.5-0.6,0.9-1.2,1.3-1.8
      c0.3,1.1,0.3,1.1,1.2,0.7c-0.1,0.3-0.1,0.6-0.2,0.9c-0.1,0.4-0.3,0.8,0.2,1c0.3,0.1,0.9,0,1.1-0.3c0.6-0.6,1.3-1.2,1.4-2.1
      c0-0.1,0.2-0.3,0.4-0.5c0.4,1.2,0.8,2.3,1.2,3.5c0,0.1-0.3,0.5-0.5,0.5c-1.1,0.1-2.3,0.7-3.3-0.4c-0.1-0.1-0.3-0.1-0.4-0.1
      c-0.8,0.8,0.2,1.3,0.4,1.8c-0.7,0.1-1.4,0.1-2,0.3c-0.5,0.2-1,0.6-1.4,1c-0.1,0.1,0.4,0.6,0.6,1c-0.1,0-0.4,0-0.4-0.1
      c-0.3-0.4-0.6-0.8-1-1.1c-0.2-0.2-0.5-0.4-0.8-0.6c-0.1,0.3-0.1,0.7-0.1,1c0,0.1,0.1,0.2,0.1,0.3c-1.5-0.7-1.5-0.7-2.1,0.4
      c-0.7-0.3-1.5-0.6-2.2-1c-0.8-0.4-1.5-1-2.3-1.4c-0.2-0.1-0.6-0.1-0.8-0.1c0.1,0.3,0.1,0.6,0.3,0.7c0.7,0.6,1.4,1,2,1.5
      c-1-0.1-2-0.1-3-0.2c-1-0.1-2-0.4-3,0.2c1,1,2.3,1.1,3.4,1.5c0,0.2,0,0.4,0,0.7c0.3,0.1,0.6,0.1,0.8,0.2c-0.6,0.5-1.3,1-1.9,1.4
      c0.1,0.1,0.1,0.3,0.2,0.4c0.5,0,0.9,0,1.4-0.1c0.4,0,0.9-0.3,1.1-0.1c0.6,0.6,1.2,0.6,1.9,0.4c0.7-0.2,1.4-0.3,1.9-0.5
      c0.3,0.4,0.7,0.8,1,1.2c-0.1,0-0.2,0-0.4,0.1c-1,0.2-2,0.4-3,0.7c-0.3,0.1-0.5,0.6-0.7,0.9c0.3,0.2,0.6,0.5,0.9,0.5
      c0.6,0,1.3-0.1,2-0.2c0.8-0.2,1.5-0.5,2.5-0.8c-0.4,0.5-0.7,0.9-1.1,1.4c1.5,0.5,2.1-0.7,3.1-1.3c0.4,1.2,0.7,2.3,1.1,3.5
      c-0.2,0.1-0.3,0.1-0.4,0.1c-0.5-0.1-0.9-0.3-1.4-0.4c-0.3-0.1-0.7,0-1,0c0,0.3,0.1,0.7,0.1,1c0,0,0,0.1,0,0.1
      c-2.2,0.2-2.2,0.2-2.7,0.7c-0.3-0.3-0.7-0.6-1-0.8c-0.2-0.1-0.4-0.1-0.6-0.2c0,0.3-0.1,0.5,0,0.8c0.1,0.3,0.3,0.5,0.5,0.8
      c-0.1,0.1-0.1,0.2-0.2,0.2c-0.9-0.4-1.7-0.7-2.6-1.1c-1.5-0.6-2.2-0.7-3,0.5c-0.8-0.6-1.6-1.2-2.4-1.7c-0.2-0.2-0.6-0.2-0.9-0.2
      c0.1,0.3,0,0.7,0.2,0.9c0.6,0.7,1.3,1.2,1.9,1.8c-0.8,0.1-1.7,0.2-2.6,0.2c-0.9,0-1.8-0.1-2.7,0.6c0.9,1,2.2,0.9,3.3,1.1
      c-0.2,0.4-0.3,0.7-0.4,1c-0.6,0.1-1.3,0.2-1.8,0.5c-0.3,0.1-0.5,0.5-0.7,0.7c0.3,0.2,0.7,0.7,1,0.7c0.7,0,1.5-0.1,2.2-0.3
      c0.7-0.2,1.3-0.6,2-0.9c0,0.7-0.8,1.4,0.2,2.2c0.4-0.6,0.8-1.1,1.1-1.6c-0.2,0.8,0.4,1.3,1.2,1c1-0.4,2-1,2.9-1.5
      c-0.2,0.5-0.2,1.3-1.2,1.5c-0.3,0.1-0.6,0.5-0.8,0.8c0.4,0.1,0.8,0.2,1.2,0.3c0.1,0,0.1,0.1,0.1,0c-0.4,0.6-0.9,1.1-1.3,1.7
      c-0.1,0.1-0.1,0.2-0.1,0.3l-2.8,0.1l-33.9,10.7l-35.5,4.6l-19.4,4.1l-11.1,3.3l-7,1.6l-27.5-4.8l-18.4-5.9l-29.2-3.1l-27.8-8.1
      l-37.2-2.2l-1.3-0.3c0.2,0,0.7,0,1.6,0c1.9,0.1,2,0.1,1.5-0.3c-0.3-0.2-0.9-0.4-1.2-0.4c-0.3,0-0.7-0.1-0.8-0.3
      c-0.1-0.2,0.1-0.3,0.5-0.2c1.3,0.1,2.2,0,2.2-0.2c0-0.1-1-0.3-2.3-0.4c-1.2-0.1-2.2-0.3-2.1-0.4c0.1-0.1,1-0.4,2.1-0.6
      c2-0.4,3.2-0.9,2.8-1.2c-0.2-0.2-2,0.1-4.4,0.6c-0.7,0.2-0.7,0.1,0.3-0.6c1.7-1.2,0.7-1.3-1.7-0.2c-2.4,1.1-3.8,1.2-6.4,0.4
      c-3-0.9-7.9-2.9-8.3-3.5c-0.5-0.7-0.2-0.7,0.6,0.1c0.4,0.3,0.7,0.5,0.7,0.4c0-0.1,0.2-0.1,0.5,0.1c0.4,0.3,0.5,0.3,0.5-0.2
      c0-0.4,0.2-0.4,1,0.3l1,0.8l-0.2-0.9c-0.2-0.9-0.2-0.9,0.7-0.6c0.5,0.2,1.1,0.5,1.4,0.6c1.2,0.8,1.4,0.8,1.2-0.2
      c-0.2-0.7-0.1-0.8,0.2-0.6c0.6,0.5,1.9,0.4,1.9-0.1c0-0.5,0.5-0.5,0.9,0c0.1,0.2,0.7,0.6,1.1,0.8c0.7,0.4,0.9,0.4,0.9,0.1
      c0-0.2-0.3-0.6-0.6-0.9c-0.4-0.3-0.6-0.6-0.6-0.8c0-0.1,0.1-0.2,0.2-0.1c0.1,0.1,0.4,0,0.7-0.3c0.3-0.3,0.9-0.4,1.7-0.3
      c0.8,0.1,1.3,0,1.4-0.2c0.1-0.3,0.4-0.3,1.2-0.1c2.8,0.7,3.4-0.1,0.6-0.9c-1.8-0.6-2.1-0.8-0.4-0.4c2.2,0.5,5.1,0.1,3.8-0.5
      c-0.3-0.1-1.1-0.3-1.9-0.3c-1.2,0-1.3-0.1-0.5-0.2c0.5-0.1,1-0.3,1.1-0.5c0.1-0.3-0.4-0.4-3.1-0.2c-3.2,0.2-3.3,0.2-2.9-0.3
      c0.6-0.8,0.2-0.9-1.4-0.5c-0.9,0.2-2,0.3-2.8,0.3c-1.9-0.2-8-1.9-8.7-2.4c-0.8-0.6-0.7-0.9,0.1-0.7c0.4,0.1,0.6,0,0.6-0.1
      c0-0.3,0.5-0.2,2.1,0.4c0.5,0.2,1.7,0.4,2.6,0.4c0.9,0,1.8,0,1.9,0.1c0.8,0.1,0.8-0.1,0.3-0.6c-0.4-0.4-0.3-0.4,0.4,0.1
      c1.1,0.8,1.4,0.9,1.4,0.3c0-0.4,0.1-0.4,0.8,0c0.5,0.3,0.9,0.3,1,0.2c0.1-0.1,0.6-0.4,1.2-0.6c0.9-0.3,0.9-0.4,0.3-0.7
      c-0.7-0.4-0.5-0.5,0.6-0.1c0.6,0.2,0.8,0.2,0.8-0.1c0-0.2,0.8-0.5,2.1-0.7c1.1-0.2,2.1-0.5,2.1-0.6c0-0.1,0.1-0.2,0.3-0.1
      c0.2,0.1,0.6,0,0.9-0.1c0.5-0.2,0.4-0.3-0.3-0.5c-0.7-0.1-0.8-0.3-0.7-0.7c0.1-0.4,0-0.5-0.6-0.6c-0.5-0.1-0.2-0.3,1.3-0.6
      c2.2-0.6,2.7-1.1,0.8-0.8c-1.8,0.3-6.2,0.4-6.2,0.1c0-0.1,0.1-0.2,0.3-0.2c0.2,0,0.3-0.1,0.3-0.3s-0.7-0.3-1.5-0.2
      c-2.1,0-5.5-0.6-5.7-1c-0.1-0.3,0.1-0.4,0.6-0.4c0.4,0,0.8-0.1,0.8-0.3c0-0.1,0.2-0.2,0.5-0.1c0.3,0.1,0.5,0,0.5-0.2
      c0-0.2,0.2-0.2,0.7,0.1c0.4,0.2,1.1,0.4,1.5,0.4l0.8,0l-0.7-0.5l-0.7-0.5l1.5-0.1l1.5-0.1l-1.1-0.5l-1.1-0.5l1,0
      c0.6,0,1.3-0.3,1.7-0.7c0.4-0.4,0.9-0.7,1.1-0.7c0.2,0,0.5-0.2,0.8-0.5c0.6-0.8-0.2-0.9-2-0.4c-2,0.6-2.4,0.6-2.2-0.1
      c0.2-0.7,0.1-0.7-1.9-0.1c-1.5,0.4-1.7,0.4-4.1-0.2c-3.3-0.8-4.2-1.5-1.6-1.4c0.3,0,0.6-0.1,0.7-0.3c0.2-0.2,0.4-0.2,0.9,0.2
      c0.5,0.4,0.9,0.4,1.9,0.3c1.5-0.2,1.6-0.3,0.7-0.9c-0.6-0.4-0.4-0.4,1,0.1c0.5,0.2,0.6,0.1,0.4-0.2c-0.2-0.3,0-0.4,0.5-0.4
      c0.4,0,0.6-0.1,0.5-0.4c-0.1-0.2,0-0.4,0.2-0.5c0.3-0.1,0.2-0.2-0.1-0.5c-0.5-0.3-0.5-0.4,0.2-1c1.2-0.9,0.9-1.1-0.8-0.7
      c-4.2,1.1-5.8,1.2-6.8,0.3c-0.6-0.5-0.6-0.7-0.2-0.8c0.3-0.1,0.9,0,1.4,0.2c1.4,0.4,1.7,0,0.5-0.8c-0.8-0.5-0.9-0.6-0.3-0.6
      c1.1,0.1,1.8,0,1.8-0.3c0-0.1-0.3-0.3-0.6-0.3c-0.5,0-0.4-0.1,0.1-0.3c0.4-0.1,0.8-0.4,0.9-0.7c0.2-0.4,0.1-0.4-0.5-0.1
      c-1.1,0.5-7.8,0.4-9.2-0.1c-1-0.4-1-0.4-0.4-0.5c0.6,0,0.7-0.1,0.6-0.6c-0.2-0.5-0.1-0.5,0.4-0.2c0.7,0.5,1.7,0.8,1.7,0.5
      c0-0.1,0.3-0.2,0.6-0.1c0.4,0.1,0.6,0,0.6-0.2c0-0.2,0.4-0.3,0.8-0.3c1.1,0,1-0.3-0.2-1.1l-1-0.7l1.7,0.2c1.8,0.2,2.4,0.1,2.1-0.3
      c-0.3-0.4,0.5-1,1.5-1c1.1,0,1.2-0.4,0.2-0.6c-0.4-0.1-0.2-0.1,0.4-0.1c0.7,0,1.1-0.1,1-0.3c0-0.2,0.1-0.3,0.3-0.3
      c0.2,0,0.2-0.1,0-0.4c-0.3-0.3-0.7-0.4-1.2-0.3c-0.5,0.1-0.6,0.1-0.4,0c0.7-0.3,0.4-0.7-0.4-0.5c-0.7,0.1-0.8,0.1-0.6-0.3
      c0.2-0.3,0.1-0.4-0.2-0.2c-0.2,0.1-0.8,0.2-1.3,0.3c-0.5,0-1.2,0.1-1.6,0.2l-0.8,0.2l0.9-0.6c1-0.7,1.2-1.2,0.3-0.8
      c-0.9,0.4-1.6,0.4-1.1-0.1c0.7-0.6,0.4-1.1-0.3-0.5c-0.4,0.3-1.1,0.7-1.7,0.9c-2,0.8-7.3-0.3-7.3-1.5c0-0.2-0.2-0.6-0.4-0.7
      c-0.3-0.2-0.3-0.3,0-0.3c0.2,0,0.4,0.2,0.5,0.4c0.1,0.3,0.6,0.4,1.2,0.4c0.6,0,1.4,0.1,1.8,0.2c0.6,0.2,0.7,0.1,0.7-0.4v-0.6
      l1.1,0.5c0.8,0.4,1.2,0.5,1.3,0.2c0.1-0.2,0-0.4-0.2-0.6c-0.4-0.2,1.5-0.2,2.8,0c0.2,0,0.6,0,1.1-0.1c0.7-0.2,0.7-0.2,0.2-0.7
      c-0.5-0.4-0.4-0.5,0.3-0.6c0.9-0.2,1.1-0.7,0.3-0.7c-0.4,0-0.2-0.1,0.4-0.4c0.5-0.2,1.4-0.7,1.9-1l0.9-0.7l-1.2-0.2
      c-0.7-0.1-1.2-0.3-1.2-0.4c0-0.2-0.4-0.2-0.9-0.1c-0.8,0.2-0.8,0.1-0.5-0.2c0.6-0.6-0.3-0.8-1.3-0.3c-0.4,0.3-1.4,0.5-2.3,0.5
      c-1.3,0-1.4,0-0.9-0.2c0.6-0.2,0.7-0.5,0.4-1.5c0,0-0.5,0.2-1.1,0.5c-0.6,0.3-1.6,0.6-2.2,0.6c-2,0-5.5-1.1-7.6-2.5
      c-0.8-0.5-0.7-0.6,0.3-0.2c0.5,0.2,0.6,0.2,0.6-0.2c0-0.5,0-0.5,0.3,0c0.2,0.3,0.5,0.4,0.6,0.3c0.2-0.1,0.7,0,1.1,0.3
      c0.8,0.4,0.8,0.4,0.8-0.3c0-0.4,0.1-0.6,0.2-0.5c0.3,0.4,1.5,0.9,2,0.9c0.2,0,0.4-0.3,0.4-0.6c0-0.6,0-0.6,0.3,0.1
      c0.1,0.4,0.3,0.6,0.4,0.6c0.1-0.1,0.4,0,0.8,0.2c0.5,0.2,0.7,0.2,1.1-0.2c0.2-0.3,0.6-0.4,0.7-0.4c0.2,0.1,0.2-0.2,0.1-0.6
      c-0.2-0.7-0.2-0.7,0.7-0.4c1,0.3,1.4,0.2,0.8-0.4c-0.3-0.3-0.3-0.4,0.2-0.4c0.5,0,0.5,0,0-0.5c-0.3-0.3-0.4-0.6-0.3-0.7
      c0.2-0.1,0.6,0.1,0.9,0.4c0.5,0.5,0.8,0.5,2,0.3c0.1,0,0-0.2-0.2-0.4c-0.4-0.4-0.2-0.7,0.6-0.7c0.3,0,0.9-0.2,1.3-0.5l0.8-0.5
      l-1-0.1c-0.5,0-1.3,0-1.7,0c-0.7,0.1-0.7,0-0.4-0.4c0.7-0.7,0.2-0.7-1,0c-1.3,0.8-2.2,0.9-1.5,0.3c0.3-0.3,0.3-0.4-0.1-0.2
      c-0.6,0.2-0.7-0.2-0.2-0.6c0.8-0.7,0-0.6-1.1,0.1c-2,1.4-2.2,1.4-4.5,0.9c-2.4-0.6-4-1.3-4.4-2.1c-0.3-0.5-0.2-0.5,0.5-0.5
      c0.4,0,0.9,0.2,1,0.5s0.5,0.4,0.8,0.5c0.5,0,0.6-0.1,0.5-0.5c-0.2-0.5-0.1-0.5,0.6,0.2c0.4,0.4,1.1,0.7,1.5,0.7
      c0.6,0,0.7-0.1,0.5-0.8c-0.2-1,0.5-1.3,1.3-0.5c0.5,0.6,2.3,1,2.4,0.5c0-0.1-0.5-0.5-1-0.9c-0.8-0.6-0.9-0.7-0.5-0.7
      c0.3,0,0.7,0.2,0.8,0.4s0.3,0.3,0.5,0.3c0.1-0.1,0.4,0,0.5,0.1c0.1,0.2,0.6,0.3,1.1,0.3c0.8,0,0.8,0,0.2-0.4
      c-0.6-0.4-0.6-0.4,0.3-0.7c0.5-0.2,1.1-0.3,1.3-0.3c0.2,0,0-0.2-0.4-0.4c-0.8-0.4-0.8-0.4,0.4-0.3c0.8,0.1,1.4,0,1.7-0.3
      c0.7-0.6,0.2-0.9-1.4-0.9c-0.9,0-1.4-0.1-1.2-0.3c0.4-0.5-0.8-0.6-2.1,0c-1.6,0.7-1.9,0.7-1.7,0.2c0.1-0.3,0-0.4-0.3-0.4
      c-0.3,0-0.4-0.2-0.3-0.4c0.2-0.5,0.1-0.5-1-0.2c-0.7,0.2-0.8,0.2-0.6-0.3c0.2-0.5-0.4-0.7-0.7-0.3c-0.1,0.2-0.8,0.5-1.5,0.8
      c-1.2,0.5-1.5,0.5-2.6,0.2c-1.1-0.3-1.2-0.4-0.8-0.6c0.3-0.1,0.6-0.4,0.6-0.7c0-0.3-0.3-0.4-1.5-0.3c-1.1,0.1-1.6-0.1-2.1-0.5
      c-0.7-0.6-1.4-2.7-0.9-3c0.3-0.1,0.4,0.4,0.3,1.2c0,0.2,0.3,0.7,0.6,1.2c0.6,0.6,0.8,0.7,1.1,0.5c0.2-0.2,0.5-0.6,0.5-1
      c0-0.6,0.1-0.6,0.2-0.2c0.2,0.8,1.1,1.5,1.9,1.5c0.7,0,0.7-0.1,0.4-0.5c-0.4-0.7-0.4-0.9,0-0.7c0.2,0.1,0.3,0,0.3-0.1
      c0-0.2,0.1-0.3,0.3-0.3s0.3,0.2,0.3,0.4c0,0.5,1.9,1.8,2.3,1.6c0.2-0.1,0.3-0.4,0.3-0.7c0-0.3,0.1-0.5,0.3-0.5
      c0.2,0,0.3-0.2,0.1-0.3c-0.1-0.2,0.1-0.1,0.4,0.3s0.7,0.5,0.8,0.4c0.1-0.1,0.6-0.2,0.9-0.3c0.9-0.1,2.2-0.6,2.2-0.9
      c0-0.1-0.4-0.3-1-0.5c-0.5-0.2-0.9-0.5-0.9-0.6c0-0.2-0.4-0.3-0.9-0.3c-1.1,0-2.8-0.7-2.1-0.8c0.2-0.1,0.4-0.3,0.4-0.5
      c0-0.4-1.6-0.5-2.1-0.1c-0.5,0.4-1.7,0.6-1.7,0.3c0-0.1,0.4-0.3,0.8-0.4c0.7-0.1,0.8-0.2,0.4-0.6c-0.3-0.3-0.3-0.4,0.2-0.4
      c0.7,0,1.9-0.7,1.6-1c-0.1-0.1-0.9-0.2-1.7-0.3c-1.6-0.2-1.6-0.1-1.1-0.9c0.3-0.5,0.4-0.5,1.1-0.1c0.7,0.4,0.8,0.4,1-0.1
      c0.1-0.3,0.3-0.5,0.5-0.4c0.2,0.1,0.3,0,0.3-0.1c0-0.2,0.3-0.3,0.6-0.3s0.6-0.2,0.6-0.4c0-0.4-0.7-0.7-1.6-0.7
      c-0.7,0-0.8-0.5-0.1-0.7c0.3-0.1,0.4-0.2,0.3-0.4c-0.1-0.1,0.2-0.4,0.7-0.6c1.1-0.5,0.8-0.9-0.6-0.9h-1.1l0.8-0.9
      c0.6-0.7,0.7-1,0.4-1.2c-0.3-0.3-0.6-0.1-1.4,0.6c-1,0.9-1.1,0.9-1.4,0.5c-0.2-0.3-0.5-0.5-0.7-0.5c-0.4,0-1.4,1.5-1.6,2.4
      c-0.2,0.7-3.1,2.8-3.6,2.6c-0.1-0.1-0.2-0.8-0.2-1.6c0-0.8-0.1-1.5-0.2-1.5c-0.2,0-0.2-0.4-0.2-1c0.1-0.8,0.2-1,1-1.2
      c0.8-0.2,0.9-0.1,0.7,0.3c-0.3,0.8,0.5,1,1.1,0.3c0.3-0.4,0.6-0.5,0.8-0.3c0.2,0.3,1.5,0.1,1.5-0.2c0-0.3-1.6-1.5-1.9-1.5
      c-0.1,0-0.5,0-0.8-0.1c-0.9-0.2-0.3-0.6,0.6-0.4c1.6,0.3,3.1,0.2,3.2-0.1c0.1-0.2-0.1-0.3-0.3-0.3s-0.6-0.2-0.9-0.4
      c-0.2-0.2-0.5-0.3-0.7-0.3c-0.2,0.1-0.3,0.1-0.3-0.1c0-0.1,0.4-0.5,1-0.8c1-0.5,1.2-0.9,0.6-0.9c-0.6,0-2.7,0.8-3,1.2
      c-0.2,0.2-0.2,0.1-0.1-0.3c0.1-0.3,0.1-0.7-0.1-0.7c-0.4-0.2-1.6,1.6-1.6,2.2c0,0.2-0.1,0.4-0.2,0.3c-0.1-0.1-0.4,0-0.7,0.3
      c-0.4,0.4-0.4,0.3-0.3-0.8c0.1-1.1,0.4-1.6,1.6-2.7c0.8-0.8,1.5-1.6,1.5-1.8c0-0.6-1.6-0.2-1.9,0.5c-0.5,1.2-1.1,0.8-1-0.7
      c0.1-1.1,0-1.5-0.6-1.9l-0.7-0.6l0,0.7c0,0.4-0.1,1.4-0.1,2.4l0,1.8l-1.2-1c-1.4-1.2-1.6-1.2-1.5-0.4c0,0.3,0.6,1.1,1.2,1.7
      c1.1,1,1.2,1.3,1.3,2.6c0,1,0,1.5-0.3,1.3c-0.2-0.1-0.3-0.4-0.3-0.6c0-0.2-0.1-0.4-0.3-0.4s-0.3-0.5-0.3-1c0-1.2-0.8-2-1.3-1.4
      c-0.2,0.2-0.2,0.5-0.2,0.7c0.2,0.4-0.8,0.1-1.4-0.4c-0.2-0.2-0.6-0.3-0.8-0.3c-0.9,0-0.7,0.8,0.3,1.8c1.3,1.2,1.3,1.4,0.5,1.6
      c-0.4,0.1-0.6,0.3-0.4,0.6c0.2,0.6,1,0.7,1.6,0.2c0.4-0.4,0.4-0.3,0.5,0.7c0.1,0.8,0,0.9-1.1,0.3c-1.1-0.5-1.3-0.5-1.3,0.1
      c0,0.3,0.5,0.8,1,1.2c0.8,0.5,0.9,0.6,0.4,0.5c-0.4-0.1-0.7,0-0.9,0.3c-0.3,0.6-0.5,0.6-2.6-0.6c-1.1-0.6-2.1-1-2.3-0.9
      c-0.7,0.2-0.2,1.2,0.7,1.7l0.9,0.4l-0.9,0.1c-0.5,0-0.9,0.3-1,0.5c-0.2,0.4,0.6,0.8,1.1,0.5c0.2-0.1,0.3,0,0.3,0.1s0.3,0.3,0.6,0.3
      c0.4,0,0.4,0.1,0.1,0.2c-0.3,0.1-0.3,0.3,0.3,0.6l0.8,0.5l-1.3,0.2c-1.4,0.2-1.7,0.6-0.9,1.2c0.3,0.2,0.6,0.2,1,0.1
      c0.6-0.3,1.7-0.1,1.7,0.2c0,0.1,0.3,0.2,0.6,0.2c0.4,0,0.6-0.1,0.6-0.3c0-0.1,0.3-0.3,0.7-0.3l0.7,0l-0.8,0.5
      c-0.6,0.4-0.7,0.6-0.4,0.8c0.5,0.2,1.3,0.1,1.7-0.4c0.1-0.2,0.2,0,0.1,0.5c-0.2,0.6-0.1,0.7,0.5,0.7c0.4,0,0.7-0.2,0.7-0.3
      c0-0.2,0.1-0.2,0.2,0c0.1,0.3,0.3,0.2,0.6-0.3l0.4-0.6l0.4,0.7c0.2,0.4,0.3,0.8,0.2,0.9c-0.1,0.1-1.3,0.2-2.6,0.3
      c-2.1,0.1-2.5,0-3.9-0.7c-1.4-0.7-2.4-0.9-2.4-0.3c0,0.1,0.4,0.4,0.9,0.7l0.9,0.4l-1.1-0.2c-1.1-0.2-3-1-3.8-1.6
      c-0.2-0.2-0.7-0.3-1-0.3c-0.7,0-0.8,0.5-0.3,1c0.2,0.2-0.3,0.3-1.3,0.3c-0.9,0-1.8,0.1-1.9,0.2c-1.1,0.5,1.5,1.5,3.4,1.3l1.3-0.2
      l-0.9,0.4c-0.5,0.3-0.9,0.6-0.8,0.9c0.2,0.7,1.5,0.4,2.4-0.4c0.4-0.4,1-0.6,1.3-0.6c0.4,0.1,0.4,0.2-0.3,0.4
      c-1.1,0.4-1.4,0.8-0.8,1c0.3,0.1,0.4,0.3,0.4,0.5c-0.1,0.2,0.1,0.4,0.3,0.5c0.3,0.1,0.5,0,0.5-0.1c0-0.2,1-0.6,1.8-0.7
      c0.2,0,0.7-0.3,1-0.5c0.4-0.3,0.7-0.4,0.7-0.3c0,0.3-0.7,0.8-1.5,1.2c-0.4,0.2-0.7,0.4-0.7,0.6c0,0.5,1,0.6,1.6,0.1
      c0.6-0.4,0.6-0.4,0.4,0.1c-0.2,0.8,0.4,0.7,1.1-0.1c0.4-0.5,0.6-0.6,0.8-0.3c0.2,0.3,0.3,0.3,0.5,0c0.2-0.2,0.6-0.3,0.9-0.3
      c1.3,0.1,3-0.8,3.1-1.7c0-0.5,0.1-0.5,0.3,0.1c0.2,0.6,0,0.8-0.9,1.5c-0.6,0.5-2,1.3-3.1,1.7l-2,0.9l-1.5-0.6
      C99,79,98.2,78.7,98,78.7c-0.6-0.1-0.5,0.4,0.2,1.1c0.5,0.5,0.5,0.5,0,0.2c-0.3-0.2-0.7-0.3-0.8-0.2c-0.2,0.1-0.7,0-1.2-0.2
      c-1.2-0.5-1.6-0.5-1.3,0.1c0.1,0.4,0,0.5-0.8,0.4c-0.5,0-1-0.1-1.1-0.2c-0.4-0.3-1.4,0.2-1.4,0.7c0,0.2,0.1,0.4,0.2,0.4
      c0,0.3-0.1,0.7-0.2,1.2c-0.7-1.6-1.9-1.9-3.4-1.7c0.2-0.3,0.3-0.5,0.5-0.9c-1.3-0.5-2.4,0.3-3.7,0.4c0.3-0.4,0.5-0.7,0.7-1.1
      c0-0.1-0.1-0.1-0.1-0.2c-0.4,0.1-0.8,0.2-1.1,0.3c-0.1-0.3-0.2-0.6-0.4-0.6c-0.3,0-0.6,0.1-0.8,0.3c-0.3,0.2-0.5,0.5-0.8,0.7
      c-0.1-0.5-0.1-1-0.2-1.3c0.5-0.1,1.1-0.3,1.8-0.4c0-0.1,0-0.2,0.1-0.3c-1-0.4-1.6-1-1.6-2.2c0.4,0.4,0.7,0.7,1,0.9
      c0.2,0.1,0.4,0.1,0.7,0.1c0-0.2,0.1-0.5,0-0.7c-0.3-0.5-0.7-0.9-1.1-1.4c1.1-0.1,2.2,0.4,3.2,0c0-0.1,0-0.2,0.1-0.3
      c-0.7-0.2-1.5-0.4-2.2-0.7c0.8-0.5,1.4-0.1,2.1,0.1c0.9,0.4,1.1,0.3,1.1-0.7c0.7,0.1,1.3,0.3,2,0.4c0.2,0,0.4-0.2,0.6-0.2
      c-0.1-0.2-0.1-0.5-0.3-0.6c-0.1-0.2-0.4-0.3-0.6-0.3c-0.7-0.1-1.4-0.2-2.2-0.3c0.3-0.5,0.9-0.9,0.1-1.6c-1,0.8-1.9,1.6-2.9,2.4
      c0-0.1-0.1-0.1-0.1-0.2c0.3-0.4,0.6-0.8,0.9-1.2c-0.1-0.1-0.1-0.2-0.2-0.2c-0.4,0.1-0.7,0.2-1.1,0.3c-0.3,0-0.7-0.1-1-0.1
      c0-0.1,0-0.2,0-0.4c0.4,0,0.9,0,1.3,0c0.2,0,0.3-0.2,0.5-0.2c-0.1-0.2-0.2-0.4-0.3-0.5c-0.4-0.1-0.9-0.2-1.3-0.3
      c0.4-0.7,1-0.8,1.7-0.5c0.2,0.1,0.4-0.1,0.6-0.1c-0.1-0.2-0.2-0.4-0.3-0.5c-0.2-0.2-0.5-0.4-0.8-0.7c1.4-0.1,2.6-0.1,3.6-1.1
      c-0.5-0.1-0.9-0.2-1.6-0.3c1-0.7,1.9,0.7,2.8,0c-0.3-1.1-1.4-0.9-2.1-1.3c0.6-0.8,1.5-1.4,1.6-2.4c-0.1-0.1-0.2-0.2-0.2-0.2
      c-0.8,0.6-1.5,1.1-2.4,1.8c0.1-0.5,0.2-0.9,0.2-1.4c0-0.4-0.1-0.8-0.2-1.1c-0.3,0.3-0.6,0.5-0.9,0.8c-0.2,0.2-0.1,0.7-0.3,0.8
      c-0.6,0.5-1.3,0.8-2,1.2c-0.1,0-0.1-0.1-0.2-0.1c0.1-0.3,0.2-0.7,0.4-1c0.4-0.6,0.4-1.2-0.1-1.8c-0.3-0.3-0.6-0.5-1-0.8
      c1.2-1.3,1.3-2,0.2-2.4c0.5-0.4,1-0.8,1.6-1.1c0.3-0.2,0.6-0.4,0.9-0.5c0.6-0.2,1.3-0.2,2-0.4c-0.1-0.4-0.2-0.6-0.3-0.8
      c0.2,0,0.3,0,0.5,0c0.2,0,0.5-0.1,0.7-0.2c-0.2-0.2-0.3-0.5-0.5-0.6c-0.5-0.2-1.1-0.2-1.7-0.3c0.4-0.5,0.8-0.9,1.1-1.5
      c0.1-0.2,0-0.5,0-0.7c-0.2,0-0.5,0-0.7,0.1c-0.3,0.2-0.6,0.5-0.9,0.8c-0.2,0.3-0.4,0.6-0.6,0.8c-0.2-0.4-0.3-0.7-0.4-1.1
      c0.3-0.4,0.8-0.9,1.1-1.4c0.1-0.2,0-0.5,0-0.8c-0.2,0-0.5,0-0.6,0.1c-0.3,0.3-0.6,0.6-1,0.9c-0.2,0.1-0.5,0.3-0.6,0.2
      c-0.5-0.3-0.7,0.1-0.9,0.4c-0.2,0.3-0.3,0.7-0.4,1.1c-1.7-0.9-1.7-0.9-4.1,0.5c0.2-0.4,0.2-0.6,0.4-0.7c0.5-0.4,1.1-0.7,1.6-1.1
      c0.7-0.4,1.4-0.9,2.1-1.3c0.2-0.1,0.2-0.4,0.3-0.6c-0.2,0-0.4-0.1-0.6-0.1c-0.4,0.1-0.8,0.3-1.2,0.4c-0.3,0.1-0.5,0.2-0.7,0.3
      c0-0.4-0.1-0.7-0.1-1c-0.3,0.1-0.6,0.2-0.9,0.4c-0.2,0.1-0.4,0.3-0.6,0.5c-0.1-0.2,0-0.3,0-0.4c0.1-1.1,1.3-1.4,1.8-2.2
      c0.5-0.8,1.4-1.4,2.1-2.1c-0.9-0.8-1.7,0-2.5-0.1c0.1-0.6,0.3-1.2,0.3-1.7c0-0.4-0.3-0.9-0.6-1.2c-0.2-0.1-0.7,0.1-1,0.3
      c-0.1,0-0.3,0.2-0.4,0.3c-0.1-0.1-0.1-0.1-0.2-0.2c0.3-0.3,0.5-0.6,0.8-0.7c0.4-0.2,1-0.2,1.4-0.4c0.4-0.2,1.2-0.6,1.1-0.7
      c-0.3-0.7-0.9-0.5-1.5-0.4c-0.2,0-0.4,0.2-0.6,0.2c-0.2,0.1-0.4,0.1-0.8,0.1c0.4-0.6,0.9-0.9,0.3-1.5c-1.1-1.1-1,0.8-1.7,0.6
      c-0.2-1.1,0-2,1.1-2.5c0.2-0.1,0.5-0.3,0.7-0.4c0.5-0.5,1-1,1.5-1.6c0.2-0.2,0.1-0.6,0.1-0.9c-0.3,0-0.7-0.1-1,0.1
      c-0.7,0.4-1.4,0.8-2.2,1.3c0.2-3,0.5-5.9-0.9-8.7c-0.9,2.7-0.9,5.5-1.1,8.4c-0.5-0.7-0.9-1.4-1.3-2c-0.1-0.2-0.5-0.2-0.7-0.3
      c-0.1,0.3-0.3,0.6-0.3,0.8c0.2,0.7,0.5,1.3,0.8,2c0.5,1.2,1.9,1.9,1.6,3.6c-0.2-0.2-0.4-0.5-0.6-0.7c-0.6-0.5-1.1-1-1.7-1.4
      c-0.1-0.1-0.5-0.1-0.6,0c-0.1,0.2-0.2,0.5-0.1,0.7c0.1,0.3,0.4,0.6,0.6,0.8c0.4,0.4,0.8,0.7,1.3,1.1c-0.8,0.1-1,0.4-0.4,1
      c0.2,0.2,0.3,0.5,0.4,0.9c-0.6-0.3-1-0.6-1.5-0.8c-0.2-0.1-0.6,0-0.8,0.1c0.1,0.3,0.1,0.7,0.3,0.9c0.5,0.5,1.2,1,1.9,1.5
      c-0.6,0.1-1.2,0.1-1.6,0.3c-0.2,0-0.4,0.4-0.3,0.6c0.1,0.3,0.4,0.5,0.5,0.8c0.2,0.3,0.3,0.7,0.4,1c-0.6-0.1-0.9-0.3-1.3-0.6
      c-0.3-0.2-0.6-0.4-0.8-0.7c0,0.4-0.1,0.7-0.1,1.1l-0.8,0c-0.8,0-1.9,0-2.5,0c-1,0.1-1,0-0.5-0.5c1-1,0.3-1-1.5,0
      c-1.9,1.1-3.1,1.3-2.2,0.4c0.5-0.5,0.5-0.6-0.2-0.3c-0.9,0.3-1-0.2-0.2-0.9c1.2-1-0.1-0.8-1.5,0.2c-2.9,2-3.2,2.1-6.4,1.3
      c-3.4-0.9-5.7-1.9-6.3-3c-0.4-0.7-0.3-0.7,0.7-0.7c0.6,0,1.2,0.3,1.4,0.7c0.1,0.3,0.7,0.6,1.2,0.7c0.8,0,0.9-0.1,0.7-0.8
      c-0.2-0.7-0.1-0.7,0.8,0.2c0.6,0.6,1.5,1,2.1,1c0.9,0,1-0.1,0.8-1.1c-0.3-1.5,0.7-1.9,1.9-0.7c0.8,0.8,3.4,1.4,3.4,0.7
      c0-0.2-0.7-0.7-1.5-1.3c-1.1-0.8-1.3-1.1-0.7-1.1c0.5,0,0.9,0.2,1.1,0.6c0.1,0.3,0.4,0.5,0.6,0.4c0.2-0.1,0.5,0,0.7,0.2
      c0.2,0.2,0.8,0.4,1.5,0.4c1.2,0,1.2,0,0.3-0.6c-0.9-0.5-0.8-0.6,0.4-1c0.7-0.2,1.5-0.4,1.8-0.4c0.3,0,0-0.3-0.6-0.6
      c-1.1-0.5-1.1-0.5,0.6-0.4c1.1,0.1,2-0.1,2.4-0.4c1-0.8,0.3-1.3-2-1.3c-1.3,0-2-0.2-1.8-0.4c0.6-0.8-1.1-0.8-3,0
      c-2.3,1-2.8,1-2.4,0.2c0.2-0.4,0-0.6-0.5-0.6c-0.5,0-0.6-0.2-0.5-0.6c0.3-0.7,0.2-0.7-1.4-0.2c-1,0.3-1.1,0.3-0.9-0.4
      c0.2-0.8-0.5-1-1-0.4c-0.2,0.2-1.1,0.8-2.2,1.2c-1.7,0.7-2.1,0.7-3.7,0.3c-1.5-0.4-1.7-0.5-1.1-0.8c0.4-0.2,0.8-0.6,0.8-1
      c0-0.5-0.5-0.6-2.1-0.5c-1.6,0.1-2.3-0.1-3-0.7c-1-0.9-2-3.9-1.4-4.2c0.4-0.2,0.6,0.6,0.4,1.7c0,0.3,0.4,1,0.9,1.7
      c0.8,0.9,1.1,1.1,1.6,0.7c0.4-0.2,0.7-0.9,0.7-1.5c0-0.8,0.1-0.9,0.3-0.2c0.3,1.2,1.5,2.1,2.7,2.1c0.9,0,1-0.1,0.6-0.7
      c-0.6-0.9-0.6-1.3,0-1c0.3,0.1,0.5,0.1,0.5-0.2c0-0.2,0.2-0.4,0.5-0.4s0.5,0.2,0.5,0.5c0,0.7,2.7,2.6,3.3,2.3
      c0.2-0.1,0.4-0.6,0.4-1c0-0.4,0.2-0.7,0.5-0.7s0.4-0.2,0.2-0.5c-0.2-0.3,0.1-0.1,0.6,0.4c0.5,0.5,1,0.8,1.2,0.6
      c0.2-0.2,0.8-0.3,1.4-0.4c1.2-0.1,3.1-0.9,3.1-1.3c0-0.2-0.6-0.5-1.4-0.7c-0.8-0.3-1.3-0.7-1.3-0.9c0.1-0.2-0.5-0.5-1.3-0.5
      c-1.6,0-4-1-3.1-1.2c0.3-0.1,0.6-0.4,0.6-0.7c0-0.6-2.3-0.8-3-0.2c-0.7,0.5-2.5,0.9-2.5,0.5c0-0.2,0.5-0.5,1.2-0.6
      c1-0.2,1.1-0.4,0.6-0.8c-0.5-0.5-0.4-0.6,0.3-0.6c1,0,2.8-1,2.3-1.4c-0.2-0.1-1.2-0.3-2.4-0.4c-2.3-0.2-2.3-0.2-1.6-1.3
      c0.4-0.7,0.6-0.7,1.6-0.1c1,0.6,1.1,0.5,1.4-0.2c0.2-0.4,0.5-0.7,0.7-0.6c0.2,0.1,0.4,0,0.4-0.2c0-0.2,0.4-0.4,0.9-0.4
      c0.5,0,0.9-0.2,0.9-0.5c0-0.6-1-1-2.3-1c-1,0-1.2-0.7-0.2-1c0.4-0.1,0.6-0.3,0.5-0.5c-0.1-0.2,0.3-0.5,0.9-0.8
      c1.6-0.7,1.2-1.3-0.8-1.3H51l1.2-1.3c0.9-1,1-1.4,0.6-1.7c-0.4-0.4-0.9-0.2-2.1,0.9c-1.4,1.3-1.6,1.3-2,0.7c-0.3-0.4-0.7-0.7-1-0.7
      c-0.5,0-2,2.2-2.3,3.4c-0.2,1-4.5,4-5.1,3.7c-0.2-0.1-0.3-1.1-0.2-2.3c0.1-1.2-0.1-2.1-0.3-2.1s-0.3-0.6-0.3-1.4
      c0.1-1.2,0.4-1.5,1.4-1.7c1.1-0.2,1.3-0.2,1,0.4c-0.4,1.1,0.7,1.4,1.6,0.4c0.5-0.5,0.9-0.7,1.1-0.5c0.3,0.4,2.1,0.2,2.1-0.3
      c0-0.4-2.3-2.2-2.7-2.1c-0.2,0-0.7,0-1.1-0.1c-1.3-0.3-0.5-0.8,0.9-0.6c2.3,0.4,4.4,0.3,4.6-0.2c0.1-0.3-0.1-0.5-0.5-0.5
      s-0.9-0.3-1.2-0.6s-0.8-0.5-1-0.4c-0.2,0.1-0.4,0.1-0.4-0.1c0-0.2,0.6-0.7,1.4-1.1c1.4-0.8,1.8-1.4,0.9-1.4c-0.8,0-3.9,1.2-4.3,1.7
      c-0.2,0.3-0.3,0.1-0.1-0.4c0.2-0.5,0.1-0.9-0.2-1.1c-0.5-0.3-2.4,2.2-2.4,3.1c0,0.3-0.1,0.5-0.3,0.4s-0.6,0-0.9,0.4
      c-0.5,0.6-0.6,0.4-0.4-1.2c0.2-1.5,0.6-2.3,2.3-3.9c1.1-1.1,2.1-2.3,2.1-2.6c0-0.9-2.3-0.3-2.8,0.7c-0.8,1.7-1.6,1.1-1.4-1
      c0.1-1.5,0-2.1-0.8-2.8l-1-0.9l-0.1,0.9c0,0.5-0.1,2.1-0.1,3.5l-0.1,2.5l-1.7-1.5c-2-1.7-2.2-1.8-2.2-0.6c0,0.5,0.8,1.6,1.8,2.5
      c1.5,1.4,1.8,1.9,1.9,3.8c0.1,1.4-0.1,2.1-0.4,1.9c-0.3-0.1-0.5-0.5-0.5-0.8c0-0.3-0.2-0.6-0.5-0.6s-0.5-0.7-0.5-1.5
      c0-1.7-1.2-2.9-1.9-2c-0.2,0.3-0.3,0.8-0.2,1c0.2,0.6-1.1,0.2-2-0.5c-0.3-0.3-0.9-0.5-1.2-0.5c-1.2,0-1,1.1,0.5,2.5
      c1.8,1.7,1.9,2.1,0.7,2.3c-0.6,0.1-0.8,0.4-0.6,0.9c0.3,0.8,1.5,1,2.3,0.3c0.6-0.5,0.6-0.5,0.7,1c0.1,1.2,0,1.2-1.6,0.5
      c-1.5-0.7-1.8-0.7-1.8,0.2c0,0.4,0.7,1.2,1.5,1.7c1.1,0.7,1.2,0.9,0.5,0.8c-0.6-0.1-1.1,0-1.3,0.4c-0.4,0.9-0.7,0.8-3.8-0.9
      c-1.5-0.8-3-1.4-3.2-1.3c-1,0.3-0.4,1.8,1,2.4l1.4,0.6L25,19.7c-0.7,0.1-1.3,0.4-1.5,0.7c-0.3,0.6,0.9,1.1,1.6,0.8
      c0.2-0.1,0.4,0,0.4,0.2s0.4,0.4,0.8,0.4c0.6,0,0.6,0.1,0.2,0.2c-0.5,0.2-0.4,0.4,0.4,0.9l1.1,0.7L26,23.9c-2,0.3-2.4,0.9-1.3,1.7
      c0.4,0.3,0.9,0.3,1.4,0.1c0.9-0.4,2.5-0.2,2.5,0.3c0,0.2,0.4,0.3,0.9,0.3c0.5,0,0.9-0.2,0.9-0.4c0-0.2,0.5-0.4,1-0.4l1,0l-1.1,0.8
      c-0.9,0.6-1,0.9-0.5,1.1c0.7,0.4,1.9,0.1,2.5-0.5c0.2-0.2,0.3,0.1,0.1,0.7c-0.2,0.9-0.1,1.1,0.6,1.1c0.5,0,0.9-0.2,1-0.5
      c0-0.3,0.1-0.3,0.3,0.1c0.2,0.4,0.4,0.3,0.8-0.4l0.6-0.9l0.6,1.1c0.3,0.6,0.4,1.2,0.2,1.3c-0.2,0.2-1.8,0.3-3.7,0.4
      c-3.1,0.1-3.5,0.1-5.5-1c-2-1.1-3.5-1.3-3.5-0.4c0,0.2,0.6,0.6,1.3,0.9l1.3,0.6L26,29.6c-1.6-0.2-4.3-1.4-5.5-2.4
      c-0.3-0.3-1-0.5-1.5-0.5c-0.9,0-1.2,0.7-0.4,1.4c0.3,0.2-0.4,0.4-1.9,0.5c-1.3,0.1-2.5,0.2-2.7,0.3c-1.5,0.8,2.2,2.2,4.9,1.9
      l1.9-0.2l-1.3,0.6c-0.8,0.4-1.2,0.9-1.2,1.3c0.2,0.9,2.2,0.6,3.5-0.6c0.6-0.5,1.4-0.9,1.8-0.8c0.6,0.1,0.6,0.3-0.4,0.6
      c-1.6,0.5-2,1.2-1.1,1.5c0.4,0.1,0.6,0.5,0.5,0.7c-0.1,0.3,0.1,0.6,0.4,0.7c0.4,0.1,0.7,0.1,0.7-0.1c0-0.3,1.5-0.9,2.6-1
      c0.3,0,1-0.4,1.5-0.8s1-0.6,1-0.4c0,0.4-1,1.2-2.2,1.7c-0.6,0.3-1,0.6-1,0.8c0,0.7,1.4,0.8,2.3,0.2c0.8-0.6,0.9-0.6,0.6,0.1
      c-0.4,1.1,0.6,1,1.5-0.2c0.6-0.7,0.9-0.9,1.2-0.5c0.3,0.4,0.5,0.4,0.8,0c0.2-0.3,0.8-0.5,1.3-0.4c1.9,0.2,4.3-1.2,4.4-2.5
      c0-0.7,0.1-0.7,0.4,0.2c0.3,0.8,0,1.2-1.3,2.2c-0.9,0.7-2.9,1.8-4.5,2.5l-2.8,1.3L27,36.8c-1.2-0.5-2.5-1-2.8-1
      c-0.8-0.1-0.7,0.6,0.2,1.5c0.7,0.7,0.7,0.7,0,0.3c-0.4-0.3-1-0.4-1.2-0.3c-0.2,0.1-1,0-1.7-0.3c-1.7-0.7-2.2-0.7-1.9,0.1
      c0.2,0.5,0,0.7-1.1,0.6c-0.8,0-1.5-0.1-1.6-0.3c-0.6-0.5-2,0.2-2,1c0,0.6,0.2,0.7,1,0.6c0.9-0.2,0.9-0.2,0.2,0.5
      c-0.8,0.8-0.7,0.9,1.1,0.8c0.8-0.1,1,0.1,0.7,0.6c-0.2,0.5-0.1,0.6,0.9,0.5c1-0.2,1.1-0.1,0.9,0.5c-0.2,0.8,0,0.9,1.2,0.4
      c1.1-0.5,2.6,1.1,1.6,1.8c-0.5,0.4-0.7,0.4-0.9,0c-0.1-0.3-1-0.6-1.9-0.6c-0.9,0-1.5,0.1-1.4,0.3c0.1,0.2-0.2,0.2-0.7,0.1
      c-1.2-0.3-1.2,0.3-0.1,0.9c0.6,0.3,0.8,0.7,0.6,1.4c-0.3,1.2-0.3,1.2-2,0c-0.8-0.5-1.7-1-2-1c-0.8,0-0.8,0.2-0.2,1.1
      c0.5,0.8,0.2,0.8-3.3,0.2c-1.1-0.2-1.7-0.1-1.7,0.1c0,0.5,2.4,1.6,3.5,1.6c0.6,0,0.7,0.1,0.2,0.6c-0.5,0.5-0.4,0.6,0.1,0.8
      c0.4,0.1,0.9,0.2,1.1,0.1c1-0.2,1.6,0.1,1.5,0.5c-0.1,0.3,0.4,0.5,1.2,0.5c1,0,1.3,0.2,1.3,0.8c0,0.8,0.1,0.8,0.9-0.1
      c0.7-0.7,0.9-0.8,0.9-0.3c0,0.4,0.2,0.5,0.5,0.4c0.3-0.1,0.7,0.2,0.9,0.8c0.2,0.5,0.8,1.1,1.2,1.2s0.7,0.5,0.7,0.8
      c0,0.3,0.3,0.5,0.7,0.5s1,0.3,1.3,0.7c0.6,0.6,0.7,0.6,1.7-0.1l1.1-0.8l-0.8,0.8c-0.5,0.5-2,1.1-4,1.4c-4.1,0.8-5,0.8-6.7-0.1
      c-1.5-0.8-2.3-0.7-1.9,0.4c0.2,0.6,0.1,0.7-1,0.7c-0.7,0-1.5-0.2-1.8-0.4c-0.3-0.3-0.8-0.2-1.4,0.2c-0.9,0.5-0.8,0.6,0.6,1.3
      c1.1,0.5,1.4,0.9,1.2,1.4c-0.2,0.5,0,0.7,0.4,0.6c1.3-0.2,1.9,0,1.6,0.6c-0.4,1,1.2,1.4,2.5,0.7c0.8-0.5,1-0.5,0.5-0.1
      c-0.8,0.8,0,1.7,1.2,1.3c1.7-0.5,2.2,0.3,0.5,0.8c-2.2,0.7-4.4,0.7-5.2,0c-0.9-0.8-2.3-0.8-2,0c0.2,0.5-0.1,0.5-1.8,0.3
      c-2.5-0.3-2.8,0.4-0.5,1c1.1,0.3,1.5,0.7,1.4,1.1c-0.2,0.8,1.2,1.2,2.3,0.7c0.6-0.3,0.8-0.2,0.8,0.6c0,0.8,0.2,0.9,1,0.7
      c0.8-0.2,0.9-0.1,0.7,0.5c-0.3,0.5-0.1,0.7,0.6,0.5c0.5-0.1,0.9,0,0.9,0.1c0,0.7,1,0.3,2.2-0.8c1.5-1.3,2.4-1.6,3.4-1.1
      c1.3,0.5,0.9,1-0.6,0.8c-1.6-0.2-1.8,0.4-0.7,1.8c0.7,0.8,0.7,0.9-0.2,0.9c-0.5,0-1.2,0.3-1.6,0.6s-1,0.6-1.4,0.6
      c-0.4,0-0.8,0.2-1,0.4c-0.1,0.2-1.1,0.3-2.1,0.3c-1,0-2.1,0.1-2.4,0.3c-0.3,0.2-1.3,0.3-2.1,0.2C9.2,73.8,9,74,8.8,74.7
      c-0.1,0.6-0.5,0.9-1.3,0.9c-0.6,0-1.4,0.1-1.6,0.1c-0.3,0.1-0.8,0.1-1.3,0c-0.4,0-0.8,0.1-0.8,0.3c0,0.5,2.5,1.7,3.7,1.7
      c1,0,1,0,0.2,0.8C7,79.2,7,79.2,8.2,79.2c0.9,0,1.1,0.1,0.9,0.6c-0.2,0.5,0,0.6,1.1,0.3c0.7-0.1,1.4-0.3,1.6-0.3
      c1.4,0,1.8,0.2,1.6,0.6c-0.5,1.1,0.7,1,1.4,0c0.7-1,0.7-1,0.7-0.2c0,0.5,0.2,0.9,0.4,0.9c2.8,0.3,3.3,0.2,3.8-0.9l0.6-1.2l0.4,0.9
      L21,81l0.9-1c0.9-1,0.9-1,0.9-0.1c0,1.2,0.8,1.1,1.2-0.1c0.2-0.5,0.5-1,0.7-1s0.3,0.2,0.1,0.4c-0.2,0.3,0.1,0.3,1.2,0.2
      c1.1-0.2,1.5-0.2,1.3,0.2c-0.3,0.7-3.2,1.9-4.6,1.9c-0.7,0-1.3,0.2-1.4,0.5c-0.1,0.3-1,0.5-2.3,0.4c-1.2,0-2.1,0.1-2.1,0.3
      c0,0.7,1.6,1.5,2.9,1.4c0.8-0.1,1.4,0,1.4,0.2c0.1,0.6-2.6,1-9.1,1.2c-7.4,0.2-10.4,0.5-10.4,0.9c0,0.2-0.5,0.2-1.2,0.1
      c-0.1,0-0.3,0-0.4,0v1c0.5,0.3,1.3,0.5,2,0.5c0.5,0,1,0.2,1,0.4c0,0.2-0.2,0.4-0.5,0.4c-0.3,0-0.9,0.4-1.5,0.8l-1,0.8v0l1.5-0.2
      c1-0.1,1.5,0,1.5,0.3c0,0.3,0.4,0.4,0.9,0.3c0.5-0.1,0.9,0,0.9,0.2c0,0.6,1.2,0.5,1.8-0.1c0.3-0.3,0.8-0.6,1-0.6
      c0.3,0,0.1,0.3-0.3,0.7s-0.8,0.8-0.8,1c0,0.4,1.8,0.3,2.1-0.1c0.5-0.6,1.1-0.4,1.4,0.4c0.4,1,0.9,1,2.6,0l1.3-0.8l-0.3,1.2
      c-0.3,1.5,0.5,1.6,2.4,0.3c1.2-0.8,1.3-0.8,0.8,0c-0.6,0.9-0.3,1.3,0.7,1c0.4-0.1,1,0,1.3,0.3c0.5,0.3,0.7,0.3,0.7,0
      c0-0.2,0.3-0.4,0.7-0.4s0.7,0.2,0.7,0.5c0,0.4,0.4,0.5,1.3,0.4c4.8-0.5-1.4,1.9-7,2.6c-3.6,0.5-4,0.5-5.2-0.2
      c-0.7-0.4-1.5-0.7-1.9-0.7c-1,0-0.6,0.8,0.5,1.2c0.8,0.3,0.5,0.3-1,0.1c-1.1-0.1-2.6-0.2-3.2-0.2c-0.6,0-2.2-0.2-3.4-0.5
      C0.6,97.1,0.3,97,0,96.9V98c0.8,0.4,1.9,0.8,2.6,0.9l2,0.3l-1.7,0c-1.2,0-1.7,0.2-1.7,0.6c0,0.3,0.4,0.6,0.8,0.6
      c0.4,0,1,0.1,1.3,0.1c0.3,0,0.8,0.1,1.1,0.1c0.5,0,0.4,0.2-0.2,0.6c-1.1,0.7-0.6,1.2,0.7,0.6c0.8-0.4,1-0.3,1,0.2
      c0,0.5,0.3,0.6,1.5,0.5c0.8-0.1,1.9-0.3,2.4-0.5c0.9-0.3,0.9-0.3,0,0.3c-0.9,0.6-0.7,0.8,0.8,0.6c0.5,0,0.8,0.2,0.8,0.5
      c0,0.8,0.4,0.8,1.5-0.3l0.9-0.9l-0.7,1c-0.4,0.6-0.7,1.2-0.7,1.4c0,0.6,2.3,0.2,3.3-0.7c0.9-0.7,0.9-0.7,0.6,0.3
      c-0.5,1.3-1.1,1.6-5.3,2.7c-3.5,0.9-3.7,0.9-5.6,0.3c-2.1-0.7-4.9-0.9-4.9-0.3c0,0.2,0.2,0.5,0.5,0.8c0.3,0.2,0,0.3-0.7,0.1v7.7
      c0,0,0.1-0.1,0.2-0.1c0.5-0.3,0.9-0.6,0.9-0.8c0-0.2,0.4,0,0.8,0.4c0.9,0.7,1.1,1.6,0.4,1.6c-0.2,0-0.3,0.2-0.1,0.4
      c0.2,0.3-0.1,0.4-1.1,0.2c-0.5-0.1-0.9-0.1-1.2-0.1v2l1.3-0.1L0,120v1.6c0.2-0.1,0.5-0.1,0.6-0.1c0.4-0.1,0.4,0,0.1,0.1
      c-1.2,0.3-0.6,1,0.7,0.7c0.9-0.2,1.1-0.1,0.6,0.1c-1.2,0.7-0.1,0.9,1.3,0.2c0.8-0.3,1.4-0.5,1.4-0.3c0,0.2-0.3,0.4-0.6,0.5
      s-0.4,0.3-0.2,0.5c0.2,0.2,1,0.1,1.7-0.1c1.1-0.3,1.3-0.3,1.1,0.1c-0.2,0.4,0,0.5,0.6,0.3c0.7-0.2,0.8-0.2,0.3,0.3
      c-0.5,0.4-2.1,0.5-7.3,0.5c-0.1,0-0.3,0-0.4,0v7c0.1,0.2,0.2,0.3,0.3,0.4c0.4,0.3,3.1-1,3.1-1.5c0-0.2,0.2-0.2,0.4-0.1
      c0.3,0.1,0.3,0.6,0,1.2c-0.2,0.5-0.4,1.1-0.4,1.4c0,0.5,2.2-0.8,4.4-2.6c1.6-1.4,1.9-1.1,0.3,0.3c-0.4,0.4-0.5,1-0.4,1.3
      c0.3,0.6,0.4,0.5,1.5-0.3l1.2-0.9l-0.2,1c-0.1,0.9-0.5,1-3.8,1.5c-2.4,0.3-3.9,0.4-4.4,0.1c-0.5-0.3-1.3-0.5-2-0.6v7.6
      c0.1,0,0.1,0.1,0,0.2v0.7c0,0,0,0,0,0v33.7l539.5-0.1v-38.2v-7.7v-88c-0.3,0-0.6,0.1-0.9,0.1c-2.2,0.2-2.6,0.1-3-0.6
      c-0.3-0.4-0.5-0.9-0.5-1.1c0-0.3,0.2-0.4,0.5-0.4c0.3,0,0.7,0.2,1,0.5c0.8,0.8,2,1,2.8,0.5v-6.9l-1.1-0.4
      C537.3,32.1,536.1,31.7,535.8,31.6z M494,38c0.4,0,0.6,0.2,0.4,0.4c-0.4,0.5-1.1,0.5-1.1,0C493.3,38.2,493.6,38,494,38z M478,29.9
      c-0.4-0.4-1-0.8-1.3-0.8c-0.5,0-1.7-1.4-1.4-1.6c0.1,0,0.2-0.1,0.3,0c0.8,0.1,2.9,1.2,3.2,1.9C479.3,30.7,479,30.9,478,29.9z
       M479,26.6c-0.2,0-0.8-1.1-1-2c-0.1-0.4-0.5-1-0.8-1.3c-0.4-0.3-0.6-0.8-0.6-1.1c0-0.1,0-0.1,0.1-0.1c0.2,0,0.7,0.3,1.2,0.8
      c0.9,0.9,1.3,1.6,1.3,2.5C479.2,26,479.1,26.6,479,26.6z M428.8,72.1c0.1,0.5,0.3,0.8,0.4,1.3c-0.5-0.2-0.8-0.4-1.3-0.6
      C428.2,72.6,428.4,72.4,428.8,72.1z M422.1,52.2c-0.1,0.6-0.2,1.1-0.3,1.7C421.1,53.1,421.1,52.8,422.1,52.2z M407.4,93.8
      c0.2-0.3,0.5-0.7,0.6-1c0.2-0.3,0.2-0.7,0.4-1.1c0.8,0.7,0.7,0.9-0.1,1.4c0.2,0.3,0.5,0.5,0.8,0.9
      C408.4,93.9,407.9,93.9,407.4,93.8z M406.8,105.1c-0.3-0.8-0.5-1.5,0.3-2c0.5-0.3,0.8-0.8,1.3-1.2c0.4,0.9-1.1,0.8-0.9,1.7
      c0.3,0,0.6-0.1,1.1-0.1C408,104.1,407.4,104.5,406.8,105.1z M405.1,119.4c0.1-0.3,0.1-0.7,0.2-1c0.1-0.2,0.3-0.4,0.4-0.6
      c0.1,0.1,0.2,0.2,0.3,0.2C405.7,118.5,405.4,119,405.1,119.4z M391.3,141.7c0.4-1.1,0.6-1.3,1.8-1.2
      C392.5,140.9,391.9,141.3,391.3,141.7z M135.6,121.1C135.6,121.1,135.6,121.1,135.6,121.1c0.2,0,0.6,0.1,0.9,0.3
      c0.3,0.1,0.3,0.3,0.2,0.3c-0.2,0-0.5-0.1-0.8-0.3C135.6,121.2,135.5,121.1,135.6,121.1z M135.2,114.5c0.1,0,0.1-0.1,0.3-0.1
      c0.1,0,0.2,0,0.4,0.1c0.3,0.1,0.2,0.1-0.2,0.2C135.3,114.6,135.1,114.6,135.2,114.5z M128.3,112.9c0.4,0,0.7,0,0.9,0.1
      c0.4,0.1,0.2,0.2-0.7,0.2c-0.8,0-1.4,0-1.4-0.1C127.1,113,127.7,112.9,128.3,112.9z M127.4,98.2c0.2,0,0.3,0.1,0.3,0.3
      c0,0.3-0.2,0.3-0.5,0C127.2,98.3,127.2,98.2,127.4,98.2z M117.6,74.8c0.3,0,0.4,0.1,0.3,0.3c-0.3,0.3-0.8,0.3-0.8,0
      C117.2,74.9,117.4,74.8,117.6,74.8z M106,68.9c-0.3-0.3-0.8-0.6-1-0.6c-0.4,0-1.2-1-1-1.2c0,0,0.1,0,0.2,0c0.6,0,2.1,0.9,2.3,1.4
      C107,69.4,106.7,69.6,106,68.9z M106.7,66.4c-0.2,0-0.6-0.8-0.7-1.5c-0.1-0.3-0.3-0.7-0.6-1c-0.3-0.2-0.5-0.6-0.5-0.8
      c0,0,0-0.1,0.1-0.1c0.1,0,0.5,0.2,0.9,0.6c0.7,0.6,1,1.2,1,1.8C106.9,66,106.8,66.4,106.7,66.4z M84.5,64c0.1,0.5,0.3,0.8,0.4,1.3
      c-0.5-0.2-0.8-0.4-1.3-0.6C83.9,64.5,84.2,64.3,84.5,64z M77.8,44.1c-0.1,0.6-0.2,1.1-0.3,1.7C76.8,45,76.8,44.7,77.8,44.1z
       M52.5,30.2c0.4,0,0.6,0.2,0.4,0.4c-0.4,0.5-1.2,0.5-1.2,0C51.8,30.4,52.1,30.2,52.5,30.2z M35.8,21.8c-0.5-0.4-1.1-0.8-1.4-0.8
      c-0.5,0-1.8-1.5-1.5-1.7c0.1,0,0.2-0.1,0.3,0c0.9,0.1,3,1.3,3.3,2C37.2,22.6,36.8,22.8,35.8,21.8z M36.8,18.3
      c-0.2,0-0.8-1.2-1.1-2.1c-0.1-0.4-0.5-1-0.8-1.4c-0.4-0.3-0.7-0.9-0.7-1.2c0-0.1,0-0.1,0.1-0.1c0.2,0,0.7,0.3,1.3,0.9
      c0.9,0.9,1.4,1.7,1.4,2.6C37,17.7,36.9,18.3,36.8,18.3z M11.2,132.5c-0.6,0-0.6-0.3,0-0.6c0.1,0,0.1-0.1,0.2-0.1
      c0.2,0,0.3,0.1,0.3,0.2C11.7,132.3,11.5,132.5,11.2,132.5z M13.3,117.3c-0.9,0.4-2.1,0.5-3.3,0.4c-1.1-0.1-1.8,0-1.7,0.2
      c0.4,0.5-0.3,0.4-1.7-0.2c-0.7-0.3-1.3-0.4-1.4-0.2c-0.1,0.2-0.5,0.3-1,0.1c-0.8-0.2-0.7-0.3,0.2-1.2l1-0.9l1.1,0.9l1,0.9l0.8-1
      c0.7-0.9,0.8-0.9,1.2-0.3c0.3,0.5,0.6,0.6,0.8,0.2c0.3-0.3,0.4-0.2,0.7,0.3c0.3,0.8,1.2,1.2,1.2,0.4c0-0.2,0.6-0.4,1.3-0.4h1.3
      L13.3,117.3z M15.9,116.4c-0.8,0.2-0.9,0.1-0.6-0.2c0.2-0.2,0.5-0.3,0.8-0.3c0.1,0,0.2,0,0.3,0C16.7,116.1,16.5,116.2,15.9,116.4z
       M26.8,69.2c-1.7,0.8-2.6,1-2.6,0.6c0-0.2,3.2-1.4,3.8-1.4C28.3,68.4,27.7,68.8,26.8,69.2z M31.2,44.9c-0.7,0.2-2.5,0.5-3.9,0.6
      c-2.3,0.2-2.7,0.1-3.1-0.6c-0.3-0.4-0.5-1-0.5-1.2c0-0.3,0.2-0.4,0.5-0.4c0.3,0,0.7,0.2,1,0.5c0.9,1,2.5,1.1,3.3,0.3
      c0.8-0.7,1.8-0.8,1.3,0c-0.1,0.2,0.1,0.4,0.4,0.4s0.8-0.2,1-0.4c0.4-0.5,1.2-0.5,1.2,0C32.4,44.3,31.9,44.7,31.2,44.9z M33.8,43.9
      c-0.3,0.1-0.5,0.1-0.5-0.2c0-0.2,0.2-0.4,0.5-0.4c0.3,0,0.5,0.1,0.5,0.2C34.3,43.6,34.1,43.8,33.8,43.9z M36.1,43.2
      c-0.3,0.1-0.5,0.1-0.5-0.2c0-0.2,0.2-0.4,0.5-0.4c0.3,0,0.5,0.1,0.5,0.2C36.6,42.8,36.4,43,36.1,43.2z M37.9,42.2
      c-0.6,0-0.6-0.3,0-0.6c0.1,0,0.1-0.1,0.2-0.1c0.2,0,0.3,0.1,0.3,0.2C38.4,42,38.2,42.2,37.9,42.2z M46.7,29.1
      c0-0.3,0.2-0.3,0.5-0.2c0.4,0.2,0.3,0.4-0.3,0.8c-1.2,0.7-1.6,0.6-1.6-0.3c0-0.4,0-0.6,0.2-0.6c0.1,0,0.3,0.1,0.5,0.3
      C46.5,29.4,46.7,29.4,46.7,29.1z M40.3,25.1c0.1-0.8,0.4-0.9,1.9-0.7c1.3,0.1,1.7,0,1.7-0.5c0-0.3,0.3-0.6,0.7-0.6
      c0.4,0,0.7-0.2,0.7-0.5c0-0.3,0.2-0.4,0.5-0.4c0.1,0,0.2,0,0.4,0c0.8,0.2,0.6,0.4-1.2,1.5c-1.2,0.7-2.5,1.4-3,1.4
      c-0.5,0-0.9,0.2-0.9,0.3S40.9,26,40.7,26C40.4,26,40.2,25.6,40.3,25.1z M41.6,28.3c0.6,0.2,1.6,0.3,2.2,0.2
      c0.6-0.1,1.1-0.1,1.1,0.2c0,0.2-0.2,0.4-0.4,0.4c-0.2,0-0.7,0.1-1.1,0.2c-0.4,0.1-1.1-0.2-1.8-0.6l-1.1-0.8L41.6,28.3z M42,43.6
      c-0.1,0.4-0.2,0.2-0.2-0.5c0-0.5,0-0.8,0.1-0.8c0,0,0.1,0,0.1,0.1C42.1,42.7,42.1,43.3,42,43.6z M41.5,40c-0.5-0.4-0.3-3.6,0.2-3.6
      c0.3,0,0.5,0.9,0.5,1.9C42.1,40.3,42,40.5,41.5,40z M53.1,66.1c0-0.3-0.3-0.8-0.6-1.1c-0.4-0.3-0.4-0.5,0-0.5
      c0.3,0,0.6,0.3,0.8,0.6c0.2,0.4,0.8,0.6,1.8,0.5c0.8,0,2,0.1,2.5,0.2c0.9,0.2,1,0.1,1-0.5v-0.8l1.5,0.7c0.1,0.1,0.1,0.2,0.2,0.3
      c0.4,0.3,0.9,0.5,1.4,0.8c-0.5,0.2-1,0.4-1.4,0.7c-0.2,0.1-0.2,0.4-0.3,0.6c0.2,0.1,0.4,0.2,0.7,0.2c0.3,0,0.5-0.1,0.9-0.2
      c-0.2,0.4-0.4,0.7-0.5,0.9C57.8,68.7,53.1,67.4,53.1,66.1z M61.8,64.8c0,0,0,0.1,0,0.1c0,0,0,0,0,0C61.7,64.9,61.8,64.8,61.8,64.8z
       M63.6,111c-0.1-0.1-0.2-0.2-0.3-0.2c0.1-0.1,0.2-0.2,0.3-0.3c0.1,0.2,0.2,0.5,0.2,0.7C63.8,111.1,63.7,111,63.6,111z M64.7,79
      c-2-1.2-2.2-1.2-2.5-0.3c-0.3-0.1-0.6-0.3-0.9-0.4c0.1-0.1,0.1-0.3,0-0.6c-0.2-0.7-0.2-0.8,0.5-0.3c1,0.7,2.4,1.1,2.4,0.7
      c0-0.2,0.4-0.2,0.8-0.2C64.9,78.3,64.8,78.7,64.7,79z M62.9,64.7c0.1,0,0.1,0,0.2,0c0,0.1-0.1,0.2-0.1,0.2
      C62.9,64.8,62.9,64.8,62.9,64.7z M65.1,65.9c-0.2-0.4-0.4-0.8-0.7-1.2c0.5,0,1,0.1,1.4,0.2c0.3,0,0.9,0,1.5-0.2c1-0.3,1-0.3,0.3-1
      c-0.1-0.1-0.2-0.2-0.3-0.3c0.6,0,1.2,0,1.8-0.1c0.2,0,0.4-0.1,0.5-0.1c0,0.6-0.1,1.1-0.1,1.7c-0.4,0.2-1.3-0.1-1.7,0.7
      c0.3,0.1,0.5,0.3,0.7,0.4c-0.7,0.6-1.4,0.5-1.9-0.2c-0.1-0.2-0.3-0.3-0.5-0.5C65.5,64.9,65.3,64.9,65.1,65.9z M66.5,63.8
      c0.3,0,0.5,0.2,0.5,0.4c0,0.5-0.3,0.5-0.7,0C66.1,64,66.2,63.8,66.5,63.8z M68.6,61.5c0.1,0,0.1-0.1,0.2-0.1c0,0.1,0,0.2,0.1,0.3
      C68.8,61.6,68.7,61.5,68.6,61.5z M70,68.5c-0.1,0-0.2,0.1-0.3,0.1c-0.2-0.3-0.4-0.7-0.7-1.1c0.3-0.1,0.5-0.2,0.7-0.3
      C69.8,67.6,69.9,68.1,70,68.5z M68,76.6c-0.2-0.2-0.6-0.5-1.2-0.9l-0.6-0.4c0.3-0.1,0.5-0.2,0.8-0.4l0.6,0.1
      C67.8,75.6,67.9,76.1,68,76.6z M65.7,74.9l-0.3-0.2l0.4,0.1C65.8,74.8,65.8,74.9,65.7,74.9z M67.1,78.1c-1-0.1-0.8,0.5-0.7,1.1
      c0,0.2,0.1,0.4,0.2,0.6c-0.2,0-0.3,0-0.5,0c-0.2-0.3-0.2-1-0.1-1.9c0,0,0-0.1,0-0.1c0,0,0-0.1,0-0.1c0.5,0,0.9,0,1.4,0
      c0,0.1,0.1,0.1,0.1,0.2C67.4,77.9,67.2,78.1,67.1,78.1z M68.5,79.4c-0.1-0.2-0.4-0.4-0.6-0.7c0-0.1,0-0.2,0-0.3
      c0.7,0,1.4-0.1,2.2-0.1c0,0.1,0,0.2,0.1,0.3C69.6,78.9,69.1,79.1,68.5,79.4z M70.6,54c-0.4-0.1-0.9-0.3-1.3-0.4
      c-0.3-0.1-0.5,0-0.8,0.1c0.1,0.3,0.2,0.6,0.4,0.8c0.3,0.3,0.6,0.5,1,0.7c-0.2,0.2-0.4,0.3-0.6,0.5c-0.8-0.7-1.1-1.9-2.1-2.4
      c-0.1,0-0.2,0.1-0.3,0.1c0.2,0.6,0.4,1.1,0.7,1.8c-1.2-0.7-2.3-1.5-3.7-1.3c-0.1,0.1-0.2,0.2-0.3,0.4c0.4,0.2,0.8,0.5,1.2,0.7
      c-0.6,0.7-0.5,0.9,0,1.3c0.4,0.3,0.8,0.6,1.1,0.9c-0.7,0.4-2,0.6-3.3,0.6c-1.8,0-2.1-0.1-1.3-0.3c0.9-0.3,1-0.6,0.6-2.1
      c0-0.1-0.7,0.2-1.6,0.7c-0.9,0.4-2.3,0.8-3.1,0.8c-2.9,0-7.8-1.6-11-3.6c-1.2-0.7-1-0.9,0.4-0.3c0.7,0.3,0.9,0.3,0.9-0.3
      c0-0.7,0-0.7,0.5,0c0.3,0.4,0.7,0.6,0.9,0.5c0.2-0.1,0.9,0.1,1.6,0.4c1.2,0.6,1.2,0.6,1.2-0.5c0-0.6,0.2-0.9,0.3-0.7
      c0.4,0.5,2.1,1.3,2.8,1.3c0.3,0,0.5-0.4,0.5-0.9c0-0.8,0.1-0.8,0.4,0.1c0.2,0.5,0.4,0.9,0.5,0.8c0.1-0.1,0.6,0,1.2,0.3
      c0.8,0.3,1.1,0.3,1.6-0.3c0.3-0.4,0.8-0.6,1-0.5c0.2,0.1,0.3-0.2,0.1-0.8c-0.3-1-0.2-1,1-0.6c1.5,0.5,2,0.2,1.2-0.6
      c-0.5-0.5-0.4-0.6,0.2-0.6c0.8,0,0.8,0,0-0.7c-0.4-0.4-0.6-0.8-0.4-1c0.2-0.1,0.8,0.1,1.2,0.5c0.7,0.6,1.2,0.7,2.9,0.4
      c0.1,0,0-0.3-0.3-0.5c-0.6-0.6-0.2-1,0.9-1c0,0,0,0,0.1,0c0.1,0,0.2,0.1,0.3,0.1c-0.4,0.6-0.4,0.8,0.2,1c0.7,0.2,1.5,0.5,2.3,0.9
      c-0.7,0.4-1.3,0.7-1.9,1c0,0.1,0.1,0.3,0.1,0.4c0.8,0.1,1.6,0.2,2.4,0.2c0,0.1,0,0.2,0,0.3c-0.5,0.1-1,0.2-1.5,0.3
      c0,0.1,0,0.2-0.1,0.3c0.6,0.3,1.3,0.6,1.9,1C70.7,53.9,70.7,54,70.6,54z M71.8,69.1c0,0,0-0.1,0.1-0.2c0.2-0.5,0.1-0.6-0.3-0.3
      c0.1-0.1,0.2-0.2,0.3-0.3c0.1,0.1,0.1,0.2,0.2,0.3C72.1,68.8,71.9,69,71.8,69.1z M81.2,55.6c0.1,0.1,0.2,0.1,0.3,0.2
      c-0.3,0.4-0.7,0.9-1,1.3c-0.1-0.1-0.2-0.1-0.3-0.2C80.6,56.5,80.9,56,81.2,55.6z M76.7,77c-0.1-0.7-0.3-1.2-0.4-1.8
      C77.2,75.7,77.2,76,76.7,77z M78.7,54.6c0-0.5,0-0.8,0-1.1c0.1,0,0.1-0.1,0.2-0.1c0.2,0.3,0.3,0.6,0.5,0.8
      C79.1,54.4,78.9,54.5,78.7,54.6z M80.1,62.2c-0.2,0-0.5,0-0.6-0.2c-0.1-0.1-0.1-0.5,0-0.6c0.1-0.1,0.5-0.2,0.7-0.1
      c0.4,0.1,0.7,0.4,1.2,0.7C80.8,62.1,80.4,62.2,80.1,62.2z M97.4,92c0.2,0,0.6,0.2,0.8,0.4c-0.8,0.3-1.6,0.6-2.4,0.6
      c0.5-0.4,0.9-0.7,1.3-1C97.2,92,97.3,92,97.4,92z M95.3,83.3c0.1,0,0.2-0.1,0.3-0.1c0.8-0.4,1.8,0.8,1.1,1.3
      c-0.4,0.3-0.5,0.3-0.6,0c-0.1-0.2-0.5-0.3-1-0.4c-0.2-0.1-0.4-0.2-0.6-0.3C94.8,83.6,95,83.4,95.3,83.3z M93.6,82.6
      c0.1,0,0.2,0,0.4,0c-0.1,0.1-0.3,0.2-0.4,0.2C93.6,82.7,93.6,82.7,93.6,82.6z M93.7,86C93.7,86,93.7,86,93.7,86
      c-0.1,0.6-0.1,0.8-0.8,0.4C93.2,86.2,93.4,86.1,93.7,86z M92.3,81.2c-0.1-0.1-0.1-0.2-0.2-0.3C92.7,80.8,92.8,80.8,92.3,81.2z
       M91.7,88.9c0,0.2,0.3,0.3,0.8,0.3c0.7,0,0.9,0.1,0.9,0.5c0,0.5,0,0.5,0.6-0.1c0.5-0.5,0.6-0.5,0.6-0.2c0,0.2,0.1,0.4,0.3,0.3
      c0.2-0.1,0.5,0.1,0.6,0.5c0.2,0.4,0.5,0.8,0.8,0.8c0.1,0,0.1,0.1,0.2,0.1c-0.6,0.3-1.1,0.6-1.7,1c-0.7,0.5-1.4,1-2.1,1.5
      c-0.1,0-0.1-0.1-0.2-0.1c0.2-0.3,0.5-0.7,0.7-1c-0.1-0.1-0.2-0.2-0.2-0.3c-1,0.4-2,0.7-3.1,1.1c-0.2-0.9,0.3-2.1-1-2.7
      c-0.1,0.6-0.2,1.1-0.3,1.5c-0.7,0.1-1.3,0.1-2,0.2c0.1-0.6,0.2-1.2,0.4-1.7c0.2-0.7,0.2-0.8-0.6-0.8c-0.2,0-0.4,0-0.6,0
      c0.4-1.3,1.3-0.3,2-0.6c0-0.2,0-0.4,0.1-0.8c0.2,0.1,0.3,0.2,0.4,0.2c0.2,0.1,0.5,0.1,0.8,0.2c-0.1-0.3-0.1-0.6-0.2-0.8
      c-0.2-0.3-0.5-0.5-0.8-0.8c0.6,0.1,1.2,0.2,1.7,0.3c0,0,0,0,0,0c-0.3,0.3-0.3,0.4,0.1,0.6c0.3,0.1,0.6,0.1,0.8,0.1
      C91.3,88.4,91.8,88.5,91.7,88.9z M92,110.4c0.2,0,0.5,0.1,0.7,0.1c0.3,0.3,0.6,0.6,0.9,0.8c-0.5,0-0.9,0.1-0.9,0.2
      c0,0.5,1.1,1.1,2,1c0.5,0,1,0,1,0.2c0.1,0.3-0.7,0.5-2.5,0.6c-0.3-0.6-0.6-1.2-1-1.7c-0.3-0.4-0.7-0.7-1.1-1c0-0.1,0-0.2,0-0.2
      C91.5,110.5,91.8,110.5,92,110.4z M91.5,98c0.4,0.2,0.8,0.3,1.1,0.5c0.3,0.1,0.5,0.2,0.8,0.3c-0.5,0.1-1,0.2-1.5,0.2
      C91.8,98.7,91.7,98.4,91.5,98z M94.3,98.5c-0.1-0.2-0.1-0.4-0.3-0.5c0,0,0,0-0.1,0C94.8,97.9,95,98.2,94.3,98.5z M89,98.6
      c0.1,0.2,0.1,0.3-0.1,0.3c-0.1-0.3-0.2-0.6-0.4-0.9c-0.1-0.1-0.1-0.3-0.2-0.4c0.1-0.1,0.2-0.1,0.3-0.2c0.2,0.3,0.3,0.6,0.5,0.9
      C88.9,98.4,88.9,98.5,89,98.6z M84.2,85.2c-0.2-0.1-0.5-0.4-0.5-0.6c0-0.6,0.1-1.3,0.1-1.9c0.5,0.3,0.9,0.5,1.4,0.7
      c0.2,0.1,0.6,0.1,0.7,0c0.1-0.2,0.1-0.5,0.1-0.7c0-0.4-0.1-0.7-0.1-1.2c0.8,0.3,1.4,0.6,2,0.9c0-0.1,0.1-0.2,0.1-0.3
      c-0.1-0.2-0.2-0.4-0.3-0.7c0.9,0.1,1.8,0.3,2.8,0.4c0.2,0.8,0.7,1.7-0.3,2.4c-0.3,0-0.5,0.1-1,0.2c0.3-0.5,0.6-0.9,0.8-1.3
      c0.1-0.2,0.1-0.5,0.1-0.8c-0.3,0-0.6,0-0.8,0.1c-0.5,0.4-0.9,0.9-1.5,1.5c0-0.2,0-0.4,0-0.5c-0.1-0.2-0.2-0.5-0.3-0.7
      c-0.2,0.2-0.4,0.3-0.6,0.5c-0.4,0.4-0.8,0.9-1.3,1.2c-0.3,0.2-0.6,0.4-0.9,0.6C84.7,85,84.4,85.2,84.2,85.2z M85.2,95
      C85.2,95,85.2,95.1,85.2,95c0,0.1-0.1,0.1-0.2,0.2C85.1,95.1,85.1,95.1,85.2,95z M86.3,100.6c-0.5-0.3-0.8-0.5-1.3-0.8
      c0.5-0.2,1-0.3,1.6-0.5c0.1,0,0.1,0.1,0.2,0.1C86.6,99.8,86.5,100.2,86.3,100.6z M87.3,102.4c0.1-0.8,0.2-1.5,0.2-2.2
      c0.1,0,0.2,0,0.3,0c0.1,0.4,0.1,0.9,0.2,1.3c0.1,0.3,0.4,0.5,0.5,0.7c0.2-0.2,0.4-0.5,0.4-0.7c0-0.2,0-0.3,0-0.5
      c0.3,0,0.6,0,0.9-0.2c0,0,0,0,0.1,0c0.2,0.5,0.4,1.1,0.7,1.6c-1.2,0.1-2.5,0.2-3.7,0.2C87.2,102.5,87.3,102.5,87.3,102.4z
       M89.1,135.8c0-0.1,0.1-0.1,0.1-0.2c0.2,0.1,0.3,0,0.3-0.2c0-0.1,0.1-0.1,0.3-0.2c0.1,0.2,0.2,0.3,0.3,0.5
      C89.8,135.7,89.4,135.8,89.1,135.8z M89.6,113.4c-0.3-0.2-0.7-0.4-1-0.6c0-0.3,0.1-0.6,0.1-0.9c0.6,0.3,1.2,1.1,1.9,0.3
      c0.3,0.4,0.6,0.7,0.9,1.1C90.9,113.4,90.3,113.4,89.6,113.4z M93.1,121c-0.6,0.3-1,0-1.3-0.4c0.3-0.2,0.8-0.4,0.8-0.5
      c0-0.5,0.2-0.7,0.5-0.8c0.1,0,0.1,0,0.2,0c0.2-0.1,0.7,0,0.9,0.2c0.3,0.2,0.5,0.2,0.5,0c0-0.2,0.2-0.3,0.5-0.3s0.5,0.2,0.5,0.4
      c0,0.2,0.1,0.3,0.4,0.3C95,120.3,94.1,120.6,93.1,121z M96.9,110.6c-0.5,0-0.9,0.2-1,0.3c0,0.1-0.2,0.2-0.5,0.2
      c-0.3-0.4-0.6-0.7-0.9-1.1c0.1-0.1,0.2-0.2,0.2-0.4l0.3-0.5c0.1,0,0.1,0,0.2,0l0.2,0.4l0.3,0.6l0.6-0.7c0.1-0.1,0.2-0.2,0.3-0.3
      c0.1,0,0.2,0.1,0.3,0.1c0,0,0,0.1,0,0.1c0,0.8,0.5,0.8,0.8,0.1c0.5,0.1,1,0.2,1.5,0.3c0,0,0.1,0,0.1,0
      C98.5,110.2,97.5,110.6,96.9,110.6z M100,92.1C100,92.1,100,92.1,100,92.1l0.2-0.2L100,92.1z M102.8,85c-0.5,0.2-1.7,0.3-2.7,0.4
      c-1.6,0.1-1.9,0.1-2.2-0.4c-0.2-0.3-0.3-0.7-0.3-0.8c0-0.2,0.2-0.3,0.4-0.3s0.5,0.1,0.7,0.4c0.7,0.7,1.7,0.8,2.3,0.2
      c0.5-0.5,1.3-0.5,0.9,0c-0.1,0.1,0,0.3,0.3,0.3c0.3,0,0.6-0.1,0.7-0.3c0.3-0.4,0.8-0.4,0.8,0C103.7,84.6,103.3,84.9,102.8,85z
       M104.6,84.3c-0.2,0.1-0.3,0-0.3-0.1c0-0.2,0.1-0.3,0.3-0.3s0.3,0.1,0.3,0.1C104.9,84.1,104.8,84.3,104.6,84.3z M106.2,83.8
      c-0.2,0.1-0.3,0-0.3-0.1s0.1-0.3,0.3-0.3c0.2,0,0.3,0.1,0.3,0.1C106.5,83.6,106.4,83.7,106.2,83.8z M107.5,83.1
      c-0.4,0-0.4-0.2,0-0.4c0,0,0.1,0,0.1,0c0.1,0,0.2,0,0.2,0.2C107.8,83,107.7,83.1,107.5,83.1z M113.6,74c0-0.2,0.2-0.2,0.4-0.1
      c0.3,0.1,0.2,0.3-0.2,0.6c-0.8,0.5-1.1,0.5-1.1-0.2c0-0.3,0-0.4,0.2-0.4c0.1,0,0.2,0.1,0.3,0.2C113.5,74.2,113.6,74.2,113.6,74z
       M109.2,71.2c0.1-0.5,0.3-0.6,1.3-0.5c0.9,0.1,1.2,0,1.2-0.3c0-0.2,0.2-0.4,0.5-0.4s0.5-0.2,0.5-0.4c0-0.2,0.1-0.3,0.4-0.3
      c0.1,0,0.2,0,0.3,0c0.5,0.1,0.4,0.3-0.8,1.1c-0.8,0.5-1.7,1-2.1,1c-0.3,0-0.6,0.1-0.6,0.2c0,0.1-0.2,0.2-0.4,0.2
      S109.1,71.6,109.2,71.2z M110,73.5c0.4,0.2,1.1,0.2,1.5,0.1c0.4-0.1,0.8,0,0.8,0.1c0,0.2-0.1,0.3-0.3,0.3c-0.2,0-0.5,0.1-0.8,0.1
      s-0.8-0.1-1.2-0.4l-0.8-0.6L110,73.5z M110.3,84.1c-0.1,0.3-0.2,0.1-0.2-0.3c0-0.3,0-0.5,0.1-0.5c0,0,0,0,0.1,0.1
      C110.4,83.5,110.4,83.9,110.3,84.1z M394.8,146.4c0.5-0.4,1.1-0.8,1.6-1.2c0.1,1.1,0.1,1.1,1.2,1c0.1,0,0.1,0,0.2,0c0,0,0,0,0,0
      L394.8,146.4z M399.5,146.3l-0.7,0c0.1-0.2,0.3-0.4,0.4-0.5c0.3-0.4,0.6-0.9,0.9-1.5c0.3,0.7,0.5,1.3,0.8,1.8L399.5,146.3z
       M404,145.2c0,0.1-0.3,0.4-0.5,0.5c-0.2,0.1-0.4,0-0.6,0c-0.1,0.1-0.3,0.1-0.4,0.2l-0.7,0.1c-0.1-0.5-0.3-1-0.5-1.4
      c0.4,0.2,0.8,0.4,1.1,0.5c0.1-0.3,0.3-0.7,0.3-1c0-0.3-0.1-0.6-0.2-0.8c0-0.2,0-0.4,0.1-0.6c0-0.1,0.3,0,0.5,0
      c0.5,0.1,1,0.2,1.5,0.3C404.2,143.5,403.4,144.1,404,145.2z M413.9,75.2c0.1,0.5,0.3,0.9,0.4,1.4c-0.1,0-0.2,0.1-0.3,0.1
      c-0.2-0.3-0.4-0.7-0.7-1.1C413.5,75.4,413.7,75.3,413.9,75.2z M411.4,86.2c-1-0.1-0.8,0.5-0.7,1.1c0.1,0.3,0.2,0.6,0.3,0.8
      c-0.7,0.2-0.9-0.7-0.6-2.4c0.5,0,1,0,1.5,0c0,0.1,0.1,0.1,0.1,0.2C411.7,86,411.5,86.2,411.4,86.2z M412.8,87.5
      c-0.1-0.2-0.4-0.4-0.6-0.7c0-0.1,0-0.2,0-0.3c0.7,0,1.4-0.1,2.2-0.1c0,0.1,0,0.2,0.1,0.3C413.9,86.9,413.4,87.2,412.8,87.5z
       M415.1,77.7c-0.1-0.1-0.1-0.2-0.2-0.2c0.4-0.4,0.9-0.7,1.3-1.1c0.1,0.1,0.1,0.2,0.2,0.3C416.2,77.3,415.6,77.6,415.1,77.7z
       M425.5,63.7c0.1,0.1,0.2,0.1,0.3,0.2c-0.3,0.4-0.7,0.9-1,1.3c-0.1-0.1-0.2-0.1-0.3-0.2C424.9,64.6,425.2,64.1,425.5,63.7z
       M421,85.1c-0.1-0.7-0.3-1.2-0.4-1.8C421.4,83.8,421.5,84.1,421,85.1z M422.9,62.7c0-0.5,0-0.8,0-1.1c0.1,0,0.1-0.1,0.2-0.1
      c0.2,0.3,0.3,0.6,0.5,0.8C423.4,62.5,423.2,62.6,422.9,62.7z M424.4,70.3c-0.2,0-0.5,0-0.6-0.2c-0.1-0.1-0.1-0.5,0-0.6
      c0.1-0.1,0.5-0.2,0.7-0.1c0.4,0.1,0.7,0.4,1.2,0.7C425.1,70.2,424.7,70.3,424.4,70.3z M435.1,107.3c0.2,0.3,0.4,0.6,0.7,0.8
      c0.1,0.1,0.4,0.1,0.6,0.1c0-0.2,0.1-0.4,0-0.5c-0.2-0.5-0.4-0.9-0.7-1.6c0.4,0.2,0.8,0.3,1.1,0.5c0.3,0.1,0.7,0.3,1,0.3
      c0.2,0,0.5-0.1,0.7-0.2c-0.1-0.2-0.2-0.5-0.3-0.6c-0.1-0.1-0.4-0.1-0.6-0.2c0.1,0,0.2-0.1,0.3-0.1c1-0.1,1.9-0.3,2.9-0.4
      c0.3,0,0.6,0.2,1,0.2c0.2,0,0.5-0.1,0.7-0.2c0.1-0.1,0-0.4-0.1-0.6c-0.3-0.4-0.7-0.8-1.1-1.3c0.6-0.2,1.3-0.5,2-0.7
      c0.1,0,0.2-0.1,0.3-0.1c0.8,0.4,1.9,0.9,2.7,1l1.9,0.3l-1.7,0c-1.2,0-1.7,0.2-1.7,0.6c0,0.3,0.3,0.6,0.8,0.6c0.4,0,1,0.1,1.2,0.1
      c0.2,0,0.7,0.1,1.1,0.1c0.5,0,0.4,0.2-0.2,0.6c-1.1,0.7-0.6,1.1,0.6,0.6c0.8-0.3,0.9-0.3,0.9,0.2c0,0.5,0.3,0.6,1.4,0.4
      c0.8-0.1,1.8-0.3,2.3-0.4c0.9-0.3,0.9-0.3,0,0.3c-0.9,0.6-0.7,0.7,0.8,0.6c0.4,0,0.8,0.2,0.8,0.5c0,0.8,0.4,0.7,1.4-0.3l0.9-0.8
      l-0.7,1c-0.4,0.6-0.7,1.2-0.7,1.4c0,0.6,2.2,0.1,3.2-0.6c0.9-0.6,0.9-0.6,0.5,0.3c-0.5,1.3-1,1.5-5.1,2.5c-3.4,0.8-3.6,0.9-5.4,0.3
      c-0.4-0.1-0.8-0.2-1.2-0.3c0.3-0.1,0.2-0.4-0.1-0.9c0.6-0.2,1.2-0.4,1.9-0.6c-0.6-1.1-0.9-1.1-3.1-0.8c0-0.4,0-0.7,0-1.1
      c-0.5,0.2-1,0.3-1.4,0.5c-0.5,0.2-0.9,0.4-1.4,0.7c-0.2-0.4-0.4-0.8-0.5-1.1c0.2-0.4,0.4-0.7,0.7-1.3c-1.3,0.1-2.2,0.7-3.1,1.4
      c0.1-1-0.4-0.7-0.8-0.5c-0.5,0.3-1,0.7-1.5,1.1c-0.2-0.7-0.1-1.5-1.1-1.8c-0.1,0.4-0.2,0.7-0.2,0.9c0,0.6,0.1,1.2,0.2,1.7
      c0.1,0.5-0.2,0.7-0.6,0.7c0-0.4,0.1-0.7,0-1c-0.1-0.3-0.3-0.6-0.4-0.9c-0.3-0.5-0.7-1-1.1-1.4C435,107.4,435.1,107.4,435.1,107.3z
       M445.9,121.5c0.2,0.3-0.1,0.3-1.1,0.2c-0.9-0.2-1.4-0.1-1.4,0.1c0,0.2-0.9,0.4-2,0.4c-1.8,0-2.3,0.2-1.7,0.8
      c-0.3-0.1-0.7-0.1-1-0.2c-0.2-0.1-0.5-0.2-0.6-0.4c-0.6-0.9-1-1.9-1.6-2.8c-0.3-0.4-0.7-0.7-1.1-1c0-0.1,0-0.2,0-0.2
      c0.6,0.3,1,0.1,1.1-0.3c0.8,0.7,1.5,1.4,2.3,2.1c0.3,0.2,0.7,0.3,1.1,0.4c0-0.4,0.1-0.8-0.1-1c-0.6-0.8-1.3-1.6-1.9-2.4
      c-0.2-0.3-0.5-0.6-0.7-0.9c0.4,0.2,0.8,0.6,1.2,0.8c-0.2,0.5,0.1,0.8,0.9,0.6c0.4-0.1,0.6,0.1,0.6,0.7c0,0.7,0.2,0.9,0.8,0.9
      c0.5,0,1.2,0.3,1.5,0.6c0.6,0.5,0.8,0.5,1.6,0.1c0.5-0.3,0.9-0.6,0.9-0.7c0-0.2,0.3,0,0.8,0.4c0.8,0.7,1.1,1.6,0.4,1.6
      C445.8,121.1,445.8,121.3,445.9,121.5z M444.4,112.5c0.2,0.1,0.1,0.2-0.1,0.2c-0.2-0.5-0.7-0.9-1.1-1.5c0.4,0.1,0.6,0.1,0.8,0.1
      c0.2,0,0.5,0.1,0.7,0.1c-0.5,0-0.8,0.1-0.8,0.3C443.9,111.9,444.2,112.3,444.4,112.5z M428,92.6c0-0.6,0.1-1.3,0.1-1.9
      c0.5,0.3,0.9,0.5,1.4,0.7c0.2,0.1,0.6,0.1,0.7,0c0.1-0.2,0.1-0.5,0.1-0.7c0-0.4-0.1-0.7-0.1-1.2c0.8,0.3,1.4,0.6,2,0.9
      c0-0.1,0.1-0.2,0.1-0.3c-0.1-0.2-0.2-0.4-0.3-0.7c0.9,0.1,1.8,0.3,2.8,0.4c0.2,0.8,0.7,1.7-0.3,2.4c-0.3,0-0.5,0.1-1,0.2
      c0.3-0.5,0.6-0.9,0.8-1.3c0.1-0.2,0.1-0.5,0.1-0.8c-0.3,0-0.6,0-0.8,0.1c-0.5,0.4-0.9,0.9-1.5,1.5c0-0.2,0-0.4,0-0.5
      c-0.1-0.2-0.2-0.5-0.3-0.7c-0.2,0.2-0.4,0.3-0.6,0.5c-0.4,0.4-0.8,0.9-1.3,1.2c-0.3,0.2-0.6,0.4-0.9,0.6c-0.2,0.1-0.5,0.4-0.7,0.3
      C428.3,93.2,428,92.9,428,92.6z M428.7,101.7c0.1,0,0.2-0.1,0.3-0.1c0.2,0.5,0.4,1,0.5,1.5c0,0-0.4,0.2-0.6,0.2
      C428.9,102.7,428.8,102.2,428.7,101.7z M429.4,107.9c0.6-0.2,1.1-0.4,1.8-0.6c-0.2,0.5-0.4,0.9-0.5,1.4
      C430.2,108.4,429.8,108.2,429.4,107.9z M431,110.7c0.3-0.1,0.5-0.2,0.6-0.2c0.1-0.8,0.2-1.5,0.2-2.2c0.1,0,0.2,0,0.3,0
      c0.1,0.4,0.1,0.9,0.2,1.3c0.1,0.3,0.4,0.5,0.5,0.7c0.2-0.2,0.4-0.5,0.4-0.7c0.1-1.2,0-2.4-0.6-3.5c-0.1-0.1-0.1-0.3-0.2-0.4
      c0.1-0.1,0.2-0.1,0.3-0.2c1,1.7,1.4,3.7,2.4,5.5c-1.2,0.5-2.4-0.6-3.5,0.4C431.6,111.2,431.3,111,431,110.7z M432.9,120.9
      c0-0.3,0.1-0.6,0.1-0.9c0.6,0.3,1.2,1.1,1.9,0.3c0.6,0.7,1.2,1.4,1.8,2.2c-0.3,0.2-1,0.6-1.6,1C434.9,122,433.9,121.5,432.9,120.9z
       M440.3,137.8c-0.1,0-0.3-0.1-0.4-0.1c0.1-0.1,0.3-0.2,0.4-0.2C440.4,137.6,440.4,137.7,440.3,137.8z M440.4,136
      c-0.6,0-1.2,0-1.8,0c0-0.1,0-0.2,0-0.4c0.6,0,1.2,0.1,1.8,0.1C440.5,135.8,440.5,135.9,440.4,136z M440.6,127.8
      c-0.4,0.1-0.7,0.3-1.1,0.4c-1.2,0-1.8,0.1-1.8,0.2c0,0.1,0.2,0.3,0.4,0.3c-0.2,0.1-0.5,0.2-0.7,0.3c-0.6,0.3-1,0-1.3-0.4
      c0.3-0.2,0.8-0.4,0.8-0.5c0-0.8,0.7-0.8,1.1-1.2c0.7-0.8,1.2-0.5,1.9-0.2c1.2,0.5,2,0.1,2.5-0.9c-1.3-0.4-2.5-0.8-3.9-1.3
      c0.5-0.2,0.8-0.3,0.9-0.5c0.2-0.3,0.4-0.7,0.6-1.1c0.1,0.1,0.2,0.2,0.3,0.3c0.4,0.3,1.4,0.4,2.8,0.2l2.1-0.2l-1.6,0.7
      c-1.1,0.5-1.6,0.9-1.4,1.3c0.2,0.4,0.5,0.5,1,0.3c0.4-0.1,1-0.3,1.4-0.3c0.4,0,0.4,0,0.1,0.1c-1.1,0.3-0.5,0.9,0.7,0.7
      c0.9-0.2,1-0.1,0.6,0.1c-1.2,0.6-0.1,0.8,1.3,0.2c0.8-0.3,1.4-0.4,1.4-0.2c0,0.2-0.2,0.4-0.6,0.5c-0.3,0.1-0.4,0.3-0.2,0.5
      c0.2,0.2,0.9,0.1,1.6-0.1c1-0.3,1.2-0.3,1,0.1c-0.2,0.4,0,0.4,0.6,0.3c0.7-0.2,0.7-0.2,0.2,0.3c-0.4,0.4-1.6,0.5-5.3,0.5
      c0,0,0,0,0-0.1c-0.1-0.2-0.8,0-1.2,0c-0.1-0.6-0.6-0.6-1.1-0.6c-0.8,0-1.5,0.1-2.3,0.2C440.9,127.7,440.8,127.8,440.6,127.8z
       M447.6,134.3c0,0.2-0.1,0.4-0.2,0.7c0,0,0,0,0,0c-0.2-0.3-0.3-0.6-0.5-0.8C447.2,134.2,447.4,134.2,447.6,134.3z M442.1,136.7
      c0.1-0.2,0-0.5,0-0.9c0.1,0.1,0.1,0.1,0.1,0.2c-0.1,0-0.1,0.1-0.1,0.1c0,0.2,0.2,0.4,0.6,0.5c0,0,0.1,0.1,0.1,0.1
      C442.7,136.8,442.4,136.8,442.1,136.7z M453.5,135.1c-0.1,0.8-0.4,1-3.7,1.4c-2.3,0.3-3.8,0.4-4.2,0.1c-0.3-0.2-0.7-0.3-1.1-0.4
      c-0.6-0.6-1.2-1.1-1.8-1.6c0.1-0.1,0.1-0.2,0.2-0.2c0.3,0.3,0.7,0.5,1,0.8c0,0.1,0.1,0.1,0.1,0.2c0,0,0.1,0,0.1,0c0,0,0,0,0,0
      c0.3,0.2,0.5,0.4,0.8,0.7c0.2-0.2,0.3-0.5,0.5-0.8c0.5,0.3,0.9,0.8,1.5,1.1c0,0,0.1,0,0.1,0c0.3,0.1,0.7,0.2,1.2,0.1
      c-0.1-0.2-0.2-0.3-0.3-0.5c0.8-0.4,2-1.3,3.2-2.3c1.6-1.3,1.8-1.1,0.3,0.3c-0.4,0.3-0.5,0.9-0.4,1.3c0.3,0.6,0.4,0.5,1.4-0.3
      l1.1-0.9L453.5,135.1z M454.5,135.9c-0.6,0-0.6-0.3,0-0.6c0.1,0,0.1-0.1,0.2-0.1c0.2,0,0.3,0.1,0.3,0.2
      C454.9,135.7,454.7,135.9,454.5,135.9z M456.5,121.3c-0.9,0.4-2,0.5-3.2,0.4c-1-0.1-1.8,0-1.6,0.2c0.3,0.5-0.3,0.4-1.7-0.2
      c-0.7-0.3-1.2-0.4-1.3-0.2c-0.1,0.2-0.5,0.2-0.9,0.1c-0.7-0.2-0.7-0.3,0.2-1.1l1-0.9l1,0.9l1,0.9l0.8-1c0.7-0.9,0.8-0.9,1.2-0.3
      c0.3,0.5,0.5,0.5,0.8,0.2c0.2-0.3,0.4-0.2,0.6,0.3c0.3,0.8,1.1,1.1,1.1,0.4c0-0.2,0.5-0.4,1.2-0.4h1.2L456.5,121.3z M458.9,120.4
      c-0.7,0.2-0.9,0.1-0.6-0.2c0.2-0.2,0.5-0.3,0.8-0.3c0.1,0,0.2,0,0.3,0C459.7,120.1,459.5,120.3,458.9,120.4z M469.4,75.3
      c-1.6,0.7-2.5,0.9-2.5,0.6c0-0.2,3-1.3,3.7-1.3C470.8,74.6,470.3,74.9,469.4,75.3z M473.6,52.1c-0.7,0.2-2.3,0.5-3.7,0.6
      c-2.2,0.2-2.6,0.1-3-0.6c-0.3-0.4-0.5-0.9-0.5-1.1c0-0.3,0.2-0.4,0.5-0.4c0.3,0,0.7,0.2,1,0.5c0.9,0.9,2.4,1.1,3.2,0.3
      c0.7-0.7,1.8-0.7,1.2,0c-0.1,0.2,0,0.3,0.4,0.3c0.4,0,0.8-0.2,0.9-0.4c0.4-0.5,1.1-0.5,1.1,0C474.8,51.5,474.2,51.9,473.6,52.1z
       M476.1,51.1c-0.2,0.1-0.4,0.1-0.4-0.2c0-0.2,0.2-0.4,0.4-0.4c0.2,0,0.4,0.1,0.4,0.2C476.5,50.8,476.3,51,476.1,51.1z M478.3,50.4
      c-0.2,0.1-0.4,0.1-0.4-0.2c0-0.2,0.2-0.4,0.4-0.4c0.2,0,0.4,0.1,0.4,0.2C478.7,50.1,478.5,50.3,478.3,50.4z M480.1,49.5
      c-0.6,0-0.6-0.3,0-0.6c0.1,0,0.1-0.1,0.2-0.1c0.2,0,0.3,0.1,0.3,0.2C480.5,49.3,480.3,49.5,480.1,49.5z M488.4,36.9
      c0-0.2,0.2-0.3,0.5-0.2c0.4,0.2,0.3,0.4-0.3,0.8c-1.1,0.7-1.5,0.6-1.5-0.3c0-0.4,0-0.6,0.2-0.6c0.1,0,0.2,0.1,0.5,0.2
      C488.3,37.2,488.4,37.3,488.4,36.9z M482.3,33.1c0.1-0.7,0.4-0.8,1.8-0.7c1.3,0.1,1.7,0,1.7-0.5c0-0.3,0.3-0.6,0.7-0.6
      c0.4,0,0.7-0.2,0.7-0.5c0-0.2,0.2-0.4,0.5-0.4c0.1,0,0.2,0,0.4,0c0.7,0.2,0.6,0.4-1.1,1.5c-1.1,0.7-2.4,1.3-2.9,1.3
      c-0.5,0-0.8,0.2-0.8,0.3c0,0.2-0.2,0.3-0.5,0.3S482.3,33.6,482.3,33.1z M483.5,36.2c0.6,0.2,1.5,0.3,2.1,0.2
      c0.6-0.1,1.1-0.1,1.1,0.1c0,0.2-0.2,0.4-0.4,0.4c-0.2,0-0.7,0.1-1,0.2c-0.3,0.1-1.1-0.2-1.7-0.6l-1.1-0.8L483.5,36.2z M483.9,50.8
      c-0.1,0.4-0.2,0.2-0.2-0.4c0-0.5,0-0.7,0.1-0.8c0,0,0.1,0,0.1,0.1C484,50,484,50.5,483.9,50.8z M507.4,70.1c0.3,0,0.5,0.2,0.5,0.4
      c0,0.5-0.3,0.5-0.7,0C507,70.3,507.1,70.1,507.4,70.1z M504.4,115.1c-0.1-0.1-0.2-0.1-0.2-0.2c0.1-0.1,0.2-0.2,0.2-0.3
      c0.1,0.1,0.1,0.1,0.2,0.2C504.6,114.9,504.5,115,504.4,115.1z M503.7,84.5c0.3,0.2,0.6,0.3,1,0.5c-0.2,0.1-0.3,0.1-0.5,0.2
      c-0.9-0.1-1.7-0.2-2.1-0.4c-1.4-0.5-1.4-0.6-0.5-0.6c0.8,0,1-0.2,0.8-0.8c-0.2-0.7-0.2-0.7,0.5-0.2c0.6,0.4,1.3,0.7,1.8,0.8
      c0,0.1,0,0.1,0,0.2c-0.3-0.1-0.5-0.3-0.7-0.3c-0.2,0-0.5,0-0.7,0.1C503.5,84.1,503.5,84.4,503.7,84.5z M505.3,83.7
      c0.1,0,0.2,0,0.3,0c0,0.1-0.1,0.2-0.1,0.4C505.4,83.9,505.4,83.8,505.3,83.7z M505.6,115.7c0-0.1,0.1-0.2,0.1-0.3
      c0-0.1,0.1-0.2,0.3-0.3c0.1,0.3,0.2,0.6,0.3,0.9C506,115.9,505.8,115.8,505.6,115.7z M507.4,90.7c-0.3,0-0.5-0.1-0.5-0.1
      c0,0,0-0.1,0.1-0.1c0,0,0,0.1,0.1,0.1c0,0,0-0.1,0.1-0.1c0.1,0,0.3-0.1,0.5-0.1C507.6,90.5,507.5,90.6,507.4,90.7z M508.4,90.8
      c0.1,0,0.2-0.1,0.3-0.1c0,0,0,0.1,0,0.1C508.6,90.8,508.5,90.8,508.4,90.8z M510,84c-0.3,0.2-0.9-0.1-1.2,0.5
      c0.2,0.1,0.3,0.2,0.5,0.3c-0.5,0.4-0.9,0.4-1.3-0.1c-0.1-0.1-0.2-0.2-0.3-0.3c-0.5-0.4-0.6-0.3-0.8,0.4c-0.2-0.4-0.4-0.7-0.6-1
      c0.4,0,0.6-0.1,0.6-0.3c0-0.1,0.1-0.1,0.1-0.2c0.2,0,0.4-0.1,0.6-0.1c0.1,0,0.2-0.1,0.3-0.1c0.2,0,0.4,0,0.5,0c0.4,0,0.7,0,1.1,0
      c0.1,0,0.3-0.1,0.4-0.1C510,83.3,510,83.6,510,84z M506.3,80.6l1.8,0.2c-0.1,0.1-0.2,0.2-0.3,0.4c-0.2-0.1-0.4-0.3-0.7-0.4
      c-0.1,0-0.3,0-0.4,0L506.3,80.6z M509.5,81.8c-0.2-0.1-0.3-0.2-0.4-0.3c-0.1-0.1-0.3-0.3-0.4-0.4c-0.1-0.1-0.2-0.2-0.3-0.3l0.2,0
      c0.5,0.1,0.9,0.1,1.2,0.1C509.6,81.1,509.4,81.3,509.5,81.8z M508.3,75.5l-1.1,0.3l1.2-0.9c0.6-0.5,1-0.8,1.1-1
      c0.2,0.1,0.4,0.2,0.6,0.2c-0.5,0.3-0.9,0.5-1.3,0.7c0,0.1,0,0.2,0.1,0.3c0.5,0,0.9,0.1,1.4,0.1C509.7,75.2,508.8,75.3,508.3,75.5z
       M512,68.2c0.1,0.1,0.2,0.3,0.3,0.6c-0.4-0.2-0.7-0.4-1-0.5c-0.2-0.1-0.4,0-0.6,0c0.1,0.2,0.1,0.5,0.2,0.6c0.4,0.4,0.8,0.7,1.3,1
      c-0.4,0.1-0.8,0.1-1.1,0.2c-0.1,0-0.3,0.3-0.2,0.4c0.1,0.2,0.2,0.4,0.3,0.6c0.1,0.2,0.2,0.5,0.3,0.7c-0.4-0.1-0.6-0.2-0.9-0.4
      c-0.2-0.1-0.4-0.3-0.6-0.5c0,0.3-0.1,0.5-0.1,0.8c0,0,0,0.1,0,0.2c-0.3,0-0.6-0.1-0.9-0.2c0.1,0.2,0.1,0.4,0.1,0.6
      c-0.5-0.2-0.9-0.4-1.4-0.6c-0.2-0.1-0.4,0.1-0.6,0.1c0.1,0.2,0.2,0.4,0.3,0.5c0.3,0.2,0.7,0.3,1.1,0.5c-0.3,0.4-0.3,0.5,0.1,0.7
      c0.2,0.1,0.4,0.1,0.6,0.2c-0.1,0-0.2,0.1-0.4,0.2c-1.2,0.6-2.1,0.5-1.4-0.1c1-0.8,0.6-1.5-0.4-0.7c-0.5,0.4-1.6,1-2.3,1.3
      c-2.7,1.1-10-0.4-10-2c0-0.3-0.2-0.8-0.5-1c-0.4-0.3-0.4-0.4,0-0.4c0.3,0,0.6,0.2,0.7,0.6c0.2,0.4,0.8,0.5,1.7,0.5
      c0.8,0,1.9,0.1,2.4,0.2c0.8,0.2,1,0.1,1-0.5v-0.8l1.5,0.7c1.1,0.5,1.6,0.6,1.8,0.3c0.2-0.2,0-0.6-0.3-0.8c-0.5-0.3,2-0.3,3.8,0.1
      c0.2,0,0.9,0,1.4-0.2c0.9-0.3,0.9-0.3,0.3-0.9c-0.6-0.6-0.6-0.7,0.4-0.9c1.3-0.3,1.5-1,0.4-1c-0.5,0-0.3-0.2,0.6-0.5
      c0.5-0.2,1.1-0.5,1.8-0.9c0.2,0.2,0.5,0.4,0.8,0.6C511.8,67.6,511.6,67.8,512,68.2z M513.1,67.2c-0.2-0.2-0.3-0.3-0.4-0.4
      c-0.1-0.1-0.2-0.2-0.4-0.3c0,0,0.1-0.1,0.1-0.1l0.4-0.3C513,66.4,513.1,66.7,513.1,67.2z M516.3,70.2c0,0.2,0.3,0.4,0.8,0.7
      c-0.3,0-0.6,0.2-1,0.2C516.2,70.7,516.3,70.5,516.3,70.2z M515.6,69.8c-0.1,0.4-0.1,0.8-0.2,1.2C514.9,70.4,514.9,70.2,515.6,69.8z
       M516.4,76.9c0-0.1-0.1-0.2-0.2-0.3c0-0.1,0-0.2,0-0.3c0,0,0.1,0,0.1-0.1c0.1,0.2,0.2,0.4,0.3,0.6
      C516.6,76.8,516.5,76.8,516.4,76.9z M517.5,78.7c-0.1,0-0.1-0.1-0.2-0.1c0.2-0.3,0.4-0.6,0.7-0.9c0.1,0.1,0.1,0.1,0.2,0.2
      C517.9,78.1,517.7,78.4,517.5,78.7z M521.9,96.4c-0.3,0.3-0.5,0.6-0.8,0.8c-0.3,0.1-0.8,0.2-1.4,0.4c0-0.1-0.1-0.1-0.1-0.2
      c0-0.4,0.1-0.9,0.1-1.3c0.3,0.2,0.6,0.4,1,0.5c0.1,0.1,0.4,0.1,0.4,0c0.1-0.1,0-0.3,0-0.5c0-0.2,0-0.5-0.1-0.7c0,0,0.1,0,0.1,0
      c0.2,0.1,0.4,0.2,0.5,0.2c-0.7,0.5-0.5,0.6,0.6,0.6C522.2,96.2,522,96.3,521.9,96.4z M519.9,89.5C519.9,89.5,519.9,89.5,519.9,89.5
      c0.2-0.2,0.5-0.2,0.7-0.2C520.4,89.4,520.2,89.5,519.9,89.5z M520.8,91c0.7,0.2,0.5,0.3-0.6,0.1c0.1-0.1,0.2-0.2,0.3-0.3
      C520.6,90.9,520.7,90.9,520.8,91z M522.5,97c0-0.2,0-0.3,0-0.3c0-0.2-0.1-0.3-0.2-0.5c0.1,0,0.1,0,0.2,0c0.2,0,0.4,0,0.6,0.2
      C523,96.5,522.7,96.7,522.5,97z M524.1,97.2c-0.2,0-0.4,0.1-0.7,0.1c0,0,0.1-0.1,0.1-0.1c0.2,0.1,0.4,0,0.9-0.4
      C524.3,96.9,524.2,97,524.1,97.2z M527.8,97.9C527.8,97.9,527.8,97.9,527.8,97.9C527.8,97.9,527.8,97.9,527.8,97.9
      C527.8,97.9,527.8,97.9,527.8,97.9z M528,97.6C528,97.6,527.9,97.6,528,97.6c-0.1-0.1-0.1-0.2-0.3-0.3c0,0-0.1,0-0.1-0.1
      C528.3,96.7,528.3,96.8,528,97.6z M527.1,90.7c-3.5,0.5-3.8,0.4-5-0.2c-0.3-0.1-0.5-0.3-0.8-0.4c0,0,0-0.1,0-0.1
      c0.1-0.1,0.2-0.2,0.3-0.3c0.3,0.1,0.4-0.1,0.4-0.6c0.4,0.1,0.9,0.2,1.3,0.2c0.1,0,0.3-0.1,0.4-0.2c-0.1-0.1-0.1-0.3-0.2-0.4
      c-0.1-0.1-0.3-0.2-0.4-0.2c-0.5-0.1-1-0.1-1.5-0.2c0.2-0.3,0.6-0.6,0.1-1.1c-0.6,0.5-1.3,1.1-2,1.7c0,0-0.1-0.1-0.1-0.1
      c0.2-0.3,0.4-0.6,0.6-0.8c0-0.1-0.1-0.1-0.1-0.2c-0.2,0.1-0.5,0.2-0.7,0.2c-0.2,0-0.4-0.1-0.7-0.1c0-0.1,0-0.2,0-0.3
      c0.3,0,0.6,0,0.9,0c0.1,0,0.2-0.1,0.3-0.2c-0.1-0.1-0.1-0.3-0.2-0.3c-0.3-0.1-0.6-0.1-0.9-0.2c0.3-0.5,0.7-0.5,1.1-0.3
      c0.1,0.1,0.3,0,0.4-0.1c-0.1-0.1-0.1-0.3-0.2-0.4c-0.1-0.1-0.3-0.3-0.6-0.5c0.1,0,0.2,0,0.2,0c0.7,0,1.4-0.1,1.9-0.5
      c0.1,0.1,0.2,0.3,0.3,0.5c0.4,0.9,0.9,0.9,2.5,0L526,85l-0.3,1.1c-0.3,1.4,0.5,1.5,2.3,0.3c1.2-0.8,1.2-0.8,0.7,0
      c-0.5,0.9-0.3,1.3,0.6,1c0.3-0.1,0.9,0,1.3,0.3c0.5,0.3,0.7,0.3,0.7,0c0-0.2,0.3-0.4,0.7-0.4s0.7,0.2,0.7,0.5
      c0,0.4,0.4,0.5,1.2,0.4C538.4,87.7,532.5,90,527.1,90.7z M519.8,84c0,0,0.1,0,0.1,0c0.1,0,0.1,0.1,0.1,0.1
      C520,84,519.9,84,519.8,84z M538.7,73.6c-0.3,0.7-3,1.8-4.4,1.8c-0.6,0-1.3,0.2-1.4,0.5c-0.1,0.3-1,0.4-2.2,0.4c-1.1,0-2,0.1-2,0.3
      c0,0.7,1.5,1.5,2.7,1.4c0.7-0.1,1.3,0,1.4,0.2c0.1,0.6-2.5,1-8.7,1.2c-2.2,0.1-4,0.1-5.5,0.2c-0.1-0.1-0.2-0.1-0.3-0.2
      c0.4-0.3,0.7-0.5,1.1-0.8c0.2-0.1,0.4-0.3,0.6-0.3c0.4-0.1,0.9-0.2,1.3-0.2c-0.1-0.2-0.2-0.4-0.2-0.6c0.1,0,0.2,0,0.3,0
      c0.2,0,0.3-0.1,0.5-0.1c-0.1-0.1-0.2-0.4-0.4-0.4c-0.4-0.1-0.8-0.1-1.2-0.2c0.3-0.3,0.5-0.6,0.7-1c0.1-0.1,0-0.3,0-0.5
      c-0.2,0-0.3,0-0.5,0.1c-0.2,0.2-0.4,0.4-0.6,0.6c-0.2,0.2-0.3,0.4-0.4,0.6c-0.1-0.3-0.2-0.5-0.3-0.8c0.2-0.3,0.5-0.6,0.7-0.9
      c0.1-0.1,0-0.3,0-0.5c-0.1,0-0.3,0-0.4,0.1c-0.2,0.2-0.4,0.4-0.7,0.6c-0.1,0.1-0.3,0.2-0.4,0.2c-0.4-0.2-0.5,0-0.6,0.3
      c-0.1,0.2-0.2,0.5-0.3,0.7c-1-0.6-1.1-0.6-2.3,0.1c-0.1,0-0.2,0-0.3,0c0,0,0-0.1,0.1-0.1c0.4-0.3,0.7-0.5,1.1-0.7
      c0.5-0.3,1-0.6,1.4-0.9c0.1-0.1,0.1-0.3,0.2-0.4c-0.1,0-0.3-0.1-0.4-0.1c-0.3,0.1-0.5,0.2-0.8,0.3c-0.2,0.1-0.3,0.1-0.5,0.2
      c0-0.3-0.1-0.5-0.1-0.7c-0.2,0.1-0.4,0.2-0.6,0.3c-0.2,0.1-0.3,0.2-0.4,0.3c-0.1-0.1,0-0.2,0-0.3c0.1-0.8,0.9-1,1.2-1.5
      c0.3-0.5,0.9-0.9,1.4-1.4c0.7,0.3,1.6,0.6,2.1,0.6c1,0,1,0,0.2,0.7c-0.8,0.7-0.8,0.7,0.4,0.7c0.9,0,1.1,0.1,0.9,0.6
      c-0.2,0.5,0,0.5,1,0.3c0.7-0.1,1.4-0.2,1.5-0.2c1.4,0,1.7,0.1,1.5,0.6c-0.5,1,0.7,1,1.3,0c0.6-1,0.7-1,0.7-0.2
      c0,0.5,0.2,0.8,0.4,0.9c2.7,0.3,3.1,0.2,3.7-0.9l0.6-1.1l0.4,0.9l0.4,0.9l0.9-0.9c0.8-0.9,0.8-0.9,0.9-0.1c0,1.1,0.8,1.1,1.1-0.1
      c0.2-0.5,0.5-0.9,0.7-0.9c0.2,0,0.3,0.2,0.1,0.4c-0.2,0.3,0.1,0.3,1.1,0.2C538.5,73.2,538.8,73.3,538.7,73.6z M538.2,63.6
      c-1.6,0.7-2.5,0.9-2.5,0.6c0-0.2,3-1.3,3.7-1.3C539.6,62.9,539.1,63.2,538.2,63.6z"/>
    <path class="land layer11" fill="#232323" d="M536.6,24.5c0,0.2,0.5,0.6,1.2,0.9L539,26l-1.5-0.2c-1.5-0.2-4.1-1.3-5.2-2.3c-0.3-0.3-1-0.5-1.4-0.5,c-0.9,0-1.1,0.7-0.4,1.3c0.3,0.2-0.4,0.4-1.8,0.5c-1.2,0.1-2.4,0.2-2.6,0.3c-1.4,0.8,2.1,2.1,4.7,1.8l1.8-0.2l-1.2,0.6,c-0.8,0.4-1.2,0.8-1.1,1.2c0.2,0.9,2.1,0.6,3.3-0.5c0.6-0.5,1.3-0.9,1.8-0.8c0.6,0.1,0.5,0.2-0.4,0.6c-1.5,0.5-2,1.1-1,1.4,c0.4,0.1,0.6,0.4,0.5,0.7c-0.1,0.3,0.1,0.6,0.4,0.7c0.3,0.1,0.6,0.1,0.6-0.1c0-0.3,1.4-0.8,2.5-0.9c0.3,0,0.9-0.4,1.4-0.8,c0.1-0.1,0.3-0.2,0.4-0.3v-3.8C537.8,23.9,536.6,23.8,536.6,24.5z"/>
  </g>
</svg>
