<svg xmlns="http://www.w3.org/2000/svg" xmlns:xlink="http://www.w3.org/1999/xlink" version="1.1" x="0" y="0" viewBox="0 0 971.91 106.43" enable-background="new 0 0 971.905 106.431" xml:space="preserve">
  <path fill="#FFFFFF" d="M921.13 37.73c-4.8 0-9.28 1.35-13.08 3.7 -3.16-5.89-9.36-9.89-16.51-9.89 -3.31 0-6.42 0.87-9.12 2.38 -1.46-7.54-6.31-13.86-12.9-17.32 1-0.82 1.65-2.04 1.65-3.44 0-2.46-1.99-4.45-4.46-4.45 -1.87 0-3.47 1.16-4.13 2.8 -0.56-0.16-1.14-0.25-1.75-0.25 -2.11 0-3.97 1.03-5.13 2.61 -12.7 1.14-22.66 11.81-22.66 24.81 0 0.32 0.01 0.64 0.02 0.96 -3.4-1.98-7.35-3.12-11.56-3.12 -2.81 0-5.49 0.5-7.98 1.42 -2.84-6.41-9.24-10.88-16.7-10.88 -9.76 0-17.7 7.65-18.22 17.28 -1.12-0.21-2.28-0.33-3.46-0.33 -8.38 0-15.47 5.5-17.86 13.09 -1.44-0.35-2.94-0.56-4.48-0.56 -1.48 0-2.92 0.19-4.3 0.52 -3.43-4.14-8.62-6.78-14.42-6.78 -0.18 0-0.35 0.02-0.53 0.03 -1.46-1.35-3.42-2.18-5.57-2.18 -4.54 0-8.22 3.68-8.22 8.22 0 0.19 0.02 0.39 0.03 0.57 -1.07 1.27-1.97 2.69-2.68 4.22 -2.31-1.02-4.87-1.6-7.56-1.6 -1.07 0-2.11 0.11-3.12 0.28 -1.49-3.76-3.86-7.08-6.87-9.69 1.93-0.49 3.36-2.22 3.36-4.3 0-2.46-1.99-4.45-4.45-4.45 -1.22 0-2.33 0.5-3.14 1.29 -1.39-1.25-3.22-2.02-5.24-2.02 -2.67 0-5.03 1.34-6.45 3.38 -0.15 0-0.29-0.01-0.44-0.01 -9.5 0-17.77 5.31-21.99 13.12 -1.82-0.42-3.72-0.65-5.68-0.65 -3.21 0-6.27 0.61-9.09 1.71 -2.04-8.14-9.38-14.17-18.14-14.17 -0.42 0-0.83 0.04-1.25 0.06 -3.32-4.57-8.69-7.55-14.77-7.55 -2.38 0-4.65 0.47-6.74 1.3 0-0.02 0-0.05 0-0.08 0-7.1-3.48-13.38-8.82-17.25 -0.06-0.36-0.15-0.71-0.26-1.05 0.92-0.86 1.51-2.08 1.51-3.44 0-2.61-2.11-4.72-4.72-4.72 -1.76 0-3.28 0.98-4.09 2.41 -0.21-0.02-0.42-0.03-0.63-0.03 -2.5 0-4.74 1.11-6.26 2.85 -10.87 0.98-19.4 10.11-19.4 21.24 -10.36 0-19.25 6.31-23.04 15.3 -0.64-0.07-1.29-0.1-1.95-0.1 -5.11 0-9.74 2.05-13.11 5.37 -3.37-3.28-7.97-5.31-13.05-5.31 -2.58 0-5.04 0.52-7.28 1.47 0.12-0.47 0.19-0.96 0.19-1.47 0-2.19-1.18-4.1-2.93-5.15 0.91-0.67 1.5-1.74 1.5-2.95 0-2.03-1.65-3.68-3.68-3.68 -1.47 0-2.73 0.87-3.32 2.11 -0.41-0.09-0.83-0.14-1.27-0.14 -2.7 0-4.97 1.87-5.58 4.38 -0.52-0.04-1.03-0.08-1.56-0.08 -5.96 0-11.26 2.8-14.69 7.14 -2.22-1.89-5.1-3.03-8.25-3.03 -1.72 0-3.36 0.35-4.86 0.96 -3.1-2.27-6.91-3.63-11.04-3.63 -0.22 0-0.43 0.03-0.65 0.03 -1.51-1.7-3.71-2.78-6.17-2.78 -4.18 0-7.62 3.1-8.17 7.13 -1.21-0.24-2.46-0.37-3.74-0.37 -1.82 0-3.58 0.27-5.24 0.76 -4.57-5.89-11.71-9.69-19.75-9.69 -6.02 0-11.55 2.13-15.86 5.68 -0.98-2.51-2.47-4.75-4.36-6.6 0.61-1.15 0.96-2.46 0.96-3.86 0-4.56-3.7-8.26-8.26-8.26 -4.11 0-7.51 3.01-8.14 6.94 -7.6 0.96-13.77 6.46-15.71 13.71 -6.24 0.17-11.73 3.38-15 8.22 -2.15-1.35-4.68-2.14-7.4-2.14 -4.95 0-9.28 2.58-11.76 6.46 -1.73-1.48-3.98-2.37-6.44-2.37 -5.49 0-9.94 4.45-9.94 9.94 0 5.49 4.45 9.94 9.94 9.94 2.48 0 4.74-0.91 6.49-2.42 2.49 3.84 6.8 6.38 11.71 6.38 3.32 0 6.36-1.16 8.75-3.09 3.43 3.98 8.5 6.51 14.17 6.51 1.53 0 3.02-0.2 4.44-0.55 2.96 9.01 11.43 15.52 21.42 15.52 8.11 0 15.21-4.28 19.18-10.7 1.86 0.44 3.81 0.69 5.81 0.69 6.12 0 11.73-2.2 16.07-5.86 2.65 1.44 5.69 2.26 8.92 2.26 4.92 0 9.38-1.91 12.72-5.01 1.89 0.64 3.9 1 6.01 1 6.89 0 12.89-3.73 16.14-9.27 2.31-0.04 4.47-0.7 6.32-1.82 3.2 5.75 9.33 9.65 16.37 9.65 3.18 0 6.18-0.8 8.8-2.2 3.41 4.67 8.9 7.72 15.12 7.72 5.11 0 9.74-2.05 13.12-5.37 3.37 3.28 7.97 5.31 13.05 5.31 5.21 0 9.92-2.13 13.31-5.56 3.49 1.85 7.46 2.9 11.68 2.9 6.94 0 13.22-2.83 17.75-7.4 4.53 4.57 10.81 7.4 17.75 7.4 7.91 0 14.96-3.68 19.54-9.42 2.97 1.99 6.55 3.15 10.39 3.15 0.76 0 1.51-0.06 2.25-0.15 0 0.05 0 0.1 0 0.15 0 13.8 11.19 24.99 24.99 24.99 9.5 0 17.77-5.31 21.99-13.12 1.83 0.42 3.72 0.66 5.68 0.66 4.51 0 8.74-1.2 12.4-3.29 3.43 3.85 8.41 6.29 13.97 6.29 7.53 0 14-4.45 16.98-10.86 2.31 1.02 4.87 1.6 7.56 1.6 1.48 0 2.92-0.19 4.31-0.52 3.44 4.14 8.62 6.78 14.42 6.78 8.38 0 15.47-5.5 17.86-13.09 1.44 0.35 2.94 0.56 4.48 0.56 0.66 0 1.31-0.04 1.95-0.1 3.79 8.99 12.68 15.3 23.04 15.3 9.91 0 18.48-5.77 22.52-14.14 4.74-0.23 9.1-1.9 12.66-4.57 3.17 5.83 9.35 9.79 16.46 9.79 4.35 0 8.34-1.5 11.52-3.98 4.05 6.56 11.31 10.93 19.59 10.93 9.43 0 17.53-5.67 21.08-13.79 4.48 4.24 10.52 6.85 17.17 6.85 13.8 0 24.99-11.19 24.99-24.99C946.12 48.91 934.93 37.73 921.13 37.73z"/>
  <circle fill="#FFFFFF" cx="960.41" cy="48" r="11.5"/>
  <circle fill="#FFFFFF" cx="906.98" cy="27.04" r="4.48"/>
  <circle fill="#FFFFFF" cx="712.09" cy="35.81" r="1.6"/>
  <circle fill="#FFFFFF" cx="706.68" cy="39.5" r="2.38"/>
  <circle fill="#FFFFFF" cx="749.62" cy="38.08" r="1.6"/>
  <circle fill="#FFFFFF" cx="874.38" cy="7.95" r="2.67"/>
  <circle fill="#FFFFFF" cx="881.32" cy="1.6" r="1.6"/>
  <circle fill="#FFFFFF" cx="739.82" cy="42.75" r="2.38"/>
  <circle fill="#FFFFFF" cx="387.78" cy="30.12" r="2.85"/>
  <circle fill="#FFFFFF" cx="448.92" cy="43.32" r="2.85"/>
  <circle fill="#FFFFFF" cx="507.38" cy="39.6" r="2.3"/>
  <circle fill="#FFFFFF" cx="455.5" cy="39.33" r="1.62"/>
  <circle fill="#FFFFFF" cx="513.18" cy="35.98" r="1.29"/>
  <circle fill="#FFFFFF" cx="393.99" cy="26.17" r="1.77"/>
  <circle fill="#FFFFFF" cx="293.43" cy="71.71" r="6.3"/>
  <circle fill="#FFFFFF" cx="600.09" cy="9.25" r="2.64"/>
  <circle fill="#FFFFFF" cx="604.56" cy="4.61" r="0.95"/>
  <circle fill="#FFFFFF" cx="5.05" cy="70.67" r="5.05"/>
  <circle fill="#FFFFFF" cx="126.02" cy="34.72" r="3.03"/>
  <circle fill="#FFFFFF" cx="132.07" cy="31.76" r="1.49"/>
  <path fill="#FFFFFF" d="M164.03 60.77c-2.1 0-4.07 0.53-5.79 1.45 -2.83-4.55-7.86-7.59-13.62-7.59 -3.69 0-7.09 1.26-9.8 3.36 -2.48-3.91-6.35-6.82-10.93-8.06 -0.25-1.4-0.64-2.75-1.18-4.03 0.72-1.13 1.15-2.47 1.15-3.91 0-4.02-3.26-7.27-7.27-7.27 -1.33 0-2.57 0.36-3.65 0.99 -2.53-1.19-5.34-1.87-8.33-1.87 -6.98 0-13.09 3.66-16.57 9.15 -4.23-3.29-9.54-5.25-15.32-5.25 -10.36 0-19.25 6.31-23.04 15.3 -0.64-0.07-1.29-0.1-1.95-0.1 -6.14 0-11.58 2.97-14.99 7.54 -1.54-0.7-3.25-1.1-5.05-1.1 -6.78 0-12.28 5.5-12.28 12.28s5.5 12.28 12.28 12.28c1.8 0 3.51-0.4 5.05-1.1 3.41 4.57 8.85 7.54 14.99 7.54 5.21 0 9.92-2.13 13.31-5.56 3.49 1.85 7.46 2.9 11.68 2.9 0.41 0 0.81-0.01 1.22-0.03 4.29 7.59 12.43 12.71 21.76 12.71 9.74 0 18.18-5.58 22.3-13.72 0.34 0.02 0.67 0.05 1.01 0.05 5.25 0 9.99-2.17 13.4-5.65 2.94 3.46 7.32 5.66 12.21 5.66 4.36 0 8.3-1.74 11.19-4.56 2.18 1.97 5.05 3.17 8.22 3.17 6.78 0 12.28-5.5 12.28-12.28S170.82 60.77 164.03 60.77z"/>
</svg>
