<svg version="1.1" xmlns="http://www.w3.org/2000/svg" x="0px" y="0px" viewBox="0 0 684.9 116" enable-background="new 0 0 684.9 116" xml:space="preserve" class="lensFlare">
  <polygon opacity="0.2" fill="#F9BB70" points="33.5,116 0,58 33.5,0 100.5,0 134,58 100.5,116 "/>
  <polygon opacity="0.2" fill="#F9BB70" points="86,96.5 63.7,58 86,19.5 130.4,19.5 152.6,58 130.4,96.5 "/>
  <polygon opacity="0.3" fill="#EF519A" points="160.5,68.1 154.7,58 160.5,47.9 172.2,47.9 178.1,58 172.2,68.1 "/>
  <polygon opacity="0.6833" fill="#F9BB70" points="280.9,62.1 278.6,58 280.9,53.9 285.7,53.9 288,58 285.7,62.1 "/>
  <polygon opacity="0.4" fill="#F9BB70" points="221,72.9 212.4,58 221,43.1 238.2,43.1 246.7,58 238.2,72.9 "/>
  <polygon opacity="0.2" fill="#F9BB70" points="651.4,0 684.9,58 651.4,116 584.4,116 550.9,58 584.4,0 "/>
  <polygon opacity="0.2" fill="#F9BB70" points="598.9,19.5 621.1,58 598.9,96.5 554.4,96.5 532.2,58 554.4,19.5 "/>
  <polygon opacity="0.3" fill="#EF519A" points="524.4,47.9 530.2,58 524.4,68.1 512.7,68.1 506.8,58 512.7,47.9 "/>
  <polygon opacity="0.6833" fill="#F9BB70" points="403.9,53.9 406.3,58 403.9,62.1 399.2,62.1 396.9,58 399.2,53.9 "/>
  <polygon opacity="0.4" fill="#F9BB70" points="463.9,43.1 472.5,58 463.9,72.9 446.7,72.9 438.1,58 446.7,43.1 "/>
</svg>
